<?xml version="1.0" encoding="utf-8" standalone="no"?>
<!DOCTYPE svg PUBLIC "-//W3C//DTD SVG 1.1//EN"
  "http://www.w3.org/Graphics/SVG/1.1/DTD/svg11.dtd">
<svg height="540pt" version="1.1" viewBox="0 0 720 540" width="720pt" xmlns="http://www.w3.org/2000/svg" xmlns:xlink="http://www.w3.org/1999/xlink">
 <metadata>
  <rdf:RDF xmlns:cc="http://creativecommons.org/ns#" xmlns:dc="http://purl.org/dc/elements/1.1/" xmlns:rdf="http://www.w3.org/1999/02/22-rdf-syntax-ns#">
   <cc:Work>
    <dc:type rdf:resource="http://purl.org/dc/dcmitype/StillImage"/>
    <dc:date>2021-06-15T16:35:29.522882</dc:date>
    <dc:format>image/svg+xml</dc:format>
    <dc:creator>
     <cc:Agent>
      <dc:title>Matplotlib v3.4.2, https://matplotlib.org/</dc:title>
     </cc:Agent>
    </dc:creator>
   </cc:Work>
  </rdf:RDF>
 </metadata>
 <defs>
  <style type="text/css">*{stroke-linecap:butt;stroke-linejoin:round;}</style>
 </defs>
 <g id="figure_1">
  <g id="patch_1">
   <path d="M 0 540 
L 720 540 
L 720 0 
L 0 0 
z
" style="fill:#ffffff;"/>
  </g>
  <g id="axes_1">
   <g id="patch_2">
    <path d="M 90 480.6 
L 648 480.6 
L 648 64.8 
L 90 64.8 
z
" style="fill:#ffffff;"/>
   </g>
   <g id="patch_3">
    <path clip-path="url(#p5a6c305cb2)" d="M 531.013575 480.6 
L 531.013575 64.8 
L 531.855204 64.8 
L 531.855204 480.6 
z
" style="fill:#1f77b4;opacity:0.5;"/>
   </g>
   <g id="patch_4">
    <path clip-path="url(#p5a6c305cb2)" d="M 529.330317 480.6 
L 529.330317 64.8 
L 530.171946 64.8 
L 530.171946 480.6 
z
" style="fill:#1f77b4;opacity:0.5;"/>
   </g>
   <g id="patch_5">
    <path clip-path="url(#p5a6c305cb2)" d="M 528.488688 480.6 
L 528.488688 64.8 
L 529.330317 64.8 
L 529.330317 480.6 
z
" style="fill:#1f77b4;opacity:0.5;"/>
   </g>
   <g id="patch_6">
    <path clip-path="url(#p5a6c305cb2)" d="M 532.696833 480.6 
L 532.696833 64.8 
L 533.538462 64.8 
L 533.538462 480.6 
z
" style="fill:#1f77b4;opacity:0.5;"/>
   </g>
   <g id="patch_7">
    <path clip-path="url(#p5a6c305cb2)" d="M 533.538462 480.6 
L 533.538462 64.8 
L 534.38009 64.8 
L 534.38009 480.6 
z
" style="fill:#1f77b4;opacity:0.5;"/>
   </g>
   <g id="patch_8">
    <path clip-path="url(#p5a6c305cb2)" d="M 536.904977 480.6 
L 536.904977 64.8 
L 537.746606 64.8 
L 537.746606 480.6 
z
" style="fill:#1f77b4;opacity:0.5;"/>
   </g>
   <g id="patch_9">
    <path clip-path="url(#p5a6c305cb2)" d="M 537.746606 480.6 
L 537.746606 64.8 
L 538.588235 64.8 
L 538.588235 480.6 
z
" style="fill:#1f77b4;opacity:0.5;"/>
   </g>
   <g id="patch_10">
    <path clip-path="url(#p5a6c305cb2)" d="M 530.171946 480.6 
L 530.171946 64.8 
L 531.013575 64.8 
L 531.013575 480.6 
z
" style="fill:#1f77b4;opacity:0.5;"/>
   </g>
   <g id="patch_11">
    <path clip-path="url(#p5a6c305cb2)" d="M 552.895928 480.6 
L 552.895928 64.8 
L 553.737557 64.8 
L 553.737557 480.6 
z
" style="fill:#1f77b4;opacity:0.5;"/>
   </g>
   <g id="patch_12">
    <path clip-path="url(#p5a6c305cb2)" d="M 553.737557 480.6 
L 553.737557 64.8 
L 554.579186 64.8 
L 554.579186 480.6 
z
" style="fill:#1f77b4;opacity:0.5;"/>
   </g>
   <g id="patch_13">
    <path clip-path="url(#p5a6c305cb2)" d="M 555.420814 480.6 
L 555.420814 64.8 
L 556.262443 64.8 
L 556.262443 480.6 
z
" style="fill:#1f77b4;opacity:0.5;"/>
   </g>
   <g id="patch_14">
    <path clip-path="url(#p5a6c305cb2)" d="M 556.262443 480.6 
L 556.262443 64.8 
L 557.104072 64.8 
L 557.104072 480.6 
z
" style="fill:#1f77b4;opacity:0.5;"/>
   </g>
   <g id="patch_15">
    <path clip-path="url(#p5a6c305cb2)" d="M 558.78733 480.6 
L 558.78733 64.8 
L 559.628959 64.8 
L 559.628959 480.6 
z
" style="fill:#1f77b4;opacity:0.5;"/>
   </g>
   <g id="patch_16">
    <path clip-path="url(#p5a6c305cb2)" d="M 575.61991 480.6 
L 575.61991 64.8 
L 576.461538 64.8 
L 576.461538 480.6 
z
" style="fill:#1f77b4;opacity:0.5;"/>
   </g>
   <g id="patch_17">
    <path clip-path="url(#p5a6c305cb2)" d="M 576.461538 480.6 
L 576.461538 64.8 
L 577.303167 64.8 
L 577.303167 480.6 
z
" style="fill:#1f77b4;opacity:0.5;"/>
   </g>
   <g id="patch_18">
    <path clip-path="url(#p5a6c305cb2)" d="M 577.303167 480.6 
L 577.303167 64.8 
L 578.144796 64.8 
L 578.144796 480.6 
z
" style="fill:#1f77b4;opacity:0.5;"/>
   </g>
   <g id="patch_19">
    <path clip-path="url(#p5a6c305cb2)" d="M 578.144796 480.6 
L 578.144796 64.8 
L 578.986425 64.8 
L 578.986425 480.6 
z
" style="fill:#1f77b4;opacity:0.5;"/>
   </g>
   <g id="patch_20">
    <path clip-path="url(#p5a6c305cb2)" d="M 578.986425 480.6 
L 578.986425 64.8 
L 579.828054 64.8 
L 579.828054 480.6 
z
" style="fill:#1f77b4;opacity:0.5;"/>
   </g>
   <g id="patch_21">
    <path clip-path="url(#p5a6c305cb2)" d="M 579.828054 480.6 
L 579.828054 64.8 
L 580.669683 64.8 
L 580.669683 480.6 
z
" style="fill:#1f77b4;opacity:0.5;"/>
   </g>
   <g id="patch_22">
    <path clip-path="url(#p5a6c305cb2)" d="M 580.669683 480.6 
L 580.669683 64.8 
L 581.511312 64.8 
L 581.511312 480.6 
z
" style="fill:#1f77b4;opacity:0.5;"/>
   </g>
   <g id="patch_23">
    <path clip-path="url(#p5a6c305cb2)" d="M 581.511312 480.6 
L 581.511312 64.8 
L 582.352941 64.8 
L 582.352941 480.6 
z
" style="fill:#1f77b4;opacity:0.5;"/>
   </g>
   <g id="patch_24">
    <path clip-path="url(#p5a6c305cb2)" d="M 583.19457 480.6 
L 583.19457 64.8 
L 584.036199 64.8 
L 584.036199 480.6 
z
" style="fill:#1f77b4;opacity:0.5;"/>
   </g>
   <g id="patch_25">
    <path clip-path="url(#p5a6c305cb2)" d="M 584.036199 480.6 
L 584.036199 64.8 
L 584.877828 64.8 
L 584.877828 480.6 
z
" style="fill:#1f77b4;opacity:0.5;"/>
   </g>
   <g id="patch_26">
    <path clip-path="url(#p5a6c305cb2)" d="M 584.877828 480.6 
L 584.877828 64.8 
L 585.719457 64.8 
L 585.719457 480.6 
z
" style="fill:#1f77b4;opacity:0.5;"/>
   </g>
   <g id="patch_27">
    <path clip-path="url(#p5a6c305cb2)" d="M 585.719457 480.6 
L 585.719457 64.8 
L 586.561086 64.8 
L 586.561086 480.6 
z
" style="fill:#1f77b4;opacity:0.5;"/>
   </g>
   <g id="patch_28">
    <path clip-path="url(#p5a6c305cb2)" d="M 586.561086 480.6 
L 586.561086 64.8 
L 587.402715 64.8 
L 587.402715 480.6 
z
" style="fill:#1f77b4;opacity:0.5;"/>
   </g>
   <g id="patch_29">
    <path clip-path="url(#p5a6c305cb2)" d="M 587.402715 480.6 
L 587.402715 64.8 
L 588.244344 64.8 
L 588.244344 480.6 
z
" style="fill:#1f77b4;opacity:0.5;"/>
   </g>
   <g id="patch_30">
    <path clip-path="url(#p5a6c305cb2)" d="M 588.244344 480.6 
L 588.244344 64.8 
L 589.085973 64.8 
L 589.085973 480.6 
z
" style="fill:#1f77b4;opacity:0.5;"/>
   </g>
   <g id="patch_31">
    <path clip-path="url(#p5a6c305cb2)" d="M 557.945701 480.6 
L 557.945701 64.8 
L 558.78733 64.8 
L 558.78733 480.6 
z
" style="fill:#1f77b4;opacity:0.5;"/>
   </g>
   <g id="patch_32">
    <path clip-path="url(#p5a6c305cb2)" d="M 582.352941 480.6 
L 582.352941 64.8 
L 583.19457 64.8 
L 583.19457 480.6 
z
" style="fill:#1f77b4;opacity:0.5;"/>
   </g>
   <g id="patch_33">
    <path clip-path="url(#p5a6c305cb2)" d="M 557.104072 480.6 
L 557.104072 64.8 
L 557.945701 64.8 
L 557.945701 480.6 
z
" style="fill:#1f77b4;opacity:0.5;"/>
   </g>
   <g id="patch_34">
    <path clip-path="url(#p5a6c305cb2)" d="M 554.579186 480.6 
L 554.579186 64.8 
L 555.420814 64.8 
L 555.420814 480.6 
z
" style="fill:#1f77b4;opacity:0.5;"/>
   </g>
   <g id="patch_35">
    <path clip-path="url(#p5a6c305cb2)" d="M 531.855204 480.6 
L 531.855204 64.8 
L 532.696833 64.8 
L 532.696833 480.6 
z
" style="fill:#d62728;opacity:0.5;"/>
   </g>
   <g id="patch_36">
    <path clip-path="url(#p5a6c305cb2)" d="M 604.235294 480.6 
L 604.235294 64.8 
L 605.076923 64.8 
L 605.076923 480.6 
z
" style="fill:#d62728;opacity:0.5;"/>
   </g>
   <g id="patch_37">
    <path clip-path="url(#p5a6c305cb2)" d="M 571.411765 480.6 
L 571.411765 64.8 
L 572.253394 64.8 
L 572.253394 480.6 
z
" style="fill:#d62728;opacity:0.5;"/>
   </g>
   <g id="patch_38">
    <path clip-path="url(#p5a6c305cb2)" d="M 526.80543 480.6 
L 526.80543 64.8 
L 527.647059 64.8 
L 527.647059 480.6 
z
" style="fill:#d62728;opacity:0.5;"/>
   </g>
   <g id="patch_39">
    <path clip-path="url(#p5a6c305cb2)" d="M 567.20362 480.6 
L 567.20362 64.8 
L 568.045249 64.8 
L 568.045249 480.6 
z
" style="fill:#d62728;opacity:0.5;"/>
   </g>
   <g id="patch_40">
    <path clip-path="url(#p5a6c305cb2)" d="M 564.678733 480.6 
L 564.678733 64.8 
L 565.520362 64.8 
L 565.520362 480.6 
z
" style="fill:#d62728;opacity:0.5;"/>
   </g>
   <g id="patch_41">
    <path clip-path="url(#p5a6c305cb2)" d="M 563.837104 480.6 
L 563.837104 64.8 
L 564.678733 64.8 
L 564.678733 480.6 
z
" style="fill:#d62728;opacity:0.5;"/>
   </g>
   <g id="patch_42">
    <path clip-path="url(#p5a6c305cb2)" d="M 574.778281 480.6 
L 574.778281 64.8 
L 575.61991 64.8 
L 575.61991 480.6 
z
" style="fill:#d62728;opacity:0.5;"/>
   </g>
   <g id="patch_43">
    <path clip-path="url(#p5a6c305cb2)" d="M 520.914027 480.6 
L 520.914027 64.8 
L 521.755656 64.8 
L 521.755656 480.6 
z
" style="fill:#d62728;opacity:0.5;"/>
   </g>
   <g id="patch_44">
    <path clip-path="url(#p5a6c305cb2)" d="M 573.936652 480.6 
L 573.936652 64.8 
L 574.778281 64.8 
L 574.778281 480.6 
z
" style="fill:#d62728;opacity:0.5;"/>
   </g>
   <g id="patch_45">
    <path clip-path="url(#p5a6c305cb2)" d="M 525.122172 480.6 
L 525.122172 64.8 
L 525.963801 64.8 
L 525.963801 480.6 
z
" style="fill:#d62728;opacity:0.5;"/>
   </g>
   <g id="patch_46">
    <path clip-path="url(#p5a6c305cb2)" d="M 562.995475 480.6 
L 562.995475 64.8 
L 563.837104 64.8 
L 563.837104 480.6 
z
" style="fill:#d62728;opacity:0.5;"/>
   </g>
   <g id="patch_47">
    <path clip-path="url(#p5a6c305cb2)" d="M 545.321267 480.6 
L 545.321267 64.8 
L 546.162896 64.8 
L 546.162896 480.6 
z
" style="fill:#d62728;opacity:0.5;"/>
   </g>
   <g id="patch_48">
    <path clip-path="url(#p5a6c305cb2)" d="M 562.153846 480.6 
L 562.153846 64.8 
L 562.995475 64.8 
L 562.995475 480.6 
z
" style="fill:#d62728;opacity:0.5;"/>
   </g>
   <g id="patch_49">
    <path clip-path="url(#p5a6c305cb2)" d="M 566.361991 480.6 
L 566.361991 64.8 
L 567.20362 64.8 
L 567.20362 480.6 
z
" style="fill:#d62728;opacity:0.5;"/>
   </g>
   <g id="patch_50">
    <path clip-path="url(#p5a6c305cb2)" d="M 525.963801 480.6 
L 525.963801 64.8 
L 526.80543 64.8 
L 526.80543 480.6 
z
" style="fill:#d62728;opacity:0.5;"/>
   </g>
   <g id="patch_51">
    <path clip-path="url(#p5a6c305cb2)" d="M 523.438914 480.6 
L 523.438914 64.8 
L 524.280543 64.8 
L 524.280543 480.6 
z
" style="fill:#d62728;opacity:0.5;"/>
   </g>
   <g id="patch_52">
    <path clip-path="url(#p5a6c305cb2)" d="M 616.0181 480.6 
L 616.0181 64.8 
L 616.859729 64.8 
L 616.859729 480.6 
z
" style="fill:#d62728;opacity:0.5;"/>
   </g>
   <g id="patch_53">
    <path clip-path="url(#p5a6c305cb2)" d="M 619.384615 480.6 
L 619.384615 64.8 
L 620.226244 64.8 
L 620.226244 480.6 
z
" style="fill:#d62728;opacity:0.5;"/>
   </g>
   <g id="patch_54">
    <path clip-path="url(#p5a6c305cb2)" d="M 622.751131 480.6 
L 622.751131 64.8 
L 623.59276 64.8 
L 623.59276 480.6 
z
" style="fill:#d62728;opacity:0.5;"/>
   </g>
   <g id="patch_55">
    <path clip-path="url(#p5a6c305cb2)" d="M 627.800905 480.6 
L 627.800905 64.8 
L 628.642534 64.8 
L 628.642534 480.6 
z
" style="fill:#d62728;opacity:0.5;"/>
   </g>
   <g id="patch_56">
    <path clip-path="url(#p5a6c305cb2)" d="M 637.900452 480.6 
L 637.900452 64.8 
L 638.742081 64.8 
L 638.742081 480.6 
z
" style="fill:#d62728;opacity:0.5;"/>
   </g>
   <g id="patch_57">
    <path clip-path="url(#p5a6c305cb2)" d="M 635.375566 480.6 
L 635.375566 64.8 
L 636.217195 64.8 
L 636.217195 480.6 
z
" style="fill:#d62728;opacity:0.5;"/>
   </g>
   <g id="patch_58">
    <path clip-path="url(#p5a6c305cb2)" d="M 617.701357 480.6 
L 617.701357 64.8 
L 618.542986 64.8 
L 618.542986 480.6 
z
" style="fill:#d62728;opacity:0.5;"/>
   </g>
   <g id="patch_59">
    <path clip-path="url(#p5a6c305cb2)" d="M 642.950226 480.6 
L 642.950226 64.8 
L 643.791855 64.8 
L 643.791855 480.6 
z
" style="fill:#d62728;opacity:0.5;"/>
   </g>
   <g id="patch_60">
    <path clip-path="url(#p5a6c305cb2)" d="M 643.791855 480.6 
L 643.791855 64.8 
L 644.633484 64.8 
L 644.633484 480.6 
z
" style="fill:#d62728;opacity:0.5;"/>
   </g>
   <g id="patch_61">
    <path clip-path="url(#p5a6c305cb2)" d="M 644.633484 480.6 
L 644.633484 64.8 
L 645.475113 64.8 
L 645.475113 480.6 
z
" style="fill:#d62728;opacity:0.5;"/>
   </g>
   <g id="patch_62">
    <path clip-path="url(#p5a6c305cb2)" d="M 519.230769 480.6 
L 519.230769 64.8 
L 520.072398 64.8 
L 520.072398 480.6 
z
" style="fill:#d62728;opacity:0.5;"/>
   </g>
   <g id="patch_63">
    <path clip-path="url(#p5a6c305cb2)" d="M 538.588235 480.6 
L 538.588235 64.8 
L 539.429864 64.8 
L 539.429864 480.6 
z
" style="fill:#d62728;opacity:0.5;"/>
   </g>
   <g id="patch_64">
    <path clip-path="url(#p5a6c305cb2)" d="M 637.058824 480.6 
L 637.058824 64.8 
L 637.900452 64.8 
L 637.900452 480.6 
z
" style="fill:#d62728;opacity:0.5;"/>
   </g>
   <g id="patch_65">
    <path clip-path="url(#p5a6c305cb2)" d="M 636.217195 480.6 
L 636.217195 64.8 
L 637.058824 64.8 
L 637.058824 480.6 
z
" style="fill:#d62728;opacity:0.5;"/>
   </g>
   <g id="patch_66">
    <path clip-path="url(#p5a6c305cb2)" d="M 613.493213 480.6 
L 613.493213 64.8 
L 614.334842 64.8 
L 614.334842 480.6 
z
" style="fill:#d62728;opacity:0.5;"/>
   </g>
   <g id="patch_67">
    <path clip-path="url(#p5a6c305cb2)" d="M 626.117647 480.6 
L 626.117647 64.8 
L 626.959276 64.8 
L 626.959276 480.6 
z
" style="fill:#d62728;opacity:0.5;"/>
   </g>
   <g id="patch_68">
    <path clip-path="url(#p5a6c305cb2)" d="M 628.642534 480.6 
L 628.642534 64.8 
L 629.484163 64.8 
L 629.484163 480.6 
z
" style="fill:#d62728;opacity:0.5;"/>
   </g>
   <g id="patch_69">
    <path clip-path="url(#p5a6c305cb2)" d="M 631.167421 480.6 
L 631.167421 64.8 
L 632.00905 64.8 
L 632.00905 480.6 
z
" style="fill:#d62728;opacity:0.5;"/>
   </g>
   <g id="patch_70">
    <path clip-path="url(#p5a6c305cb2)" d="M 633.692308 480.6 
L 633.692308 64.8 
L 634.533937 64.8 
L 634.533937 480.6 
z
" style="fill:#d62728;opacity:0.5;"/>
   </g>
   <g id="patch_71">
    <path clip-path="url(#p5a6c305cb2)" d="M 607.60181 480.6 
L 607.60181 64.8 
L 608.443439 64.8 
L 608.443439 480.6 
z
" style="fill:#d62728;opacity:0.5;"/>
   </g>
   <g id="patch_72">
    <path clip-path="url(#p5a6c305cb2)" d="M 536.063348 480.6 
L 536.063348 64.8 
L 536.904977 64.8 
L 536.904977 480.6 
z
" style="fill:#d62728;opacity:0.5;"/>
   </g>
   <g id="patch_73">
    <path clip-path="url(#p5a6c305cb2)" d="M 611.809955 480.6 
L 611.809955 64.8 
L 612.651584 64.8 
L 612.651584 480.6 
z
" style="fill:#d62728;opacity:0.5;"/>
   </g>
   <g id="patch_74">
    <path clip-path="url(#p5a6c305cb2)" d="M 642.108597 480.6 
L 642.108597 64.8 
L 642.950226 64.8 
L 642.950226 480.6 
z
" style="fill:#d62728;opacity:0.5;"/>
   </g>
   <g id="patch_75">
    <path clip-path="url(#p5a6c305cb2)" d="M 615.176471 480.6 
L 615.176471 64.8 
L 616.0181 64.8 
L 616.0181 480.6 
z
" style="fill:#d62728;opacity:0.5;"/>
   </g>
   <g id="patch_76">
    <path clip-path="url(#p5a6c305cb2)" d="M 608.443439 480.6 
L 608.443439 64.8 
L 609.285068 64.8 
L 609.285068 480.6 
z
" style="fill:#d62728;opacity:0.5;"/>
   </g>
   <g id="patch_77">
    <path clip-path="url(#p5a6c305cb2)" d="M 621.909502 480.6 
L 621.909502 64.8 
L 622.751131 64.8 
L 622.751131 480.6 
z
" style="fill:#d62728;opacity:0.5;"/>
   </g>
   <g id="patch_78">
    <path clip-path="url(#p5a6c305cb2)" d="M 629.484163 480.6 
L 629.484163 64.8 
L 630.325792 64.8 
L 630.325792 480.6 
z
" style="fill:#d62728;opacity:0.5;"/>
   </g>
   <g id="patch_79">
    <path clip-path="url(#p5a6c305cb2)" d="M 543.638009 480.6 
L 543.638009 64.8 
L 544.479638 64.8 
L 544.479638 480.6 
z
" style="fill:#d62728;opacity:0.5;"/>
   </g>
   <g id="patch_80">
    <path clip-path="url(#p5a6c305cb2)" d="M 534.38009 480.6 
L 534.38009 64.8 
L 535.221719 64.8 
L 535.221719 480.6 
z
" style="fill:#d62728;opacity:0.5;"/>
   </g>
   <g id="patch_81">
    <path clip-path="url(#p5a6c305cb2)" d="M 572.253394 480.6 
L 572.253394 64.8 
L 573.095023 64.8 
L 573.095023 480.6 
z
" style="fill:#d62728;opacity:0.5;"/>
   </g>
   <g id="patch_82">
    <path clip-path="url(#p5a6c305cb2)" d="M 605.076923 480.6 
L 605.076923 64.8 
L 605.918552 64.8 
L 605.918552 480.6 
z
" style="fill:#d62728;opacity:0.5;"/>
   </g>
   <g id="patch_83">
    <path clip-path="url(#p5a6c305cb2)" d="M 616.859729 480.6 
L 616.859729 64.8 
L 617.701357 64.8 
L 617.701357 480.6 
z
" style="fill:#d62728;opacity:0.5;"/>
   </g>
   <g id="patch_84">
    <path clip-path="url(#p5a6c305cb2)" d="M 620.226244 480.6 
L 620.226244 64.8 
L 621.067873 64.8 
L 621.067873 480.6 
z
" style="fill:#d62728;opacity:0.5;"/>
   </g>
   <g id="patch_85">
    <path clip-path="url(#p5a6c305cb2)" d="M 568.045249 480.6 
L 568.045249 64.8 
L 568.886878 64.8 
L 568.886878 480.6 
z
" style="fill:#d62728;opacity:0.5;"/>
   </g>
   <g id="patch_86">
    <path clip-path="url(#p5a6c305cb2)" d="M 632.00905 480.6 
L 632.00905 64.8 
L 632.850679 64.8 
L 632.850679 480.6 
z
" style="fill:#d62728;opacity:0.5;"/>
   </g>
   <g id="patch_87">
    <path clip-path="url(#p5a6c305cb2)" d="M 612.651584 480.6 
L 612.651584 64.8 
L 613.493213 64.8 
L 613.493213 480.6 
z
" style="fill:#d62728;opacity:0.5;"/>
   </g>
   <g id="patch_88">
    <path clip-path="url(#p5a6c305cb2)" d="M 573.095023 480.6 
L 573.095023 64.8 
L 573.936652 64.8 
L 573.936652 480.6 
z
" style="fill:#d62728;opacity:0.5;"/>
   </g>
   <g id="patch_89">
    <path clip-path="url(#p5a6c305cb2)" d="M 618.542986 480.6 
L 618.542986 64.8 
L 619.384615 64.8 
L 619.384615 480.6 
z
" style="fill:#d62728;opacity:0.5;"/>
   </g>
   <g id="patch_90">
    <path clip-path="url(#p5a6c305cb2)" d="M 517.547511 480.6 
L 517.547511 64.8 
L 518.38914 64.8 
L 518.38914 480.6 
z
" style="fill:#d62728;opacity:0.5;"/>
   </g>
   <g id="patch_91">
    <path clip-path="url(#p5a6c305cb2)" d="M 544.479638 480.6 
L 544.479638 64.8 
L 545.321267 64.8 
L 545.321267 480.6 
z
" style="fill:#d62728;opacity:0.5;"/>
   </g>
   <g id="patch_92">
    <path clip-path="url(#p5a6c305cb2)" d="M 542.79638 480.6 
L 542.79638 64.8 
L 543.638009 64.8 
L 543.638009 480.6 
z
" style="fill:#d62728;opacity:0.5;"/>
   </g>
   <g id="patch_93">
    <path clip-path="url(#p5a6c305cb2)" d="M 625.276018 480.6 
L 625.276018 64.8 
L 626.117647 64.8 
L 626.117647 480.6 
z
" style="fill:#d62728;opacity:0.5;"/>
   </g>
   <g id="patch_94">
    <path clip-path="url(#p5a6c305cb2)" d="M 632.850679 480.6 
L 632.850679 64.8 
L 633.692308 64.8 
L 633.692308 480.6 
z
" style="fill:#d62728;opacity:0.5;"/>
   </g>
   <g id="patch_95">
    <path clip-path="url(#p5a6c305cb2)" d="M 606.760181 480.6 
L 606.760181 64.8 
L 607.60181 64.8 
L 607.60181 480.6 
z
" style="fill:#d62728;opacity:0.5;"/>
   </g>
   <g id="patch_96">
    <path clip-path="url(#p5a6c305cb2)" d="M 569.728507 480.6 
L 569.728507 64.8 
L 570.570136 64.8 
L 570.570136 480.6 
z
" style="fill:#d62728;opacity:0.5;"/>
   </g>
   <g id="patch_97">
    <path clip-path="url(#p5a6c305cb2)" d="M 626.959276 480.6 
L 626.959276 64.8 
L 627.800905 64.8 
L 627.800905 480.6 
z
" style="fill:#d62728;opacity:0.5;"/>
   </g>
   <g id="patch_98">
    <path clip-path="url(#p5a6c305cb2)" d="M 610.968326 480.6 
L 610.968326 64.8 
L 611.809955 64.8 
L 611.809955 480.6 
z
" style="fill:#d62728;opacity:0.5;"/>
   </g>
   <g id="patch_99">
    <path clip-path="url(#p5a6c305cb2)" d="M 568.886878 480.6 
L 568.886878 64.8 
L 569.728507 64.8 
L 569.728507 480.6 
z
" style="fill:#d62728;opacity:0.5;"/>
   </g>
   <g id="patch_100">
    <path clip-path="url(#p5a6c305cb2)" d="M 610.126697 480.6 
L 610.126697 64.8 
L 610.968326 64.8 
L 610.968326 480.6 
z
" style="fill:#d62728;opacity:0.5;"/>
   </g>
   <g id="patch_101">
    <path clip-path="url(#p5a6c305cb2)" d="M 522.597285 480.6 
L 522.597285 64.8 
L 522.847144 64.8 
L 522.847144 480.6 
z
" style="fill:#d62728;opacity:0.5;"/>
   </g>
   <g id="patch_102">
    <path clip-path="url(#p5a6c305cb2)" d="M 624.434389 480.6 
L 624.434389 64.8 
L 625.276018 64.8 
L 625.276018 480.6 
z
" style="fill:#d62728;opacity:0.5;"/>
   </g>
   <g id="patch_103">
    <path clip-path="url(#p5a6c305cb2)" d="M 605.918552 480.6 
L 605.918552 64.8 
L 606.760181 64.8 
L 606.760181 480.6 
z
" style="fill:#d62728;opacity:0.5;"/>
   </g>
   <g id="patch_104">
    <path clip-path="url(#p5a6c305cb2)" d="M 540.271493 480.6 
L 540.271493 64.8 
L 541.113122 64.8 
L 541.113122 480.6 
z
" style="fill:#d62728;opacity:0.5;"/>
   </g>
   <g id="patch_105">
    <path clip-path="url(#p5a6c305cb2)" d="M 561.312217 480.6 
L 561.312217 64.8 
L 562.153846 64.8 
L 562.153846 480.6 
z
" style="fill:#d62728;opacity:0.5;"/>
   </g>
   <g id="patch_106">
    <path clip-path="url(#p5a6c305cb2)" d="M 570.570136 480.6 
L 570.570136 64.8 
L 571.411765 64.8 
L 571.411765 480.6 
z
" style="fill:#d62728;opacity:0.5;"/>
   </g>
   <g id="patch_107">
    <path clip-path="url(#p5a6c305cb2)" d="M 535.221719 480.6 
L 535.221719 64.8 
L 536.063348 64.8 
L 536.063348 480.6 
z
" style="fill:#d62728;opacity:0.5;"/>
   </g>
   <g id="patch_108">
    <path clip-path="url(#p5a6c305cb2)" d="M 560.470588 480.6 
L 560.470588 64.8 
L 561.312217 64.8 
L 561.312217 480.6 
z
" style="fill:#d62728;opacity:0.5;"/>
   </g>
   <g id="patch_109">
    <path clip-path="url(#p5a6c305cb2)" d="M 90 480.6 
L 90 64.8 
L 90.27616 64.8 
L 90.27616 480.6 
z
" style="fill:#9467bd;opacity:0.5;"/>
   </g>
   <g id="patch_110">
    <path clip-path="url(#p5a6c305cb2)" d="M 90.841629 480.6 
L 90.841629 64.8 
L 91.683258 64.8 
L 91.683258 480.6 
z
" style="fill:#9467bd;opacity:0.5;"/>
   </g>
   <g id="patch_111">
    <path clip-path="url(#p5a6c305cb2)" d="M 91.683258 480.6 
L 91.683258 64.8 
L 92.524887 64.8 
L 92.524887 480.6 
z
" style="fill:#9467bd;opacity:0.5;"/>
   </g>
   <g id="patch_112">
    <path clip-path="url(#p5a6c305cb2)" d="M 92.524887 480.6 
L 92.524887 64.8 
L 93.366516 64.8 
L 93.366516 480.6 
z
" style="fill:#9467bd;opacity:0.5;"/>
   </g>
   <g id="patch_113">
    <path clip-path="url(#p5a6c305cb2)" d="M 93.366516 480.6 
L 93.366516 64.8 
L 94.208145 64.8 
L 94.208145 480.6 
z
" style="fill:#9467bd;opacity:0.5;"/>
   </g>
   <g id="patch_114">
    <path clip-path="url(#p5a6c305cb2)" d="M 94.208145 480.6 
L 94.208145 64.8 
L 95.049774 64.8 
L 95.049774 480.6 
z
" style="fill:#9467bd;opacity:0.5;"/>
   </g>
   <g id="patch_115">
    <path clip-path="url(#p5a6c305cb2)" d="M 95.049774 480.6 
L 95.049774 64.8 
L 95.891403 64.8 
L 95.891403 480.6 
z
" style="fill:#9467bd;opacity:0.5;"/>
   </g>
   <g id="patch_116">
    <path clip-path="url(#p5a6c305cb2)" d="M 95.891403 480.6 
L 95.891403 64.8 
L 96.733032 64.8 
L 96.733032 480.6 
z
" style="fill:#9467bd;opacity:0.5;"/>
   </g>
   <g id="patch_117">
    <path clip-path="url(#p5a6c305cb2)" d="M 96.733032 480.6 
L 96.733032 64.8 
L 97.574661 64.8 
L 97.574661 480.6 
z
" style="fill:#9467bd;opacity:0.5;"/>
   </g>
   <g id="patch_118">
    <path clip-path="url(#p5a6c305cb2)" d="M 97.574661 480.6 
L 97.574661 64.8 
L 98.41629 64.8 
L 98.41629 480.6 
z
" style="fill:#9467bd;opacity:0.5;"/>
   </g>
   <g id="patch_119">
    <path clip-path="url(#p5a6c305cb2)" d="M 98.41629 480.6 
L 98.41629 64.8 
L 99.257919 64.8 
L 99.257919 480.6 
z
" style="fill:#9467bd;opacity:0.5;"/>
   </g>
   <g id="patch_120">
    <path clip-path="url(#p5a6c305cb2)" d="M 99.257919 480.6 
L 99.257919 64.8 
L 100.099548 64.8 
L 100.099548 480.6 
z
" style="fill:#9467bd;opacity:0.5;"/>
   </g>
   <g id="patch_121">
    <path clip-path="url(#p5a6c305cb2)" d="M 100.099548 480.6 
L 100.099548 64.8 
L 100.941176 64.8 
L 100.941176 480.6 
z
" style="fill:#9467bd;opacity:0.5;"/>
   </g>
   <g id="patch_122">
    <path clip-path="url(#p5a6c305cb2)" d="M 100.941176 480.6 
L 100.941176 64.8 
L 101.782805 64.8 
L 101.782805 480.6 
z
" style="fill:#9467bd;opacity:0.5;"/>
   </g>
   <g id="patch_123">
    <path clip-path="url(#p5a6c305cb2)" d="M 101.782805 480.6 
L 101.782805 64.8 
L 102.624434 64.8 
L 102.624434 480.6 
z
" style="fill:#9467bd;opacity:0.5;"/>
   </g>
   <g id="patch_124">
    <path clip-path="url(#p5a6c305cb2)" d="M 102.624434 480.6 
L 102.624434 64.8 
L 103.466063 64.8 
L 103.466063 480.6 
z
" style="fill:#9467bd;opacity:0.5;"/>
   </g>
   <g id="patch_125">
    <path clip-path="url(#p5a6c305cb2)" d="M 103.466063 480.6 
L 103.466063 64.8 
L 104.307692 64.8 
L 104.307692 480.6 
z
" style="fill:#9467bd;opacity:0.5;"/>
   </g>
   <g id="patch_126">
    <path clip-path="url(#p5a6c305cb2)" d="M 521.755656 480.6 
L 521.755656 64.8 
L 521.795107 64.8 
L 521.795107 480.6 
z
" style="fill:#2ca02c;opacity:0.5;"/>
   </g>
   <g id="patch_127">
    <path clip-path="url(#p5a6c305cb2)" d="M 524.280543 480.6 
L 524.280543 64.8 
L 525.122172 64.8 
L 525.122172 480.6 
z
" style="fill:#2ca02c;opacity:0.5;"/>
   </g>
   <g id="patch_128">
    <path clip-path="url(#p5a6c305cb2)" d="M 559.628959 480.6 
L 559.628959 64.8 
L 560.470588 64.8 
L 560.470588 480.6 
z
" style="fill:#2ca02c;opacity:0.5;"/>
   </g>
   <g id="patch_129">
    <path clip-path="url(#p5a6c305cb2)" d="M 565.520362 480.6 
L 565.520362 64.8 
L 566.361991 64.8 
L 566.361991 480.6 
z
" style="fill:#2ca02c;opacity:0.5;"/>
   </g>
   <g id="patch_130">
    <path clip-path="url(#p5a6c305cb2)" d="M 621.067873 480.6 
L 621.067873 64.8 
L 621.909502 64.8 
L 621.909502 480.6 
z
" style="fill:#2ca02c;opacity:0.5;"/>
   </g>
   <g id="patch_131">
    <path clip-path="url(#p5a6c305cb2)" d="M 623.59276 480.6 
L 623.59276 64.8 
L 624.434389 64.8 
L 624.434389 480.6 
z
" style="fill:#2ca02c;opacity:0.5;"/>
   </g>
   <g id="patch_132">
    <path clip-path="url(#p5a6c305cb2)" d="M 527.647059 480.6 
L 527.647059 64.8 
L 528.107325 64.8 
L 528.107325 480.6 
z
" style="fill:#7f7f7f;opacity:0.5;"/>
   </g>
   <g id="patch_133">
    <path clip-path="url(#p5a6c305cb2)" d="M 602.552036 480.6 
L 602.552036 64.8 
L 603.433117 64.8 
L 603.433117 480.6 
z
" style="fill:#7f7f7f;opacity:0.5;"/>
   </g>
   <g id="patch_134">
    <path clip-path="url(#p5a6c305cb2)" d="M 516.705882 480.6 
L 516.705882 64.8 
L 517.139847 64.8 
L 517.139847 480.6 
z
" style="fill:#bcbd22;opacity:0.5;"/>
   </g>
   <g id="patch_135">
    <path clip-path="url(#p5a6c305cb2)" d="M 528.67002 480.6 
L 529.513669 480.6 
L 529.513669 452.88 
L 528.67002 452.88 
z
"/>
   </g>
   <g id="patch_136">
    <path clip-path="url(#p5a6c305cb2)" d="M 529.513669 480.6 
L 530.357317 480.6 
L 530.357317 439.02 
L 529.513669 439.02 
z
"/>
   </g>
   <g id="patch_137">
    <path clip-path="url(#p5a6c305cb2)" d="M 530.357317 480.6 
L 531.200965 480.6 
L 531.200965 466.74 
L 530.357317 466.74 
z
"/>
   </g>
   <g id="patch_138">
    <path clip-path="url(#p5a6c305cb2)" d="M 531.200965 480.6 
L 532.044614 480.6 
L 532.044614 480.6 
L 531.200965 480.6 
z
"/>
   </g>
   <g id="patch_139">
    <path clip-path="url(#p5a6c305cb2)" d="M 532.044614 480.6 
L 532.888262 480.6 
L 532.888262 397.44 
L 532.044614 397.44 
z
"/>
   </g>
   <g id="patch_140">
    <path clip-path="url(#p5a6c305cb2)" d="M 532.888262 480.6 
L 533.73191 480.6 
L 533.73191 439.02 
L 532.888262 439.02 
z
"/>
   </g>
   <g id="patch_141">
    <path clip-path="url(#p5a6c305cb2)" d="M 533.73191 480.6 
L 534.575559 480.6 
L 534.575559 480.6 
L 533.73191 480.6 
z
"/>
   </g>
   <g id="patch_142">
    <path clip-path="url(#p5a6c305cb2)" d="M 534.575559 480.6 
L 535.419207 480.6 
L 535.419207 480.6 
L 534.575559 480.6 
z
"/>
   </g>
   <g id="patch_143">
    <path clip-path="url(#p5a6c305cb2)" d="M 535.419207 480.6 
L 536.262855 480.6 
L 536.262855 480.6 
L 535.419207 480.6 
z
"/>
   </g>
   <g id="patch_144">
    <path clip-path="url(#p5a6c305cb2)" d="M 536.262855 480.6 
L 537.106504 480.6 
L 537.106504 480.6 
L 536.262855 480.6 
z
"/>
   </g>
   <g id="patch_145">
    <path clip-path="url(#p5a6c305cb2)" d="M 537.106504 480.6 
L 537.950152 480.6 
L 537.950152 466.74 
L 537.106504 466.74 
z
"/>
   </g>
   <g id="patch_146">
    <path clip-path="url(#p5a6c305cb2)" d="M 537.950152 480.6 
L 538.7938 480.6 
L 538.7938 452.88 
L 537.950152 452.88 
z
"/>
   </g>
   <g id="patch_147">
    <path clip-path="url(#p5a6c305cb2)" d="M 538.7938 480.6 
L 539.637449 480.6 
L 539.637449 480.6 
L 538.7938 480.6 
z
"/>
   </g>
   <g id="patch_148">
    <path clip-path="url(#p5a6c305cb2)" d="M 539.637449 480.6 
L 540.481097 480.6 
L 540.481097 480.6 
L 539.637449 480.6 
z
"/>
   </g>
   <g id="patch_149">
    <path clip-path="url(#p5a6c305cb2)" d="M 540.481097 480.6 
L 541.324745 480.6 
L 541.324745 466.74 
L 540.481097 466.74 
z
"/>
   </g>
   <g id="patch_150">
    <path clip-path="url(#p5a6c305cb2)" d="M 541.324745 480.6 
L 542.168394 480.6 
L 542.168394 480.6 
L 541.324745 480.6 
z
"/>
   </g>
   <g id="patch_151">
    <path clip-path="url(#p5a6c305cb2)" d="M 542.168394 480.6 
L 543.012042 480.6 
L 543.012042 480.6 
L 542.168394 480.6 
z
"/>
   </g>
   <g id="patch_152">
    <path clip-path="url(#p5a6c305cb2)" d="M 543.012042 480.6 
L 543.85569 480.6 
L 543.85569 480.6 
L 543.012042 480.6 
z
"/>
   </g>
   <g id="patch_153">
    <path clip-path="url(#p5a6c305cb2)" d="M 543.85569 480.6 
L 544.699339 480.6 
L 544.699339 480.6 
L 543.85569 480.6 
z
"/>
   </g>
   <g id="patch_154">
    <path clip-path="url(#p5a6c305cb2)" d="M 544.699339 480.6 
L 545.542987 480.6 
L 545.542987 466.74 
L 544.699339 466.74 
z
"/>
   </g>
   <g id="patch_155">
    <path clip-path="url(#p5a6c305cb2)" d="M 545.542987 480.6 
L 546.386635 480.6 
L 546.386635 480.6 
L 545.542987 480.6 
z
"/>
   </g>
   <g id="patch_156">
    <path clip-path="url(#p5a6c305cb2)" d="M 546.386635 480.6 
L 547.230284 480.6 
L 547.230284 480.6 
L 546.386635 480.6 
z
"/>
   </g>
   <g id="patch_157">
    <path clip-path="url(#p5a6c305cb2)" d="M 547.230284 480.6 
L 548.073932 480.6 
L 548.073932 480.6 
L 547.230284 480.6 
z
"/>
   </g>
   <g id="patch_158">
    <path clip-path="url(#p5a6c305cb2)" d="M 548.073932 480.6 
L 548.91758 480.6 
L 548.91758 480.6 
L 548.073932 480.6 
z
"/>
   </g>
   <g id="patch_159">
    <path clip-path="url(#p5a6c305cb2)" d="M 548.91758 480.6 
L 549.761229 480.6 
L 549.761229 480.6 
L 548.91758 480.6 
z
"/>
   </g>
   <g id="patch_160">
    <path clip-path="url(#p5a6c305cb2)" d="M 549.761229 480.6 
L 550.604877 480.6 
L 550.604877 480.6 
L 549.761229 480.6 
z
"/>
   </g>
   <g id="patch_161">
    <path clip-path="url(#p5a6c305cb2)" d="M 550.604877 480.6 
L 551.448526 480.6 
L 551.448526 480.6 
L 550.604877 480.6 
z
"/>
   </g>
   <g id="patch_162">
    <path clip-path="url(#p5a6c305cb2)" d="M 551.448526 480.6 
L 552.292174 480.6 
L 552.292174 480.6 
L 551.448526 480.6 
z
"/>
   </g>
   <g id="patch_163">
    <path clip-path="url(#p5a6c305cb2)" d="M 552.292174 480.6 
L 553.135822 480.6 
L 553.135822 480.6 
L 552.292174 480.6 
z
"/>
   </g>
   <g id="patch_164">
    <path clip-path="url(#p5a6c305cb2)" d="M 553.135822 480.6 
L 553.979471 480.6 
L 553.979471 480.6 
L 553.135822 480.6 
z
"/>
   </g>
   <g id="patch_165">
    <path clip-path="url(#p5a6c305cb2)" d="M 553.979471 480.6 
L 554.823119 480.6 
L 554.823119 480.6 
L 553.979471 480.6 
z
"/>
   </g>
   <g id="patch_166">
    <path clip-path="url(#p5a6c305cb2)" d="M 554.823119 480.6 
L 555.666767 480.6 
L 555.666767 439.02 
L 554.823119 439.02 
z
"/>
   </g>
   <g id="patch_167">
    <path clip-path="url(#p5a6c305cb2)" d="M 555.666767 480.6 
L 556.510416 480.6 
L 556.510416 466.74 
L 555.666767 466.74 
z
"/>
   </g>
   <g id="patch_168">
    <path clip-path="url(#p5a6c305cb2)" d="M 556.510416 480.6 
L 557.354064 480.6 
L 557.354064 466.74 
L 556.510416 466.74 
z
"/>
   </g>
   <g id="patch_169">
    <path clip-path="url(#p5a6c305cb2)" d="M 557.354064 480.6 
L 558.197712 480.6 
L 558.197712 480.6 
L 557.354064 480.6 
z
"/>
   </g>
   <g id="patch_170">
    <path clip-path="url(#p5a6c305cb2)" d="M 558.197712 480.6 
L 559.041361 480.6 
L 559.041361 480.6 
L 558.197712 480.6 
z
"/>
   </g>
   <g id="patch_171">
    <path clip-path="url(#p5a6c305cb2)" d="M 559.041361 480.6 
L 559.885009 480.6 
L 559.885009 480.6 
L 559.041361 480.6 
z
"/>
   </g>
   <g id="patch_172">
    <path clip-path="url(#p5a6c305cb2)" d="M 559.885009 480.6 
L 560.728657 480.6 
L 560.728657 480.6 
L 559.885009 480.6 
z
"/>
   </g>
   <g id="patch_173">
    <path clip-path="url(#p5a6c305cb2)" d="M 560.728657 480.6 
L 561.572306 480.6 
L 561.572306 466.74 
L 560.728657 466.74 
z
"/>
   </g>
   <g id="patch_174">
    <path clip-path="url(#p5a6c305cb2)" d="M 561.572306 480.6 
L 562.415954 480.6 
L 562.415954 480.6 
L 561.572306 480.6 
z
"/>
   </g>
   <g id="patch_175">
    <path clip-path="url(#p5a6c305cb2)" d="M 562.415954 480.6 
L 563.259602 480.6 
L 563.259602 480.6 
L 562.415954 480.6 
z
"/>
   </g>
   <g id="patch_176">
    <path clip-path="url(#p5a6c305cb2)" d="M 563.259602 480.6 
L 564.103251 480.6 
L 564.103251 480.6 
L 563.259602 480.6 
z
"/>
   </g>
   <g id="patch_177">
    <path clip-path="url(#p5a6c305cb2)" d="M 564.103251 480.6 
L 564.946899 480.6 
L 564.946899 480.6 
L 564.103251 480.6 
z
"/>
   </g>
   <g id="patch_178">
    <path clip-path="url(#p5a6c305cb2)" d="M 564.946899 480.6 
L 565.790547 480.6 
L 565.790547 466.74 
L 564.946899 466.74 
z
"/>
   </g>
   <g id="patch_179">
    <path clip-path="url(#p5a6c305cb2)" d="M 565.790547 480.6 
L 566.634196 480.6 
L 566.634196 480.6 
L 565.790547 480.6 
z
"/>
   </g>
   <g id="patch_180">
    <path clip-path="url(#p5a6c305cb2)" d="M 566.634196 480.6 
L 567.477844 480.6 
L 567.477844 480.6 
L 566.634196 480.6 
z
"/>
   </g>
   <g id="patch_181">
    <path clip-path="url(#p5a6c305cb2)" d="M 567.477844 480.6 
L 568.321492 480.6 
L 568.321492 480.6 
L 567.477844 480.6 
z
"/>
   </g>
   <g id="patch_182">
    <path clip-path="url(#p5a6c305cb2)" d="M 568.321492 480.6 
L 569.165141 480.6 
L 569.165141 480.6 
L 568.321492 480.6 
z
"/>
   </g>
   <g id="patch_183">
    <path clip-path="url(#p5a6c305cb2)" d="M 569.165141 480.6 
L 570.008789 480.6 
L 570.008789 452.88 
L 569.165141 452.88 
z
"/>
   </g>
   <g id="patch_184">
    <path clip-path="url(#p5a6c305cb2)" d="M 570.008789 480.6 
L 570.852437 480.6 
L 570.852437 480.6 
L 570.008789 480.6 
z
"/>
   </g>
   <g id="patch_185">
    <path clip-path="url(#p5a6c305cb2)" d="M 570.852437 480.6 
L 571.696086 480.6 
L 571.696086 480.6 
L 570.852437 480.6 
z
"/>
   </g>
   <g id="patch_186">
    <path clip-path="url(#p5a6c305cb2)" d="M 571.696086 480.6 
L 572.539734 480.6 
L 572.539734 480.6 
L 571.696086 480.6 
z
"/>
   </g>
   <g id="patch_187">
    <path clip-path="url(#p5a6c305cb2)" d="M 572.539734 480.6 
L 573.383382 480.6 
L 573.383382 480.6 
L 572.539734 480.6 
z
"/>
   </g>
   <g id="patch_188">
    <path clip-path="url(#p5a6c305cb2)" d="M 573.383382 480.6 
L 574.227031 480.6 
L 574.227031 466.74 
L 573.383382 466.74 
z
"/>
   </g>
   <g id="patch_189">
    <path clip-path="url(#p5a6c305cb2)" d="M 574.227031 480.6 
L 575.070679 480.6 
L 575.070679 480.6 
L 574.227031 480.6 
z
"/>
   </g>
   <g id="patch_190">
    <path clip-path="url(#p5a6c305cb2)" d="M 575.070679 480.6 
L 575.914328 480.6 
L 575.914328 466.74 
L 575.070679 466.74 
z
"/>
   </g>
   <g id="patch_191">
    <path clip-path="url(#p5a6c305cb2)" d="M 575.914328 480.6 
L 576.757976 480.6 
L 576.757976 480.6 
L 575.914328 480.6 
z
"/>
   </g>
   <g id="patch_192">
    <path clip-path="url(#p5a6c305cb2)" d="M 576.757976 480.6 
L 577.601624 480.6 
L 577.601624 480.6 
L 576.757976 480.6 
z
"/>
   </g>
   <g id="patch_193">
    <path clip-path="url(#p5a6c305cb2)" d="M 577.601624 480.6 
L 578.445273 480.6 
L 578.445273 466.74 
L 577.601624 466.74 
z
"/>
   </g>
   <g id="patch_194">
    <path clip-path="url(#p5a6c305cb2)" d="M 578.445273 480.6 
L 579.288921 480.6 
L 579.288921 452.88 
L 578.445273 452.88 
z
"/>
   </g>
   <g id="patch_195">
    <path clip-path="url(#p5a6c305cb2)" d="M 579.288921 480.6 
L 580.132569 480.6 
L 580.132569 480.6 
L 579.288921 480.6 
z
"/>
   </g>
   <g id="patch_196">
    <path clip-path="url(#p5a6c305cb2)" d="M 580.132569 480.6 
L 580.976218 480.6 
L 580.976218 466.74 
L 580.132569 466.74 
z
"/>
   </g>
   <g id="patch_197">
    <path clip-path="url(#p5a6c305cb2)" d="M 580.976218 480.6 
L 581.819866 480.6 
L 581.819866 480.6 
L 580.976218 480.6 
z
"/>
   </g>
   <g id="patch_198">
    <path clip-path="url(#p5a6c305cb2)" d="M 581.819866 480.6 
L 582.663514 480.6 
L 582.663514 466.74 
L 581.819866 466.74 
z
"/>
   </g>
   <g id="patch_199">
    <path clip-path="url(#p5a6c305cb2)" d="M 582.663514 480.6 
L 583.507163 480.6 
L 583.507163 480.6 
L 582.663514 480.6 
z
"/>
   </g>
   <g id="patch_200">
    <path clip-path="url(#p5a6c305cb2)" d="M 583.507163 480.6 
L 584.350811 480.6 
L 584.350811 466.74 
L 583.507163 466.74 
z
"/>
   </g>
   <g id="patch_201">
    <path clip-path="url(#p5a6c305cb2)" d="M 584.350811 480.6 
L 585.194459 480.6 
L 585.194459 480.6 
L 584.350811 480.6 
z
"/>
   </g>
   <g id="patch_202">
    <path clip-path="url(#p5a6c305cb2)" d="M 585.194459 480.6 
L 586.038108 480.6 
L 586.038108 466.74 
L 585.194459 466.74 
z
"/>
   </g>
   <g id="patch_203">
    <path clip-path="url(#p5a6c305cb2)" d="M 586.038108 480.6 
L 586.881756 480.6 
L 586.881756 480.6 
L 586.038108 480.6 
z
"/>
   </g>
   <g id="patch_204">
    <path clip-path="url(#p5a6c305cb2)" d="M 586.881756 480.6 
L 587.725404 480.6 
L 587.725404 480.6 
L 586.881756 480.6 
z
"/>
   </g>
   <g id="patch_205">
    <path clip-path="url(#p5a6c305cb2)" d="M 587.725404 480.6 
L 588.569053 480.6 
L 588.569053 466.74 
L 587.725404 466.74 
z
"/>
   </g>
   <g id="patch_206">
    <path clip-path="url(#p5a6c305cb2)" d="M 588.569053 480.6 
L 589.412701 480.6 
L 589.412701 452.88 
L 588.569053 452.88 
z
"/>
   </g>
   <g id="patch_207">
    <path clip-path="url(#p5a6c305cb2)" d="M 589.412701 480.6 
L 590.256349 480.6 
L 590.256349 480.6 
L 589.412701 480.6 
z
"/>
   </g>
   <g id="patch_208">
    <path clip-path="url(#p5a6c305cb2)" d="M 590.256349 480.6 
L 591.099998 480.6 
L 591.099998 480.6 
L 590.256349 480.6 
z
"/>
   </g>
   <g id="patch_209">
    <path clip-path="url(#p5a6c305cb2)" d="M 591.099998 480.6 
L 591.943646 480.6 
L 591.943646 480.6 
L 591.099998 480.6 
z
"/>
   </g>
   <g id="patch_210">
    <path clip-path="url(#p5a6c305cb2)" d="M 591.943646 480.6 
L 592.787294 480.6 
L 592.787294 480.6 
L 591.943646 480.6 
z
"/>
   </g>
   <g id="patch_211">
    <path clip-path="url(#p5a6c305cb2)" d="M 592.787294 480.6 
L 593.630943 480.6 
L 593.630943 480.6 
L 592.787294 480.6 
z
"/>
   </g>
   <g id="patch_212">
    <path clip-path="url(#p5a6c305cb2)" d="M 593.630943 480.6 
L 594.474591 480.6 
L 594.474591 480.6 
L 593.630943 480.6 
z
"/>
   </g>
   <g id="patch_213">
    <path clip-path="url(#p5a6c305cb2)" d="M 594.474591 480.6 
L 595.318239 480.6 
L 595.318239 480.6 
L 594.474591 480.6 
z
"/>
   </g>
   <g id="patch_214">
    <path clip-path="url(#p5a6c305cb2)" d="M 595.318239 480.6 
L 596.161888 480.6 
L 596.161888 480.6 
L 595.318239 480.6 
z
"/>
   </g>
   <g id="patch_215">
    <path clip-path="url(#p5a6c305cb2)" d="M 596.161888 480.6 
L 597.005536 480.6 
L 597.005536 480.6 
L 596.161888 480.6 
z
"/>
   </g>
   <g id="patch_216">
    <path clip-path="url(#p5a6c305cb2)" d="M 597.005536 480.6 
L 597.849184 480.6 
L 597.849184 480.6 
L 597.005536 480.6 
z
"/>
   </g>
   <g id="patch_217">
    <path clip-path="url(#p5a6c305cb2)" d="M 597.849184 480.6 
L 598.692833 480.6 
L 598.692833 480.6 
L 597.849184 480.6 
z
"/>
   </g>
   <g id="patch_218">
    <path clip-path="url(#p5a6c305cb2)" d="M 598.692833 480.6 
L 599.536481 480.6 
L 599.536481 480.6 
L 598.692833 480.6 
z
"/>
   </g>
   <g id="patch_219">
    <path clip-path="url(#p5a6c305cb2)" d="M 599.536481 480.6 
L 600.38013 480.6 
L 600.38013 480.6 
L 599.536481 480.6 
z
"/>
   </g>
   <g id="patch_220">
    <path clip-path="url(#p5a6c305cb2)" d="M 600.38013 480.6 
L 601.223778 480.6 
L 601.223778 480.6 
L 600.38013 480.6 
z
"/>
   </g>
   <g id="patch_221">
    <path clip-path="url(#p5a6c305cb2)" d="M 601.223778 480.6 
L 602.067426 480.6 
L 602.067426 480.6 
L 601.223778 480.6 
z
"/>
   </g>
   <g id="patch_222">
    <path clip-path="url(#p5a6c305cb2)" d="M 602.067426 480.6 
L 602.911075 480.6 
L 602.911075 480.6 
L 602.067426 480.6 
z
"/>
   </g>
   <g id="patch_223">
    <path clip-path="url(#p5a6c305cb2)" d="M 602.911075 480.6 
L 603.754723 480.6 
L 603.754723 480.6 
L 602.911075 480.6 
z
"/>
   </g>
   <g id="patch_224">
    <path clip-path="url(#p5a6c305cb2)" d="M 603.754723 480.6 
L 604.598371 480.6 
L 604.598371 480.6 
L 603.754723 480.6 
z
"/>
   </g>
   <g id="patch_225">
    <path clip-path="url(#p5a6c305cb2)" d="M 604.598371 480.6 
L 605.44202 480.6 
L 605.44202 480.6 
L 604.598371 480.6 
z
"/>
   </g>
   <g id="patch_226">
    <path clip-path="url(#p5a6c305cb2)" d="M 605.44202 480.6 
L 606.285668 480.6 
L 606.285668 480.6 
L 605.44202 480.6 
z
"/>
   </g>
   <g id="patch_227">
    <path clip-path="url(#p5a6c305cb2)" d="M 606.285668 480.6 
L 607.129316 480.6 
L 607.129316 480.6 
L 606.285668 480.6 
z
"/>
   </g>
   <g id="patch_228">
    <path clip-path="url(#p5a6c305cb2)" d="M 607.129316 480.6 
L 607.972965 480.6 
L 607.972965 480.6 
L 607.129316 480.6 
z
"/>
   </g>
   <g id="patch_229">
    <path clip-path="url(#p5a6c305cb2)" d="M 607.972965 480.6 
L 608.816613 480.6 
L 608.816613 452.88 
L 607.972965 452.88 
z
"/>
   </g>
   <g id="patch_230">
    <path clip-path="url(#p5a6c305cb2)" d="M 608.816613 480.6 
L 609.660261 480.6 
L 609.660261 480.6 
L 608.816613 480.6 
z
"/>
   </g>
   <g id="patch_231">
    <path clip-path="url(#p5a6c305cb2)" d="M 609.660261 480.6 
L 610.50391 480.6 
L 610.50391 480.6 
L 609.660261 480.6 
z
"/>
   </g>
   <g id="patch_232">
    <path clip-path="url(#p5a6c305cb2)" d="M 610.50391 480.6 
L 611.347558 480.6 
L 611.347558 480.6 
L 610.50391 480.6 
z
"/>
   </g>
   <g id="patch_233">
    <path clip-path="url(#p5a6c305cb2)" d="M 611.347558 480.6 
L 612.191206 480.6 
L 612.191206 480.6 
L 611.347558 480.6 
z
"/>
   </g>
   <g id="patch_234">
    <path clip-path="url(#p5a6c305cb2)" d="M 612.191206 480.6 
L 613.034855 480.6 
L 613.034855 480.6 
L 612.191206 480.6 
z
"/>
   </g>
   <g id="patch_235">
    <path clip-path="url(#p5a6c305cb2)" d="M 613.034855 480.6 
L 613.878503 480.6 
L 613.878503 480.6 
L 613.034855 480.6 
z
"/>
   </g>
   <g id="patch_236">
    <path clip-path="url(#p5a6c305cb2)" d="M 613.878503 480.6 
L 614.722151 480.6 
L 614.722151 480.6 
L 613.878503 480.6 
z
"/>
   </g>
   <g id="patch_237">
    <path clip-path="url(#p5a6c305cb2)" d="M 614.722151 480.6 
L 615.5658 480.6 
L 615.5658 480.6 
L 614.722151 480.6 
z
"/>
   </g>
   <g id="patch_238">
    <path clip-path="url(#p5a6c305cb2)" d="M 615.5658 480.6 
L 616.409448 480.6 
L 616.409448 480.6 
L 615.5658 480.6 
z
"/>
   </g>
   <g id="patch_239">
    <path clip-path="url(#p5a6c305cb2)" d="M 616.409448 480.6 
L 617.253096 480.6 
L 617.253096 480.6 
L 616.409448 480.6 
z
"/>
   </g>
   <g id="patch_240">
    <path clip-path="url(#p5a6c305cb2)" d="M 617.253096 480.6 
L 618.096745 480.6 
L 618.096745 480.6 
L 617.253096 480.6 
z
"/>
   </g>
   <g id="patch_241">
    <path clip-path="url(#p5a6c305cb2)" d="M 618.096745 480.6 
L 618.940393 480.6 
L 618.940393 480.6 
L 618.096745 480.6 
z
"/>
   </g>
   <g id="patch_242">
    <path clip-path="url(#p5a6c305cb2)" d="M 618.940393 480.6 
L 619.784041 480.6 
L 619.784041 480.6 
L 618.940393 480.6 
z
"/>
   </g>
   <g id="patch_243">
    <path clip-path="url(#p5a6c305cb2)" d="M 619.784041 480.6 
L 620.62769 480.6 
L 620.62769 480.6 
L 619.784041 480.6 
z
"/>
   </g>
   <g id="patch_244">
    <path clip-path="url(#p5a6c305cb2)" d="M 620.62769 480.6 
L 621.471338 480.6 
L 621.471338 466.74 
L 620.62769 466.74 
z
"/>
   </g>
   <g id="patch_245">
    <path clip-path="url(#p5a6c305cb2)" d="M 621.471338 480.6 
L 622.314986 480.6 
L 622.314986 480.6 
L 621.471338 480.6 
z
"/>
   </g>
   <g id="patch_246">
    <path clip-path="url(#p5a6c305cb2)" d="M 622.314986 480.6 
L 623.158635 480.6 
L 623.158635 480.6 
L 622.314986 480.6 
z
"/>
   </g>
   <g id="patch_247">
    <path clip-path="url(#p5a6c305cb2)" d="M 623.158635 480.6 
L 624.002283 480.6 
L 624.002283 480.6 
L 623.158635 480.6 
z
"/>
   </g>
   <g id="patch_248">
    <path clip-path="url(#p5a6c305cb2)" d="M 624.002283 480.6 
L 624.845932 480.6 
L 624.845932 452.88 
L 624.002283 452.88 
z
"/>
   </g>
   <g id="matplotlib.axis_1">
    <g id="xtick_1">
     <g id="line2d_1">
      <defs>
       <path d="M 0 0 
L 0 3.5 
" id="m1bf247321d" style="stroke:#000000;stroke-width:0.8;"/>
      </defs>
      <g>
       <use style="stroke:#000000;stroke-width:0.8;" x="90" xlink:href="#m1bf247321d" y="480.6"/>
      </g>
     </g>
     <g id="text_1">
      <!-- 0 -->
      <g transform="translate(92.759375 493.9625)rotate(-90)scale(0.1 -0.1)">
       <defs>
        <path d="M 2034 4250 
Q 1547 4250 1301 3770 
Q 1056 3291 1056 2328 
Q 1056 1369 1301 889 
Q 1547 409 2034 409 
Q 2525 409 2770 889 
Q 3016 1369 3016 2328 
Q 3016 3291 2770 3770 
Q 2525 4250 2034 4250 
z
M 2034 4750 
Q 2819 4750 3233 4129 
Q 3647 3509 3647 2328 
Q 3647 1150 3233 529 
Q 2819 -91 2034 -91 
Q 1250 -91 836 529 
Q 422 1150 422 2328 
Q 422 3509 836 4129 
Q 1250 4750 2034 4750 
z
" id="DejaVuSans-30" transform="scale(0.015625)"/>
       </defs>
       <use xlink:href="#DejaVuSans-30"/>
      </g>
     </g>
    </g>
    <g id="xtick_2">
     <g id="line2d_2">
      <g>
       <use style="stroke:#000000;stroke-width:0.8;" x="110.199095" xlink:href="#m1bf247321d" y="480.6"/>
      </g>
     </g>
     <g id="text_2">
      <!-- 6 -->
      <g transform="translate(112.95847 493.9625)rotate(-90)scale(0.1 -0.1)">
       <defs>
        <path d="M 2113 2584 
Q 1688 2584 1439 2293 
Q 1191 2003 1191 1497 
Q 1191 994 1439 701 
Q 1688 409 2113 409 
Q 2538 409 2786 701 
Q 3034 994 3034 1497 
Q 3034 2003 2786 2293 
Q 2538 2584 2113 2584 
z
M 3366 4563 
L 3366 3988 
Q 3128 4100 2886 4159 
Q 2644 4219 2406 4219 
Q 1781 4219 1451 3797 
Q 1122 3375 1075 2522 
Q 1259 2794 1537 2939 
Q 1816 3084 2150 3084 
Q 2853 3084 3261 2657 
Q 3669 2231 3669 1497 
Q 3669 778 3244 343 
Q 2819 -91 2113 -91 
Q 1303 -91 875 529 
Q 447 1150 447 2328 
Q 447 3434 972 4092 
Q 1497 4750 2381 4750 
Q 2619 4750 2861 4703 
Q 3103 4656 3366 4563 
z
" id="DejaVuSans-36" transform="scale(0.015625)"/>
       </defs>
       <use xlink:href="#DejaVuSans-36"/>
      </g>
     </g>
    </g>
    <g id="xtick_3">
     <g id="line2d_3">
      <g>
       <use style="stroke:#000000;stroke-width:0.8;" x="130.39819" xlink:href="#m1bf247321d" y="480.6"/>
      </g>
     </g>
     <g id="text_3">
      <!-- 12 -->
      <g transform="translate(133.157565 500.325)rotate(-90)scale(0.1 -0.1)">
       <defs>
        <path d="M 794 531 
L 1825 531 
L 1825 4091 
L 703 3866 
L 703 4441 
L 1819 4666 
L 2450 4666 
L 2450 531 
L 3481 531 
L 3481 0 
L 794 0 
L 794 531 
z
" id="DejaVuSans-31" transform="scale(0.015625)"/>
        <path d="M 1228 531 
L 3431 531 
L 3431 0 
L 469 0 
L 469 531 
Q 828 903 1448 1529 
Q 2069 2156 2228 2338 
Q 2531 2678 2651 2914 
Q 2772 3150 2772 3378 
Q 2772 3750 2511 3984 
Q 2250 4219 1831 4219 
Q 1534 4219 1204 4116 
Q 875 4013 500 3803 
L 500 4441 
Q 881 4594 1212 4672 
Q 1544 4750 1819 4750 
Q 2544 4750 2975 4387 
Q 3406 4025 3406 3419 
Q 3406 3131 3298 2873 
Q 3191 2616 2906 2266 
Q 2828 2175 2409 1742 
Q 1991 1309 1228 531 
z
" id="DejaVuSans-32" transform="scale(0.015625)"/>
       </defs>
       <use xlink:href="#DejaVuSans-31"/>
       <use x="63.623047" xlink:href="#DejaVuSans-32"/>
      </g>
     </g>
    </g>
    <g id="xtick_4">
     <g id="line2d_4">
      <g>
       <use style="stroke:#000000;stroke-width:0.8;" x="150.597285" xlink:href="#m1bf247321d" y="480.6"/>
      </g>
     </g>
     <g id="text_4">
      <!-- 18 -->
      <g transform="translate(153.35666 500.325)rotate(-90)scale(0.1 -0.1)">
       <defs>
        <path d="M 2034 2216 
Q 1584 2216 1326 1975 
Q 1069 1734 1069 1313 
Q 1069 891 1326 650 
Q 1584 409 2034 409 
Q 2484 409 2743 651 
Q 3003 894 3003 1313 
Q 3003 1734 2745 1975 
Q 2488 2216 2034 2216 
z
M 1403 2484 
Q 997 2584 770 2862 
Q 544 3141 544 3541 
Q 544 4100 942 4425 
Q 1341 4750 2034 4750 
Q 2731 4750 3128 4425 
Q 3525 4100 3525 3541 
Q 3525 3141 3298 2862 
Q 3072 2584 2669 2484 
Q 3125 2378 3379 2068 
Q 3634 1759 3634 1313 
Q 3634 634 3220 271 
Q 2806 -91 2034 -91 
Q 1263 -91 848 271 
Q 434 634 434 1313 
Q 434 1759 690 2068 
Q 947 2378 1403 2484 
z
M 1172 3481 
Q 1172 3119 1398 2916 
Q 1625 2713 2034 2713 
Q 2441 2713 2670 2916 
Q 2900 3119 2900 3481 
Q 2900 3844 2670 4047 
Q 2441 4250 2034 4250 
Q 1625 4250 1398 4047 
Q 1172 3844 1172 3481 
z
" id="DejaVuSans-38" transform="scale(0.015625)"/>
       </defs>
       <use xlink:href="#DejaVuSans-31"/>
       <use x="63.623047" xlink:href="#DejaVuSans-38"/>
      </g>
     </g>
    </g>
    <g id="xtick_5">
     <g id="line2d_5">
      <g>
       <use style="stroke:#000000;stroke-width:0.8;" x="170.79638" xlink:href="#m1bf247321d" y="480.6"/>
      </g>
     </g>
     <g id="text_5">
      <!-- 24 -->
      <g transform="translate(173.555755 500.325)rotate(-90)scale(0.1 -0.1)">
       <defs>
        <path d="M 2419 4116 
L 825 1625 
L 2419 1625 
L 2419 4116 
z
M 2253 4666 
L 3047 4666 
L 3047 1625 
L 3713 1625 
L 3713 1100 
L 3047 1100 
L 3047 0 
L 2419 0 
L 2419 1100 
L 313 1100 
L 313 1709 
L 2253 4666 
z
" id="DejaVuSans-34" transform="scale(0.015625)"/>
       </defs>
       <use xlink:href="#DejaVuSans-32"/>
       <use x="63.623047" xlink:href="#DejaVuSans-34"/>
      </g>
     </g>
    </g>
    <g id="xtick_6">
     <g id="line2d_6">
      <g>
       <use style="stroke:#000000;stroke-width:0.8;" x="190.995475" xlink:href="#m1bf247321d" y="480.6"/>
      </g>
     </g>
     <g id="text_6">
      <!-- 30 -->
      <g transform="translate(193.75485 500.325)rotate(-90)scale(0.1 -0.1)">
       <defs>
        <path d="M 2597 2516 
Q 3050 2419 3304 2112 
Q 3559 1806 3559 1356 
Q 3559 666 3084 287 
Q 2609 -91 1734 -91 
Q 1441 -91 1130 -33 
Q 819 25 488 141 
L 488 750 
Q 750 597 1062 519 
Q 1375 441 1716 441 
Q 2309 441 2620 675 
Q 2931 909 2931 1356 
Q 2931 1769 2642 2001 
Q 2353 2234 1838 2234 
L 1294 2234 
L 1294 2753 
L 1863 2753 
Q 2328 2753 2575 2939 
Q 2822 3125 2822 3475 
Q 2822 3834 2567 4026 
Q 2313 4219 1838 4219 
Q 1578 4219 1281 4162 
Q 984 4106 628 3988 
L 628 4550 
Q 988 4650 1302 4700 
Q 1616 4750 1894 4750 
Q 2613 4750 3031 4423 
Q 3450 4097 3450 3541 
Q 3450 3153 3228 2886 
Q 3006 2619 2597 2516 
z
" id="DejaVuSans-33" transform="scale(0.015625)"/>
       </defs>
       <use xlink:href="#DejaVuSans-33"/>
       <use x="63.623047" xlink:href="#DejaVuSans-30"/>
      </g>
     </g>
    </g>
    <g id="xtick_7">
     <g id="line2d_7">
      <g>
       <use style="stroke:#000000;stroke-width:0.8;" x="211.19457" xlink:href="#m1bf247321d" y="480.6"/>
      </g>
     </g>
     <g id="text_7">
      <!-- 36 -->
      <g transform="translate(213.953945 500.325)rotate(-90)scale(0.1 -0.1)">
       <use xlink:href="#DejaVuSans-33"/>
       <use x="63.623047" xlink:href="#DejaVuSans-36"/>
      </g>
     </g>
    </g>
    <g id="xtick_8">
     <g id="line2d_8">
      <g>
       <use style="stroke:#000000;stroke-width:0.8;" x="231.393665" xlink:href="#m1bf247321d" y="480.6"/>
      </g>
     </g>
     <g id="text_8">
      <!-- 42 -->
      <g transform="translate(234.15304 500.325)rotate(-90)scale(0.1 -0.1)">
       <use xlink:href="#DejaVuSans-34"/>
       <use x="63.623047" xlink:href="#DejaVuSans-32"/>
      </g>
     </g>
    </g>
    <g id="xtick_9">
     <g id="line2d_9">
      <g>
       <use style="stroke:#000000;stroke-width:0.8;" x="251.59276" xlink:href="#m1bf247321d" y="480.6"/>
      </g>
     </g>
     <g id="text_9">
      <!-- 48 -->
      <g transform="translate(254.352135 500.325)rotate(-90)scale(0.1 -0.1)">
       <use xlink:href="#DejaVuSans-34"/>
       <use x="63.623047" xlink:href="#DejaVuSans-38"/>
      </g>
     </g>
    </g>
    <g id="xtick_10">
     <g id="line2d_10">
      <g>
       <use style="stroke:#000000;stroke-width:0.8;" x="271.791855" xlink:href="#m1bf247321d" y="480.6"/>
      </g>
     </g>
     <g id="text_10">
      <!-- 54 -->
      <g transform="translate(274.55123 500.325)rotate(-90)scale(0.1 -0.1)">
       <defs>
        <path d="M 691 4666 
L 3169 4666 
L 3169 4134 
L 1269 4134 
L 1269 2991 
Q 1406 3038 1543 3061 
Q 1681 3084 1819 3084 
Q 2600 3084 3056 2656 
Q 3513 2228 3513 1497 
Q 3513 744 3044 326 
Q 2575 -91 1722 -91 
Q 1428 -91 1123 -41 
Q 819 9 494 109 
L 494 744 
Q 775 591 1075 516 
Q 1375 441 1709 441 
Q 2250 441 2565 725 
Q 2881 1009 2881 1497 
Q 2881 1984 2565 2268 
Q 2250 2553 1709 2553 
Q 1456 2553 1204 2497 
Q 953 2441 691 2322 
L 691 4666 
z
" id="DejaVuSans-35" transform="scale(0.015625)"/>
       </defs>
       <use xlink:href="#DejaVuSans-35"/>
       <use x="63.623047" xlink:href="#DejaVuSans-34"/>
      </g>
     </g>
    </g>
    <g id="xtick_11">
     <g id="line2d_11">
      <g>
       <use style="stroke:#000000;stroke-width:0.8;" x="291.99095" xlink:href="#m1bf247321d" y="480.6"/>
      </g>
     </g>
     <g id="text_11">
      <!-- 60 -->
      <g transform="translate(294.750325 500.325)rotate(-90)scale(0.1 -0.1)">
       <use xlink:href="#DejaVuSans-36"/>
       <use x="63.623047" xlink:href="#DejaVuSans-30"/>
      </g>
     </g>
    </g>
    <g id="xtick_12">
     <g id="line2d_12">
      <g>
       <use style="stroke:#000000;stroke-width:0.8;" x="312.190045" xlink:href="#m1bf247321d" y="480.6"/>
      </g>
     </g>
     <g id="text_12">
      <!-- 66 -->
      <g transform="translate(314.94942 500.325)rotate(-90)scale(0.1 -0.1)">
       <use xlink:href="#DejaVuSans-36"/>
       <use x="63.623047" xlink:href="#DejaVuSans-36"/>
      </g>
     </g>
    </g>
    <g id="xtick_13">
     <g id="line2d_13">
      <g>
       <use style="stroke:#000000;stroke-width:0.8;" x="332.38914" xlink:href="#m1bf247321d" y="480.6"/>
      </g>
     </g>
     <g id="text_13">
      <!-- 72 -->
      <g transform="translate(335.148515 500.325)rotate(-90)scale(0.1 -0.1)">
       <defs>
        <path d="M 525 4666 
L 3525 4666 
L 3525 4397 
L 1831 0 
L 1172 0 
L 2766 4134 
L 525 4134 
L 525 4666 
z
" id="DejaVuSans-37" transform="scale(0.015625)"/>
       </defs>
       <use xlink:href="#DejaVuSans-37"/>
       <use x="63.623047" xlink:href="#DejaVuSans-32"/>
      </g>
     </g>
    </g>
    <g id="xtick_14">
     <g id="line2d_14">
      <g>
       <use style="stroke:#000000;stroke-width:0.8;" x="352.588235" xlink:href="#m1bf247321d" y="480.6"/>
      </g>
     </g>
     <g id="text_14">
      <!-- 78 -->
      <g transform="translate(355.34761 500.325)rotate(-90)scale(0.1 -0.1)">
       <use xlink:href="#DejaVuSans-37"/>
       <use x="63.623047" xlink:href="#DejaVuSans-38"/>
      </g>
     </g>
    </g>
    <g id="xtick_15">
     <g id="line2d_15">
      <g>
       <use style="stroke:#000000;stroke-width:0.8;" x="372.78733" xlink:href="#m1bf247321d" y="480.6"/>
      </g>
     </g>
     <g id="text_15">
      <!-- 84 -->
      <g transform="translate(375.546705 500.325)rotate(-90)scale(0.1 -0.1)">
       <use xlink:href="#DejaVuSans-38"/>
       <use x="63.623047" xlink:href="#DejaVuSans-34"/>
      </g>
     </g>
    </g>
    <g id="xtick_16">
     <g id="line2d_16">
      <g>
       <use style="stroke:#000000;stroke-width:0.8;" x="392.986425" xlink:href="#m1bf247321d" y="480.6"/>
      </g>
     </g>
     <g id="text_16">
      <!-- 90 -->
      <g transform="translate(395.7458 500.325)rotate(-90)scale(0.1 -0.1)">
       <defs>
        <path d="M 703 97 
L 703 672 
Q 941 559 1184 500 
Q 1428 441 1663 441 
Q 2288 441 2617 861 
Q 2947 1281 2994 2138 
Q 2813 1869 2534 1725 
Q 2256 1581 1919 1581 
Q 1219 1581 811 2004 
Q 403 2428 403 3163 
Q 403 3881 828 4315 
Q 1253 4750 1959 4750 
Q 2769 4750 3195 4129 
Q 3622 3509 3622 2328 
Q 3622 1225 3098 567 
Q 2575 -91 1691 -91 
Q 1453 -91 1209 -44 
Q 966 3 703 97 
z
M 1959 2075 
Q 2384 2075 2632 2365 
Q 2881 2656 2881 3163 
Q 2881 3666 2632 3958 
Q 2384 4250 1959 4250 
Q 1534 4250 1286 3958 
Q 1038 3666 1038 3163 
Q 1038 2656 1286 2365 
Q 1534 2075 1959 2075 
z
" id="DejaVuSans-39" transform="scale(0.015625)"/>
       </defs>
       <use xlink:href="#DejaVuSans-39"/>
       <use x="63.623047" xlink:href="#DejaVuSans-30"/>
      </g>
     </g>
    </g>
    <g id="xtick_17">
     <g id="line2d_17">
      <g>
       <use style="stroke:#000000;stroke-width:0.8;" x="413.18552" xlink:href="#m1bf247321d" y="480.6"/>
      </g>
     </g>
     <g id="text_17">
      <!-- 96 -->
      <g transform="translate(415.944895 500.325)rotate(-90)scale(0.1 -0.1)">
       <use xlink:href="#DejaVuSans-39"/>
       <use x="63.623047" xlink:href="#DejaVuSans-36"/>
      </g>
     </g>
    </g>
    <g id="xtick_18">
     <g id="line2d_18">
      <g>
       <use style="stroke:#000000;stroke-width:0.8;" x="433.384615" xlink:href="#m1bf247321d" y="480.6"/>
      </g>
     </g>
     <g id="text_18">
      <!-- 102 -->
      <g transform="translate(436.14399 506.6875)rotate(-90)scale(0.1 -0.1)">
       <use xlink:href="#DejaVuSans-31"/>
       <use x="63.623047" xlink:href="#DejaVuSans-30"/>
       <use x="127.246094" xlink:href="#DejaVuSans-32"/>
      </g>
     </g>
    </g>
    <g id="xtick_19">
     <g id="line2d_19">
      <g>
       <use style="stroke:#000000;stroke-width:0.8;" x="453.58371" xlink:href="#m1bf247321d" y="480.6"/>
      </g>
     </g>
     <g id="text_19">
      <!-- 108 -->
      <g transform="translate(456.343085 506.6875)rotate(-90)scale(0.1 -0.1)">
       <use xlink:href="#DejaVuSans-31"/>
       <use x="63.623047" xlink:href="#DejaVuSans-30"/>
       <use x="127.246094" xlink:href="#DejaVuSans-38"/>
      </g>
     </g>
    </g>
    <g id="xtick_20">
     <g id="line2d_20">
      <g>
       <use style="stroke:#000000;stroke-width:0.8;" x="473.782805" xlink:href="#m1bf247321d" y="480.6"/>
      </g>
     </g>
     <g id="text_20">
      <!-- 114 -->
      <g transform="translate(476.54218 506.6875)rotate(-90)scale(0.1 -0.1)">
       <use xlink:href="#DejaVuSans-31"/>
       <use x="63.623047" xlink:href="#DejaVuSans-31"/>
       <use x="127.246094" xlink:href="#DejaVuSans-34"/>
      </g>
     </g>
    </g>
    <g id="xtick_21">
     <g id="line2d_21">
      <g>
       <use style="stroke:#000000;stroke-width:0.8;" x="493.9819" xlink:href="#m1bf247321d" y="480.6"/>
      </g>
     </g>
     <g id="text_21">
      <!-- 120 -->
      <g transform="translate(496.741275 506.6875)rotate(-90)scale(0.1 -0.1)">
       <use xlink:href="#DejaVuSans-31"/>
       <use x="63.623047" xlink:href="#DejaVuSans-32"/>
       <use x="127.246094" xlink:href="#DejaVuSans-30"/>
      </g>
     </g>
    </g>
    <g id="xtick_22">
     <g id="line2d_22">
      <g>
       <use style="stroke:#000000;stroke-width:0.8;" x="514.180995" xlink:href="#m1bf247321d" y="480.6"/>
      </g>
     </g>
     <g id="text_22">
      <!-- 126 -->
      <g transform="translate(516.94037 506.6875)rotate(-90)scale(0.1 -0.1)">
       <use xlink:href="#DejaVuSans-31"/>
       <use x="63.623047" xlink:href="#DejaVuSans-32"/>
       <use x="127.246094" xlink:href="#DejaVuSans-36"/>
      </g>
     </g>
    </g>
    <g id="xtick_23">
     <g id="line2d_23">
      <g>
       <use style="stroke:#000000;stroke-width:0.8;" x="534.38009" xlink:href="#m1bf247321d" y="480.6"/>
      </g>
     </g>
     <g id="text_23">
      <!-- 132 -->
      <g transform="translate(537.139465 506.6875)rotate(-90)scale(0.1 -0.1)">
       <use xlink:href="#DejaVuSans-31"/>
       <use x="63.623047" xlink:href="#DejaVuSans-33"/>
       <use x="127.246094" xlink:href="#DejaVuSans-32"/>
      </g>
     </g>
    </g>
    <g id="xtick_24">
     <g id="line2d_24">
      <g>
       <use style="stroke:#000000;stroke-width:0.8;" x="554.579186" xlink:href="#m1bf247321d" y="480.6"/>
      </g>
     </g>
     <g id="text_24">
      <!-- 138 -->
      <g transform="translate(557.338561 506.6875)rotate(-90)scale(0.1 -0.1)">
       <use xlink:href="#DejaVuSans-31"/>
       <use x="63.623047" xlink:href="#DejaVuSans-33"/>
       <use x="127.246094" xlink:href="#DejaVuSans-38"/>
      </g>
     </g>
    </g>
    <g id="xtick_25">
     <g id="line2d_25">
      <g>
       <use style="stroke:#000000;stroke-width:0.8;" x="574.778281" xlink:href="#m1bf247321d" y="480.6"/>
      </g>
     </g>
     <g id="text_25">
      <!-- 144 -->
      <g transform="translate(577.537656 506.6875)rotate(-90)scale(0.1 -0.1)">
       <use xlink:href="#DejaVuSans-31"/>
       <use x="63.623047" xlink:href="#DejaVuSans-34"/>
       <use x="127.246094" xlink:href="#DejaVuSans-34"/>
      </g>
     </g>
    </g>
    <g id="xtick_26">
     <g id="line2d_26">
      <g>
       <use style="stroke:#000000;stroke-width:0.8;" x="594.977376" xlink:href="#m1bf247321d" y="480.6"/>
      </g>
     </g>
     <g id="text_26">
      <!-- 150 -->
      <g transform="translate(597.736751 506.6875)rotate(-90)scale(0.1 -0.1)">
       <use xlink:href="#DejaVuSans-31"/>
       <use x="63.623047" xlink:href="#DejaVuSans-35"/>
       <use x="127.246094" xlink:href="#DejaVuSans-30"/>
      </g>
     </g>
    </g>
    <g id="xtick_27">
     <g id="line2d_27">
      <g>
       <use style="stroke:#000000;stroke-width:0.8;" x="615.176471" xlink:href="#m1bf247321d" y="480.6"/>
      </g>
     </g>
     <g id="text_27">
      <!-- 156 -->
      <g transform="translate(617.935846 506.6875)rotate(-90)scale(0.1 -0.1)">
       <use xlink:href="#DejaVuSans-31"/>
       <use x="63.623047" xlink:href="#DejaVuSans-35"/>
       <use x="127.246094" xlink:href="#DejaVuSans-36"/>
      </g>
     </g>
    </g>
    <g id="xtick_28">
     <g id="line2d_28">
      <g>
       <use style="stroke:#000000;stroke-width:0.8;" x="635.375566" xlink:href="#m1bf247321d" y="480.6"/>
      </g>
     </g>
     <g id="text_28">
      <!-- 162 -->
      <g transform="translate(638.134941 506.6875)rotate(-90)scale(0.1 -0.1)">
       <use xlink:href="#DejaVuSans-31"/>
       <use x="63.623047" xlink:href="#DejaVuSans-36"/>
       <use x="127.246094" xlink:href="#DejaVuSans-32"/>
      </g>
     </g>
    </g>
    <g id="text_29">
     <!-- Offset in MB -->
     <g transform="translate(338.421875 518.285938)scale(0.1 -0.1)">
      <defs>
       <path d="M 2522 4238 
Q 1834 4238 1429 3725 
Q 1025 3213 1025 2328 
Q 1025 1447 1429 934 
Q 1834 422 2522 422 
Q 3209 422 3611 934 
Q 4013 1447 4013 2328 
Q 4013 3213 3611 3725 
Q 3209 4238 2522 4238 
z
M 2522 4750 
Q 3503 4750 4090 4092 
Q 4678 3434 4678 2328 
Q 4678 1225 4090 567 
Q 3503 -91 2522 -91 
Q 1538 -91 948 565 
Q 359 1222 359 2328 
Q 359 3434 948 4092 
Q 1538 4750 2522 4750 
z
" id="DejaVuSans-4f" transform="scale(0.015625)"/>
       <path d="M 2375 4863 
L 2375 4384 
L 1825 4384 
Q 1516 4384 1395 4259 
Q 1275 4134 1275 3809 
L 1275 3500 
L 2222 3500 
L 2222 3053 
L 1275 3053 
L 1275 0 
L 697 0 
L 697 3053 
L 147 3053 
L 147 3500 
L 697 3500 
L 697 3744 
Q 697 4328 969 4595 
Q 1241 4863 1831 4863 
L 2375 4863 
z
" id="DejaVuSans-66" transform="scale(0.015625)"/>
       <path d="M 2834 3397 
L 2834 2853 
Q 2591 2978 2328 3040 
Q 2066 3103 1784 3103 
Q 1356 3103 1142 2972 
Q 928 2841 928 2578 
Q 928 2378 1081 2264 
Q 1234 2150 1697 2047 
L 1894 2003 
Q 2506 1872 2764 1633 
Q 3022 1394 3022 966 
Q 3022 478 2636 193 
Q 2250 -91 1575 -91 
Q 1294 -91 989 -36 
Q 684 19 347 128 
L 347 722 
Q 666 556 975 473 
Q 1284 391 1588 391 
Q 1994 391 2212 530 
Q 2431 669 2431 922 
Q 2431 1156 2273 1281 
Q 2116 1406 1581 1522 
L 1381 1569 
Q 847 1681 609 1914 
Q 372 2147 372 2553 
Q 372 3047 722 3315 
Q 1072 3584 1716 3584 
Q 2034 3584 2315 3537 
Q 2597 3491 2834 3397 
z
" id="DejaVuSans-73" transform="scale(0.015625)"/>
       <path d="M 3597 1894 
L 3597 1613 
L 953 1613 
Q 991 1019 1311 708 
Q 1631 397 2203 397 
Q 2534 397 2845 478 
Q 3156 559 3463 722 
L 3463 178 
Q 3153 47 2828 -22 
Q 2503 -91 2169 -91 
Q 1331 -91 842 396 
Q 353 884 353 1716 
Q 353 2575 817 3079 
Q 1281 3584 2069 3584 
Q 2775 3584 3186 3129 
Q 3597 2675 3597 1894 
z
M 3022 2063 
Q 3016 2534 2758 2815 
Q 2500 3097 2075 3097 
Q 1594 3097 1305 2825 
Q 1016 2553 972 2059 
L 3022 2063 
z
" id="DejaVuSans-65" transform="scale(0.015625)"/>
       <path d="M 1172 4494 
L 1172 3500 
L 2356 3500 
L 2356 3053 
L 1172 3053 
L 1172 1153 
Q 1172 725 1289 603 
Q 1406 481 1766 481 
L 2356 481 
L 2356 0 
L 1766 0 
Q 1100 0 847 248 
Q 594 497 594 1153 
L 594 3053 
L 172 3053 
L 172 3500 
L 594 3500 
L 594 4494 
L 1172 4494 
z
" id="DejaVuSans-74" transform="scale(0.015625)"/>
       <path id="DejaVuSans-20" transform="scale(0.015625)"/>
       <path d="M 603 3500 
L 1178 3500 
L 1178 0 
L 603 0 
L 603 3500 
z
M 603 4863 
L 1178 4863 
L 1178 4134 
L 603 4134 
L 603 4863 
z
" id="DejaVuSans-69" transform="scale(0.015625)"/>
       <path d="M 3513 2113 
L 3513 0 
L 2938 0 
L 2938 2094 
Q 2938 2591 2744 2837 
Q 2550 3084 2163 3084 
Q 1697 3084 1428 2787 
Q 1159 2491 1159 1978 
L 1159 0 
L 581 0 
L 581 3500 
L 1159 3500 
L 1159 2956 
Q 1366 3272 1645 3428 
Q 1925 3584 2291 3584 
Q 2894 3584 3203 3211 
Q 3513 2838 3513 2113 
z
" id="DejaVuSans-6e" transform="scale(0.015625)"/>
       <path d="M 628 4666 
L 1569 4666 
L 2759 1491 
L 3956 4666 
L 4897 4666 
L 4897 0 
L 4281 0 
L 4281 4097 
L 3078 897 
L 2444 897 
L 1241 4097 
L 1241 0 
L 628 0 
L 628 4666 
z
" id="DejaVuSans-4d" transform="scale(0.015625)"/>
       <path d="M 1259 2228 
L 1259 519 
L 2272 519 
Q 2781 519 3026 730 
Q 3272 941 3272 1375 
Q 3272 1813 3026 2020 
Q 2781 2228 2272 2228 
L 1259 2228 
z
M 1259 4147 
L 1259 2741 
L 2194 2741 
Q 2656 2741 2882 2914 
Q 3109 3088 3109 3444 
Q 3109 3797 2882 3972 
Q 2656 4147 2194 4147 
L 1259 4147 
z
M 628 4666 
L 2241 4666 
Q 2963 4666 3353 4366 
Q 3744 4066 3744 3513 
Q 3744 3084 3544 2831 
Q 3344 2578 2956 2516 
Q 3422 2416 3680 2098 
Q 3938 1781 3938 1306 
Q 3938 681 3513 340 
Q 3088 0 2303 0 
L 628 0 
L 628 4666 
z
" id="DejaVuSans-42" transform="scale(0.015625)"/>
      </defs>
      <use xlink:href="#DejaVuSans-4f"/>
      <use x="78.710938" xlink:href="#DejaVuSans-66"/>
      <use x="113.916016" xlink:href="#DejaVuSans-66"/>
      <use x="149.121094" xlink:href="#DejaVuSans-73"/>
      <use x="201.220703" xlink:href="#DejaVuSans-65"/>
      <use x="262.744141" xlink:href="#DejaVuSans-74"/>
      <use x="301.953125" xlink:href="#DejaVuSans-20"/>
      <use x="333.740234" xlink:href="#DejaVuSans-69"/>
      <use x="361.523438" xlink:href="#DejaVuSans-6e"/>
      <use x="424.902344" xlink:href="#DejaVuSans-20"/>
      <use x="456.689453" xlink:href="#DejaVuSans-4d"/>
      <use x="542.96875" xlink:href="#DejaVuSans-42"/>
     </g>
    </g>
   </g>
   <g id="matplotlib.axis_2">
    <g id="ytick_1">
     <g id="line2d_29">
      <defs>
       <path d="M 0 0 
L -3.5 0 
" id="m5fb818814b" style="stroke:#000000;stroke-width:0.8;"/>
      </defs>
      <g>
       <use style="stroke:#000000;stroke-width:0.8;" x="90" xlink:href="#m5fb818814b" y="480.6"/>
      </g>
     </g>
     <g id="text_30">
      <!-- 0 -->
      <g transform="translate(76.6375 484.399219)scale(0.1 -0.1)">
       <use xlink:href="#DejaVuSans-30"/>
      </g>
     </g>
    </g>
    <g id="ytick_2">
     <g id="line2d_30">
      <g>
       <use style="stroke:#000000;stroke-width:0.8;" x="90" xlink:href="#m5fb818814b" y="411.3"/>
      </g>
     </g>
     <g id="text_31">
      <!-- 20 -->
      <g transform="translate(70.275 415.099219)scale(0.1 -0.1)">
       <use xlink:href="#DejaVuSans-32"/>
       <use x="63.623047" xlink:href="#DejaVuSans-30"/>
      </g>
     </g>
    </g>
    <g id="ytick_3">
     <g id="line2d_31">
      <g>
       <use style="stroke:#000000;stroke-width:0.8;" x="90" xlink:href="#m5fb818814b" y="342"/>
      </g>
     </g>
     <g id="text_32">
      <!-- 40 -->
      <g transform="translate(70.275 345.799219)scale(0.1 -0.1)">
       <use xlink:href="#DejaVuSans-34"/>
       <use x="63.623047" xlink:href="#DejaVuSans-30"/>
      </g>
     </g>
    </g>
    <g id="ytick_4">
     <g id="line2d_32">
      <g>
       <use style="stroke:#000000;stroke-width:0.8;" x="90" xlink:href="#m5fb818814b" y="272.7"/>
      </g>
     </g>
     <g id="text_33">
      <!-- 60 -->
      <g transform="translate(70.275 276.499219)scale(0.1 -0.1)">
       <use xlink:href="#DejaVuSans-36"/>
       <use x="63.623047" xlink:href="#DejaVuSans-30"/>
      </g>
     </g>
    </g>
    <g id="ytick_5">
     <g id="line2d_33">
      <g>
       <use style="stroke:#000000;stroke-width:0.8;" x="90" xlink:href="#m5fb818814b" y="203.4"/>
      </g>
     </g>
     <g id="text_34">
      <!-- 80 -->
      <g transform="translate(70.275 207.199219)scale(0.1 -0.1)">
       <use xlink:href="#DejaVuSans-38"/>
       <use x="63.623047" xlink:href="#DejaVuSans-30"/>
      </g>
     </g>
    </g>
    <g id="ytick_6">
     <g id="line2d_34">
      <g>
       <use style="stroke:#000000;stroke-width:0.8;" x="90" xlink:href="#m5fb818814b" y="134.1"/>
      </g>
     </g>
     <g id="text_35">
      <!-- 100 -->
      <g transform="translate(63.9125 137.899219)scale(0.1 -0.1)">
       <use xlink:href="#DejaVuSans-31"/>
       <use x="63.623047" xlink:href="#DejaVuSans-30"/>
       <use x="127.246094" xlink:href="#DejaVuSans-30"/>
      </g>
     </g>
    </g>
    <g id="ytick_7">
     <g id="line2d_35">
      <g>
       <use style="stroke:#000000;stroke-width:0.8;" x="90" xlink:href="#m5fb818814b" y="64.8"/>
      </g>
     </g>
     <g id="text_36">
      <!-- 120 -->
      <g transform="translate(63.9125 68.599219)scale(0.1 -0.1)">
       <use xlink:href="#DejaVuSans-31"/>
       <use x="63.623047" xlink:href="#DejaVuSans-32"/>
       <use x="127.246094" xlink:href="#DejaVuSans-30"/>
      </g>
     </g>
    </g>
   </g>
   <g id="patch_249">
    <path d="M 90 480.6 
L 90 64.8 
" style="fill:none;stroke:#000000;stroke-linecap:square;stroke-linejoin:miter;stroke-width:0.8;"/>
   </g>
   <g id="patch_250">
    <path d="M 648 480.6 
L 648 64.8 
" style="fill:none;stroke:#000000;stroke-linecap:square;stroke-linejoin:miter;stroke-width:0.8;"/>
   </g>
   <g id="patch_251">
    <path d="M 90 480.6 
L 648 480.6 
" style="fill:none;stroke:#000000;stroke-linecap:square;stroke-linejoin:miter;stroke-width:0.8;"/>
   </g>
   <g id="patch_252">
    <path d="M 90 64.8 
L 648 64.8 
" style="fill:none;stroke:#000000;stroke-linecap:square;stroke-linejoin:miter;stroke-width:0.8;"/>
   </g>
   <g id="text_37">
    <!-- Before GC 90 by Scavenger -->
    <g transform="translate(313.2 64.8)scale(0.1 -0.1)">
     <defs>
      <path d="M 1959 3097 
Q 1497 3097 1228 2736 
Q 959 2375 959 1747 
Q 959 1119 1226 758 
Q 1494 397 1959 397 
Q 2419 397 2687 759 
Q 2956 1122 2956 1747 
Q 2956 2369 2687 2733 
Q 2419 3097 1959 3097 
z
M 1959 3584 
Q 2709 3584 3137 3096 
Q 3566 2609 3566 1747 
Q 3566 888 3137 398 
Q 2709 -91 1959 -91 
Q 1206 -91 779 398 
Q 353 888 353 1747 
Q 353 2609 779 3096 
Q 1206 3584 1959 3584 
z
" id="DejaVuSans-6f" transform="scale(0.015625)"/>
      <path d="M 2631 2963 
Q 2534 3019 2420 3045 
Q 2306 3072 2169 3072 
Q 1681 3072 1420 2755 
Q 1159 2438 1159 1844 
L 1159 0 
L 581 0 
L 581 3500 
L 1159 3500 
L 1159 2956 
Q 1341 3275 1631 3429 
Q 1922 3584 2338 3584 
Q 2397 3584 2469 3576 
Q 2541 3569 2628 3553 
L 2631 2963 
z
" id="DejaVuSans-72" transform="scale(0.015625)"/>
      <path d="M 3809 666 
L 3809 1919 
L 2778 1919 
L 2778 2438 
L 4434 2438 
L 4434 434 
Q 4069 175 3628 42 
Q 3188 -91 2688 -91 
Q 1594 -91 976 548 
Q 359 1188 359 2328 
Q 359 3472 976 4111 
Q 1594 4750 2688 4750 
Q 3144 4750 3555 4637 
Q 3966 4525 4313 4306 
L 4313 3634 
Q 3963 3931 3569 4081 
Q 3175 4231 2741 4231 
Q 1884 4231 1454 3753 
Q 1025 3275 1025 2328 
Q 1025 1384 1454 906 
Q 1884 428 2741 428 
Q 3075 428 3337 486 
Q 3600 544 3809 666 
z
" id="DejaVuSans-47" transform="scale(0.015625)"/>
      <path d="M 4122 4306 
L 4122 3641 
Q 3803 3938 3442 4084 
Q 3081 4231 2675 4231 
Q 1875 4231 1450 3742 
Q 1025 3253 1025 2328 
Q 1025 1406 1450 917 
Q 1875 428 2675 428 
Q 3081 428 3442 575 
Q 3803 722 4122 1019 
L 4122 359 
Q 3791 134 3420 21 
Q 3050 -91 2638 -91 
Q 1578 -91 968 557 
Q 359 1206 359 2328 
Q 359 3453 968 4101 
Q 1578 4750 2638 4750 
Q 3056 4750 3426 4639 
Q 3797 4528 4122 4306 
z
" id="DejaVuSans-43" transform="scale(0.015625)"/>
      <path d="M 3116 1747 
Q 3116 2381 2855 2742 
Q 2594 3103 2138 3103 
Q 1681 3103 1420 2742 
Q 1159 2381 1159 1747 
Q 1159 1113 1420 752 
Q 1681 391 2138 391 
Q 2594 391 2855 752 
Q 3116 1113 3116 1747 
z
M 1159 2969 
Q 1341 3281 1617 3432 
Q 1894 3584 2278 3584 
Q 2916 3584 3314 3078 
Q 3713 2572 3713 1747 
Q 3713 922 3314 415 
Q 2916 -91 2278 -91 
Q 1894 -91 1617 61 
Q 1341 213 1159 525 
L 1159 0 
L 581 0 
L 581 4863 
L 1159 4863 
L 1159 2969 
z
" id="DejaVuSans-62" transform="scale(0.015625)"/>
      <path d="M 2059 -325 
Q 1816 -950 1584 -1140 
Q 1353 -1331 966 -1331 
L 506 -1331 
L 506 -850 
L 844 -850 
Q 1081 -850 1212 -737 
Q 1344 -625 1503 -206 
L 1606 56 
L 191 3500 
L 800 3500 
L 1894 763 
L 2988 3500 
L 3597 3500 
L 2059 -325 
z
" id="DejaVuSans-79" transform="scale(0.015625)"/>
      <path d="M 3425 4513 
L 3425 3897 
Q 3066 4069 2747 4153 
Q 2428 4238 2131 4238 
Q 1616 4238 1336 4038 
Q 1056 3838 1056 3469 
Q 1056 3159 1242 3001 
Q 1428 2844 1947 2747 
L 2328 2669 
Q 3034 2534 3370 2195 
Q 3706 1856 3706 1288 
Q 3706 609 3251 259 
Q 2797 -91 1919 -91 
Q 1588 -91 1214 -16 
Q 841 59 441 206 
L 441 856 
Q 825 641 1194 531 
Q 1563 422 1919 422 
Q 2459 422 2753 634 
Q 3047 847 3047 1241 
Q 3047 1584 2836 1778 
Q 2625 1972 2144 2069 
L 1759 2144 
Q 1053 2284 737 2584 
Q 422 2884 422 3419 
Q 422 4038 858 4394 
Q 1294 4750 2059 4750 
Q 2388 4750 2728 4690 
Q 3069 4631 3425 4513 
z
" id="DejaVuSans-53" transform="scale(0.015625)"/>
      <path d="M 3122 3366 
L 3122 2828 
Q 2878 2963 2633 3030 
Q 2388 3097 2138 3097 
Q 1578 3097 1268 2742 
Q 959 2388 959 1747 
Q 959 1106 1268 751 
Q 1578 397 2138 397 
Q 2388 397 2633 464 
Q 2878 531 3122 666 
L 3122 134 
Q 2881 22 2623 -34 
Q 2366 -91 2075 -91 
Q 1284 -91 818 406 
Q 353 903 353 1747 
Q 353 2603 823 3093 
Q 1294 3584 2113 3584 
Q 2378 3584 2631 3529 
Q 2884 3475 3122 3366 
z
" id="DejaVuSans-63" transform="scale(0.015625)"/>
      <path d="M 2194 1759 
Q 1497 1759 1228 1600 
Q 959 1441 959 1056 
Q 959 750 1161 570 
Q 1363 391 1709 391 
Q 2188 391 2477 730 
Q 2766 1069 2766 1631 
L 2766 1759 
L 2194 1759 
z
M 3341 1997 
L 3341 0 
L 2766 0 
L 2766 531 
Q 2569 213 2275 61 
Q 1981 -91 1556 -91 
Q 1019 -91 701 211 
Q 384 513 384 1019 
Q 384 1609 779 1909 
Q 1175 2209 1959 2209 
L 2766 2209 
L 2766 2266 
Q 2766 2663 2505 2880 
Q 2244 3097 1772 3097 
Q 1472 3097 1187 3025 
Q 903 2953 641 2809 
L 641 3341 
Q 956 3463 1253 3523 
Q 1550 3584 1831 3584 
Q 2591 3584 2966 3190 
Q 3341 2797 3341 1997 
z
" id="DejaVuSans-61" transform="scale(0.015625)"/>
      <path d="M 191 3500 
L 800 3500 
L 1894 563 
L 2988 3500 
L 3597 3500 
L 2284 0 
L 1503 0 
L 191 3500 
z
" id="DejaVuSans-76" transform="scale(0.015625)"/>
      <path d="M 2906 1791 
Q 2906 2416 2648 2759 
Q 2391 3103 1925 3103 
Q 1463 3103 1205 2759 
Q 947 2416 947 1791 
Q 947 1169 1205 825 
Q 1463 481 1925 481 
Q 2391 481 2648 825 
Q 2906 1169 2906 1791 
z
M 3481 434 
Q 3481 -459 3084 -895 
Q 2688 -1331 1869 -1331 
Q 1566 -1331 1297 -1286 
Q 1028 -1241 775 -1147 
L 775 -588 
Q 1028 -725 1275 -790 
Q 1522 -856 1778 -856 
Q 2344 -856 2625 -561 
Q 2906 -266 2906 331 
L 2906 616 
Q 2728 306 2450 153 
Q 2172 0 1784 0 
Q 1141 0 747 490 
Q 353 981 353 1791 
Q 353 2603 747 3093 
Q 1141 3584 1784 3584 
Q 2172 3584 2450 3431 
Q 2728 3278 2906 2969 
L 2906 3500 
L 3481 3500 
L 3481 434 
z
" id="DejaVuSans-67" transform="scale(0.015625)"/>
     </defs>
     <use xlink:href="#DejaVuSans-42"/>
     <use x="68.603516" xlink:href="#DejaVuSans-65"/>
     <use x="130.126953" xlink:href="#DejaVuSans-66"/>
     <use x="165.332031" xlink:href="#DejaVuSans-6f"/>
     <use x="226.513672" xlink:href="#DejaVuSans-72"/>
     <use x="265.376953" xlink:href="#DejaVuSans-65"/>
     <use x="326.900391" xlink:href="#DejaVuSans-20"/>
     <use x="358.6875" xlink:href="#DejaVuSans-47"/>
     <use x="436.177734" xlink:href="#DejaVuSans-43"/>
     <use x="506.001953" xlink:href="#DejaVuSans-20"/>
     <use x="537.789062" xlink:href="#DejaVuSans-39"/>
     <use x="601.412109" xlink:href="#DejaVuSans-30"/>
     <use x="665.035156" xlink:href="#DejaVuSans-20"/>
     <use x="696.822266" xlink:href="#DejaVuSans-62"/>
     <use x="760.298828" xlink:href="#DejaVuSans-79"/>
     <use x="819.478516" xlink:href="#DejaVuSans-20"/>
     <use x="851.265625" xlink:href="#DejaVuSans-53"/>
     <use x="914.742188" xlink:href="#DejaVuSans-63"/>
     <use x="969.722656" xlink:href="#DejaVuSans-61"/>
     <use x="1031.001953" xlink:href="#DejaVuSans-76"/>
     <use x="1090.181641" xlink:href="#DejaVuSans-65"/>
     <use x="1151.705078" xlink:href="#DejaVuSans-6e"/>
     <use x="1215.083984" xlink:href="#DejaVuSans-67"/>
     <use x="1278.560547" xlink:href="#DejaVuSans-65"/>
     <use x="1340.083984" xlink:href="#DejaVuSans-72"/>
    </g>
   </g>
   <g id="legend_1">
    <g id="patch_253">
     <path d="M 315.810938 475.6 
L 422.189063 475.6 
Q 424.189063 475.6 424.189063 473.6 
L 424.189063 342.496875 
Q 424.189063 340.496875 422.189063 340.496875 
L 315.810938 340.496875 
Q 313.810938 340.496875 313.810938 342.496875 
L 313.810938 473.6 
Q 313.810938 475.6 315.810938 475.6 
z
" style="fill:#ffffff;opacity:0.8;stroke:#cccccc;stroke-linejoin:miter;"/>
    </g>
    <g id="patch_254">
     <path d="M 317.810938 352.095313 
L 337.810938 352.095313 
L 337.810938 345.095313 
L 317.810938 345.095313 
z
" style="fill:#0000ff;opacity:0.5;stroke:#0000ff;stroke-linejoin:miter;"/>
    </g>
    <g id="text_38">
     <!-- New space -->
     <g transform="translate(345.810938 352.095313)scale(0.1 -0.1)">
      <defs>
       <path d="M 628 4666 
L 1478 4666 
L 3547 763 
L 3547 4666 
L 4159 4666 
L 4159 0 
L 3309 0 
L 1241 3903 
L 1241 0 
L 628 0 
L 628 4666 
z
" id="DejaVuSans-4e" transform="scale(0.015625)"/>
       <path d="M 269 3500 
L 844 3500 
L 1563 769 
L 2278 3500 
L 2956 3500 
L 3675 769 
L 4391 3500 
L 4966 3500 
L 4050 0 
L 3372 0 
L 2619 2869 
L 1863 0 
L 1184 0 
L 269 3500 
z
" id="DejaVuSans-77" transform="scale(0.015625)"/>
       <path d="M 1159 525 
L 1159 -1331 
L 581 -1331 
L 581 3500 
L 1159 3500 
L 1159 2969 
Q 1341 3281 1617 3432 
Q 1894 3584 2278 3584 
Q 2916 3584 3314 3078 
Q 3713 2572 3713 1747 
Q 3713 922 3314 415 
Q 2916 -91 2278 -91 
Q 1894 -91 1617 61 
Q 1341 213 1159 525 
z
M 3116 1747 
Q 3116 2381 2855 2742 
Q 2594 3103 2138 3103 
Q 1681 3103 1420 2742 
Q 1159 2381 1159 1747 
Q 1159 1113 1420 752 
Q 1681 391 2138 391 
Q 2594 391 2855 752 
Q 3116 1113 3116 1747 
z
" id="DejaVuSans-70" transform="scale(0.015625)"/>
      </defs>
      <use xlink:href="#DejaVuSans-4e"/>
      <use x="74.804688" xlink:href="#DejaVuSans-65"/>
      <use x="136.328125" xlink:href="#DejaVuSans-77"/>
      <use x="218.115234" xlink:href="#DejaVuSans-20"/>
      <use x="249.902344" xlink:href="#DejaVuSans-73"/>
      <use x="302.001953" xlink:href="#DejaVuSans-70"/>
      <use x="365.478516" xlink:href="#DejaVuSans-61"/>
      <use x="426.757812" xlink:href="#DejaVuSans-63"/>
      <use x="481.738281" xlink:href="#DejaVuSans-65"/>
     </g>
    </g>
    <g id="patch_255">
     <path d="M 317.810938 366.773438 
L 337.810938 366.773438 
L 337.810938 359.773438 
L 317.810938 359.773438 
z
" style="fill:#ff0000;opacity:0.5;stroke:#ff0000;stroke-linejoin:miter;"/>
    </g>
    <g id="text_39">
     <!-- Old space -->
     <g transform="translate(345.810938 366.773438)scale(0.1 -0.1)">
      <defs>
       <path d="M 603 4863 
L 1178 4863 
L 1178 0 
L 603 0 
L 603 4863 
z
" id="DejaVuSans-6c" transform="scale(0.015625)"/>
       <path d="M 2906 2969 
L 2906 4863 
L 3481 4863 
L 3481 0 
L 2906 0 
L 2906 525 
Q 2725 213 2448 61 
Q 2172 -91 1784 -91 
Q 1150 -91 751 415 
Q 353 922 353 1747 
Q 353 2572 751 3078 
Q 1150 3584 1784 3584 
Q 2172 3584 2448 3432 
Q 2725 3281 2906 2969 
z
M 947 1747 
Q 947 1113 1208 752 
Q 1469 391 1925 391 
Q 2381 391 2643 752 
Q 2906 1113 2906 1747 
Q 2906 2381 2643 2742 
Q 2381 3103 1925 3103 
Q 1469 3103 1208 2742 
Q 947 2381 947 1747 
z
" id="DejaVuSans-64" transform="scale(0.015625)"/>
      </defs>
      <use xlink:href="#DejaVuSans-4f"/>
      <use x="78.710938" xlink:href="#DejaVuSans-6c"/>
      <use x="106.494141" xlink:href="#DejaVuSans-64"/>
      <use x="169.970703" xlink:href="#DejaVuSans-20"/>
      <use x="201.757812" xlink:href="#DejaVuSans-73"/>
      <use x="253.857422" xlink:href="#DejaVuSans-70"/>
      <use x="317.333984" xlink:href="#DejaVuSans-61"/>
      <use x="378.613281" xlink:href="#DejaVuSans-63"/>
      <use x="433.59375" xlink:href="#DejaVuSans-65"/>
     </g>
    </g>
    <g id="patch_256">
     <path d="M 317.810938 381.451563 
L 337.810938 381.451563 
L 337.810938 374.451563 
L 317.810938 374.451563 
z
" style="fill:#800080;opacity:0.5;stroke:#800080;stroke-linejoin:miter;"/>
    </g>
    <g id="text_40">
     <!-- Code space -->
     <g transform="translate(345.810938 381.451563)scale(0.1 -0.1)">
      <use xlink:href="#DejaVuSans-43"/>
      <use x="69.824219" xlink:href="#DejaVuSans-6f"/>
      <use x="131.005859" xlink:href="#DejaVuSans-64"/>
      <use x="194.482422" xlink:href="#DejaVuSans-65"/>
      <use x="256.005859" xlink:href="#DejaVuSans-20"/>
      <use x="287.792969" xlink:href="#DejaVuSans-73"/>
      <use x="339.892578" xlink:href="#DejaVuSans-70"/>
      <use x="403.369141" xlink:href="#DejaVuSans-61"/>
      <use x="464.648438" xlink:href="#DejaVuSans-63"/>
      <use x="519.628906" xlink:href="#DejaVuSans-65"/>
     </g>
    </g>
    <g id="patch_257">
     <path d="M 317.810938 396.129688 
L 337.810938 396.129688 
L 337.810938 389.129688 
L 317.810938 389.129688 
z
" style="fill:#008000;opacity:0.5;stroke:#008000;stroke-linejoin:miter;"/>
    </g>
    <g id="text_41">
     <!-- Map space -->
     <g transform="translate(345.810938 396.129688)scale(0.1 -0.1)">
      <use xlink:href="#DejaVuSans-4d"/>
      <use x="86.279297" xlink:href="#DejaVuSans-61"/>
      <use x="147.558594" xlink:href="#DejaVuSans-70"/>
      <use x="211.035156" xlink:href="#DejaVuSans-20"/>
      <use x="242.822266" xlink:href="#DejaVuSans-73"/>
      <use x="294.921875" xlink:href="#DejaVuSans-70"/>
      <use x="358.398438" xlink:href="#DejaVuSans-61"/>
      <use x="419.677734" xlink:href="#DejaVuSans-63"/>
      <use x="474.658203" xlink:href="#DejaVuSans-65"/>
     </g>
    </g>
    <g id="patch_258">
     <path d="M 317.810938 410.807813 
L 337.810938 410.807813 
L 337.810938 403.807813 
L 317.810938 403.807813 
z
" style="fill:#808080;opacity:0.5;stroke:#808080;stroke-linejoin:miter;"/>
    </g>
    <g id="text_42">
     <!-- LO space -->
     <g transform="translate(345.810938 410.807813)scale(0.1 -0.1)">
      <defs>
       <path d="M 628 4666 
L 1259 4666 
L 1259 531 
L 3531 531 
L 3531 0 
L 628 0 
L 628 4666 
z
" id="DejaVuSans-4c" transform="scale(0.015625)"/>
      </defs>
      <use xlink:href="#DejaVuSans-4c"/>
      <use x="52.087891" xlink:href="#DejaVuSans-4f"/>
      <use x="130.798828" xlink:href="#DejaVuSans-20"/>
      <use x="162.585938" xlink:href="#DejaVuSans-73"/>
      <use x="214.685547" xlink:href="#DejaVuSans-70"/>
      <use x="278.162109" xlink:href="#DejaVuSans-61"/>
      <use x="339.441406" xlink:href="#DejaVuSans-63"/>
      <use x="394.421875" xlink:href="#DejaVuSans-65"/>
     </g>
    </g>
    <g id="patch_259">
     <path d="M 317.810938 425.485938 
L 337.810938 425.485938 
L 337.810938 418.485938 
L 317.810938 418.485938 
z
" style="fill:#ffc0cb;stroke:#ffc0cb;stroke-linejoin:miter;"/>
    </g>
    <g id="text_43">
     <!-- Code LO space -->
     <g transform="translate(345.810938 425.485938)scale(0.1 -0.1)">
      <use xlink:href="#DejaVuSans-43"/>
      <use x="69.824219" xlink:href="#DejaVuSans-6f"/>
      <use x="131.005859" xlink:href="#DejaVuSans-64"/>
      <use x="194.482422" xlink:href="#DejaVuSans-65"/>
      <use x="256.005859" xlink:href="#DejaVuSans-20"/>
      <use x="287.792969" xlink:href="#DejaVuSans-4c"/>
      <use x="339.880859" xlink:href="#DejaVuSans-4f"/>
      <use x="418.591797" xlink:href="#DejaVuSans-20"/>
      <use x="450.378906" xlink:href="#DejaVuSans-73"/>
      <use x="502.478516" xlink:href="#DejaVuSans-70"/>
      <use x="565.955078" xlink:href="#DejaVuSans-61"/>
      <use x="627.234375" xlink:href="#DejaVuSans-63"/>
      <use x="682.214844" xlink:href="#DejaVuSans-65"/>
     </g>
    </g>
    <g id="patch_260">
     <path d="M 317.810938 440.164062 
L 337.810938 440.164062 
L 337.810938 433.164062 
L 317.810938 433.164062 
z
" style="fill:#00ffff;opacity:0.5;stroke:#00ffff;stroke-linejoin:miter;"/>
    </g>
    <g id="text_44">
     <!-- New LO space -->
     <g transform="translate(345.810938 440.164062)scale(0.1 -0.1)">
      <use xlink:href="#DejaVuSans-4e"/>
      <use x="74.804688" xlink:href="#DejaVuSans-65"/>
      <use x="136.328125" xlink:href="#DejaVuSans-77"/>
      <use x="218.115234" xlink:href="#DejaVuSans-20"/>
      <use x="249.902344" xlink:href="#DejaVuSans-4c"/>
      <use x="301.990234" xlink:href="#DejaVuSans-4f"/>
      <use x="380.701172" xlink:href="#DejaVuSans-20"/>
      <use x="412.488281" xlink:href="#DejaVuSans-73"/>
      <use x="464.587891" xlink:href="#DejaVuSans-70"/>
      <use x="528.064453" xlink:href="#DejaVuSans-61"/>
      <use x="589.34375" xlink:href="#DejaVuSans-63"/>
      <use x="644.324219" xlink:href="#DejaVuSans-65"/>
     </g>
    </g>
    <g id="patch_261">
     <path d="M 317.810938 454.842188 
L 337.810938 454.842188 
L 337.810938 447.842188 
L 317.810938 447.842188 
z
" style="fill:#808000;opacity:0.5;stroke:#808000;stroke-linejoin:miter;"/>
    </g>
    <g id="text_45">
     <!-- RO space -->
     <g transform="translate(345.810938 454.842188)scale(0.1 -0.1)">
      <defs>
       <path d="M 2841 2188 
Q 3044 2119 3236 1894 
Q 3428 1669 3622 1275 
L 4263 0 
L 3584 0 
L 2988 1197 
Q 2756 1666 2539 1819 
Q 2322 1972 1947 1972 
L 1259 1972 
L 1259 0 
L 628 0 
L 628 4666 
L 2053 4666 
Q 2853 4666 3247 4331 
Q 3641 3997 3641 3322 
Q 3641 2881 3436 2590 
Q 3231 2300 2841 2188 
z
M 1259 4147 
L 1259 2491 
L 2053 2491 
Q 2509 2491 2742 2702 
Q 2975 2913 2975 3322 
Q 2975 3731 2742 3939 
Q 2509 4147 2053 4147 
L 1259 4147 
z
" id="DejaVuSans-52" transform="scale(0.015625)"/>
      </defs>
      <use xlink:href="#DejaVuSans-52"/>
      <use x="69.482422" xlink:href="#DejaVuSans-4f"/>
      <use x="148.193359" xlink:href="#DejaVuSans-20"/>
      <use x="179.980469" xlink:href="#DejaVuSans-73"/>
      <use x="232.080078" xlink:href="#DejaVuSans-70"/>
      <use x="295.556641" xlink:href="#DejaVuSans-61"/>
      <use x="356.835938" xlink:href="#DejaVuSans-63"/>
      <use x="411.816406" xlink:href="#DejaVuSans-65"/>
     </g>
    </g>
    <g id="patch_262">
     <path d="M 317.810938 469.520313 
L 337.810938 469.520313 
L 337.810938 462.520313 
L 317.810938 462.520313 
z
" style="stroke:#000000;stroke-linejoin:miter;"/>
    </g>
    <g id="text_46">
     <!-- Access count -->
     <g transform="translate(345.810938 469.520313)scale(0.1 -0.1)">
      <defs>
       <path d="M 2188 4044 
L 1331 1722 
L 3047 1722 
L 2188 4044 
z
M 1831 4666 
L 2547 4666 
L 4325 0 
L 3669 0 
L 3244 1197 
L 1141 1197 
L 716 0 
L 50 0 
L 1831 4666 
z
" id="DejaVuSans-41" transform="scale(0.015625)"/>
       <path d="M 544 1381 
L 544 3500 
L 1119 3500 
L 1119 1403 
Q 1119 906 1312 657 
Q 1506 409 1894 409 
Q 2359 409 2629 706 
Q 2900 1003 2900 1516 
L 2900 3500 
L 3475 3500 
L 3475 0 
L 2900 0 
L 2900 538 
Q 2691 219 2414 64 
Q 2138 -91 1772 -91 
Q 1169 -91 856 284 
Q 544 659 544 1381 
z
M 1991 3584 
L 1991 3584 
z
" id="DejaVuSans-75" transform="scale(0.015625)"/>
      </defs>
      <use xlink:href="#DejaVuSans-41"/>
      <use x="66.658203" xlink:href="#DejaVuSans-63"/>
      <use x="121.638672" xlink:href="#DejaVuSans-63"/>
      <use x="176.619141" xlink:href="#DejaVuSans-65"/>
      <use x="238.142578" xlink:href="#DejaVuSans-73"/>
      <use x="290.242188" xlink:href="#DejaVuSans-73"/>
      <use x="342.341797" xlink:href="#DejaVuSans-20"/>
      <use x="374.128906" xlink:href="#DejaVuSans-63"/>
      <use x="429.109375" xlink:href="#DejaVuSans-6f"/>
      <use x="490.291016" xlink:href="#DejaVuSans-75"/>
      <use x="553.669922" xlink:href="#DejaVuSans-6e"/>
      <use x="617.048828" xlink:href="#DejaVuSans-74"/>
     </g>
    </g>
   </g>
  </g>
 </g>
 <defs>
  <clipPath id="p5a6c305cb2">
   <rect height="415.8" width="558" x="90" y="64.8"/>
  </clipPath>
 </defs>
</svg>
