<?xml version="1.0" encoding="utf-8" standalone="no"?>
<!DOCTYPE svg PUBLIC "-//W3C//DTD SVG 1.1//EN"
  "http://www.w3.org/Graphics/SVG/1.1/DTD/svg11.dtd">
<!-- Created with matplotlib (https://matplotlib.org/) -->
<svg height="540pt" version="1.1" viewBox="0 0 720 540" width="720pt" xmlns="http://www.w3.org/2000/svg" xmlns:xlink="http://www.w3.org/1999/xlink">
 <metadata>
  <rdf:RDF xmlns:cc="http://creativecommons.org/ns#" xmlns:dc="http://purl.org/dc/elements/1.1/" xmlns:rdf="http://www.w3.org/1999/02/22-rdf-syntax-ns#">
   <cc:Work>
    <dc:type rdf:resource="http://purl.org/dc/dcmitype/StillImage"/>
    <dc:date>2021-05-22T08:34:29.271856</dc:date>
    <dc:format>image/svg+xml</dc:format>
    <dc:creator>
     <cc:Agent>
      <dc:title>Matplotlib v3.3.4, https://matplotlib.org/</dc:title>
     </cc:Agent>
    </dc:creator>
   </cc:Work>
  </rdf:RDF>
 </metadata>
 <defs>
  <style type="text/css">*{stroke-linecap:butt;stroke-linejoin:round;}</style>
 </defs>
 <g id="figure_1">
  <g id="patch_1">
   <path d="M 0 540 
L 720 540 
L 720 0 
L 0 0 
z
" style="fill:#ffffff;"/>
  </g>
  <g id="axes_1">
   <g id="patch_2">
    <path d="M 90 480.6 
L 648 480.6 
L 648 64.8 
L 90 64.8 
z
" style="fill:#ffffff;"/>
   </g>
   <g id="patch_3">
    <path clip-path="url(#p2969f5be22)" d="M 494.838621 480.6 
L 494.838621 64.8 
L 495.608276 64.8 
L 495.608276 480.6 
z
" style="fill:#1f77b4;opacity:0.5;"/>
   </g>
   <g id="patch_4">
    <path clip-path="url(#p2969f5be22)" d="M 604.129655 480.6 
L 604.129655 64.8 
L 604.89931 64.8 
L 604.89931 480.6 
z
" style="fill:#1f77b4;opacity:0.5;"/>
   </g>
   <g id="patch_5">
    <path clip-path="url(#p2969f5be22)" d="M 516.388966 480.6 
L 516.388966 64.8 
L 517.158621 64.8 
L 517.158621 480.6 
z
" style="fill:#1f77b4;opacity:0.5;"/>
   </g>
   <g id="patch_6">
    <path clip-path="url(#p2969f5be22)" d="M 544.096552 480.6 
L 544.096552 64.8 
L 544.866207 64.8 
L 544.866207 480.6 
z
" style="fill:#1f77b4;opacity:0.5;"/>
   </g>
   <g id="patch_7">
    <path clip-path="url(#p2969f5be22)" d="M 547.944828 480.6 
L 547.944828 64.8 
L 548.714483 64.8 
L 548.714483 480.6 
z
" style="fill:#1f77b4;opacity:0.5;"/>
   </g>
   <g id="patch_8">
    <path clip-path="url(#p2969f5be22)" d="M 501.765517 480.6 
L 501.765517 64.8 
L 502.535172 64.8 
L 502.535172 480.6 
z
" style="fill:#1f77b4;opacity:0.5;"/>
   </g>
   <g id="patch_9">
    <path clip-path="url(#p2969f5be22)" d="M 499.456552 480.6 
L 499.456552 64.8 
L 500.226207 64.8 
L 500.226207 480.6 
z
" style="fill:#1f77b4;opacity:0.5;"/>
   </g>
   <g id="patch_10">
    <path clip-path="url(#p2969f5be22)" d="M 545.635862 480.6 
L 545.635862 64.8 
L 546.405517 64.8 
L 546.405517 480.6 
z
" style="fill:#1f77b4;opacity:0.5;"/>
   </g>
   <g id="patch_11">
    <path clip-path="url(#p2969f5be22)" d="M 536.4 480.6 
L 536.4 64.8 
L 537.169655 64.8 
L 537.169655 480.6 
z
" style="fill:#1f77b4;opacity:0.5;"/>
   </g>
   <g id="patch_12">
    <path clip-path="url(#p2969f5be22)" d="M 546.405517 480.6 
L 546.405517 64.8 
L 547.175172 64.8 
L 547.175172 480.6 
z
" style="fill:#1f77b4;opacity:0.5;"/>
   </g>
   <g id="patch_13">
    <path clip-path="url(#p2969f5be22)" d="M 537.93931 480.6 
L 537.93931 64.8 
L 538.708966 64.8 
L 538.708966 480.6 
z
" style="fill:#1f77b4;opacity:0.5;"/>
   </g>
   <g id="patch_14">
    <path clip-path="url(#p2969f5be22)" d="M 543.326897 480.6 
L 543.326897 64.8 
L 544.096552 64.8 
L 544.096552 480.6 
z
" style="fill:#1f77b4;opacity:0.5;"/>
   </g>
   <g id="patch_15">
    <path clip-path="url(#p2969f5be22)" d="M 541.787586 480.6 
L 541.787586 64.8 
L 542.557241 64.8 
L 542.557241 480.6 
z
" style="fill:#1f77b4;opacity:0.5;"/>
   </g>
   <g id="patch_16">
    <path clip-path="url(#p2969f5be22)" d="M 537.169655 480.6 
L 537.169655 64.8 
L 537.93931 64.8 
L 537.93931 480.6 
z
" style="fill:#1f77b4;opacity:0.5;"/>
   </g>
   <g id="patch_17">
    <path clip-path="url(#p2969f5be22)" d="M 517.158621 480.6 
L 517.158621 64.8 
L 517.928276 64.8 
L 517.928276 480.6 
z
" style="fill:#1f77b4;opacity:0.5;"/>
   </g>
   <g id="patch_18">
    <path clip-path="url(#p2969f5be22)" d="M 564.107586 480.6 
L 564.107586 64.8 
L 564.877241 64.8 
L 564.877241 480.6 
z
" style="fill:#1f77b4;opacity:0.5;"/>
   </g>
   <g id="patch_19">
    <path clip-path="url(#p2969f5be22)" d="M 512.54069 480.6 
L 512.54069 64.8 
L 513.310345 64.8 
L 513.310345 480.6 
z
" style="fill:#1f77b4;opacity:0.5;"/>
   </g>
   <g id="patch_20">
    <path clip-path="url(#p2969f5be22)" d="M 533.321379 480.6 
L 533.321379 64.8 
L 534.091034 64.8 
L 534.091034 480.6 
z
" style="fill:#1f77b4;opacity:0.5;"/>
   </g>
   <g id="patch_21">
    <path clip-path="url(#p2969f5be22)" d="M 547.175172 480.6 
L 547.175172 64.8 
L 547.944828 64.8 
L 547.944828 480.6 
z
" style="fill:#1f77b4;opacity:0.5;"/>
   </g>
   <g id="patch_22">
    <path clip-path="url(#p2969f5be22)" d="M 515.61931 480.6 
L 515.61931 64.8 
L 516.388966 64.8 
L 516.388966 480.6 
z
" style="fill:#1f77b4;opacity:0.5;"/>
   </g>
   <g id="patch_23">
    <path clip-path="url(#p2969f5be22)" d="M 514.849655 480.6 
L 514.849655 64.8 
L 515.61931 64.8 
L 515.61931 480.6 
z
" style="fill:#1f77b4;opacity:0.5;"/>
   </g>
   <g id="patch_24">
    <path clip-path="url(#p2969f5be22)" d="M 511.771034 480.6 
L 511.771034 64.8 
L 512.54069 64.8 
L 512.54069 480.6 
z
" style="fill:#1f77b4;opacity:0.5;"/>
   </g>
   <g id="patch_25">
    <path clip-path="url(#p2969f5be22)" d="M 513.310345 480.6 
L 513.310345 64.8 
L 514.08 64.8 
L 514.08 480.6 
z
" style="fill:#1f77b4;opacity:0.5;"/>
   </g>
   <g id="patch_26">
    <path clip-path="url(#p2969f5be22)" d="M 564.877241 480.6 
L 564.877241 64.8 
L 565.646897 64.8 
L 565.646897 480.6 
z
" style="fill:#1f77b4;opacity:0.5;"/>
   </g>
   <g id="patch_27">
    <path clip-path="url(#p2969f5be22)" d="M 542.557241 480.6 
L 542.557241 64.8 
L 543.326897 64.8 
L 543.326897 480.6 
z
" style="fill:#1f77b4;opacity:0.5;"/>
   </g>
   <g id="patch_28">
    <path clip-path="url(#p2969f5be22)" d="M 619.522759 480.6 
L 619.522759 64.8 
L 620.292414 64.8 
L 620.292414 480.6 
z
" style="fill:#1f77b4;opacity:0.5;"/>
   </g>
   <g id="patch_29">
    <path clip-path="url(#p2969f5be22)" d="M 634.146207 480.6 
L 634.146207 64.8 
L 634.915862 64.8 
L 634.915862 480.6 
z
" style="fill:#1f77b4;opacity:0.5;"/>
   </g>
   <g id="patch_30">
    <path clip-path="url(#p2969f5be22)" d="M 605.668966 480.6 
L 605.668966 64.8 
L 606.438621 64.8 
L 606.438621 480.6 
z
" style="fill:#1f77b4;opacity:0.5;"/>
   </g>
   <g id="patch_31">
    <path clip-path="url(#p2969f5be22)" d="M 544.866207 480.6 
L 544.866207 64.8 
L 545.635862 64.8 
L 545.635862 480.6 
z
" style="fill:#1f77b4;opacity:0.5;"/>
   </g>
   <g id="patch_32">
    <path clip-path="url(#p2969f5be22)" d="M 606.438621 480.6 
L 606.438621 64.8 
L 607.208276 64.8 
L 607.208276 480.6 
z
" style="fill:#1f77b4;opacity:0.5;"/>
   </g>
   <g id="patch_33">
    <path clip-path="url(#p2969f5be22)" d="M 514.08 480.6 
L 514.08 64.8 
L 514.849655 64.8 
L 514.849655 480.6 
z
" style="fill:#1f77b4;opacity:0.5;"/>
   </g>
   <g id="patch_34">
    <path clip-path="url(#p2969f5be22)" d="M 597.202759 480.6 
L 597.202759 64.8 
L 597.972414 64.8 
L 597.972414 480.6 
z
" style="fill:#1f77b4;opacity:0.5;"/>
   </g>
   <g id="patch_35">
    <path clip-path="url(#p2969f5be22)" d="M 586.427586 480.6 
L 586.427586 64.8 
L 587.197241 64.8 
L 587.197241 480.6 
z
" style="fill:#d62728;opacity:0.5;"/>
   </g>
   <g id="patch_36">
    <path clip-path="url(#p2969f5be22)" d="M 507.153103 480.6 
L 507.153103 64.8 
L 507.922759 64.8 
L 507.922759 480.6 
z
" style="fill:#d62728;opacity:0.5;"/>
   </g>
   <g id="patch_37">
    <path clip-path="url(#p2969f5be22)" d="M 558.72 480.6 
L 558.72 64.8 
L 559.489655 64.8 
L 559.489655 480.6 
z
" style="fill:#d62728;opacity:0.5;"/>
   </g>
   <g id="patch_38">
    <path clip-path="url(#p2969f5be22)" d="M 504.844138 480.6 
L 504.844138 64.8 
L 505.613793 64.8 
L 505.613793 480.6 
z
" style="fill:#d62728;opacity:0.5;"/>
   </g>
   <g id="patch_39">
    <path clip-path="url(#p2969f5be22)" d="M 574.882759 480.6 
L 574.882759 64.8 
L 575.652414 64.8 
L 575.652414 480.6 
z
" style="fill:#d62728;opacity:0.5;"/>
   </g>
   <g id="patch_40">
    <path clip-path="url(#p2969f5be22)" d="M 587.966897 480.6 
L 587.966897 64.8 
L 588.736552 64.8 
L 588.736552 480.6 
z
" style="fill:#d62728;opacity:0.5;"/>
   </g>
   <g id="patch_41">
    <path clip-path="url(#p2969f5be22)" d="M 593.354483 480.6 
L 593.354483 64.8 
L 594.124138 64.8 
L 594.124138 480.6 
z
" style="fill:#d62728;opacity:0.5;"/>
   </g>
   <g id="patch_42">
    <path clip-path="url(#p2969f5be22)" d="M 601.051034 480.6 
L 601.051034 64.8 
L 601.82069 64.8 
L 601.82069 480.6 
z
" style="fill:#d62728;opacity:0.5;"/>
   </g>
   <g id="patch_43">
    <path clip-path="url(#p2969f5be22)" d="M 567.955862 480.6 
L 567.955862 64.8 
L 568.725517 64.8 
L 568.725517 480.6 
z
" style="fill:#d62728;opacity:0.5;"/>
   </g>
   <g id="patch_44">
    <path clip-path="url(#p2969f5be22)" d="M 569.495172 480.6 
L 569.495172 64.8 
L 570.264828 64.8 
L 570.264828 480.6 
z
" style="fill:#d62728;opacity:0.5;"/>
   </g>
   <g id="patch_45">
    <path clip-path="url(#p2969f5be22)" d="M 580.270345 480.6 
L 580.270345 64.8 
L 581.04 64.8 
L 581.04 480.6 
z
" style="fill:#d62728;opacity:0.5;"/>
   </g>
   <g id="patch_46">
    <path clip-path="url(#p2969f5be22)" d="M 526.394483 480.6 
L 526.394483 64.8 
L 527.164138 64.8 
L 527.164138 480.6 
z
" style="fill:#d62728;opacity:0.5;"/>
   </g>
   <g id="patch_47">
    <path clip-path="url(#p2969f5be22)" d="M 594.124138 480.6 
L 594.124138 64.8 
L 594.893793 64.8 
L 594.893793 480.6 
z
" style="fill:#d62728;opacity:0.5;"/>
   </g>
   <g id="patch_48">
    <path clip-path="url(#p2969f5be22)" d="M 490.22069 480.6 
L 490.22069 64.8 
L 490.990345 64.8 
L 490.990345 480.6 
z
" style="fill:#d62728;opacity:0.5;"/>
   </g>
   <g id="patch_49">
    <path clip-path="url(#p2969f5be22)" d="M 562.568276 480.6 
L 562.568276 64.8 
L 563.337931 64.8 
L 563.337931 480.6 
z
" style="fill:#d62728;opacity:0.5;"/>
   </g>
   <g id="patch_50">
    <path clip-path="url(#p2969f5be22)" d="M 540.248276 480.6 
L 540.248276 64.8 
L 541.017931 64.8 
L 541.017931 480.6 
z
" style="fill:#d62728;opacity:0.5;"/>
   </g>
   <g id="patch_51">
    <path clip-path="url(#p2969f5be22)" d="M 576.422069 480.6 
L 576.422069 64.8 
L 577.191724 64.8 
L 577.191724 480.6 
z
" style="fill:#d62728;opacity:0.5;"/>
   </g>
   <g id="patch_52">
    <path clip-path="url(#p2969f5be22)" d="M 487.911724 480.6 
L 487.911724 64.8 
L 488.681379 64.8 
L 488.681379 480.6 
z
" style="fill:#d62728;opacity:0.5;"/>
   </g>
   <g id="patch_53">
    <path clip-path="url(#p2969f5be22)" d="M 519.467586 480.6 
L 519.467586 64.8 
L 520.237241 64.8 
L 520.237241 480.6 
z
" style="fill:#d62728;opacity:0.5;"/>
   </g>
   <g id="patch_54">
    <path clip-path="url(#p2969f5be22)" d="M 522.546207 480.6 
L 522.546207 64.8 
L 523.315862 64.8 
L 523.315862 480.6 
z
" style="fill:#d62728;opacity:0.5;"/>
   </g>
   <g id="patch_55">
    <path clip-path="url(#p2969f5be22)" d="M 517.928276 480.6 
L 517.928276 64.8 
L 518.697931 64.8 
L 518.697931 480.6 
z
" style="fill:#d62728;opacity:0.5;"/>
   </g>
   <g id="patch_56">
    <path clip-path="url(#p2969f5be22)" d="M 507.922759 480.6 
L 507.922759 64.8 
L 508.692414 64.8 
L 508.692414 480.6 
z
" style="fill:#d62728;opacity:0.5;"/>
   </g>
   <g id="patch_57">
    <path clip-path="url(#p2969f5be22)" d="M 511.001379 480.6 
L 511.001379 64.8 
L 511.771034 64.8 
L 511.771034 480.6 
z
" style="fill:#d62728;opacity:0.5;"/>
   </g>
   <g id="patch_58">
    <path clip-path="url(#p2969f5be22)" d="M 623.371034 480.6 
L 623.371034 64.8 
L 624.14069 64.8 
L 624.14069 480.6 
z
" style="fill:#d62728;opacity:0.5;"/>
   </g>
   <g id="patch_59">
    <path clip-path="url(#p2969f5be22)" d="M 624.910345 480.6 
L 624.910345 64.8 
L 625.68 64.8 
L 625.68 480.6 
z
" style="fill:#d62728;opacity:0.5;"/>
   </g>
   <g id="patch_60">
    <path clip-path="url(#p2969f5be22)" d="M 620.292414 480.6 
L 620.292414 64.8 
L 621.062069 64.8 
L 621.062069 480.6 
z
" style="fill:#d62728;opacity:0.5;"/>
   </g>
   <g id="patch_61">
    <path clip-path="url(#p2969f5be22)" d="M 626.449655 480.6 
L 626.449655 64.8 
L 627.21931 64.8 
L 627.21931 480.6 
z
" style="fill:#d62728;opacity:0.5;"/>
   </g>
   <g id="patch_62">
    <path clip-path="url(#p2969f5be22)" d="M 627.21931 480.6 
L 627.21931 64.8 
L 627.988966 64.8 
L 627.988966 480.6 
z
" style="fill:#d62728;opacity:0.5;"/>
   </g>
   <g id="patch_63">
    <path clip-path="url(#p2969f5be22)" d="M 631.837241 480.6 
L 631.837241 64.8 
L 632.606897 64.8 
L 632.606897 480.6 
z
" style="fill:#d62728;opacity:0.5;"/>
   </g>
   <g id="patch_64">
    <path clip-path="url(#p2969f5be22)" d="M 633.376552 480.6 
L 633.376552 64.8 
L 634.146207 64.8 
L 634.146207 480.6 
z
" style="fill:#d62728;opacity:0.5;"/>
   </g>
   <g id="patch_65">
    <path clip-path="url(#p2969f5be22)" d="M 600.281379 480.6 
L 600.281379 64.8 
L 601.051034 64.8 
L 601.051034 480.6 
z
" style="fill:#d62728;opacity:0.5;"/>
   </g>
   <g id="patch_66">
    <path clip-path="url(#p2969f5be22)" d="M 609.517241 480.6 
L 609.517241 64.8 
L 610.286897 64.8 
L 610.286897 480.6 
z
" style="fill:#d62728;opacity:0.5;"/>
   </g>
   <g id="patch_67">
    <path clip-path="url(#p2969f5be22)" d="M 489.451034 480.6 
L 489.451034 64.8 
L 489.679526 64.8 
L 489.679526 480.6 
z
" style="fill:#d62728;opacity:0.5;"/>
   </g>
   <g id="patch_68">
    <path clip-path="url(#p2969f5be22)" d="M 585.657931 480.6 
L 585.657931 64.8 
L 586.427586 64.8 
L 586.427586 480.6 
z
" style="fill:#d62728;opacity:0.5;"/>
   </g>
   <g id="patch_69">
    <path clip-path="url(#p2969f5be22)" d="M 530.242759 480.6 
L 530.242759 64.8 
L 531.012414 64.8 
L 531.012414 480.6 
z
" style="fill:#d62728;opacity:0.5;"/>
   </g>
   <g id="patch_70">
    <path clip-path="url(#p2969f5be22)" d="M 541.017931 480.6 
L 541.017931 64.8 
L 541.787586 64.8 
L 541.787586 480.6 
z
" style="fill:#d62728;opacity:0.5;"/>
   </g>
   <g id="patch_71">
    <path clip-path="url(#p2969f5be22)" d="M 528.703448 480.6 
L 528.703448 64.8 
L 529.473103 64.8 
L 529.473103 480.6 
z
" style="fill:#d62728;opacity:0.5;"/>
   </g>
   <g id="patch_72">
    <path clip-path="url(#p2969f5be22)" d="M 531.782069 480.6 
L 531.782069 64.8 
L 532.551724 64.8 
L 532.551724 480.6 
z
" style="fill:#d62728;opacity:0.5;"/>
   </g>
   <g id="patch_73">
    <path clip-path="url(#p2969f5be22)" d="M 587.197241 480.6 
L 587.197241 64.8 
L 587.966897 64.8 
L 587.966897 480.6 
z
" style="fill:#d62728;opacity:0.5;"/>
   </g>
   <g id="patch_74">
    <path clip-path="url(#p2969f5be22)" d="M 534.091034 480.6 
L 534.091034 64.8 
L 534.86069 64.8 
L 534.86069 480.6 
z
" style="fill:#d62728;opacity:0.5;"/>
   </g>
   <g id="patch_75">
    <path clip-path="url(#p2969f5be22)" d="M 525.624828 480.6 
L 525.624828 64.8 
L 526.394483 64.8 
L 526.394483 480.6 
z
" style="fill:#d62728;opacity:0.5;"/>
   </g>
   <g id="patch_76">
    <path clip-path="url(#p2969f5be22)" d="M 566.416552 480.6 
L 566.416552 64.8 
L 567.186207 64.8 
L 567.186207 480.6 
z
" style="fill:#d62728;opacity:0.5;"/>
   </g>
   <g id="patch_77">
    <path clip-path="url(#p2969f5be22)" d="M 531.012414 480.6 
L 531.012414 64.8 
L 531.782069 64.8 
L 531.782069 480.6 
z
" style="fill:#d62728;opacity:0.5;"/>
   </g>
   <g id="patch_78">
    <path clip-path="url(#p2969f5be22)" d="M 624.14069 480.6 
L 624.14069 64.8 
L 624.910345 64.8 
L 624.910345 480.6 
z
" style="fill:#d62728;opacity:0.5;"/>
   </g>
   <g id="patch_79">
    <path clip-path="url(#p2969f5be22)" d="M 588.736552 480.6 
L 588.736552 64.8 
L 589.506207 64.8 
L 589.506207 480.6 
z
" style="fill:#d62728;opacity:0.5;"/>
   </g>
   <g id="patch_80">
    <path clip-path="url(#p2969f5be22)" d="M 532.551724 480.6 
L 532.551724 64.8 
L 533.321379 64.8 
L 533.321379 480.6 
z
" style="fill:#d62728;opacity:0.5;"/>
   </g>
   <g id="patch_81">
    <path clip-path="url(#p2969f5be22)" d="M 554.102069 480.6 
L 554.102069 64.8 
L 554.871724 64.8 
L 554.871724 480.6 
z
" style="fill:#d62728;opacity:0.5;"/>
   </g>
   <g id="patch_82">
    <path clip-path="url(#p2969f5be22)" d="M 535.630345 480.6 
L 535.630345 64.8 
L 536.4 64.8 
L 536.4 480.6 
z
" style="fill:#d62728;opacity:0.5;"/>
   </g>
   <g id="patch_83">
    <path clip-path="url(#p2969f5be22)" d="M 618.753103 480.6 
L 618.753103 64.8 
L 619.522759 64.8 
L 619.522759 480.6 
z
" style="fill:#d62728;opacity:0.5;"/>
   </g>
   <g id="patch_84">
    <path clip-path="url(#p2969f5be22)" d="M 596.433103 480.6 
L 596.433103 64.8 
L 597.202759 64.8 
L 597.202759 480.6 
z
" style="fill:#d62728;opacity:0.5;"/>
   </g>
   <g id="patch_85">
    <path clip-path="url(#p2969f5be22)" d="M 500.226207 480.6 
L 500.226207 64.8 
L 500.995862 64.8 
L 500.995862 480.6 
z
" style="fill:#d62728;opacity:0.5;"/>
   </g>
   <g id="patch_86">
    <path clip-path="url(#p2969f5be22)" d="M 611.826207 480.6 
L 611.826207 64.8 
L 612.595862 64.8 
L 612.595862 480.6 
z
" style="fill:#d62728;opacity:0.5;"/>
   </g>
   <g id="patch_87">
    <path clip-path="url(#p2969f5be22)" d="M 567.186207 480.6 
L 567.186207 64.8 
L 567.955862 64.8 
L 567.955862 480.6 
z
" style="fill:#d62728;opacity:0.5;"/>
   </g>
   <g id="patch_88">
    <path clip-path="url(#p2969f5be22)" d="M 571.804138 480.6 
L 571.804138 64.8 
L 572.573793 64.8 
L 572.573793 480.6 
z
" style="fill:#d62728;opacity:0.5;"/>
   </g>
   <g id="patch_89">
    <path clip-path="url(#p2969f5be22)" d="M 505.613793 480.6 
L 505.613793 64.8 
L 506.383448 64.8 
L 506.383448 480.6 
z
" style="fill:#d62728;opacity:0.5;"/>
   </g>
   <g id="patch_90">
    <path clip-path="url(#p2969f5be22)" d="M 589.506207 480.6 
L 589.506207 64.8 
L 590.275862 64.8 
L 590.275862 480.6 
z
" style="fill:#d62728;opacity:0.5;"/>
   </g>
   <g id="patch_91">
    <path clip-path="url(#p2969f5be22)" d="M 603.36 480.6 
L 603.36 64.8 
L 604.129655 64.8 
L 604.129655 480.6 
z
" style="fill:#d62728;opacity:0.5;"/>
   </g>
   <g id="patch_92">
    <path clip-path="url(#p2969f5be22)" d="M 534.86069 480.6 
L 534.86069 64.8 
L 535.630345 64.8 
L 535.630345 480.6 
z
" style="fill:#d62728;opacity:0.5;"/>
   </g>
   <g id="patch_93">
    <path clip-path="url(#p2969f5be22)" d="M 591.045517 480.6 
L 591.045517 64.8 
L 591.815172 64.8 
L 591.815172 480.6 
z
" style="fill:#d62728;opacity:0.5;"/>
   </g>
   <g id="patch_94">
    <path clip-path="url(#p2969f5be22)" d="M 571.034483 480.6 
L 571.034483 64.8 
L 571.804138 64.8 
L 571.804138 480.6 
z
" style="fill:#d62728;opacity:0.5;"/>
   </g>
   <g id="patch_95">
    <path clip-path="url(#p2969f5be22)" d="M 621.062069 480.6 
L 621.062069 64.8 
L 621.831724 64.8 
L 621.831724 480.6 
z
" style="fill:#d62728;opacity:0.5;"/>
   </g>
   <g id="patch_96">
    <path clip-path="url(#p2969f5be22)" d="M 521.776552 480.6 
L 521.776552 64.8 
L 522.546207 64.8 
L 522.546207 480.6 
z
" style="fill:#d62728;opacity:0.5;"/>
   </g>
   <g id="patch_97">
    <path clip-path="url(#p2969f5be22)" d="M 584.118621 480.6 
L 584.118621 64.8 
L 584.888276 64.8 
L 584.888276 480.6 
z
" style="fill:#d62728;opacity:0.5;"/>
   </g>
   <g id="patch_98">
    <path clip-path="url(#p2969f5be22)" d="M 579.50069 480.6 
L 579.50069 64.8 
L 580.270345 64.8 
L 580.270345 480.6 
z
" style="fill:#d62728;opacity:0.5;"/>
   </g>
   <g id="patch_99">
    <path clip-path="url(#p2969f5be22)" d="M 559.489655 480.6 
L 559.489655 64.8 
L 560.25931 64.8 
L 560.25931 480.6 
z
" style="fill:#d62728;opacity:0.5;"/>
   </g>
   <g id="patch_100">
    <path clip-path="url(#p2969f5be22)" d="M 484.833103 480.6 
L 484.833103 64.8 
L 485.602759 64.8 
L 485.602759 480.6 
z
" style="fill:#d62728;opacity:0.5;"/>
   </g>
   <g id="patch_101">
    <path clip-path="url(#p2969f5be22)" d="M 557.950345 480.6 
L 557.950345 64.8 
L 558.72 64.8 
L 558.72 480.6 
z
" style="fill:#d62728;opacity:0.5;"/>
   </g>
   <g id="patch_102">
    <path clip-path="url(#p2969f5be22)" d="M 520.237241 480.6 
L 520.237241 64.8 
L 521.006897 64.8 
L 521.006897 480.6 
z
" style="fill:#d62728;opacity:0.5;"/>
   </g>
   <g id="patch_103">
    <path clip-path="url(#p2969f5be22)" d="M 521.006897 480.6 
L 521.006897 64.8 
L 521.776552 64.8 
L 521.776552 480.6 
z
" style="fill:#d62728;opacity:0.5;"/>
   </g>
   <g id="patch_104">
    <path clip-path="url(#p2969f5be22)" d="M 578.731034 480.6 
L 578.731034 64.8 
L 579.50069 64.8 
L 579.50069 480.6 
z
" style="fill:#d62728;opacity:0.5;"/>
   </g>
   <g id="patch_105">
    <path clip-path="url(#p2969f5be22)" d="M 570.264828 480.6 
L 570.264828 64.8 
L 571.034483 64.8 
L 571.034483 480.6 
z
" style="fill:#d62728;opacity:0.5;"/>
   </g>
   <g id="patch_106">
    <path clip-path="url(#p2969f5be22)" d="M 538.708966 480.6 
L 538.708966 64.8 
L 539.478621 64.8 
L 539.478621 480.6 
z
" style="fill:#d62728;opacity:0.5;"/>
   </g>
   <g id="patch_107">
    <path clip-path="url(#p2969f5be22)" d="M 621.831724 480.6 
L 621.831724 64.8 
L 622.601379 64.8 
L 622.601379 480.6 
z
" style="fill:#d62728;opacity:0.5;"/>
   </g>
   <g id="patch_108">
    <path clip-path="url(#p2969f5be22)" d="M 607.977931 480.6 
L 607.977931 64.8 
L 608.747586 64.8 
L 608.747586 480.6 
z
" style="fill:#d62728;opacity:0.5;"/>
   </g>
   <g id="patch_109">
    <path clip-path="url(#p2969f5be22)" d="M 575.652414 480.6 
L 575.652414 64.8 
L 576.422069 64.8 
L 576.422069 480.6 
z
" style="fill:#d62728;opacity:0.5;"/>
   </g>
   <g id="patch_110">
    <path clip-path="url(#p2969f5be22)" d="M 604.89931 480.6 
L 604.89931 64.8 
L 605.668966 64.8 
L 605.668966 480.6 
z
" style="fill:#d62728;opacity:0.5;"/>
   </g>
   <g id="patch_111">
    <path clip-path="url(#p2969f5be22)" d="M 554.871724 480.6 
L 554.871724 64.8 
L 555.641379 64.8 
L 555.641379 480.6 
z
" style="fill:#d62728;opacity:0.5;"/>
   </g>
   <g id="patch_112">
    <path clip-path="url(#p2969f5be22)" d="M 612.595862 480.6 
L 612.595862 64.8 
L 613.365517 64.8 
L 613.365517 480.6 
z
" style="fill:#d62728;opacity:0.5;"/>
   </g>
   <g id="patch_113">
    <path clip-path="url(#p2969f5be22)" d="M 498.686897 480.6 
L 498.686897 64.8 
L 499.456552 64.8 
L 499.456552 480.6 
z
" style="fill:#d62728;opacity:0.5;"/>
   </g>
   <g id="patch_114">
    <path clip-path="url(#p2969f5be22)" d="M 583.348966 480.6 
L 583.348966 64.8 
L 584.118621 64.8 
L 584.118621 480.6 
z
" style="fill:#d62728;opacity:0.5;"/>
   </g>
   <g id="patch_115">
    <path clip-path="url(#p2969f5be22)" d="M 608.747586 480.6 
L 608.747586 64.8 
L 609.517241 64.8 
L 609.517241 480.6 
z
" style="fill:#d62728;opacity:0.5;"/>
   </g>
   <g id="patch_116">
    <path clip-path="url(#p2969f5be22)" d="M 594.893793 480.6 
L 594.893793 64.8 
L 595.663448 64.8 
L 595.663448 480.6 
z
" style="fill:#d62728;opacity:0.5;"/>
   </g>
   <g id="patch_117">
    <path clip-path="url(#p2969f5be22)" d="M 509.462069 480.6 
L 509.462069 64.8 
L 510.231724 64.8 
L 510.231724 480.6 
z
" style="fill:#d62728;opacity:0.5;"/>
   </g>
   <g id="patch_118">
    <path clip-path="url(#p2969f5be22)" d="M 491.76 480.6 
L 491.76 64.8 
L 492.529655 64.8 
L 492.529655 480.6 
z
" style="fill:#d62728;opacity:0.5;"/>
   </g>
   <g id="patch_119">
    <path clip-path="url(#p2969f5be22)" d="M 598.742069 480.6 
L 598.742069 64.8 
L 599.511724 64.8 
L 599.511724 480.6 
z
" style="fill:#d62728;opacity:0.5;"/>
   </g>
   <g id="patch_120">
    <path clip-path="url(#p2969f5be22)" d="M 487.142069 480.6 
L 487.142069 64.8 
L 487.911724 64.8 
L 487.911724 480.6 
z
" style="fill:#d62728;opacity:0.5;"/>
   </g>
   <g id="patch_121">
    <path clip-path="url(#p2969f5be22)" d="M 563.337931 480.6 
L 563.337931 64.8 
L 564.107586 64.8 
L 564.107586 480.6 
z
" style="fill:#d62728;opacity:0.5;"/>
   </g>
   <g id="patch_122">
    <path clip-path="url(#p2969f5be22)" d="M 497.147586 480.6 
L 497.147586 64.8 
L 497.917241 64.8 
L 497.917241 480.6 
z
" style="fill:#d62728;opacity:0.5;"/>
   </g>
   <g id="patch_123">
    <path clip-path="url(#p2969f5be22)" d="M 602.590345 480.6 
L 602.590345 64.8 
L 603.36 64.8 
L 603.36 480.6 
z
" style="fill:#d62728;opacity:0.5;"/>
   </g>
   <g id="patch_124">
    <path clip-path="url(#p2969f5be22)" d="M 503.304828 480.6 
L 503.304828 64.8 
L 504.074483 64.8 
L 504.074483 480.6 
z
" style="fill:#d62728;opacity:0.5;"/>
   </g>
   <g id="patch_125">
    <path clip-path="url(#p2969f5be22)" d="M 502.535172 480.6 
L 502.535172 64.8 
L 503.304828 64.8 
L 503.304828 480.6 
z
" style="fill:#d62728;opacity:0.5;"/>
   </g>
   <g id="patch_126">
    <path clip-path="url(#p2969f5be22)" d="M 561.028966 480.6 
L 561.028966 64.8 
L 561.798621 64.8 
L 561.798621 480.6 
z
" style="fill:#d62728;opacity:0.5;"/>
   </g>
   <g id="patch_127">
    <path clip-path="url(#p2969f5be22)" d="M 610.286897 480.6 
L 610.286897 64.8 
L 611.056552 64.8 
L 611.056552 480.6 
z
" style="fill:#d62728;opacity:0.5;"/>
   </g>
   <g id="patch_128">
    <path clip-path="url(#p2969f5be22)" d="M 613.365517 480.6 
L 613.365517 64.8 
L 614.135172 64.8 
L 614.135172 480.6 
z
" style="fill:#d62728;opacity:0.5;"/>
   </g>
   <g id="patch_129">
    <path clip-path="url(#p2969f5be22)" d="M 615.674483 480.6 
L 615.674483 64.8 
L 616.444138 64.8 
L 616.444138 480.6 
z
" style="fill:#d62728;opacity:0.5;"/>
   </g>
   <g id="patch_130">
    <path clip-path="url(#p2969f5be22)" d="M 617.213793 480.6 
L 617.213793 64.8 
L 617.983448 64.8 
L 617.983448 480.6 
z
" style="fill:#d62728;opacity:0.5;"/>
   </g>
   <g id="patch_131">
    <path clip-path="url(#p2969f5be22)" d="M 592.584828 480.6 
L 592.584828 64.8 
L 593.354483 64.8 
L 593.354483 480.6 
z
" style="fill:#d62728;opacity:0.5;"/>
   </g>
   <g id="patch_132">
    <path clip-path="url(#p2969f5be22)" d="M 574.113103 480.6 
L 574.113103 64.8 
L 574.882759 64.8 
L 574.882759 480.6 
z
" style="fill:#d62728;opacity:0.5;"/>
   </g>
   <g id="patch_133">
    <path clip-path="url(#p2969f5be22)" d="M 591.815172 480.6 
L 591.815172 64.8 
L 592.584828 64.8 
L 592.584828 480.6 
z
" style="fill:#d62728;opacity:0.5;"/>
   </g>
   <g id="patch_134">
    <path clip-path="url(#p2969f5be22)" d="M 616.444138 480.6 
L 616.444138 64.8 
L 617.213793 64.8 
L 617.213793 480.6 
z
" style="fill:#d62728;opacity:0.5;"/>
   </g>
   <g id="patch_135">
    <path clip-path="url(#p2969f5be22)" d="M 601.82069 480.6 
L 601.82069 64.8 
L 602.590345 64.8 
L 602.590345 480.6 
z
" style="fill:#d62728;opacity:0.5;"/>
   </g>
   <g id="patch_136">
    <path clip-path="url(#p2969f5be22)" d="M 622.601379 480.6 
L 622.601379 64.8 
L 623.371034 64.8 
L 623.371034 480.6 
z
" style="fill:#d62728;opacity:0.5;"/>
   </g>
   <g id="patch_137">
    <path clip-path="url(#p2969f5be22)" d="M 625.68 480.6 
L 625.68 64.8 
L 626.449655 64.8 
L 626.449655 480.6 
z
" style="fill:#d62728;opacity:0.5;"/>
   </g>
   <g id="patch_138">
    <path clip-path="url(#p2969f5be22)" d="M 595.663448 480.6 
L 595.663448 64.8 
L 596.433103 64.8 
L 596.433103 480.6 
z
" style="fill:#d62728;opacity:0.5;"/>
   </g>
   <g id="patch_139">
    <path clip-path="url(#p2969f5be22)" d="M 508.692414 480.6 
L 508.692414 64.8 
L 509.462069 64.8 
L 509.462069 480.6 
z
" style="fill:#d62728;opacity:0.5;"/>
   </g>
   <g id="patch_140">
    <path clip-path="url(#p2969f5be22)" d="M 581.04 480.6 
L 581.04 64.8 
L 581.809655 64.8 
L 581.809655 480.6 
z
" style="fill:#d62728;opacity:0.5;"/>
   </g>
   <g id="patch_141">
    <path clip-path="url(#p2969f5be22)" d="M 488.681379 480.6 
L 488.681379 64.8 
L 488.717457 64.8 
L 488.717457 480.6 
z
" style="fill:#2ca02c;opacity:0.5;"/>
   </g>
   <g id="patch_142">
    <path clip-path="url(#p2969f5be22)" d="M 490.990345 480.6 
L 490.990345 64.8 
L 491.76 64.8 
L 491.76 480.6 
z
" style="fill:#2ca02c;opacity:0.5;"/>
   </g>
   <g id="patch_143">
    <path clip-path="url(#p2969f5be22)" d="M 510.231724 480.6 
L 510.231724 64.8 
L 511.001379 64.8 
L 511.001379 480.6 
z
" style="fill:#2ca02c;opacity:0.5;"/>
   </g>
   <g id="patch_144">
    <path clip-path="url(#p2969f5be22)" d="M 527.164138 480.6 
L 527.164138 64.8 
L 527.933793 64.8 
L 527.933793 480.6 
z
" style="fill:#2ca02c;opacity:0.5;"/>
   </g>
   <g id="patch_145">
    <path clip-path="url(#p2969f5be22)" d="M 577.961379 480.6 
L 577.961379 64.8 
L 578.731034 64.8 
L 578.731034 480.6 
z
" style="fill:#2ca02c;opacity:0.5;"/>
   </g>
   <g id="patch_146">
    <path clip-path="url(#p2969f5be22)" d="M 581.809655 480.6 
L 581.809655 64.8 
L 582.57931 64.8 
L 582.57931 480.6 
z
" style="fill:#2ca02c;opacity:0.5;"/>
   </g>
   <g id="patch_147">
    <path clip-path="url(#p2969f5be22)" d="M 573.343448 480.6 
L 573.343448 64.8 
L 574.113103 64.8 
L 574.113103 480.6 
z
" style="fill:#2ca02c;opacity:0.5;"/>
   </g>
   <g id="patch_148">
    <path clip-path="url(#p2969f5be22)" d="M 614.135172 480.6 
L 614.135172 64.8 
L 614.904828 64.8 
L 614.904828 480.6 
z
" style="fill:#2ca02c;opacity:0.5;"/>
   </g>
   <g id="patch_149">
    <path clip-path="url(#p2969f5be22)" d="M 497.917241 480.6 
L 497.917241 64.8 
L 498.338147 64.8 
L 498.338147 480.6 
z
" style="fill:#7f7f7f;opacity:0.5;"/>
   </g>
   <g id="patch_150">
    <path clip-path="url(#p2969f5be22)" d="M 495.608276 480.6 
L 495.608276 64.8 
L 496.414009 64.8 
L 496.414009 480.6 
z
" style="fill:#7f7f7f;opacity:0.5;"/>
   </g>
   <g id="patch_151">
    <path clip-path="url(#p2969f5be22)" d="M 90 272.7 
L 90.000301 272.7 
L 90.000301 272.7 
L 90 272.7 
z
"/>
   </g>
   <g id="patch_152">
    <path clip-path="url(#p2969f5be22)" d="M 90.000301 272.7 
L 90.000601 272.7 
L 90.000601 272.7 
L 90.000301 272.7 
z
"/>
   </g>
   <g id="patch_153">
    <path clip-path="url(#p2969f5be22)" d="M 90.000601 272.7 
L 90.000902 272.7 
L 90.000902 272.7 
L 90.000601 272.7 
z
"/>
   </g>
   <g id="patch_154">
    <path clip-path="url(#p2969f5be22)" d="M 90.000902 272.7 
L 90.001203 272.7 
L 90.001203 272.7 
L 90.000902 272.7 
z
"/>
   </g>
   <g id="patch_155">
    <path clip-path="url(#p2969f5be22)" d="M 90.001203 272.7 
L 90.001503 272.7 
L 90.001503 272.7 
L 90.001203 272.7 
z
"/>
   </g>
   <g id="patch_156">
    <path clip-path="url(#p2969f5be22)" d="M 90.001503 272.7 
L 90.001804 272.7 
L 90.001804 272.7 
L 90.001503 272.7 
z
"/>
   </g>
   <g id="patch_157">
    <path clip-path="url(#p2969f5be22)" d="M 90.001804 272.7 
L 90.002105 272.7 
L 90.002105 272.7 
L 90.001804 272.7 
z
"/>
   </g>
   <g id="patch_158">
    <path clip-path="url(#p2969f5be22)" d="M 90.002105 272.7 
L 90.002405 272.7 
L 90.002405 272.7 
L 90.002105 272.7 
z
"/>
   </g>
   <g id="patch_159">
    <path clip-path="url(#p2969f5be22)" d="M 90.002405 272.7 
L 90.002706 272.7 
L 90.002706 272.7 
L 90.002405 272.7 
z
"/>
   </g>
   <g id="patch_160">
    <path clip-path="url(#p2969f5be22)" d="M 90.002706 272.7 
L 90.003006 272.7 
L 90.003006 272.7 
L 90.002706 272.7 
z
"/>
   </g>
   <g id="matplotlib.axis_1">
    <g id="xtick_1">
     <g id="line2d_1">
      <defs>
       <path d="M 0 0 
L 0 3.5 
" id="mf15c417620" style="stroke:#000000;stroke-width:0.8;"/>
      </defs>
      <g>
       <use style="stroke:#000000;stroke-width:0.8;" x="90" xlink:href="#mf15c417620" y="480.6"/>
      </g>
     </g>
     <g id="text_1">
      <!-- 0 -->
      <g transform="translate(92.759375 493.9625)rotate(-90)scale(0.1 -0.1)">
       <defs>
        <path d="M 31.78125 66.40625 
Q 24.171875 66.40625 20.328125 58.90625 
Q 16.5 51.421875 16.5 36.375 
Q 16.5 21.390625 20.328125 13.890625 
Q 24.171875 6.390625 31.78125 6.390625 
Q 39.453125 6.390625 43.28125 13.890625 
Q 47.125 21.390625 47.125 36.375 
Q 47.125 51.421875 43.28125 58.90625 
Q 39.453125 66.40625 31.78125 66.40625 
z
M 31.78125 74.21875 
Q 44.046875 74.21875 50.515625 64.515625 
Q 56.984375 54.828125 56.984375 36.375 
Q 56.984375 17.96875 50.515625 8.265625 
Q 44.046875 -1.421875 31.78125 -1.421875 
Q 19.53125 -1.421875 13.0625 8.265625 
Q 6.59375 17.96875 6.59375 36.375 
Q 6.59375 54.828125 13.0625 64.515625 
Q 19.53125 74.21875 31.78125 74.21875 
z
" id="DejaVuSans-48"/>
       </defs>
       <use xlink:href="#DejaVuSans-48"/>
      </g>
     </g>
    </g>
    <g id="xtick_2">
     <g id="line2d_2">
      <g>
       <use style="stroke:#000000;stroke-width:0.8;" x="108.471724" xlink:href="#mf15c417620" y="480.6"/>
      </g>
     </g>
     <g id="text_2">
      <!-- 6 -->
      <g transform="translate(111.231099 493.9625)rotate(-90)scale(0.1 -0.1)">
       <defs>
        <path d="M 33.015625 40.375 
Q 26.375 40.375 22.484375 35.828125 
Q 18.609375 31.296875 18.609375 23.390625 
Q 18.609375 15.53125 22.484375 10.953125 
Q 26.375 6.390625 33.015625 6.390625 
Q 39.65625 6.390625 43.53125 10.953125 
Q 47.40625 15.53125 47.40625 23.390625 
Q 47.40625 31.296875 43.53125 35.828125 
Q 39.65625 40.375 33.015625 40.375 
z
M 52.59375 71.296875 
L 52.59375 62.3125 
Q 48.875 64.0625 45.09375 64.984375 
Q 41.3125 65.921875 37.59375 65.921875 
Q 27.828125 65.921875 22.671875 59.328125 
Q 17.53125 52.734375 16.796875 39.40625 
Q 19.671875 43.65625 24.015625 45.921875 
Q 28.375 48.1875 33.59375 48.1875 
Q 44.578125 48.1875 50.953125 41.515625 
Q 57.328125 34.859375 57.328125 23.390625 
Q 57.328125 12.15625 50.6875 5.359375 
Q 44.046875 -1.421875 33.015625 -1.421875 
Q 20.359375 -1.421875 13.671875 8.265625 
Q 6.984375 17.96875 6.984375 36.375 
Q 6.984375 53.65625 15.1875 63.9375 
Q 23.390625 74.21875 37.203125 74.21875 
Q 40.921875 74.21875 44.703125 73.484375 
Q 48.484375 72.75 52.59375 71.296875 
z
" id="DejaVuSans-54"/>
       </defs>
       <use xlink:href="#DejaVuSans-54"/>
      </g>
     </g>
    </g>
    <g id="xtick_3">
     <g id="line2d_3">
      <g>
       <use style="stroke:#000000;stroke-width:0.8;" x="126.943448" xlink:href="#mf15c417620" y="480.6"/>
      </g>
     </g>
     <g id="text_3">
      <!-- 12 -->
      <g transform="translate(129.702823 500.325)rotate(-90)scale(0.1 -0.1)">
       <defs>
        <path d="M 12.40625 8.296875 
L 28.515625 8.296875 
L 28.515625 63.921875 
L 10.984375 60.40625 
L 10.984375 69.390625 
L 28.421875 72.90625 
L 38.28125 72.90625 
L 38.28125 8.296875 
L 54.390625 8.296875 
L 54.390625 0 
L 12.40625 0 
z
" id="DejaVuSans-49"/>
        <path d="M 19.1875 8.296875 
L 53.609375 8.296875 
L 53.609375 0 
L 7.328125 0 
L 7.328125 8.296875 
Q 12.9375 14.109375 22.625 23.890625 
Q 32.328125 33.6875 34.8125 36.53125 
Q 39.546875 41.84375 41.421875 45.53125 
Q 43.3125 49.21875 43.3125 52.78125 
Q 43.3125 58.59375 39.234375 62.25 
Q 35.15625 65.921875 28.609375 65.921875 
Q 23.96875 65.921875 18.8125 64.3125 
Q 13.671875 62.703125 7.8125 59.421875 
L 7.8125 69.390625 
Q 13.765625 71.78125 18.9375 73 
Q 24.125 74.21875 28.421875 74.21875 
Q 39.75 74.21875 46.484375 68.546875 
Q 53.21875 62.890625 53.21875 53.421875 
Q 53.21875 48.921875 51.53125 44.890625 
Q 49.859375 40.875 45.40625 35.40625 
Q 44.1875 33.984375 37.640625 27.21875 
Q 31.109375 20.453125 19.1875 8.296875 
z
" id="DejaVuSans-50"/>
       </defs>
       <use xlink:href="#DejaVuSans-49"/>
       <use x="63.623047" xlink:href="#DejaVuSans-50"/>
      </g>
     </g>
    </g>
    <g id="xtick_4">
     <g id="line2d_4">
      <g>
       <use style="stroke:#000000;stroke-width:0.8;" x="145.415172" xlink:href="#mf15c417620" y="480.6"/>
      </g>
     </g>
     <g id="text_4">
      <!-- 18 -->
      <g transform="translate(148.174547 500.325)rotate(-90)scale(0.1 -0.1)">
       <defs>
        <path d="M 31.78125 34.625 
Q 24.75 34.625 20.71875 30.859375 
Q 16.703125 27.09375 16.703125 20.515625 
Q 16.703125 13.921875 20.71875 10.15625 
Q 24.75 6.390625 31.78125 6.390625 
Q 38.8125 6.390625 42.859375 10.171875 
Q 46.921875 13.96875 46.921875 20.515625 
Q 46.921875 27.09375 42.890625 30.859375 
Q 38.875 34.625 31.78125 34.625 
z
M 21.921875 38.8125 
Q 15.578125 40.375 12.03125 44.71875 
Q 8.5 49.078125 8.5 55.328125 
Q 8.5 64.0625 14.71875 69.140625 
Q 20.953125 74.21875 31.78125 74.21875 
Q 42.671875 74.21875 48.875 69.140625 
Q 55.078125 64.0625 55.078125 55.328125 
Q 55.078125 49.078125 51.53125 44.71875 
Q 48 40.375 41.703125 38.8125 
Q 48.828125 37.15625 52.796875 32.3125 
Q 56.78125 27.484375 56.78125 20.515625 
Q 56.78125 9.90625 50.3125 4.234375 
Q 43.84375 -1.421875 31.78125 -1.421875 
Q 19.734375 -1.421875 13.25 4.234375 
Q 6.78125 9.90625 6.78125 20.515625 
Q 6.78125 27.484375 10.78125 32.3125 
Q 14.796875 37.15625 21.921875 38.8125 
z
M 18.3125 54.390625 
Q 18.3125 48.734375 21.84375 45.5625 
Q 25.390625 42.390625 31.78125 42.390625 
Q 38.140625 42.390625 41.71875 45.5625 
Q 45.3125 48.734375 45.3125 54.390625 
Q 45.3125 60.0625 41.71875 63.234375 
Q 38.140625 66.40625 31.78125 66.40625 
Q 25.390625 66.40625 21.84375 63.234375 
Q 18.3125 60.0625 18.3125 54.390625 
z
" id="DejaVuSans-56"/>
       </defs>
       <use xlink:href="#DejaVuSans-49"/>
       <use x="63.623047" xlink:href="#DejaVuSans-56"/>
      </g>
     </g>
    </g>
    <g id="xtick_5">
     <g id="line2d_5">
      <g>
       <use style="stroke:#000000;stroke-width:0.8;" x="163.886897" xlink:href="#mf15c417620" y="480.6"/>
      </g>
     </g>
     <g id="text_5">
      <!-- 24 -->
      <g transform="translate(166.646272 500.325)rotate(-90)scale(0.1 -0.1)">
       <defs>
        <path d="M 37.796875 64.3125 
L 12.890625 25.390625 
L 37.796875 25.390625 
z
M 35.203125 72.90625 
L 47.609375 72.90625 
L 47.609375 25.390625 
L 58.015625 25.390625 
L 58.015625 17.1875 
L 47.609375 17.1875 
L 47.609375 0 
L 37.796875 0 
L 37.796875 17.1875 
L 4.890625 17.1875 
L 4.890625 26.703125 
z
" id="DejaVuSans-52"/>
       </defs>
       <use xlink:href="#DejaVuSans-50"/>
       <use x="63.623047" xlink:href="#DejaVuSans-52"/>
      </g>
     </g>
    </g>
    <g id="xtick_6">
     <g id="line2d_6">
      <g>
       <use style="stroke:#000000;stroke-width:0.8;" x="182.358621" xlink:href="#mf15c417620" y="480.6"/>
      </g>
     </g>
     <g id="text_6">
      <!-- 30 -->
      <g transform="translate(185.117996 500.325)rotate(-90)scale(0.1 -0.1)">
       <defs>
        <path d="M 40.578125 39.3125 
Q 47.65625 37.796875 51.625 33 
Q 55.609375 28.21875 55.609375 21.1875 
Q 55.609375 10.40625 48.1875 4.484375 
Q 40.765625 -1.421875 27.09375 -1.421875 
Q 22.515625 -1.421875 17.65625 -0.515625 
Q 12.796875 0.390625 7.625 2.203125 
L 7.625 11.71875 
Q 11.71875 9.328125 16.59375 8.109375 
Q 21.484375 6.890625 26.8125 6.890625 
Q 36.078125 6.890625 40.9375 10.546875 
Q 45.796875 14.203125 45.796875 21.1875 
Q 45.796875 27.640625 41.28125 31.265625 
Q 36.765625 34.90625 28.71875 34.90625 
L 20.21875 34.90625 
L 20.21875 43.015625 
L 29.109375 43.015625 
Q 36.375 43.015625 40.234375 45.921875 
Q 44.09375 48.828125 44.09375 54.296875 
Q 44.09375 59.90625 40.109375 62.90625 
Q 36.140625 65.921875 28.71875 65.921875 
Q 24.65625 65.921875 20.015625 65.03125 
Q 15.375 64.15625 9.8125 62.3125 
L 9.8125 71.09375 
Q 15.4375 72.65625 20.34375 73.4375 
Q 25.25 74.21875 29.59375 74.21875 
Q 40.828125 74.21875 47.359375 69.109375 
Q 53.90625 64.015625 53.90625 55.328125 
Q 53.90625 49.265625 50.4375 45.09375 
Q 46.96875 40.921875 40.578125 39.3125 
z
" id="DejaVuSans-51"/>
       </defs>
       <use xlink:href="#DejaVuSans-51"/>
       <use x="63.623047" xlink:href="#DejaVuSans-48"/>
      </g>
     </g>
    </g>
    <g id="xtick_7">
     <g id="line2d_7">
      <g>
       <use style="stroke:#000000;stroke-width:0.8;" x="200.830345" xlink:href="#mf15c417620" y="480.6"/>
      </g>
     </g>
     <g id="text_7">
      <!-- 36 -->
      <g transform="translate(203.58972 500.325)rotate(-90)scale(0.1 -0.1)">
       <use xlink:href="#DejaVuSans-51"/>
       <use x="63.623047" xlink:href="#DejaVuSans-54"/>
      </g>
     </g>
    </g>
    <g id="xtick_8">
     <g id="line2d_8">
      <g>
       <use style="stroke:#000000;stroke-width:0.8;" x="219.302069" xlink:href="#mf15c417620" y="480.6"/>
      </g>
     </g>
     <g id="text_8">
      <!-- 42 -->
      <g transform="translate(222.061444 500.325)rotate(-90)scale(0.1 -0.1)">
       <use xlink:href="#DejaVuSans-52"/>
       <use x="63.623047" xlink:href="#DejaVuSans-50"/>
      </g>
     </g>
    </g>
    <g id="xtick_9">
     <g id="line2d_9">
      <g>
       <use style="stroke:#000000;stroke-width:0.8;" x="237.773793" xlink:href="#mf15c417620" y="480.6"/>
      </g>
     </g>
     <g id="text_9">
      <!-- 48 -->
      <g transform="translate(240.533168 500.325)rotate(-90)scale(0.1 -0.1)">
       <use xlink:href="#DejaVuSans-52"/>
       <use x="63.623047" xlink:href="#DejaVuSans-56"/>
      </g>
     </g>
    </g>
    <g id="xtick_10">
     <g id="line2d_10">
      <g>
       <use style="stroke:#000000;stroke-width:0.8;" x="256.245517" xlink:href="#mf15c417620" y="480.6"/>
      </g>
     </g>
     <g id="text_10">
      <!-- 54 -->
      <g transform="translate(259.004892 500.325)rotate(-90)scale(0.1 -0.1)">
       <defs>
        <path d="M 10.796875 72.90625 
L 49.515625 72.90625 
L 49.515625 64.59375 
L 19.828125 64.59375 
L 19.828125 46.734375 
Q 21.96875 47.46875 24.109375 47.828125 
Q 26.265625 48.1875 28.421875 48.1875 
Q 40.625 48.1875 47.75 41.5 
Q 54.890625 34.8125 54.890625 23.390625 
Q 54.890625 11.625 47.5625 5.09375 
Q 40.234375 -1.421875 26.90625 -1.421875 
Q 22.3125 -1.421875 17.546875 -0.640625 
Q 12.796875 0.140625 7.71875 1.703125 
L 7.71875 11.625 
Q 12.109375 9.234375 16.796875 8.0625 
Q 21.484375 6.890625 26.703125 6.890625 
Q 35.15625 6.890625 40.078125 11.328125 
Q 45.015625 15.765625 45.015625 23.390625 
Q 45.015625 31 40.078125 35.4375 
Q 35.15625 39.890625 26.703125 39.890625 
Q 22.75 39.890625 18.8125 39.015625 
Q 14.890625 38.140625 10.796875 36.28125 
z
" id="DejaVuSans-53"/>
       </defs>
       <use xlink:href="#DejaVuSans-53"/>
       <use x="63.623047" xlink:href="#DejaVuSans-52"/>
      </g>
     </g>
    </g>
    <g id="xtick_11">
     <g id="line2d_11">
      <g>
       <use style="stroke:#000000;stroke-width:0.8;" x="274.717241" xlink:href="#mf15c417620" y="480.6"/>
      </g>
     </g>
     <g id="text_11">
      <!-- 60 -->
      <g transform="translate(277.476616 500.325)rotate(-90)scale(0.1 -0.1)">
       <use xlink:href="#DejaVuSans-54"/>
       <use x="63.623047" xlink:href="#DejaVuSans-48"/>
      </g>
     </g>
    </g>
    <g id="xtick_12">
     <g id="line2d_12">
      <g>
       <use style="stroke:#000000;stroke-width:0.8;" x="293.188966" xlink:href="#mf15c417620" y="480.6"/>
      </g>
     </g>
     <g id="text_12">
      <!-- 66 -->
      <g transform="translate(295.948341 500.325)rotate(-90)scale(0.1 -0.1)">
       <use xlink:href="#DejaVuSans-54"/>
       <use x="63.623047" xlink:href="#DejaVuSans-54"/>
      </g>
     </g>
    </g>
    <g id="xtick_13">
     <g id="line2d_13">
      <g>
       <use style="stroke:#000000;stroke-width:0.8;" x="311.66069" xlink:href="#mf15c417620" y="480.6"/>
      </g>
     </g>
     <g id="text_13">
      <!-- 72 -->
      <g transform="translate(314.420065 500.325)rotate(-90)scale(0.1 -0.1)">
       <defs>
        <path d="M 8.203125 72.90625 
L 55.078125 72.90625 
L 55.078125 68.703125 
L 28.609375 0 
L 18.3125 0 
L 43.21875 64.59375 
L 8.203125 64.59375 
z
" id="DejaVuSans-55"/>
       </defs>
       <use xlink:href="#DejaVuSans-55"/>
       <use x="63.623047" xlink:href="#DejaVuSans-50"/>
      </g>
     </g>
    </g>
    <g id="xtick_14">
     <g id="line2d_14">
      <g>
       <use style="stroke:#000000;stroke-width:0.8;" x="330.132414" xlink:href="#mf15c417620" y="480.6"/>
      </g>
     </g>
     <g id="text_14">
      <!-- 78 -->
      <g transform="translate(332.891789 500.325)rotate(-90)scale(0.1 -0.1)">
       <use xlink:href="#DejaVuSans-55"/>
       <use x="63.623047" xlink:href="#DejaVuSans-56"/>
      </g>
     </g>
    </g>
    <g id="xtick_15">
     <g id="line2d_15">
      <g>
       <use style="stroke:#000000;stroke-width:0.8;" x="348.604138" xlink:href="#mf15c417620" y="480.6"/>
      </g>
     </g>
     <g id="text_15">
      <!-- 84 -->
      <g transform="translate(351.363513 500.325)rotate(-90)scale(0.1 -0.1)">
       <use xlink:href="#DejaVuSans-56"/>
       <use x="63.623047" xlink:href="#DejaVuSans-52"/>
      </g>
     </g>
    </g>
    <g id="xtick_16">
     <g id="line2d_16">
      <g>
       <use style="stroke:#000000;stroke-width:0.8;" x="367.075862" xlink:href="#mf15c417620" y="480.6"/>
      </g>
     </g>
     <g id="text_16">
      <!-- 90 -->
      <g transform="translate(369.835237 500.325)rotate(-90)scale(0.1 -0.1)">
       <defs>
        <path d="M 10.984375 1.515625 
L 10.984375 10.5 
Q 14.703125 8.734375 18.5 7.8125 
Q 22.3125 6.890625 25.984375 6.890625 
Q 35.75 6.890625 40.890625 13.453125 
Q 46.046875 20.015625 46.78125 33.40625 
Q 43.953125 29.203125 39.59375 26.953125 
Q 35.25 24.703125 29.984375 24.703125 
Q 19.046875 24.703125 12.671875 31.3125 
Q 6.296875 37.9375 6.296875 49.421875 
Q 6.296875 60.640625 12.9375 67.421875 
Q 19.578125 74.21875 30.609375 74.21875 
Q 43.265625 74.21875 49.921875 64.515625 
Q 56.59375 54.828125 56.59375 36.375 
Q 56.59375 19.140625 48.40625 8.859375 
Q 40.234375 -1.421875 26.421875 -1.421875 
Q 22.703125 -1.421875 18.890625 -0.6875 
Q 15.09375 0.046875 10.984375 1.515625 
z
M 30.609375 32.421875 
Q 37.25 32.421875 41.125 36.953125 
Q 45.015625 41.5 45.015625 49.421875 
Q 45.015625 57.28125 41.125 61.84375 
Q 37.25 66.40625 30.609375 66.40625 
Q 23.96875 66.40625 20.09375 61.84375 
Q 16.21875 57.28125 16.21875 49.421875 
Q 16.21875 41.5 20.09375 36.953125 
Q 23.96875 32.421875 30.609375 32.421875 
z
" id="DejaVuSans-57"/>
       </defs>
       <use xlink:href="#DejaVuSans-57"/>
       <use x="63.623047" xlink:href="#DejaVuSans-48"/>
      </g>
     </g>
    </g>
    <g id="xtick_17">
     <g id="line2d_17">
      <g>
       <use style="stroke:#000000;stroke-width:0.8;" x="385.547586" xlink:href="#mf15c417620" y="480.6"/>
      </g>
     </g>
     <g id="text_17">
      <!-- 96 -->
      <g transform="translate(388.306961 500.325)rotate(-90)scale(0.1 -0.1)">
       <use xlink:href="#DejaVuSans-57"/>
       <use x="63.623047" xlink:href="#DejaVuSans-54"/>
      </g>
     </g>
    </g>
    <g id="xtick_18">
     <g id="line2d_18">
      <g>
       <use style="stroke:#000000;stroke-width:0.8;" x="404.01931" xlink:href="#mf15c417620" y="480.6"/>
      </g>
     </g>
     <g id="text_18">
      <!-- 102 -->
      <g transform="translate(406.778685 506.6875)rotate(-90)scale(0.1 -0.1)">
       <use xlink:href="#DejaVuSans-49"/>
       <use x="63.623047" xlink:href="#DejaVuSans-48"/>
       <use x="127.246094" xlink:href="#DejaVuSans-50"/>
      </g>
     </g>
    </g>
    <g id="xtick_19">
     <g id="line2d_19">
      <g>
       <use style="stroke:#000000;stroke-width:0.8;" x="422.491034" xlink:href="#mf15c417620" y="480.6"/>
      </g>
     </g>
     <g id="text_19">
      <!-- 108 -->
      <g transform="translate(425.250409 506.6875)rotate(-90)scale(0.1 -0.1)">
       <use xlink:href="#DejaVuSans-49"/>
       <use x="63.623047" xlink:href="#DejaVuSans-48"/>
       <use x="127.246094" xlink:href="#DejaVuSans-56"/>
      </g>
     </g>
    </g>
    <g id="xtick_20">
     <g id="line2d_20">
      <g>
       <use style="stroke:#000000;stroke-width:0.8;" x="440.962759" xlink:href="#mf15c417620" y="480.6"/>
      </g>
     </g>
     <g id="text_20">
      <!-- 114 -->
      <g transform="translate(443.722134 506.6875)rotate(-90)scale(0.1 -0.1)">
       <use xlink:href="#DejaVuSans-49"/>
       <use x="63.623047" xlink:href="#DejaVuSans-49"/>
       <use x="127.246094" xlink:href="#DejaVuSans-52"/>
      </g>
     </g>
    </g>
    <g id="xtick_21">
     <g id="line2d_21">
      <g>
       <use style="stroke:#000000;stroke-width:0.8;" x="459.434483" xlink:href="#mf15c417620" y="480.6"/>
      </g>
     </g>
     <g id="text_21">
      <!-- 120 -->
      <g transform="translate(462.193858 506.6875)rotate(-90)scale(0.1 -0.1)">
       <use xlink:href="#DejaVuSans-49"/>
       <use x="63.623047" xlink:href="#DejaVuSans-50"/>
       <use x="127.246094" xlink:href="#DejaVuSans-48"/>
      </g>
     </g>
    </g>
    <g id="xtick_22">
     <g id="line2d_22">
      <g>
       <use style="stroke:#000000;stroke-width:0.8;" x="477.906207" xlink:href="#mf15c417620" y="480.6"/>
      </g>
     </g>
     <g id="text_22">
      <!-- 126 -->
      <g transform="translate(480.665582 506.6875)rotate(-90)scale(0.1 -0.1)">
       <use xlink:href="#DejaVuSans-49"/>
       <use x="63.623047" xlink:href="#DejaVuSans-50"/>
       <use x="127.246094" xlink:href="#DejaVuSans-54"/>
      </g>
     </g>
    </g>
    <g id="xtick_23">
     <g id="line2d_23">
      <g>
       <use style="stroke:#000000;stroke-width:0.8;" x="496.377931" xlink:href="#mf15c417620" y="480.6"/>
      </g>
     </g>
     <g id="text_23">
      <!-- 132 -->
      <g transform="translate(499.137306 506.6875)rotate(-90)scale(0.1 -0.1)">
       <use xlink:href="#DejaVuSans-49"/>
       <use x="63.623047" xlink:href="#DejaVuSans-51"/>
       <use x="127.246094" xlink:href="#DejaVuSans-50"/>
      </g>
     </g>
    </g>
    <g id="xtick_24">
     <g id="line2d_24">
      <g>
       <use style="stroke:#000000;stroke-width:0.8;" x="514.849655" xlink:href="#mf15c417620" y="480.6"/>
      </g>
     </g>
     <g id="text_24">
      <!-- 138 -->
      <g transform="translate(517.60903 506.6875)rotate(-90)scale(0.1 -0.1)">
       <use xlink:href="#DejaVuSans-49"/>
       <use x="63.623047" xlink:href="#DejaVuSans-51"/>
       <use x="127.246094" xlink:href="#DejaVuSans-56"/>
      </g>
     </g>
    </g>
    <g id="xtick_25">
     <g id="line2d_25">
      <g>
       <use style="stroke:#000000;stroke-width:0.8;" x="533.321379" xlink:href="#mf15c417620" y="480.6"/>
      </g>
     </g>
     <g id="text_25">
      <!-- 144 -->
      <g transform="translate(536.080754 506.6875)rotate(-90)scale(0.1 -0.1)">
       <use xlink:href="#DejaVuSans-49"/>
       <use x="63.623047" xlink:href="#DejaVuSans-52"/>
       <use x="127.246094" xlink:href="#DejaVuSans-52"/>
      </g>
     </g>
    </g>
    <g id="xtick_26">
     <g id="line2d_26">
      <g>
       <use style="stroke:#000000;stroke-width:0.8;" x="551.793103" xlink:href="#mf15c417620" y="480.6"/>
      </g>
     </g>
     <g id="text_26">
      <!-- 150 -->
      <g transform="translate(554.552478 506.6875)rotate(-90)scale(0.1 -0.1)">
       <use xlink:href="#DejaVuSans-49"/>
       <use x="63.623047" xlink:href="#DejaVuSans-53"/>
       <use x="127.246094" xlink:href="#DejaVuSans-48"/>
      </g>
     </g>
    </g>
    <g id="xtick_27">
     <g id="line2d_27">
      <g>
       <use style="stroke:#000000;stroke-width:0.8;" x="570.264828" xlink:href="#mf15c417620" y="480.6"/>
      </g>
     </g>
     <g id="text_27">
      <!-- 156 -->
      <g transform="translate(573.024203 506.6875)rotate(-90)scale(0.1 -0.1)">
       <use xlink:href="#DejaVuSans-49"/>
       <use x="63.623047" xlink:href="#DejaVuSans-53"/>
       <use x="127.246094" xlink:href="#DejaVuSans-54"/>
      </g>
     </g>
    </g>
    <g id="xtick_28">
     <g id="line2d_28">
      <g>
       <use style="stroke:#000000;stroke-width:0.8;" x="588.736552" xlink:href="#mf15c417620" y="480.6"/>
      </g>
     </g>
     <g id="text_28">
      <!-- 162 -->
      <g transform="translate(591.495927 506.6875)rotate(-90)scale(0.1 -0.1)">
       <use xlink:href="#DejaVuSans-49"/>
       <use x="63.623047" xlink:href="#DejaVuSans-54"/>
       <use x="127.246094" xlink:href="#DejaVuSans-50"/>
      </g>
     </g>
    </g>
    <g id="xtick_29">
     <g id="line2d_29">
      <g>
       <use style="stroke:#000000;stroke-width:0.8;" x="607.208276" xlink:href="#mf15c417620" y="480.6"/>
      </g>
     </g>
     <g id="text_29">
      <!-- 168 -->
      <g transform="translate(609.967651 506.6875)rotate(-90)scale(0.1 -0.1)">
       <use xlink:href="#DejaVuSans-49"/>
       <use x="63.623047" xlink:href="#DejaVuSans-54"/>
       <use x="127.246094" xlink:href="#DejaVuSans-56"/>
      </g>
     </g>
    </g>
    <g id="xtick_30">
     <g id="line2d_30">
      <g>
       <use style="stroke:#000000;stroke-width:0.8;" x="625.68" xlink:href="#mf15c417620" y="480.6"/>
      </g>
     </g>
     <g id="text_30">
      <!-- 174 -->
      <g transform="translate(628.439375 506.6875)rotate(-90)scale(0.1 -0.1)">
       <use xlink:href="#DejaVuSans-49"/>
       <use x="63.623047" xlink:href="#DejaVuSans-55"/>
       <use x="127.246094" xlink:href="#DejaVuSans-52"/>
      </g>
     </g>
    </g>
    <g id="xtick_31">
     <g id="line2d_31">
      <g>
       <use style="stroke:#000000;stroke-width:0.8;" x="644.151724" xlink:href="#mf15c417620" y="480.6"/>
      </g>
     </g>
     <g id="text_31">
      <!-- 180 -->
      <g transform="translate(646.911099 506.6875)rotate(-90)scale(0.1 -0.1)">
       <use xlink:href="#DejaVuSans-49"/>
       <use x="63.623047" xlink:href="#DejaVuSans-56"/>
       <use x="127.246094" xlink:href="#DejaVuSans-48"/>
      </g>
     </g>
    </g>
    <g id="text_32">
     <!-- Offset in MB -->
     <g transform="translate(338.421875 518.285938)scale(0.1 -0.1)">
      <defs>
       <path d="M 39.40625 66.21875 
Q 28.65625 66.21875 22.328125 58.203125 
Q 16.015625 50.203125 16.015625 36.375 
Q 16.015625 22.609375 22.328125 14.59375 
Q 28.65625 6.59375 39.40625 6.59375 
Q 50.140625 6.59375 56.421875 14.59375 
Q 62.703125 22.609375 62.703125 36.375 
Q 62.703125 50.203125 56.421875 58.203125 
Q 50.140625 66.21875 39.40625 66.21875 
z
M 39.40625 74.21875 
Q 54.734375 74.21875 63.90625 63.9375 
Q 73.09375 53.65625 73.09375 36.375 
Q 73.09375 19.140625 63.90625 8.859375 
Q 54.734375 -1.421875 39.40625 -1.421875 
Q 24.03125 -1.421875 14.8125 8.828125 
Q 5.609375 19.09375 5.609375 36.375 
Q 5.609375 53.65625 14.8125 63.9375 
Q 24.03125 74.21875 39.40625 74.21875 
z
" id="DejaVuSans-79"/>
       <path d="M 37.109375 75.984375 
L 37.109375 68.5 
L 28.515625 68.5 
Q 23.6875 68.5 21.796875 66.546875 
Q 19.921875 64.59375 19.921875 59.515625 
L 19.921875 54.6875 
L 34.71875 54.6875 
L 34.71875 47.703125 
L 19.921875 47.703125 
L 19.921875 0 
L 10.890625 0 
L 10.890625 47.703125 
L 2.296875 47.703125 
L 2.296875 54.6875 
L 10.890625 54.6875 
L 10.890625 58.5 
Q 10.890625 67.625 15.140625 71.796875 
Q 19.390625 75.984375 28.609375 75.984375 
z
" id="DejaVuSans-102"/>
       <path d="M 44.28125 53.078125 
L 44.28125 44.578125 
Q 40.484375 46.53125 36.375 47.5 
Q 32.28125 48.484375 27.875 48.484375 
Q 21.1875 48.484375 17.84375 46.4375 
Q 14.5 44.390625 14.5 40.28125 
Q 14.5 37.15625 16.890625 35.375 
Q 19.28125 33.59375 26.515625 31.984375 
L 29.59375 31.296875 
Q 39.15625 29.25 43.1875 25.515625 
Q 47.21875 21.78125 47.21875 15.09375 
Q 47.21875 7.46875 41.1875 3.015625 
Q 35.15625 -1.421875 24.609375 -1.421875 
Q 20.21875 -1.421875 15.453125 -0.5625 
Q 10.6875 0.296875 5.421875 2 
L 5.421875 11.28125 
Q 10.40625 8.6875 15.234375 7.390625 
Q 20.0625 6.109375 24.8125 6.109375 
Q 31.15625 6.109375 34.5625 8.28125 
Q 37.984375 10.453125 37.984375 14.40625 
Q 37.984375 18.0625 35.515625 20.015625 
Q 33.0625 21.96875 24.703125 23.78125 
L 21.578125 24.515625 
Q 13.234375 26.265625 9.515625 29.90625 
Q 5.8125 33.546875 5.8125 39.890625 
Q 5.8125 47.609375 11.28125 51.796875 
Q 16.75 56 26.8125 56 
Q 31.78125 56 36.171875 55.265625 
Q 40.578125 54.546875 44.28125 53.078125 
z
" id="DejaVuSans-115"/>
       <path d="M 56.203125 29.59375 
L 56.203125 25.203125 
L 14.890625 25.203125 
Q 15.484375 15.921875 20.484375 11.0625 
Q 25.484375 6.203125 34.421875 6.203125 
Q 39.59375 6.203125 44.453125 7.46875 
Q 49.3125 8.734375 54.109375 11.28125 
L 54.109375 2.78125 
Q 49.265625 0.734375 44.1875 -0.34375 
Q 39.109375 -1.421875 33.890625 -1.421875 
Q 20.796875 -1.421875 13.15625 6.1875 
Q 5.515625 13.8125 5.515625 26.8125 
Q 5.515625 40.234375 12.765625 48.109375 
Q 20.015625 56 32.328125 56 
Q 43.359375 56 49.78125 48.890625 
Q 56.203125 41.796875 56.203125 29.59375 
z
M 47.21875 32.234375 
Q 47.125 39.59375 43.09375 43.984375 
Q 39.0625 48.390625 32.421875 48.390625 
Q 24.90625 48.390625 20.390625 44.140625 
Q 15.875 39.890625 15.1875 32.171875 
z
" id="DejaVuSans-101"/>
       <path d="M 18.3125 70.21875 
L 18.3125 54.6875 
L 36.8125 54.6875 
L 36.8125 47.703125 
L 18.3125 47.703125 
L 18.3125 18.015625 
Q 18.3125 11.328125 20.140625 9.421875 
Q 21.96875 7.515625 27.59375 7.515625 
L 36.8125 7.515625 
L 36.8125 0 
L 27.59375 0 
Q 17.1875 0 13.234375 3.875 
Q 9.28125 7.765625 9.28125 18.015625 
L 9.28125 47.703125 
L 2.6875 47.703125 
L 2.6875 54.6875 
L 9.28125 54.6875 
L 9.28125 70.21875 
z
" id="DejaVuSans-116"/>
       <path id="DejaVuSans-32"/>
       <path d="M 9.421875 54.6875 
L 18.40625 54.6875 
L 18.40625 0 
L 9.421875 0 
z
M 9.421875 75.984375 
L 18.40625 75.984375 
L 18.40625 64.59375 
L 9.421875 64.59375 
z
" id="DejaVuSans-105"/>
       <path d="M 54.890625 33.015625 
L 54.890625 0 
L 45.90625 0 
L 45.90625 32.71875 
Q 45.90625 40.484375 42.875 44.328125 
Q 39.84375 48.1875 33.796875 48.1875 
Q 26.515625 48.1875 22.3125 43.546875 
Q 18.109375 38.921875 18.109375 30.90625 
L 18.109375 0 
L 9.078125 0 
L 9.078125 54.6875 
L 18.109375 54.6875 
L 18.109375 46.1875 
Q 21.34375 51.125 25.703125 53.5625 
Q 30.078125 56 35.796875 56 
Q 45.21875 56 50.046875 50.171875 
Q 54.890625 44.34375 54.890625 33.015625 
z
" id="DejaVuSans-110"/>
       <path d="M 9.8125 72.90625 
L 24.515625 72.90625 
L 43.109375 23.296875 
L 61.8125 72.90625 
L 76.515625 72.90625 
L 76.515625 0 
L 66.890625 0 
L 66.890625 64.015625 
L 48.09375 14.015625 
L 38.1875 14.015625 
L 19.390625 64.015625 
L 19.390625 0 
L 9.8125 0 
z
" id="DejaVuSans-77"/>
       <path d="M 19.671875 34.8125 
L 19.671875 8.109375 
L 35.5 8.109375 
Q 43.453125 8.109375 47.28125 11.40625 
Q 51.125 14.703125 51.125 21.484375 
Q 51.125 28.328125 47.28125 31.5625 
Q 43.453125 34.8125 35.5 34.8125 
z
M 19.671875 64.796875 
L 19.671875 42.828125 
L 34.28125 42.828125 
Q 41.5 42.828125 45.03125 45.53125 
Q 48.578125 48.25 48.578125 53.8125 
Q 48.578125 59.328125 45.03125 62.0625 
Q 41.5 64.796875 34.28125 64.796875 
z
M 9.8125 72.90625 
L 35.015625 72.90625 
Q 46.296875 72.90625 52.390625 68.21875 
Q 58.5 63.53125 58.5 54.890625 
Q 58.5 48.1875 55.375 44.234375 
Q 52.25 40.28125 46.1875 39.3125 
Q 53.46875 37.75 57.5 32.78125 
Q 61.53125 27.828125 61.53125 20.40625 
Q 61.53125 10.640625 54.890625 5.3125 
Q 48.25 0 35.984375 0 
L 9.8125 0 
z
" id="DejaVuSans-66"/>
      </defs>
      <use xlink:href="#DejaVuSans-79"/>
      <use x="78.710938" xlink:href="#DejaVuSans-102"/>
      <use x="113.916016" xlink:href="#DejaVuSans-102"/>
      <use x="149.121094" xlink:href="#DejaVuSans-115"/>
      <use x="201.220703" xlink:href="#DejaVuSans-101"/>
      <use x="262.744141" xlink:href="#DejaVuSans-116"/>
      <use x="301.953125" xlink:href="#DejaVuSans-32"/>
      <use x="333.740234" xlink:href="#DejaVuSans-105"/>
      <use x="361.523438" xlink:href="#DejaVuSans-110"/>
      <use x="424.902344" xlink:href="#DejaVuSans-32"/>
      <use x="456.689453" xlink:href="#DejaVuSans-77"/>
      <use x="542.96875" xlink:href="#DejaVuSans-66"/>
     </g>
    </g>
   </g>
   <g id="matplotlib.axis_2">
    <g id="ytick_1">
     <g id="line2d_32">
      <defs>
       <path d="M 0 0 
L -3.5 0 
" id="mc6ed5029e9" style="stroke:#000000;stroke-width:0.8;"/>
      </defs>
      <g>
       <use style="stroke:#000000;stroke-width:0.8;" x="90" xlink:href="#mc6ed5029e9" y="423.9"/>
      </g>
     </g>
     <g id="text_33">
      <!-- 0.04 -->
      <g transform="translate(52.354687 427.699219)scale(0.1 -0.1)">
       <defs>
        <path d="M 10.59375 35.5 
L 73.1875 35.5 
L 73.1875 27.203125 
L 10.59375 27.203125 
z
" id="DejaVuSans-8722"/>
        <path d="M 10.6875 12.40625 
L 21 12.40625 
L 21 0 
L 10.6875 0 
z
" id="DejaVuSans-46"/>
       </defs>
       <use xlink:href="#DejaVuSans-8722"/>
       <use x="83.789062" xlink:href="#DejaVuSans-48"/>
       <use x="147.412109" xlink:href="#DejaVuSans-46"/>
       <use x="179.199219" xlink:href="#DejaVuSans-48"/>
       <use x="242.822266" xlink:href="#DejaVuSans-52"/>
      </g>
     </g>
    </g>
    <g id="ytick_2">
     <g id="line2d_33">
      <g>
       <use style="stroke:#000000;stroke-width:0.8;" x="90" xlink:href="#mc6ed5029e9" y="348.3"/>
      </g>
     </g>
     <g id="text_34">
      <!-- 0.02 -->
      <g transform="translate(52.354687 352.099219)scale(0.1 -0.1)">
       <use xlink:href="#DejaVuSans-8722"/>
       <use x="83.789062" xlink:href="#DejaVuSans-48"/>
       <use x="147.412109" xlink:href="#DejaVuSans-46"/>
       <use x="179.199219" xlink:href="#DejaVuSans-48"/>
       <use x="242.822266" xlink:href="#DejaVuSans-50"/>
      </g>
     </g>
    </g>
    <g id="ytick_3">
     <g id="line2d_34">
      <g>
       <use style="stroke:#000000;stroke-width:0.8;" x="90" xlink:href="#mc6ed5029e9" y="272.7"/>
      </g>
     </g>
     <g id="text_35">
      <!-- 0.00 -->
      <g transform="translate(60.734375 276.499219)scale(0.1 -0.1)">
       <use xlink:href="#DejaVuSans-48"/>
       <use x="63.623047" xlink:href="#DejaVuSans-46"/>
       <use x="95.410156" xlink:href="#DejaVuSans-48"/>
       <use x="159.033203" xlink:href="#DejaVuSans-48"/>
      </g>
     </g>
    </g>
    <g id="ytick_4">
     <g id="line2d_35">
      <g>
       <use style="stroke:#000000;stroke-width:0.8;" x="90" xlink:href="#mc6ed5029e9" y="197.1"/>
      </g>
     </g>
     <g id="text_36">
      <!-- 0.02 -->
      <g transform="translate(60.734375 200.899219)scale(0.1 -0.1)">
       <use xlink:href="#DejaVuSans-48"/>
       <use x="63.623047" xlink:href="#DejaVuSans-46"/>
       <use x="95.410156" xlink:href="#DejaVuSans-48"/>
       <use x="159.033203" xlink:href="#DejaVuSans-50"/>
      </g>
     </g>
    </g>
    <g id="ytick_5">
     <g id="line2d_36">
      <g>
       <use style="stroke:#000000;stroke-width:0.8;" x="90" xlink:href="#mc6ed5029e9" y="121.5"/>
      </g>
     </g>
     <g id="text_37">
      <!-- 0.04 -->
      <g transform="translate(60.734375 125.299219)scale(0.1 -0.1)">
       <use xlink:href="#DejaVuSans-48"/>
       <use x="63.623047" xlink:href="#DejaVuSans-46"/>
       <use x="95.410156" xlink:href="#DejaVuSans-48"/>
       <use x="159.033203" xlink:href="#DejaVuSans-52"/>
      </g>
     </g>
    </g>
   </g>
   <g id="patch_161">
    <path d="M 90 480.6 
L 90 64.8 
" style="fill:none;stroke:#000000;stroke-linecap:square;stroke-linejoin:miter;stroke-width:0.8;"/>
   </g>
   <g id="patch_162">
    <path d="M 648 480.6 
L 648 64.8 
" style="fill:none;stroke:#000000;stroke-linecap:square;stroke-linejoin:miter;stroke-width:0.8;"/>
   </g>
   <g id="patch_163">
    <path d="M 90 480.6 
L 648 480.6 
" style="fill:none;stroke:#000000;stroke-linecap:square;stroke-linejoin:miter;stroke-width:0.8;"/>
   </g>
   <g id="patch_164">
    <path d="M 90 64.8 
L 648 64.8 
" style="fill:none;stroke:#000000;stroke-linecap:square;stroke-linejoin:miter;stroke-width:0.8;"/>
   </g>
   <g id="text_38">
    <!-- Before GC452 by Scavenger -->
    <g transform="translate(313.2 64.8)scale(0.1 -0.1)">
     <defs>
      <path d="M 30.609375 48.390625 
Q 23.390625 48.390625 19.1875 42.75 
Q 14.984375 37.109375 14.984375 27.296875 
Q 14.984375 17.484375 19.15625 11.84375 
Q 23.34375 6.203125 30.609375 6.203125 
Q 37.796875 6.203125 41.984375 11.859375 
Q 46.1875 17.53125 46.1875 27.296875 
Q 46.1875 37.015625 41.984375 42.703125 
Q 37.796875 48.390625 30.609375 48.390625 
z
M 30.609375 56 
Q 42.328125 56 49.015625 48.375 
Q 55.71875 40.765625 55.71875 27.296875 
Q 55.71875 13.875 49.015625 6.21875 
Q 42.328125 -1.421875 30.609375 -1.421875 
Q 18.84375 -1.421875 12.171875 6.21875 
Q 5.515625 13.875 5.515625 27.296875 
Q 5.515625 40.765625 12.171875 48.375 
Q 18.84375 56 30.609375 56 
z
" id="DejaVuSans-111"/>
      <path d="M 41.109375 46.296875 
Q 39.59375 47.171875 37.8125 47.578125 
Q 36.03125 48 33.890625 48 
Q 26.265625 48 22.1875 43.046875 
Q 18.109375 38.09375 18.109375 28.8125 
L 18.109375 0 
L 9.078125 0 
L 9.078125 54.6875 
L 18.109375 54.6875 
L 18.109375 46.1875 
Q 20.953125 51.171875 25.484375 53.578125 
Q 30.03125 56 36.53125 56 
Q 37.453125 56 38.578125 55.875 
Q 39.703125 55.765625 41.0625 55.515625 
z
" id="DejaVuSans-114"/>
      <path d="M 59.515625 10.40625 
L 59.515625 29.984375 
L 43.40625 29.984375 
L 43.40625 38.09375 
L 69.28125 38.09375 
L 69.28125 6.78125 
Q 63.578125 2.734375 56.6875 0.65625 
Q 49.8125 -1.421875 42 -1.421875 
Q 24.90625 -1.421875 15.25 8.5625 
Q 5.609375 18.5625 5.609375 36.375 
Q 5.609375 54.25 15.25 64.234375 
Q 24.90625 74.21875 42 74.21875 
Q 49.125 74.21875 55.546875 72.453125 
Q 61.96875 70.703125 67.390625 67.28125 
L 67.390625 56.78125 
Q 61.921875 61.421875 55.765625 63.765625 
Q 49.609375 66.109375 42.828125 66.109375 
Q 29.4375 66.109375 22.71875 58.640625 
Q 16.015625 51.171875 16.015625 36.375 
Q 16.015625 21.625 22.71875 14.15625 
Q 29.4375 6.6875 42.828125 6.6875 
Q 48.046875 6.6875 52.140625 7.59375 
Q 56.25 8.5 59.515625 10.40625 
z
" id="DejaVuSans-71"/>
      <path d="M 64.40625 67.28125 
L 64.40625 56.890625 
Q 59.421875 61.53125 53.78125 63.8125 
Q 48.140625 66.109375 41.796875 66.109375 
Q 29.296875 66.109375 22.65625 58.46875 
Q 16.015625 50.828125 16.015625 36.375 
Q 16.015625 21.96875 22.65625 14.328125 
Q 29.296875 6.6875 41.796875 6.6875 
Q 48.140625 6.6875 53.78125 8.984375 
Q 59.421875 11.28125 64.40625 15.921875 
L 64.40625 5.609375 
Q 59.234375 2.09375 53.4375 0.328125 
Q 47.65625 -1.421875 41.21875 -1.421875 
Q 24.65625 -1.421875 15.125 8.703125 
Q 5.609375 18.84375 5.609375 36.375 
Q 5.609375 53.953125 15.125 64.078125 
Q 24.65625 74.21875 41.21875 74.21875 
Q 47.75 74.21875 53.53125 72.484375 
Q 59.328125 70.75 64.40625 67.28125 
z
" id="DejaVuSans-67"/>
      <path d="M 48.6875 27.296875 
Q 48.6875 37.203125 44.609375 42.84375 
Q 40.53125 48.484375 33.40625 48.484375 
Q 26.265625 48.484375 22.1875 42.84375 
Q 18.109375 37.203125 18.109375 27.296875 
Q 18.109375 17.390625 22.1875 11.75 
Q 26.265625 6.109375 33.40625 6.109375 
Q 40.53125 6.109375 44.609375 11.75 
Q 48.6875 17.390625 48.6875 27.296875 
z
M 18.109375 46.390625 
Q 20.953125 51.265625 25.265625 53.625 
Q 29.59375 56 35.59375 56 
Q 45.5625 56 51.78125 48.09375 
Q 58.015625 40.1875 58.015625 27.296875 
Q 58.015625 14.40625 51.78125 6.484375 
Q 45.5625 -1.421875 35.59375 -1.421875 
Q 29.59375 -1.421875 25.265625 0.953125 
Q 20.953125 3.328125 18.109375 8.203125 
L 18.109375 0 
L 9.078125 0 
L 9.078125 75.984375 
L 18.109375 75.984375 
z
" id="DejaVuSans-98"/>
      <path d="M 32.171875 -5.078125 
Q 28.375 -14.84375 24.75 -17.8125 
Q 21.140625 -20.796875 15.09375 -20.796875 
L 7.90625 -20.796875 
L 7.90625 -13.28125 
L 13.1875 -13.28125 
Q 16.890625 -13.28125 18.9375 -11.515625 
Q 21 -9.765625 23.484375 -3.21875 
L 25.09375 0.875 
L 2.984375 54.6875 
L 12.5 54.6875 
L 29.59375 11.921875 
L 46.6875 54.6875 
L 56.203125 54.6875 
z
" id="DejaVuSans-121"/>
      <path d="M 53.515625 70.515625 
L 53.515625 60.890625 
Q 47.90625 63.578125 42.921875 64.890625 
Q 37.9375 66.21875 33.296875 66.21875 
Q 25.25 66.21875 20.875 63.09375 
Q 16.5 59.96875 16.5 54.203125 
Q 16.5 49.359375 19.40625 46.890625 
Q 22.3125 44.4375 30.421875 42.921875 
L 36.375 41.703125 
Q 47.40625 39.59375 52.65625 34.296875 
Q 57.90625 29 57.90625 20.125 
Q 57.90625 9.515625 50.796875 4.046875 
Q 43.703125 -1.421875 29.984375 -1.421875 
Q 24.8125 -1.421875 18.96875 -0.25 
Q 13.140625 0.921875 6.890625 3.21875 
L 6.890625 13.375 
Q 12.890625 10.015625 18.65625 8.296875 
Q 24.421875 6.59375 29.984375 6.59375 
Q 38.421875 6.59375 43.015625 9.90625 
Q 47.609375 13.234375 47.609375 19.390625 
Q 47.609375 24.75 44.3125 27.78125 
Q 41.015625 30.8125 33.5 32.328125 
L 27.484375 33.5 
Q 16.453125 35.6875 11.515625 40.375 
Q 6.59375 45.0625 6.59375 53.421875 
Q 6.59375 63.09375 13.40625 68.65625 
Q 20.21875 74.21875 32.171875 74.21875 
Q 37.3125 74.21875 42.625 73.28125 
Q 47.953125 72.359375 53.515625 70.515625 
z
" id="DejaVuSans-83"/>
      <path d="M 48.78125 52.59375 
L 48.78125 44.1875 
Q 44.96875 46.296875 41.140625 47.34375 
Q 37.3125 48.390625 33.40625 48.390625 
Q 24.65625 48.390625 19.8125 42.84375 
Q 14.984375 37.3125 14.984375 27.296875 
Q 14.984375 17.28125 19.8125 11.734375 
Q 24.65625 6.203125 33.40625 6.203125 
Q 37.3125 6.203125 41.140625 7.25 
Q 44.96875 8.296875 48.78125 10.40625 
L 48.78125 2.09375 
Q 45.015625 0.34375 40.984375 -0.53125 
Q 36.96875 -1.421875 32.421875 -1.421875 
Q 20.0625 -1.421875 12.78125 6.34375 
Q 5.515625 14.109375 5.515625 27.296875 
Q 5.515625 40.671875 12.859375 48.328125 
Q 20.21875 56 33.015625 56 
Q 37.15625 56 41.109375 55.140625 
Q 45.0625 54.296875 48.78125 52.59375 
z
" id="DejaVuSans-99"/>
      <path d="M 34.28125 27.484375 
Q 23.390625 27.484375 19.1875 25 
Q 14.984375 22.515625 14.984375 16.5 
Q 14.984375 11.71875 18.140625 8.90625 
Q 21.296875 6.109375 26.703125 6.109375 
Q 34.1875 6.109375 38.703125 11.40625 
Q 43.21875 16.703125 43.21875 25.484375 
L 43.21875 27.484375 
z
M 52.203125 31.203125 
L 52.203125 0 
L 43.21875 0 
L 43.21875 8.296875 
Q 40.140625 3.328125 35.546875 0.953125 
Q 30.953125 -1.421875 24.3125 -1.421875 
Q 15.921875 -1.421875 10.953125 3.296875 
Q 6 8.015625 6 15.921875 
Q 6 25.140625 12.171875 29.828125 
Q 18.359375 34.515625 30.609375 34.515625 
L 43.21875 34.515625 
L 43.21875 35.40625 
Q 43.21875 41.609375 39.140625 45 
Q 35.0625 48.390625 27.6875 48.390625 
Q 23 48.390625 18.546875 47.265625 
Q 14.109375 46.140625 10.015625 43.890625 
L 10.015625 52.203125 
Q 14.9375 54.109375 19.578125 55.046875 
Q 24.21875 56 28.609375 56 
Q 40.484375 56 46.34375 49.84375 
Q 52.203125 43.703125 52.203125 31.203125 
z
" id="DejaVuSans-97"/>
      <path d="M 2.984375 54.6875 
L 12.5 54.6875 
L 29.59375 8.796875 
L 46.6875 54.6875 
L 56.203125 54.6875 
L 35.6875 0 
L 23.484375 0 
z
" id="DejaVuSans-118"/>
      <path d="M 45.40625 27.984375 
Q 45.40625 37.75 41.375 43.109375 
Q 37.359375 48.484375 30.078125 48.484375 
Q 22.859375 48.484375 18.828125 43.109375 
Q 14.796875 37.75 14.796875 27.984375 
Q 14.796875 18.265625 18.828125 12.890625 
Q 22.859375 7.515625 30.078125 7.515625 
Q 37.359375 7.515625 41.375 12.890625 
Q 45.40625 18.265625 45.40625 27.984375 
z
M 54.390625 6.78125 
Q 54.390625 -7.171875 48.1875 -13.984375 
Q 42 -20.796875 29.203125 -20.796875 
Q 24.46875 -20.796875 20.265625 -20.09375 
Q 16.0625 -19.390625 12.109375 -17.921875 
L 12.109375 -9.1875 
Q 16.0625 -11.328125 19.921875 -12.34375 
Q 23.78125 -13.375 27.78125 -13.375 
Q 36.625 -13.375 41.015625 -8.765625 
Q 45.40625 -4.15625 45.40625 5.171875 
L 45.40625 9.625 
Q 42.625 4.78125 38.28125 2.390625 
Q 33.9375 0 27.875 0 
Q 17.828125 0 11.671875 7.65625 
Q 5.515625 15.328125 5.515625 27.984375 
Q 5.515625 40.671875 11.671875 48.328125 
Q 17.828125 56 27.875 56 
Q 33.9375 56 38.28125 53.609375 
Q 42.625 51.21875 45.40625 46.390625 
L 45.40625 54.6875 
L 54.390625 54.6875 
z
" id="DejaVuSans-103"/>
     </defs>
     <use xlink:href="#DejaVuSans-66"/>
     <use x="68.603516" xlink:href="#DejaVuSans-101"/>
     <use x="130.126953" xlink:href="#DejaVuSans-102"/>
     <use x="165.332031" xlink:href="#DejaVuSans-111"/>
     <use x="226.513672" xlink:href="#DejaVuSans-114"/>
     <use x="265.376953" xlink:href="#DejaVuSans-101"/>
     <use x="326.900391" xlink:href="#DejaVuSans-32"/>
     <use x="358.6875" xlink:href="#DejaVuSans-71"/>
     <use x="436.177734" xlink:href="#DejaVuSans-67"/>
     <use x="506.001953" xlink:href="#DejaVuSans-52"/>
     <use x="569.625" xlink:href="#DejaVuSans-53"/>
     <use x="633.248047" xlink:href="#DejaVuSans-50"/>
     <use x="696.871094" xlink:href="#DejaVuSans-32"/>
     <use x="728.658203" xlink:href="#DejaVuSans-98"/>
     <use x="792.134766" xlink:href="#DejaVuSans-121"/>
     <use x="851.314453" xlink:href="#DejaVuSans-32"/>
     <use x="883.101562" xlink:href="#DejaVuSans-83"/>
     <use x="946.578125" xlink:href="#DejaVuSans-99"/>
     <use x="1001.558594" xlink:href="#DejaVuSans-97"/>
     <use x="1062.837891" xlink:href="#DejaVuSans-118"/>
     <use x="1122.017578" xlink:href="#DejaVuSans-101"/>
     <use x="1183.541016" xlink:href="#DejaVuSans-110"/>
     <use x="1246.919922" xlink:href="#DejaVuSans-103"/>
     <use x="1310.396484" xlink:href="#DejaVuSans-101"/>
     <use x="1371.919922" xlink:href="#DejaVuSans-114"/>
    </g>
   </g>
   <g id="legend_1">
    <g id="patch_165">
     <path d="M 97 175.546875 
L 199.5875 175.546875 
Q 201.5875 175.546875 201.5875 173.546875 
L 201.5875 71.8 
Q 201.5875 69.8 199.5875 69.8 
L 97 69.8 
Q 95 69.8 95 71.8 
L 95 173.546875 
Q 95 175.546875 97 175.546875 
z
" style="fill:#ffffff;opacity:0.8;stroke:#cccccc;stroke-linejoin:miter;"/>
    </g>
    <g id="patch_166">
     <path d="M 99 81.398438 
L 119 81.398438 
L 119 74.398438 
L 99 74.398438 
z
" style="fill:#0000ff;opacity:0.5;stroke:#0000ff;stroke-linejoin:miter;"/>
    </g>
    <g id="text_39">
     <!-- New space -->
     <g transform="translate(127 81.398438)scale(0.1 -0.1)">
      <defs>
       <path d="M 9.8125 72.90625 
L 23.09375 72.90625 
L 55.421875 11.921875 
L 55.421875 72.90625 
L 64.984375 72.90625 
L 64.984375 0 
L 51.703125 0 
L 19.390625 60.984375 
L 19.390625 0 
L 9.8125 0 
z
" id="DejaVuSans-78"/>
       <path d="M 4.203125 54.6875 
L 13.1875 54.6875 
L 24.421875 12.015625 
L 35.59375 54.6875 
L 46.1875 54.6875 
L 57.421875 12.015625 
L 68.609375 54.6875 
L 77.59375 54.6875 
L 63.28125 0 
L 52.6875 0 
L 40.921875 44.828125 
L 29.109375 0 
L 18.5 0 
z
" id="DejaVuSans-119"/>
       <path d="M 18.109375 8.203125 
L 18.109375 -20.796875 
L 9.078125 -20.796875 
L 9.078125 54.6875 
L 18.109375 54.6875 
L 18.109375 46.390625 
Q 20.953125 51.265625 25.265625 53.625 
Q 29.59375 56 35.59375 56 
Q 45.5625 56 51.78125 48.09375 
Q 58.015625 40.1875 58.015625 27.296875 
Q 58.015625 14.40625 51.78125 6.484375 
Q 45.5625 -1.421875 35.59375 -1.421875 
Q 29.59375 -1.421875 25.265625 0.953125 
Q 20.953125 3.328125 18.109375 8.203125 
z
M 48.6875 27.296875 
Q 48.6875 37.203125 44.609375 42.84375 
Q 40.53125 48.484375 33.40625 48.484375 
Q 26.265625 48.484375 22.1875 42.84375 
Q 18.109375 37.203125 18.109375 27.296875 
Q 18.109375 17.390625 22.1875 11.75 
Q 26.265625 6.109375 33.40625 6.109375 
Q 40.53125 6.109375 44.609375 11.75 
Q 48.6875 17.390625 48.6875 27.296875 
z
" id="DejaVuSans-112"/>
      </defs>
      <use xlink:href="#DejaVuSans-78"/>
      <use x="74.804688" xlink:href="#DejaVuSans-101"/>
      <use x="136.328125" xlink:href="#DejaVuSans-119"/>
      <use x="218.115234" xlink:href="#DejaVuSans-32"/>
      <use x="249.902344" xlink:href="#DejaVuSans-115"/>
      <use x="302.001953" xlink:href="#DejaVuSans-112"/>
      <use x="365.478516" xlink:href="#DejaVuSans-97"/>
      <use x="426.757812" xlink:href="#DejaVuSans-99"/>
      <use x="481.738281" xlink:href="#DejaVuSans-101"/>
     </g>
    </g>
    <g id="patch_167">
     <path d="M 99 96.076563 
L 119 96.076563 
L 119 89.076563 
L 99 89.076563 
z
" style="fill:#ff0000;opacity:0.5;stroke:#ff0000;stroke-linejoin:miter;"/>
    </g>
    <g id="text_40">
     <!-- Old space -->
     <g transform="translate(127 96.076563)scale(0.1 -0.1)">
      <defs>
       <path d="M 9.421875 75.984375 
L 18.40625 75.984375 
L 18.40625 0 
L 9.421875 0 
z
" id="DejaVuSans-108"/>
       <path d="M 45.40625 46.390625 
L 45.40625 75.984375 
L 54.390625 75.984375 
L 54.390625 0 
L 45.40625 0 
L 45.40625 8.203125 
Q 42.578125 3.328125 38.25 0.953125 
Q 33.9375 -1.421875 27.875 -1.421875 
Q 17.96875 -1.421875 11.734375 6.484375 
Q 5.515625 14.40625 5.515625 27.296875 
Q 5.515625 40.1875 11.734375 48.09375 
Q 17.96875 56 27.875 56 
Q 33.9375 56 38.25 53.625 
Q 42.578125 51.265625 45.40625 46.390625 
z
M 14.796875 27.296875 
Q 14.796875 17.390625 18.875 11.75 
Q 22.953125 6.109375 30.078125 6.109375 
Q 37.203125 6.109375 41.296875 11.75 
Q 45.40625 17.390625 45.40625 27.296875 
Q 45.40625 37.203125 41.296875 42.84375 
Q 37.203125 48.484375 30.078125 48.484375 
Q 22.953125 48.484375 18.875 42.84375 
Q 14.796875 37.203125 14.796875 27.296875 
z
" id="DejaVuSans-100"/>
      </defs>
      <use xlink:href="#DejaVuSans-79"/>
      <use x="78.710938" xlink:href="#DejaVuSans-108"/>
      <use x="106.494141" xlink:href="#DejaVuSans-100"/>
      <use x="169.970703" xlink:href="#DejaVuSans-32"/>
      <use x="201.757812" xlink:href="#DejaVuSans-115"/>
      <use x="253.857422" xlink:href="#DejaVuSans-112"/>
      <use x="317.333984" xlink:href="#DejaVuSans-97"/>
      <use x="378.613281" xlink:href="#DejaVuSans-99"/>
      <use x="433.59375" xlink:href="#DejaVuSans-101"/>
     </g>
    </g>
    <g id="patch_168">
     <path d="M 99 110.754687 
L 119 110.754687 
L 119 103.754687 
L 99 103.754687 
z
" style="fill:#008000;opacity:0.5;stroke:#008000;stroke-linejoin:miter;"/>
    </g>
    <g id="text_41">
     <!-- Map space -->
     <g transform="translate(127 110.754687)scale(0.1 -0.1)">
      <use xlink:href="#DejaVuSans-77"/>
      <use x="86.279297" xlink:href="#DejaVuSans-97"/>
      <use x="147.558594" xlink:href="#DejaVuSans-112"/>
      <use x="211.035156" xlink:href="#DejaVuSans-32"/>
      <use x="242.822266" xlink:href="#DejaVuSans-115"/>
      <use x="294.921875" xlink:href="#DejaVuSans-112"/>
      <use x="358.398438" xlink:href="#DejaVuSans-97"/>
      <use x="419.677734" xlink:href="#DejaVuSans-99"/>
      <use x="474.658203" xlink:href="#DejaVuSans-101"/>
     </g>
    </g>
    <g id="patch_169">
     <path d="M 99 125.432813 
L 119 125.432813 
L 119 118.432813 
L 99 118.432813 
z
" style="fill:#808080;opacity:0.5;stroke:#808080;stroke-linejoin:miter;"/>
    </g>
    <g id="text_42">
     <!-- LO space -->
     <g transform="translate(127 125.432813)scale(0.1 -0.1)">
      <defs>
       <path d="M 9.8125 72.90625 
L 19.671875 72.90625 
L 19.671875 8.296875 
L 55.171875 8.296875 
L 55.171875 0 
L 9.8125 0 
z
" id="DejaVuSans-76"/>
      </defs>
      <use xlink:href="#DejaVuSans-76"/>
      <use x="52.087891" xlink:href="#DejaVuSans-79"/>
      <use x="130.798828" xlink:href="#DejaVuSans-32"/>
      <use x="162.585938" xlink:href="#DejaVuSans-115"/>
      <use x="214.685547" xlink:href="#DejaVuSans-112"/>
      <use x="278.162109" xlink:href="#DejaVuSans-97"/>
      <use x="339.441406" xlink:href="#DejaVuSans-99"/>
      <use x="394.421875" xlink:href="#DejaVuSans-101"/>
     </g>
    </g>
    <g id="patch_170">
     <path d="M 99 140.110937 
L 119 140.110937 
L 119 133.110937 
L 99 133.110937 
z
" style="fill:#00ffff;opacity:0.5;stroke:#00ffff;stroke-linejoin:miter;"/>
    </g>
    <g id="text_43">
     <!-- New LO space -->
     <g transform="translate(127 140.110937)scale(0.1 -0.1)">
      <use xlink:href="#DejaVuSans-78"/>
      <use x="74.804688" xlink:href="#DejaVuSans-101"/>
      <use x="136.328125" xlink:href="#DejaVuSans-119"/>
      <use x="218.115234" xlink:href="#DejaVuSans-32"/>
      <use x="249.902344" xlink:href="#DejaVuSans-76"/>
      <use x="301.990234" xlink:href="#DejaVuSans-79"/>
      <use x="380.701172" xlink:href="#DejaVuSans-32"/>
      <use x="412.488281" xlink:href="#DejaVuSans-115"/>
      <use x="464.587891" xlink:href="#DejaVuSans-112"/>
      <use x="528.064453" xlink:href="#DejaVuSans-97"/>
      <use x="589.34375" xlink:href="#DejaVuSans-99"/>
      <use x="644.324219" xlink:href="#DejaVuSans-101"/>
     </g>
    </g>
    <g id="patch_171">
     <path d="M 99 154.789062 
L 119 154.789062 
L 119 147.789062 
L 99 147.789062 
z
" style="fill:#808000;opacity:0.5;stroke:#808000;stroke-linejoin:miter;"/>
    </g>
    <g id="text_44">
     <!-- RO space -->
     <g transform="translate(127 154.789062)scale(0.1 -0.1)">
      <defs>
       <path d="M 44.390625 34.1875 
Q 47.5625 33.109375 50.5625 29.59375 
Q 53.5625 26.078125 56.59375 19.921875 
L 66.609375 0 
L 56 0 
L 46.6875 18.703125 
Q 43.0625 26.03125 39.671875 28.421875 
Q 36.28125 30.8125 30.421875 30.8125 
L 19.671875 30.8125 
L 19.671875 0 
L 9.8125 0 
L 9.8125 72.90625 
L 32.078125 72.90625 
Q 44.578125 72.90625 50.734375 67.671875 
Q 56.890625 62.453125 56.890625 51.90625 
Q 56.890625 45.015625 53.6875 40.46875 
Q 50.484375 35.9375 44.390625 34.1875 
z
M 19.671875 64.796875 
L 19.671875 38.921875 
L 32.078125 38.921875 
Q 39.203125 38.921875 42.84375 42.21875 
Q 46.484375 45.515625 46.484375 51.90625 
Q 46.484375 58.296875 42.84375 61.546875 
Q 39.203125 64.796875 32.078125 64.796875 
z
" id="DejaVuSans-82"/>
      </defs>
      <use xlink:href="#DejaVuSans-82"/>
      <use x="69.482422" xlink:href="#DejaVuSans-79"/>
      <use x="148.193359" xlink:href="#DejaVuSans-32"/>
      <use x="179.980469" xlink:href="#DejaVuSans-115"/>
      <use x="232.080078" xlink:href="#DejaVuSans-112"/>
      <use x="295.556641" xlink:href="#DejaVuSans-97"/>
      <use x="356.835938" xlink:href="#DejaVuSans-99"/>
      <use x="411.816406" xlink:href="#DejaVuSans-101"/>
     </g>
    </g>
    <g id="patch_172">
     <path d="M 99 169.467188 
L 119 169.467188 
L 119 162.467188 
L 99 162.467188 
z
" style="stroke:#000000;stroke-linejoin:miter;"/>
    </g>
    <g id="text_45">
     <!-- Access count -->
     <g transform="translate(127 169.467188)scale(0.1 -0.1)">
      <defs>
       <path d="M 34.1875 63.1875 
L 20.796875 26.90625 
L 47.609375 26.90625 
z
M 28.609375 72.90625 
L 39.796875 72.90625 
L 67.578125 0 
L 57.328125 0 
L 50.6875 18.703125 
L 17.828125 18.703125 
L 11.1875 0 
L 0.78125 0 
z
" id="DejaVuSans-65"/>
       <path d="M 8.5 21.578125 
L 8.5 54.6875 
L 17.484375 54.6875 
L 17.484375 21.921875 
Q 17.484375 14.15625 20.5 10.265625 
Q 23.53125 6.390625 29.59375 6.390625 
Q 36.859375 6.390625 41.078125 11.03125 
Q 45.3125 15.671875 45.3125 23.6875 
L 45.3125 54.6875 
L 54.296875 54.6875 
L 54.296875 0 
L 45.3125 0 
L 45.3125 8.40625 
Q 42.046875 3.421875 37.71875 1 
Q 33.40625 -1.421875 27.6875 -1.421875 
Q 18.265625 -1.421875 13.375 4.4375 
Q 8.5 10.296875 8.5 21.578125 
z
M 31.109375 56 
z
" id="DejaVuSans-117"/>
      </defs>
      <use xlink:href="#DejaVuSans-65"/>
      <use x="66.658203" xlink:href="#DejaVuSans-99"/>
      <use x="121.638672" xlink:href="#DejaVuSans-99"/>
      <use x="176.619141" xlink:href="#DejaVuSans-101"/>
      <use x="238.142578" xlink:href="#DejaVuSans-115"/>
      <use x="290.242188" xlink:href="#DejaVuSans-115"/>
      <use x="342.341797" xlink:href="#DejaVuSans-32"/>
      <use x="374.128906" xlink:href="#DejaVuSans-99"/>
      <use x="429.109375" xlink:href="#DejaVuSans-111"/>
      <use x="490.291016" xlink:href="#DejaVuSans-117"/>
      <use x="553.669922" xlink:href="#DejaVuSans-110"/>
      <use x="617.048828" xlink:href="#DejaVuSans-116"/>
     </g>
    </g>
   </g>
  </g>
 </g>
 <defs>
  <clipPath id="p2969f5be22">
   <rect height="415.8" width="558" x="90" y="64.8"/>
  </clipPath>
 </defs>
</svg>
