<?xml version="1.0" encoding="utf-8" standalone="no"?>
<!DOCTYPE svg PUBLIC "-//W3C//DTD SVG 1.1//EN"
  "http://www.w3.org/Graphics/SVG/1.1/DTD/svg11.dtd">
<!-- Created with matplotlib (https://matplotlib.org/) -->
<svg height="540pt" version="1.1" viewBox="0 0 720 540" width="720pt" xmlns="http://www.w3.org/2000/svg" xmlns:xlink="http://www.w3.org/1999/xlink">
 <metadata>
  <rdf:RDF xmlns:cc="http://creativecommons.org/ns#" xmlns:dc="http://purl.org/dc/elements/1.1/" xmlns:rdf="http://www.w3.org/1999/02/22-rdf-syntax-ns#">
   <cc:Work>
    <dc:type rdf:resource="http://purl.org/dc/dcmitype/StillImage"/>
    <dc:date>2021-06-03T22:17:52.582767</dc:date>
    <dc:format>image/svg+xml</dc:format>
    <dc:creator>
     <cc:Agent>
      <dc:title>Matplotlib v3.3.4, https://matplotlib.org/</dc:title>
     </cc:Agent>
    </dc:creator>
   </cc:Work>
  </rdf:RDF>
 </metadata>
 <defs>
  <style type="text/css">*{stroke-linecap:butt;stroke-linejoin:round;}</style>
 </defs>
 <g id="figure_1">
  <g id="patch_1">
   <path d="M 0 540 
L 720 540 
L 720 0 
L 0 0 
z
" style="fill:#ffffff;"/>
  </g>
  <g id="axes_1">
   <g id="patch_2">
    <path d="M 90 480.6 
L 648 480.6 
L 648 64.8 
L 90 64.8 
z
" style="fill:#ffffff;"/>
   </g>
   <g id="BrokenBarHCollection_1">
    <path clip-path="url(#p9f968047da)" d="M 527.828313 332.76 
L 527.828313 203.4 
L 528.668675 203.4 
L 528.668675 332.76 
L 527.828313 332.76 
z
" style="fill:#1f77b4;"/>
    <path clip-path="url(#p9f968047da)" d="M 528.668675 332.76 
L 528.668675 203.4 
L 529.509036 203.4 
L 529.509036 332.76 
L 528.668675 332.76 
z
" style="fill:#1f77b4;"/>
    <path clip-path="url(#p9f968047da)" d="M 530.349398 332.76 
L 530.349398 203.4 
L 531.189759 203.4 
L 531.189759 332.76 
L 530.349398 332.76 
z
" style="fill:#1f77b4;"/>
    <path clip-path="url(#p9f968047da)" d="M 529.509036 332.76 
L 529.509036 203.4 
L 530.349398 203.4 
L 530.349398 332.76 
L 529.509036 332.76 
z
" style="fill:#1f77b4;"/>
   </g>
   <g id="BrokenBarHCollection_2">
    <path clip-path="url(#p9f968047da)" d="M 520.26506 332.76 
L 520.26506 203.4 
L 521.105422 203.4 
L 521.105422 332.76 
L 520.26506 332.76 
z
" style="fill:#d62728;"/>
    <path clip-path="url(#p9f968047da)" d="M 521.945783 332.76 
L 521.945783 203.4 
L 522.195265 203.4 
L 522.195265 332.76 
L 521.945783 332.76 
z
" style="fill:#d62728;"/>
    <path clip-path="url(#p9f968047da)" d="M 525.307229 332.76 
L 525.307229 203.4 
L 526.14759 203.4 
L 526.14759 332.76 
L 525.307229 332.76 
z
" style="fill:#d62728;"/>
    <path clip-path="url(#p9f968047da)" d="M 524.466867 332.76 
L 524.466867 203.4 
L 525.307229 203.4 
L 525.307229 332.76 
L 524.466867 332.76 
z
" style="fill:#d62728;"/>
    <path clip-path="url(#p9f968047da)" d="M 522.786145 332.76 
L 522.786145 203.4 
L 523.626506 203.4 
L 523.626506 332.76 
L 522.786145 332.76 
z
" style="fill:#d62728;"/>
    <path clip-path="url(#p9f968047da)" d="M 526.14759 332.76 
L 526.14759 203.4 
L 526.987952 203.4 
L 526.987952 332.76 
L 526.14759 332.76 
z
" style="fill:#d62728;"/>
    <path clip-path="url(#p9f968047da)" d="M 531.189759 332.76 
L 531.189759 203.4 
L 532.03012 203.4 
L 532.03012 332.76 
L 531.189759 332.76 
z
" style="fill:#d62728;"/>
   </g>
   <g id="BrokenBarHCollection_3">
    <path clip-path="url(#p9f968047da)" d="M 90 332.76 
L 90 203.4 
L 90.275744 203.4 
L 90.275744 332.76 
L 90 332.76 
z
" style="fill:#9467bd;"/>
    <path clip-path="url(#p9f968047da)" d="M 90.840361 332.76 
L 90.840361 203.4 
L 91.680723 203.4 
L 91.680723 332.76 
L 90.840361 332.76 
z
" style="fill:#9467bd;"/>
   </g>
   <g id="BrokenBarHCollection_4">
    <path clip-path="url(#p9f968047da)" d="M 521.105422 332.76 
L 521.105422 203.4 
L 521.144814 203.4 
L 521.144814 332.76 
L 521.105422 332.76 
z
" style="fill:#2ca02c;"/>
    <path clip-path="url(#p9f968047da)" d="M 523.626506 332.76 
L 523.626506 203.4 
L 524.466867 203.4 
L 524.466867 332.76 
L 523.626506 332.76 
z
" style="fill:#2ca02c;"/>
   </g>
   <g id="BrokenBarHCollection_5">
    <path clip-path="url(#p9f968047da)" d="M 526.987952 332.76 
L 526.987952 203.4 
L 527.447524 203.4 
L 527.447524 332.76 
L 526.987952 332.76 
z
" style="fill:#7f7f7f;"/>
   </g>
   <g id="BrokenBarHCollection_6"/>
   <g id="BrokenBarHCollection_7"/>
   <g id="BrokenBarHCollection_8"/>
   <g id="BrokenBarHCollection_9">
    <path clip-path="url(#p9f968047da)" d="M 527.855472 480.6 
L 527.855472 351.24 
L 527.974571 351.24 
L 527.974571 480.6 
L 527.855472 480.6 
z
" style="fill:#ff7f0e;"/>
    <path clip-path="url(#p9f968047da)" d="M 527.982611 480.6 
L 527.982611 351.24 
L 528.068281 351.24 
L 528.068281 480.6 
L 527.982611 480.6 
z
" style="fill:#ff7f0e;"/>
    <path clip-path="url(#p9f968047da)" d="M 528.076334 480.6 
L 528.076334 351.24 
L 528.161991 351.24 
L 528.161991 480.6 
L 528.076334 480.6 
z
" style="fill:#ff7f0e;"/>
    <path clip-path="url(#p9f968047da)" d="M 528.170043 480.6 
L 528.170043 351.24 
L 528.2557 351.24 
L 528.2557 480.6 
L 528.170043 480.6 
z
" style="fill:#ff7f0e;"/>
    <path clip-path="url(#p9f968047da)" d="M 528.263753 480.6 
L 528.263753 351.24 
L 528.34941 351.24 
L 528.34941 480.6 
L 528.263753 480.6 
z
" style="fill:#ff7f0e;"/>
    <path clip-path="url(#p9f968047da)" d="M 528.357463 480.6 
L 528.357463 351.24 
L 528.443107 351.24 
L 528.443107 480.6 
L 528.357463 480.6 
z
" style="fill:#ff7f0e;"/>
    <path clip-path="url(#p9f968047da)" d="M 528.451173 480.6 
L 528.451173 351.24 
L 528.536804 351.24 
L 528.536804 480.6 
L 528.451173 480.6 
z
" style="fill:#ff7f0e;"/>
    <path clip-path="url(#p9f968047da)" d="M 528.54487 480.6 
L 528.54487 351.24 
L 528.630501 351.24 
L 528.630501 480.6 
L 528.54487 480.6 
z
" style="fill:#ff7f0e;"/>
    <path clip-path="url(#p9f968047da)" d="M 528.638567 480.6 
L 528.638567 351.24 
L 528.668611 351.24 
L 528.668611 480.6 
L 528.638567 480.6 
z
" style="fill:#ff7f0e;"/>
    <path clip-path="url(#p9f968047da)" d="M 528.695834 480.6 
L 528.695834 351.24 
L 528.751421 351.24 
L 528.751421 480.6 
L 528.695834 480.6 
z
" style="fill:#ff7f0e;"/>
    <path clip-path="url(#p9f968047da)" d="M 528.759486 480.6 
L 528.759486 351.24 
L 528.845105 351.24 
L 528.845105 480.6 
L 528.759486 480.6 
z
" style="fill:#ff7f0e;"/>
    <path clip-path="url(#p9f968047da)" d="M 528.853183 480.6 
L 528.853183 351.24 
L 528.938789 351.24 
L 528.938789 480.6 
L 528.853183 480.6 
z
" style="fill:#ff7f0e;"/>
    <path clip-path="url(#p9f968047da)" d="M 528.946867 480.6 
L 528.946867 351.24 
L 529.032473 351.24 
L 529.032473 480.6 
L 528.946867 480.6 
z
" style="fill:#ff7f0e;"/>
    <path clip-path="url(#p9f968047da)" d="M 529.040552 480.6 
L 529.040552 351.24 
L 529.126157 351.24 
L 529.126157 480.6 
L 529.040552 480.6 
z
" style="fill:#ff7f0e;"/>
    <path clip-path="url(#p9f968047da)" d="M 529.134236 480.6 
L 529.134236 351.24 
L 529.219829 351.24 
L 529.219829 480.6 
L 529.134236 480.6 
z
" style="fill:#ff7f0e;"/>
    <path clip-path="url(#p9f968047da)" d="M 529.22792 480.6 
L 529.22792 351.24 
L 529.3135 351.24 
L 529.3135 480.6 
L 529.22792 480.6 
z
" style="fill:#ff7f0e;"/>
    <path clip-path="url(#p9f968047da)" d="M 529.321591 480.6 
L 529.321591 351.24 
L 529.407171 351.24 
L 529.407171 480.6 
L 529.321591 480.6 
z
" style="fill:#ff7f0e;"/>
    <path clip-path="url(#p9f968047da)" d="M 529.415262 480.6 
L 529.415262 351.24 
L 529.500842 351.24 
L 529.500842 480.6 
L 529.415262 480.6 
z
" style="fill:#ff7f0e;"/>
    <path clip-path="url(#p9f968047da)" d="M 529.508934 480.6 
L 529.508934 351.24 
L 529.508998 351.24 
L 529.508998 480.6 
L 529.508934 480.6 
z
" style="fill:#ff7f0e;"/>
    <path clip-path="url(#p9f968047da)" d="M 530.376556 480.6 
L 530.376556 351.24 
L 530.46206 351.24 
L 530.46206 480.6 
L 530.376556 480.6 
z
" style="fill:#ff7f0e;"/>
    <path clip-path="url(#p9f968047da)" d="M 530.470164 480.6 
L 530.470164 351.24 
L 530.555718 351.24 
L 530.555718 480.6 
L 530.470164 480.6 
z
" style="fill:#ff7f0e;"/>
    <path clip-path="url(#p9f968047da)" d="M 530.563822 480.6 
L 530.563822 351.24 
L 530.649376 351.24 
L 530.649376 480.6 
L 530.563822 480.6 
z
" style="fill:#ff7f0e;"/>
    <path clip-path="url(#p9f968047da)" d="M 530.657481 480.6 
L 530.657481 351.24 
L 530.743035 351.24 
L 530.743035 480.6 
L 530.657481 480.6 
z
" style="fill:#ff7f0e;"/>
    <path clip-path="url(#p9f968047da)" d="M 530.751139 480.6 
L 530.751139 351.24 
L 530.836681 351.24 
L 530.836681 480.6 
L 530.751139 480.6 
z
" style="fill:#ff7f0e;"/>
    <path clip-path="url(#p9f968047da)" d="M 530.844797 480.6 
L 530.844797 351.24 
L 530.930326 351.24 
L 530.930326 480.6 
L 530.844797 480.6 
z
" style="fill:#ff7f0e;"/>
    <path clip-path="url(#p9f968047da)" d="M 530.938443 480.6 
L 530.938443 351.24 
L 531.023972 351.24 
L 531.023972 480.6 
L 530.938443 480.6 
z
" style="fill:#ff7f0e;"/>
    <path clip-path="url(#p9f968047da)" d="M 531.032089 480.6 
L 531.032089 351.24 
L 531.117617 351.24 
L 531.117617 480.6 
L 531.032089 480.6 
z
" style="fill:#ff7f0e;"/>
    <path clip-path="url(#p9f968047da)" d="M 531.125734 480.6 
L 531.125734 351.24 
L 531.189682 351.24 
L 531.189682 480.6 
L 531.125734 480.6 
z
" style="fill:#ff7f0e;"/>
    <path clip-path="url(#p9f968047da)" d="M 529.536195 480.6 
L 529.536195 351.24 
L 529.557763 351.24 
L 529.557763 480.6 
L 529.536195 480.6 
z
" style="fill:#ff7f0e;"/>
    <path clip-path="url(#p9f968047da)" d="M 529.565893 480.6 
L 529.565893 351.24 
L 529.651396 351.24 
L 529.651396 480.6 
L 529.565893 480.6 
z
" style="fill:#ff7f0e;"/>
    <path clip-path="url(#p9f968047da)" d="M 529.659526 480.6 
L 529.659526 351.24 
L 529.745029 351.24 
L 529.745029 480.6 
L 529.659526 480.6 
z
" style="fill:#ff7f0e;"/>
    <path clip-path="url(#p9f968047da)" d="M 529.753158 480.6 
L 529.753158 351.24 
L 529.838662 351.24 
L 529.838662 480.6 
L 529.753158 480.6 
z
" style="fill:#ff7f0e;"/>
    <path clip-path="url(#p9f968047da)" d="M 529.846791 480.6 
L 529.846791 351.24 
L 529.932282 351.24 
L 529.932282 480.6 
L 529.846791 480.6 
z
" style="fill:#ff7f0e;"/>
    <path clip-path="url(#p9f968047da)" d="M 529.940424 480.6 
L 529.940424 351.24 
L 530.025902 351.24 
L 530.025902 480.6 
L 529.940424 480.6 
z
" style="fill:#ff7f0e;"/>
    <path clip-path="url(#p9f968047da)" d="M 530.034044 480.6 
L 530.034044 351.24 
L 530.119521 351.24 
L 530.119521 480.6 
L 530.034044 480.6 
z
" style="fill:#ff7f0e;"/>
    <path clip-path="url(#p9f968047da)" d="M 530.127664 480.6 
L 530.127664 351.24 
L 530.213141 351.24 
L 530.213141 480.6 
L 530.127664 480.6 
z
" style="fill:#ff7f0e;"/>
    <path clip-path="url(#p9f968047da)" d="M 530.221284 480.6 
L 530.221284 351.24 
L 530.306749 351.24 
L 530.306749 480.6 
L 530.221284 480.6 
z
" style="fill:#ff7f0e;"/>
    <path clip-path="url(#p9f968047da)" d="M 530.314904 480.6 
L 530.314904 351.24 
L 530.349346 351.24 
L 530.349346 480.6 
L 530.314904 480.6 
z
" style="fill:#ff7f0e;"/>
   </g>
   <g id="BrokenBarHCollection_10">
    <path clip-path="url(#p9f968047da)" d="M 520.292219 480.6 
L 520.292219 351.24 
L 521.105383 351.24 
L 521.105383 480.6 
L 520.292219 480.6 
z
" style="fill:#ff7f0e;"/>
    <path clip-path="url(#p9f968047da)" d="M 521.972942 480.6 
L 521.972942 351.24 
L 522.188162 351.24 
L 522.188162 480.6 
L 521.972942 480.6 
z
" style="fill:#ff7f0e;"/>
    <path clip-path="url(#p9f968047da)" d="M 525.334388 480.6 
L 525.334388 351.24 
L 525.794679 351.24 
L 525.794679 480.6 
L 525.334388 480.6 
z
" style="fill:#ff7f0e;"/>
    <path clip-path="url(#p9f968047da)" d="M 525.794691 480.6 
L 525.794691 351.24 
L 525.79523 351.24 
L 525.79523 480.6 
L 525.794691 480.6 
z
" style="fill:#ff7f0e;"/>
    <path clip-path="url(#p9f968047da)" d="M 525.795615 480.6 
L 525.795615 351.24 
L 525.797141 351.24 
L 525.797141 480.6 
L 525.795615 480.6 
z
" style="fill:#ff7f0e;"/>
    <path clip-path="url(#p9f968047da)" d="M 525.797153 480.6 
L 525.797153 351.24 
L 525.797269 351.24 
L 525.797269 480.6 
L 525.797153 480.6 
z
" style="fill:#ff7f0e;"/>
    <path clip-path="url(#p9f968047da)" d="M 525.797282 480.6 
L 525.797282 351.24 
L 525.797333 351.24 
L 525.797333 480.6 
L 525.797282 480.6 
z
" style="fill:#ff7f0e;"/>
    <path clip-path="url(#p9f968047da)" d="M 525.797346 480.6 
L 525.797346 351.24 
L 525.801436 351.24 
L 525.801436 480.6 
L 525.797346 480.6 
z
" style="fill:#ff7f0e;"/>
    <path clip-path="url(#p9f968047da)" d="M 525.801821 480.6 
L 525.801821 351.24 
L 525.803757 351.24 
L 525.803757 480.6 
L 525.801821 480.6 
z
" style="fill:#ff7f0e;"/>
    <path clip-path="url(#p9f968047da)" d="M 525.80377 480.6 
L 525.80377 351.24 
L 525.804026 351.24 
L 525.804026 480.6 
L 525.80377 480.6 
z
" style="fill:#ff7f0e;"/>
    <path clip-path="url(#p9f968047da)" d="M 525.804039 480.6 
L 525.804039 351.24 
L 525.80745 351.24 
L 525.80745 480.6 
L 525.804039 480.6 
z
" style="fill:#ff7f0e;"/>
    <path clip-path="url(#p9f968047da)" d="M 525.807835 480.6 
L 525.807835 351.24 
L 525.810028 351.24 
L 525.810028 480.6 
L 525.807835 480.6 
z
" style="fill:#ff7f0e;"/>
    <path clip-path="url(#p9f968047da)" d="M 525.81004 480.6 
L 525.81004 351.24 
L 525.810207 351.24 
L 525.810207 480.6 
L 525.81004 480.6 
z
" style="fill:#ff7f0e;"/>
    <path clip-path="url(#p9f968047da)" d="M 525.81022 480.6 
L 525.81022 351.24 
L 525.810694 351.24 
L 525.810694 480.6 
L 525.81022 480.6 
z
" style="fill:#ff7f0e;"/>
    <path clip-path="url(#p9f968047da)" d="M 525.810707 480.6 
L 525.810707 351.24 
L 525.814131 351.24 
L 525.814131 480.6 
L 525.810707 480.6 
z
" style="fill:#ff7f0e;"/>
    <path clip-path="url(#p9f968047da)" d="M 525.814144 480.6 
L 525.814144 351.24 
L 525.814669 351.24 
L 525.814669 480.6 
L 525.814144 480.6 
z
" style="fill:#ff7f0e;"/>
    <path clip-path="url(#p9f968047da)" d="M 525.815067 480.6 
L 525.815067 351.24 
L 525.817644 351.24 
L 525.817644 480.6 
L 525.815067 480.6 
z
" style="fill:#ff7f0e;"/>
    <path clip-path="url(#p9f968047da)" d="M 525.817657 480.6 
L 525.817657 351.24 
L 525.820876 351.24 
L 525.820876 480.6 
L 525.817657 480.6 
z
" style="fill:#ff7f0e;"/>
    <path clip-path="url(#p9f968047da)" d="M 525.82126 480.6 
L 525.82126 351.24 
L 525.826864 351.24 
L 525.826864 480.6 
L 525.82126 480.6 
z
" style="fill:#ff7f0e;"/>
    <path clip-path="url(#p9f968047da)" d="M 525.826877 480.6 
L 525.826877 351.24 
L 525.831762 351.24 
L 525.831762 480.6 
L 525.826877 480.6 
z
" style="fill:#ff7f0e;"/>
    <path clip-path="url(#p9f968047da)" d="M 525.83216 480.6 
L 525.83216 351.24 
L 525.83911 351.24 
L 525.83911 480.6 
L 525.83216 480.6 
z
" style="fill:#ff7f0e;"/>
    <path clip-path="url(#p9f968047da)" d="M 525.839123 480.6 
L 525.839123 351.24 
L 525.839982 351.24 
L 525.839982 480.6 
L 525.839123 480.6 
z
" style="fill:#ff7f0e;"/>
    <path clip-path="url(#p9f968047da)" d="M 525.839995 480.6 
L 525.839995 351.24 
L 525.848919 351.24 
L 525.848919 480.6 
L 525.839995 480.6 
z
" style="fill:#ff7f0e;"/>
    <path clip-path="url(#p9f968047da)" d="M 525.848932 480.6 
L 525.848932 351.24 
L 525.849086 351.24 
L 525.849086 480.6 
L 525.848932 480.6 
z
" style="fill:#ff7f0e;"/>
    <path clip-path="url(#p9f968047da)" d="M 525.849099 480.6 
L 525.849099 351.24 
L 525.849676 351.24 
L 525.849676 480.6 
L 525.849099 480.6 
z
" style="fill:#ff7f0e;"/>
    <path clip-path="url(#p9f968047da)" d="M 525.849689 480.6 
L 525.849689 351.24 
L 525.849817 351.24 
L 525.849817 480.6 
L 525.849689 480.6 
z
" style="fill:#ff7f0e;"/>
    <path clip-path="url(#p9f968047da)" d="M 525.84983 480.6 
L 525.84983 351.24 
L 525.88776 351.24 
L 525.88776 480.6 
L 525.84983 480.6 
z
" style="fill:#ff7f0e;"/>
    <path clip-path="url(#p9f968047da)" d="M 525.887773 480.6 
L 525.887773 351.24 
L 525.909046 351.24 
L 525.909046 480.6 
L 525.887773 480.6 
z
" style="fill:#ff7f0e;"/>
    <path clip-path="url(#p9f968047da)" d="M 525.909059 480.6 
L 525.909059 351.24 
L 525.981931 351.24 
L 525.981931 480.6 
L 525.909059 480.6 
z
" style="fill:#ff7f0e;"/>
    <path clip-path="url(#p9f968047da)" d="M 525.981944 480.6 
L 525.981944 351.24 
L 526.026632 351.24 
L 526.026632 480.6 
L 525.981944 480.6 
z
" style="fill:#ff7f0e;"/>
    <path clip-path="url(#p9f968047da)" d="M 524.494026 480.6 
L 524.494026 351.24 
L 524.706027 351.24 
L 524.706027 480.6 
L 524.494026 480.6 
z
" style="fill:#ff7f0e;"/>
    <path clip-path="url(#p9f968047da)" d="M 524.70604 480.6 
L 524.70604 351.24 
L 524.706245 351.24 
L 524.706245 480.6 
L 524.70604 480.6 
z
" style="fill:#ff7f0e;"/>
    <path clip-path="url(#p9f968047da)" d="M 524.706258 480.6 
L 524.706258 351.24 
L 524.76909 351.24 
L 524.76909 480.6 
L 524.706258 480.6 
z
" style="fill:#ff7f0e;"/>
    <path clip-path="url(#p9f968047da)" d="M 524.769103 480.6 
L 524.769103 351.24 
L 524.769167 351.24 
L 524.769167 480.6 
L 524.769103 480.6 
z
" style="fill:#ff7f0e;"/>
    <path clip-path="url(#p9f968047da)" d="M 524.76918 480.6 
L 524.76918 351.24 
L 524.794826 351.24 
L 524.794826 480.6 
L 524.76918 480.6 
z
" style="fill:#ff7f0e;"/>
    <path clip-path="url(#p9f968047da)" d="M 524.794839 480.6 
L 524.794839 351.24 
L 524.794954 351.24 
L 524.794954 480.6 
L 524.794839 480.6 
z
" style="fill:#ff7f0e;"/>
    <path clip-path="url(#p9f968047da)" d="M 524.794967 480.6 
L 524.794967 351.24 
L 524.795031 351.24 
L 524.795031 480.6 
L 524.794967 480.6 
z
" style="fill:#ff7f0e;"/>
    <path clip-path="url(#p9f968047da)" d="M 524.795044 480.6 
L 524.795044 351.24 
L 524.827781 351.24 
L 524.827781 480.6 
L 524.795044 480.6 
z
" style="fill:#ff7f0e;"/>
    <path clip-path="url(#p9f968047da)" d="M 524.827794 480.6 
L 524.827794 351.24 
L 524.827947 351.24 
L 524.827947 480.6 
L 524.827794 480.6 
z
" style="fill:#ff7f0e;"/>
    <path clip-path="url(#p9f968047da)" d="M 524.82796 480.6 
L 524.82796 351.24 
L 525.307216 351.24 
L 525.307216 480.6 
L 524.82796 480.6 
z
" style="fill:#ff7f0e;"/>
    <path clip-path="url(#p9f968047da)" d="M 522.813303 480.6 
L 522.813303 351.24 
L 523.508676 351.24 
L 523.508676 480.6 
L 522.813303 480.6 
z
" style="fill:#ff7f0e;"/>
    <path clip-path="url(#p9f968047da)" d="M 523.508933 480.6 
L 523.508933 351.24 
L 523.509792 351.24 
L 523.509792 480.6 
L 523.508933 480.6 
z
" style="fill:#ff7f0e;"/>
    <path clip-path="url(#p9f968047da)" d="M 523.509805 480.6 
L 523.509805 351.24 
L 523.521999 351.24 
L 523.521999 480.6 
L 523.509805 480.6 
z
" style="fill:#ff7f0e;"/>
    <path clip-path="url(#p9f968047da)" d="M 523.522038 480.6 
L 523.522038 351.24 
L 523.52868 351.24 
L 523.52868 480.6 
L 523.522038 480.6 
z
" style="fill:#ff7f0e;"/>
    <path clip-path="url(#p9f968047da)" d="M 523.528975 480.6 
L 523.528975 351.24 
L 523.544452 351.24 
L 523.544452 480.6 
L 523.528975 480.6 
z
" style="fill:#ff7f0e;"/>
    <path clip-path="url(#p9f968047da)" d="M 523.544465 480.6 
L 523.544465 351.24 
L 523.544529 351.24 
L 523.544529 480.6 
L 523.544465 480.6 
z
" style="fill:#ff7f0e;"/>
    <path clip-path="url(#p9f968047da)" d="M 523.544542 480.6 
L 523.544542 351.24 
L 523.544593 351.24 
L 523.544593 480.6 
L 523.544542 480.6 
z
" style="fill:#ff7f0e;"/>
    <path clip-path="url(#p9f968047da)" d="M 523.544606 480.6 
L 523.544606 351.24 
L 523.544657 351.24 
L 523.544657 480.6 
L 523.544606 480.6 
z
" style="fill:#ff7f0e;"/>
    <path clip-path="url(#p9f968047da)" d="M 523.54467 480.6 
L 523.54467 351.24 
L 523.544991 351.24 
L 523.544991 480.6 
L 523.54467 480.6 
z
" style="fill:#ff7f0e;"/>
    <path clip-path="url(#p9f968047da)" d="M 523.545004 480.6 
L 523.545004 351.24 
L 523.545055 351.24 
L 523.545055 480.6 
L 523.545004 480.6 
z
" style="fill:#ff7f0e;"/>
    <path clip-path="url(#p9f968047da)" d="M 523.545093 480.6 
L 523.545093 351.24 
L 523.545363 351.24 
L 523.545363 480.6 
L 523.545093 480.6 
z
" style="fill:#ff7f0e;"/>
    <path clip-path="url(#p9f968047da)" d="M 523.545388 480.6 
L 523.545388 351.24 
L 523.545568 351.24 
L 523.545568 480.6 
L 523.545388 480.6 
z
" style="fill:#ff7f0e;"/>
    <path clip-path="url(#p9f968047da)" d="M 523.545594 480.6 
L 523.545594 351.24 
L 523.546183 351.24 
L 523.546183 480.6 
L 523.545594 480.6 
z
" style="fill:#ff7f0e;"/>
    <path clip-path="url(#p9f968047da)" d="M 523.546478 480.6 
L 523.546478 351.24 
L 523.547043 351.24 
L 523.547043 480.6 
L 523.546478 480.6 
z
" style="fill:#ff7f0e;"/>
    <path clip-path="url(#p9f968047da)" d="M 523.547081 480.6 
L 523.547081 351.24 
L 523.547196 351.24 
L 523.547196 480.6 
L 523.547081 480.6 
z
" style="fill:#ff7f0e;"/>
    <path clip-path="url(#p9f968047da)" d="M 523.547261 480.6 
L 523.547261 351.24 
L 523.547812 351.24 
L 523.547812 480.6 
L 523.547261 480.6 
z
" style="fill:#ff7f0e;"/>
    <path clip-path="url(#p9f968047da)" d="M 523.547838 480.6 
L 523.547838 351.24 
L 523.548325 351.24 
L 523.548325 480.6 
L 523.547838 480.6 
z
" style="fill:#ff7f0e;"/>
    <path clip-path="url(#p9f968047da)" d="M 523.548389 480.6 
L 523.548389 351.24 
L 523.548543 351.24 
L 523.548543 480.6 
L 523.548389 480.6 
z
" style="fill:#ff7f0e;"/>
    <path clip-path="url(#p9f968047da)" d="M 523.548556 480.6 
L 523.548556 351.24 
L 523.548748 351.24 
L 523.548748 480.6 
L 523.548556 480.6 
z
" style="fill:#ff7f0e;"/>
    <path clip-path="url(#p9f968047da)" d="M 523.548786 480.6 
L 523.548786 351.24 
L 523.569842 351.24 
L 523.569842 480.6 
L 523.548786 480.6 
z
" style="fill:#ff7f0e;"/>
    <path clip-path="url(#p9f968047da)" d="M 523.570098 480.6 
L 523.570098 351.24 
L 523.590666 351.24 
L 523.590666 480.6 
L 523.570098 480.6 
z
" style="fill:#ff7f0e;"/>
    <path clip-path="url(#p9f968047da)" d="M 523.590679 480.6 
L 523.590679 351.24 
L 523.59114 351.24 
L 523.59114 480.6 
L 523.590679 480.6 
z
" style="fill:#ff7f0e;"/>
    <path clip-path="url(#p9f968047da)" d="M 523.591192 480.6 
L 523.591192 351.24 
L 523.591743 351.24 
L 523.591743 480.6 
L 523.591192 480.6 
z
" style="fill:#ff7f0e;"/>
    <path clip-path="url(#p9f968047da)" d="M 523.591769 480.6 
L 523.591769 351.24 
L 523.592371 351.24 
L 523.592371 480.6 
L 523.591769 480.6 
z
" style="fill:#ff7f0e;"/>
    <path clip-path="url(#p9f968047da)" d="M 523.592436 480.6 
L 523.592436 351.24 
L 523.593538 351.24 
L 523.593538 480.6 
L 523.592436 480.6 
z
" style="fill:#ff7f0e;"/>
    <path clip-path="url(#p9f968047da)" d="M 523.593551 480.6 
L 523.593551 351.24 
L 523.594667 351.24 
L 523.594667 480.6 
L 523.593551 480.6 
z
" style="fill:#ff7f0e;"/>
    <path clip-path="url(#p9f968047da)" d="M 523.594692 480.6 
L 523.594692 351.24 
L 523.595244 351.24 
L 523.595244 480.6 
L 523.594692 480.6 
z
" style="fill:#ff7f0e;"/>
    <path clip-path="url(#p9f968047da)" d="M 523.595257 480.6 
L 523.595257 351.24 
L 523.595795 351.24 
L 523.595795 480.6 
L 523.595257 480.6 
z
" style="fill:#ff7f0e;"/>
    <path clip-path="url(#p9f968047da)" d="M 523.595808 480.6 
L 523.595808 351.24 
L 523.596347 351.24 
L 523.596347 480.6 
L 523.595808 480.6 
z
" style="fill:#ff7f0e;"/>
    <path clip-path="url(#p9f968047da)" d="M 523.596385 480.6 
L 523.596385 351.24 
L 523.599052 351.24 
L 523.599052 480.6 
L 523.596385 480.6 
z
" style="fill:#ff7f0e;"/>
    <path clip-path="url(#p9f968047da)" d="M 523.599065 480.6 
L 523.599065 351.24 
L 523.600219 351.24 
L 523.600219 480.6 
L 523.599065 480.6 
z
" style="fill:#ff7f0e;"/>
    <path clip-path="url(#p9f968047da)" d="M 523.600232 480.6 
L 523.600232 351.24 
L 523.620851 351.24 
L 523.620851 480.6 
L 523.600232 480.6 
z
" style="fill:#ff7f0e;"/>
    <path clip-path="url(#p9f968047da)" d="M 523.620864 480.6 
L 523.620864 351.24 
L 523.626493 351.24 
L 523.626493 480.6 
L 523.620864 480.6 
z
" style="fill:#ff7f0e;"/>
    <path clip-path="url(#p9f968047da)" d="M 526.174749 480.6 
L 526.174749 351.24 
L 526.175121 351.24 
L 526.175121 480.6 
L 526.174749 480.6 
z
" style="fill:#ff7f0e;"/>
    <path clip-path="url(#p9f968047da)" d="M 526.175134 480.6 
L 526.175134 351.24 
L 526.177032 351.24 
L 526.177032 480.6 
L 526.175134 480.6 
z
" style="fill:#ff7f0e;"/>
    <path clip-path="url(#p9f968047da)" d="M 526.279794 480.6 
L 526.279794 351.24 
L 526.523776 351.24 
L 526.523776 480.6 
L 526.279794 480.6 
z
" style="fill:#ff7f0e;"/>
    <path clip-path="url(#p9f968047da)" d="M 531.216918 480.6 
L 531.216918 351.24 
L 531.519025 351.24 
L 531.519025 480.6 
L 531.216918 480.6 
z
" style="fill:#ff7f0e;"/>
   </g>
   <g id="BrokenBarHCollection_11">
    <path clip-path="url(#p9f968047da)" d="M 521.132581 480.6 
L 521.132581 351.24 
L 521.132837 351.24 
L 521.132837 480.6 
L 521.132581 480.6 
z
" style="fill:#ff7f0e;"/>
    <path clip-path="url(#p9f968047da)" d="M 523.653665 480.6 
L 523.653665 351.24 
L 523.91833 351.24 
L 523.91833 480.6 
L 523.653665 480.6 
z
" style="fill:#ff7f0e;"/>
   </g>
   <g id="BrokenBarHCollection_12">
    <path clip-path="url(#p9f968047da)" d="M 527.015111 480.6 
L 527.015111 351.24 
L 527.435317 351.24 
L 527.435317 480.6 
L 527.015111 480.6 
z
" style="fill:#ff7f0e;"/>
   </g>
   <g id="BrokenBarHCollection_13"/>
   <g id="BrokenBarHCollection_14"/>
   <g id="matplotlib.axis_1">
    <g id="xtick_1">
     <g id="line2d_1">
      <defs>
       <path d="M 0 0 
L 0 3.5 
" id="m4e983e4e50" style="stroke:#000000;stroke-width:0.8;"/>
      </defs>
      <g>
       <use style="stroke:#000000;stroke-width:0.8;" x="90" xlink:href="#m4e983e4e50" y="480.6"/>
      </g>
     </g>
     <g id="text_1">
      <!-- 0 -->
      <g transform="translate(92.759375 493.9625)rotate(-90)scale(0.1 -0.1)">
       <defs>
        <path d="M 31.78125 66.40625 
Q 24.171875 66.40625 20.328125 58.90625 
Q 16.5 51.421875 16.5 36.375 
Q 16.5 21.390625 20.328125 13.890625 
Q 24.171875 6.390625 31.78125 6.390625 
Q 39.453125 6.390625 43.28125 13.890625 
Q 47.125 21.390625 47.125 36.375 
Q 47.125 51.421875 43.28125 58.90625 
Q 39.453125 66.40625 31.78125 66.40625 
z
M 31.78125 74.21875 
Q 44.046875 74.21875 50.515625 64.515625 
Q 56.984375 54.828125 56.984375 36.375 
Q 56.984375 17.96875 50.515625 8.265625 
Q 44.046875 -1.421875 31.78125 -1.421875 
Q 19.53125 -1.421875 13.0625 8.265625 
Q 6.59375 17.96875 6.59375 36.375 
Q 6.59375 54.828125 13.0625 64.515625 
Q 19.53125 74.21875 31.78125 74.21875 
z
" id="DejaVuSans-48"/>
       </defs>
       <use xlink:href="#DejaVuSans-48"/>
      </g>
     </g>
    </g>
    <g id="xtick_2">
     <g id="line2d_2">
      <g>
       <use style="stroke:#000000;stroke-width:0.8;" x="110.168675" xlink:href="#m4e983e4e50" y="480.6"/>
      </g>
     </g>
     <g id="text_2">
      <!-- 6 -->
      <g transform="translate(112.92805 493.9625)rotate(-90)scale(0.1 -0.1)">
       <defs>
        <path d="M 33.015625 40.375 
Q 26.375 40.375 22.484375 35.828125 
Q 18.609375 31.296875 18.609375 23.390625 
Q 18.609375 15.53125 22.484375 10.953125 
Q 26.375 6.390625 33.015625 6.390625 
Q 39.65625 6.390625 43.53125 10.953125 
Q 47.40625 15.53125 47.40625 23.390625 
Q 47.40625 31.296875 43.53125 35.828125 
Q 39.65625 40.375 33.015625 40.375 
z
M 52.59375 71.296875 
L 52.59375 62.3125 
Q 48.875 64.0625 45.09375 64.984375 
Q 41.3125 65.921875 37.59375 65.921875 
Q 27.828125 65.921875 22.671875 59.328125 
Q 17.53125 52.734375 16.796875 39.40625 
Q 19.671875 43.65625 24.015625 45.921875 
Q 28.375 48.1875 33.59375 48.1875 
Q 44.578125 48.1875 50.953125 41.515625 
Q 57.328125 34.859375 57.328125 23.390625 
Q 57.328125 12.15625 50.6875 5.359375 
Q 44.046875 -1.421875 33.015625 -1.421875 
Q 20.359375 -1.421875 13.671875 8.265625 
Q 6.984375 17.96875 6.984375 36.375 
Q 6.984375 53.65625 15.1875 63.9375 
Q 23.390625 74.21875 37.203125 74.21875 
Q 40.921875 74.21875 44.703125 73.484375 
Q 48.484375 72.75 52.59375 71.296875 
z
" id="DejaVuSans-54"/>
       </defs>
       <use xlink:href="#DejaVuSans-54"/>
      </g>
     </g>
    </g>
    <g id="xtick_3">
     <g id="line2d_3">
      <g>
       <use style="stroke:#000000;stroke-width:0.8;" x="130.337349" xlink:href="#m4e983e4e50" y="480.6"/>
      </g>
     </g>
     <g id="text_3">
      <!-- 12 -->
      <g transform="translate(133.096724 500.325)rotate(-90)scale(0.1 -0.1)">
       <defs>
        <path d="M 12.40625 8.296875 
L 28.515625 8.296875 
L 28.515625 63.921875 
L 10.984375 60.40625 
L 10.984375 69.390625 
L 28.421875 72.90625 
L 38.28125 72.90625 
L 38.28125 8.296875 
L 54.390625 8.296875 
L 54.390625 0 
L 12.40625 0 
z
" id="DejaVuSans-49"/>
        <path d="M 19.1875 8.296875 
L 53.609375 8.296875 
L 53.609375 0 
L 7.328125 0 
L 7.328125 8.296875 
Q 12.9375 14.109375 22.625 23.890625 
Q 32.328125 33.6875 34.8125 36.53125 
Q 39.546875 41.84375 41.421875 45.53125 
Q 43.3125 49.21875 43.3125 52.78125 
Q 43.3125 58.59375 39.234375 62.25 
Q 35.15625 65.921875 28.609375 65.921875 
Q 23.96875 65.921875 18.8125 64.3125 
Q 13.671875 62.703125 7.8125 59.421875 
L 7.8125 69.390625 
Q 13.765625 71.78125 18.9375 73 
Q 24.125 74.21875 28.421875 74.21875 
Q 39.75 74.21875 46.484375 68.546875 
Q 53.21875 62.890625 53.21875 53.421875 
Q 53.21875 48.921875 51.53125 44.890625 
Q 49.859375 40.875 45.40625 35.40625 
Q 44.1875 33.984375 37.640625 27.21875 
Q 31.109375 20.453125 19.1875 8.296875 
z
" id="DejaVuSans-50"/>
       </defs>
       <use xlink:href="#DejaVuSans-49"/>
       <use x="63.623047" xlink:href="#DejaVuSans-50"/>
      </g>
     </g>
    </g>
    <g id="xtick_4">
     <g id="line2d_4">
      <g>
       <use style="stroke:#000000;stroke-width:0.8;" x="150.506024" xlink:href="#m4e983e4e50" y="480.6"/>
      </g>
     </g>
     <g id="text_4">
      <!-- 18 -->
      <g transform="translate(153.265399 500.325)rotate(-90)scale(0.1 -0.1)">
       <defs>
        <path d="M 31.78125 34.625 
Q 24.75 34.625 20.71875 30.859375 
Q 16.703125 27.09375 16.703125 20.515625 
Q 16.703125 13.921875 20.71875 10.15625 
Q 24.75 6.390625 31.78125 6.390625 
Q 38.8125 6.390625 42.859375 10.171875 
Q 46.921875 13.96875 46.921875 20.515625 
Q 46.921875 27.09375 42.890625 30.859375 
Q 38.875 34.625 31.78125 34.625 
z
M 21.921875 38.8125 
Q 15.578125 40.375 12.03125 44.71875 
Q 8.5 49.078125 8.5 55.328125 
Q 8.5 64.0625 14.71875 69.140625 
Q 20.953125 74.21875 31.78125 74.21875 
Q 42.671875 74.21875 48.875 69.140625 
Q 55.078125 64.0625 55.078125 55.328125 
Q 55.078125 49.078125 51.53125 44.71875 
Q 48 40.375 41.703125 38.8125 
Q 48.828125 37.15625 52.796875 32.3125 
Q 56.78125 27.484375 56.78125 20.515625 
Q 56.78125 9.90625 50.3125 4.234375 
Q 43.84375 -1.421875 31.78125 -1.421875 
Q 19.734375 -1.421875 13.25 4.234375 
Q 6.78125 9.90625 6.78125 20.515625 
Q 6.78125 27.484375 10.78125 32.3125 
Q 14.796875 37.15625 21.921875 38.8125 
z
M 18.3125 54.390625 
Q 18.3125 48.734375 21.84375 45.5625 
Q 25.390625 42.390625 31.78125 42.390625 
Q 38.140625 42.390625 41.71875 45.5625 
Q 45.3125 48.734375 45.3125 54.390625 
Q 45.3125 60.0625 41.71875 63.234375 
Q 38.140625 66.40625 31.78125 66.40625 
Q 25.390625 66.40625 21.84375 63.234375 
Q 18.3125 60.0625 18.3125 54.390625 
z
" id="DejaVuSans-56"/>
       </defs>
       <use xlink:href="#DejaVuSans-49"/>
       <use x="63.623047" xlink:href="#DejaVuSans-56"/>
      </g>
     </g>
    </g>
    <g id="xtick_5">
     <g id="line2d_5">
      <g>
       <use style="stroke:#000000;stroke-width:0.8;" x="170.674699" xlink:href="#m4e983e4e50" y="480.6"/>
      </g>
     </g>
     <g id="text_5">
      <!-- 24 -->
      <g transform="translate(173.434074 500.325)rotate(-90)scale(0.1 -0.1)">
       <defs>
        <path d="M 37.796875 64.3125 
L 12.890625 25.390625 
L 37.796875 25.390625 
z
M 35.203125 72.90625 
L 47.609375 72.90625 
L 47.609375 25.390625 
L 58.015625 25.390625 
L 58.015625 17.1875 
L 47.609375 17.1875 
L 47.609375 0 
L 37.796875 0 
L 37.796875 17.1875 
L 4.890625 17.1875 
L 4.890625 26.703125 
z
" id="DejaVuSans-52"/>
       </defs>
       <use xlink:href="#DejaVuSans-50"/>
       <use x="63.623047" xlink:href="#DejaVuSans-52"/>
      </g>
     </g>
    </g>
    <g id="xtick_6">
     <g id="line2d_6">
      <g>
       <use style="stroke:#000000;stroke-width:0.8;" x="190.843373" xlink:href="#m4e983e4e50" y="480.6"/>
      </g>
     </g>
     <g id="text_6">
      <!-- 30 -->
      <g transform="translate(193.602748 500.325)rotate(-90)scale(0.1 -0.1)">
       <defs>
        <path d="M 40.578125 39.3125 
Q 47.65625 37.796875 51.625 33 
Q 55.609375 28.21875 55.609375 21.1875 
Q 55.609375 10.40625 48.1875 4.484375 
Q 40.765625 -1.421875 27.09375 -1.421875 
Q 22.515625 -1.421875 17.65625 -0.515625 
Q 12.796875 0.390625 7.625 2.203125 
L 7.625 11.71875 
Q 11.71875 9.328125 16.59375 8.109375 
Q 21.484375 6.890625 26.8125 6.890625 
Q 36.078125 6.890625 40.9375 10.546875 
Q 45.796875 14.203125 45.796875 21.1875 
Q 45.796875 27.640625 41.28125 31.265625 
Q 36.765625 34.90625 28.71875 34.90625 
L 20.21875 34.90625 
L 20.21875 43.015625 
L 29.109375 43.015625 
Q 36.375 43.015625 40.234375 45.921875 
Q 44.09375 48.828125 44.09375 54.296875 
Q 44.09375 59.90625 40.109375 62.90625 
Q 36.140625 65.921875 28.71875 65.921875 
Q 24.65625 65.921875 20.015625 65.03125 
Q 15.375 64.15625 9.8125 62.3125 
L 9.8125 71.09375 
Q 15.4375 72.65625 20.34375 73.4375 
Q 25.25 74.21875 29.59375 74.21875 
Q 40.828125 74.21875 47.359375 69.109375 
Q 53.90625 64.015625 53.90625 55.328125 
Q 53.90625 49.265625 50.4375 45.09375 
Q 46.96875 40.921875 40.578125 39.3125 
z
" id="DejaVuSans-51"/>
       </defs>
       <use xlink:href="#DejaVuSans-51"/>
       <use x="63.623047" xlink:href="#DejaVuSans-48"/>
      </g>
     </g>
    </g>
    <g id="xtick_7">
     <g id="line2d_7">
      <g>
       <use style="stroke:#000000;stroke-width:0.8;" x="211.012048" xlink:href="#m4e983e4e50" y="480.6"/>
      </g>
     </g>
     <g id="text_7">
      <!-- 36 -->
      <g transform="translate(213.771423 500.325)rotate(-90)scale(0.1 -0.1)">
       <use xlink:href="#DejaVuSans-51"/>
       <use x="63.623047" xlink:href="#DejaVuSans-54"/>
      </g>
     </g>
    </g>
    <g id="xtick_8">
     <g id="line2d_8">
      <g>
       <use style="stroke:#000000;stroke-width:0.8;" x="231.180723" xlink:href="#m4e983e4e50" y="480.6"/>
      </g>
     </g>
     <g id="text_8">
      <!-- 42 -->
      <g transform="translate(233.940098 500.325)rotate(-90)scale(0.1 -0.1)">
       <use xlink:href="#DejaVuSans-52"/>
       <use x="63.623047" xlink:href="#DejaVuSans-50"/>
      </g>
     </g>
    </g>
    <g id="xtick_9">
     <g id="line2d_9">
      <g>
       <use style="stroke:#000000;stroke-width:0.8;" x="251.349398" xlink:href="#m4e983e4e50" y="480.6"/>
      </g>
     </g>
     <g id="text_9">
      <!-- 48 -->
      <g transform="translate(254.108773 500.325)rotate(-90)scale(0.1 -0.1)">
       <use xlink:href="#DejaVuSans-52"/>
       <use x="63.623047" xlink:href="#DejaVuSans-56"/>
      </g>
     </g>
    </g>
    <g id="xtick_10">
     <g id="line2d_10">
      <g>
       <use style="stroke:#000000;stroke-width:0.8;" x="271.518072" xlink:href="#m4e983e4e50" y="480.6"/>
      </g>
     </g>
     <g id="text_10">
      <!-- 54 -->
      <g transform="translate(274.277447 500.325)rotate(-90)scale(0.1 -0.1)">
       <defs>
        <path d="M 10.796875 72.90625 
L 49.515625 72.90625 
L 49.515625 64.59375 
L 19.828125 64.59375 
L 19.828125 46.734375 
Q 21.96875 47.46875 24.109375 47.828125 
Q 26.265625 48.1875 28.421875 48.1875 
Q 40.625 48.1875 47.75 41.5 
Q 54.890625 34.8125 54.890625 23.390625 
Q 54.890625 11.625 47.5625 5.09375 
Q 40.234375 -1.421875 26.90625 -1.421875 
Q 22.3125 -1.421875 17.546875 -0.640625 
Q 12.796875 0.140625 7.71875 1.703125 
L 7.71875 11.625 
Q 12.109375 9.234375 16.796875 8.0625 
Q 21.484375 6.890625 26.703125 6.890625 
Q 35.15625 6.890625 40.078125 11.328125 
Q 45.015625 15.765625 45.015625 23.390625 
Q 45.015625 31 40.078125 35.4375 
Q 35.15625 39.890625 26.703125 39.890625 
Q 22.75 39.890625 18.8125 39.015625 
Q 14.890625 38.140625 10.796875 36.28125 
z
" id="DejaVuSans-53"/>
       </defs>
       <use xlink:href="#DejaVuSans-53"/>
       <use x="63.623047" xlink:href="#DejaVuSans-52"/>
      </g>
     </g>
    </g>
    <g id="xtick_11">
     <g id="line2d_11">
      <g>
       <use style="stroke:#000000;stroke-width:0.8;" x="291.686747" xlink:href="#m4e983e4e50" y="480.6"/>
      </g>
     </g>
     <g id="text_11">
      <!-- 60 -->
      <g transform="translate(294.446122 500.325)rotate(-90)scale(0.1 -0.1)">
       <use xlink:href="#DejaVuSans-54"/>
       <use x="63.623047" xlink:href="#DejaVuSans-48"/>
      </g>
     </g>
    </g>
    <g id="xtick_12">
     <g id="line2d_12">
      <g>
       <use style="stroke:#000000;stroke-width:0.8;" x="311.855422" xlink:href="#m4e983e4e50" y="480.6"/>
      </g>
     </g>
     <g id="text_12">
      <!-- 66 -->
      <g transform="translate(314.614797 500.325)rotate(-90)scale(0.1 -0.1)">
       <use xlink:href="#DejaVuSans-54"/>
       <use x="63.623047" xlink:href="#DejaVuSans-54"/>
      </g>
     </g>
    </g>
    <g id="xtick_13">
     <g id="line2d_13">
      <g>
       <use style="stroke:#000000;stroke-width:0.8;" x="332.024096" xlink:href="#m4e983e4e50" y="480.6"/>
      </g>
     </g>
     <g id="text_13">
      <!-- 72 -->
      <g transform="translate(334.783471 500.325)rotate(-90)scale(0.1 -0.1)">
       <defs>
        <path d="M 8.203125 72.90625 
L 55.078125 72.90625 
L 55.078125 68.703125 
L 28.609375 0 
L 18.3125 0 
L 43.21875 64.59375 
L 8.203125 64.59375 
z
" id="DejaVuSans-55"/>
       </defs>
       <use xlink:href="#DejaVuSans-55"/>
       <use x="63.623047" xlink:href="#DejaVuSans-50"/>
      </g>
     </g>
    </g>
    <g id="xtick_14">
     <g id="line2d_14">
      <g>
       <use style="stroke:#000000;stroke-width:0.8;" x="352.192771" xlink:href="#m4e983e4e50" y="480.6"/>
      </g>
     </g>
     <g id="text_14">
      <!-- 78 -->
      <g transform="translate(354.952146 500.325)rotate(-90)scale(0.1 -0.1)">
       <use xlink:href="#DejaVuSans-55"/>
       <use x="63.623047" xlink:href="#DejaVuSans-56"/>
      </g>
     </g>
    </g>
    <g id="xtick_15">
     <g id="line2d_15">
      <g>
       <use style="stroke:#000000;stroke-width:0.8;" x="372.361446" xlink:href="#m4e983e4e50" y="480.6"/>
      </g>
     </g>
     <g id="text_15">
      <!-- 84 -->
      <g transform="translate(375.120821 500.325)rotate(-90)scale(0.1 -0.1)">
       <use xlink:href="#DejaVuSans-56"/>
       <use x="63.623047" xlink:href="#DejaVuSans-52"/>
      </g>
     </g>
    </g>
    <g id="xtick_16">
     <g id="line2d_16">
      <g>
       <use style="stroke:#000000;stroke-width:0.8;" x="392.53012" xlink:href="#m4e983e4e50" y="480.6"/>
      </g>
     </g>
     <g id="text_16">
      <!-- 90 -->
      <g transform="translate(395.289495 500.325)rotate(-90)scale(0.1 -0.1)">
       <defs>
        <path d="M 10.984375 1.515625 
L 10.984375 10.5 
Q 14.703125 8.734375 18.5 7.8125 
Q 22.3125 6.890625 25.984375 6.890625 
Q 35.75 6.890625 40.890625 13.453125 
Q 46.046875 20.015625 46.78125 33.40625 
Q 43.953125 29.203125 39.59375 26.953125 
Q 35.25 24.703125 29.984375 24.703125 
Q 19.046875 24.703125 12.671875 31.3125 
Q 6.296875 37.9375 6.296875 49.421875 
Q 6.296875 60.640625 12.9375 67.421875 
Q 19.578125 74.21875 30.609375 74.21875 
Q 43.265625 74.21875 49.921875 64.515625 
Q 56.59375 54.828125 56.59375 36.375 
Q 56.59375 19.140625 48.40625 8.859375 
Q 40.234375 -1.421875 26.421875 -1.421875 
Q 22.703125 -1.421875 18.890625 -0.6875 
Q 15.09375 0.046875 10.984375 1.515625 
z
M 30.609375 32.421875 
Q 37.25 32.421875 41.125 36.953125 
Q 45.015625 41.5 45.015625 49.421875 
Q 45.015625 57.28125 41.125 61.84375 
Q 37.25 66.40625 30.609375 66.40625 
Q 23.96875 66.40625 20.09375 61.84375 
Q 16.21875 57.28125 16.21875 49.421875 
Q 16.21875 41.5 20.09375 36.953125 
Q 23.96875 32.421875 30.609375 32.421875 
z
" id="DejaVuSans-57"/>
       </defs>
       <use xlink:href="#DejaVuSans-57"/>
       <use x="63.623047" xlink:href="#DejaVuSans-48"/>
      </g>
     </g>
    </g>
    <g id="xtick_17">
     <g id="line2d_17">
      <g>
       <use style="stroke:#000000;stroke-width:0.8;" x="412.698795" xlink:href="#m4e983e4e50" y="480.6"/>
      </g>
     </g>
     <g id="text_17">
      <!-- 96 -->
      <g transform="translate(415.45817 500.325)rotate(-90)scale(0.1 -0.1)">
       <use xlink:href="#DejaVuSans-57"/>
       <use x="63.623047" xlink:href="#DejaVuSans-54"/>
      </g>
     </g>
    </g>
    <g id="xtick_18">
     <g id="line2d_18">
      <g>
       <use style="stroke:#000000;stroke-width:0.8;" x="432.86747" xlink:href="#m4e983e4e50" y="480.6"/>
      </g>
     </g>
     <g id="text_18">
      <!-- 102 -->
      <g transform="translate(435.626845 506.6875)rotate(-90)scale(0.1 -0.1)">
       <use xlink:href="#DejaVuSans-49"/>
       <use x="63.623047" xlink:href="#DejaVuSans-48"/>
       <use x="127.246094" xlink:href="#DejaVuSans-50"/>
      </g>
     </g>
    </g>
    <g id="xtick_19">
     <g id="line2d_19">
      <g>
       <use style="stroke:#000000;stroke-width:0.8;" x="453.036145" xlink:href="#m4e983e4e50" y="480.6"/>
      </g>
     </g>
     <g id="text_19">
      <!-- 108 -->
      <g transform="translate(455.79552 506.6875)rotate(-90)scale(0.1 -0.1)">
       <use xlink:href="#DejaVuSans-49"/>
       <use x="63.623047" xlink:href="#DejaVuSans-48"/>
       <use x="127.246094" xlink:href="#DejaVuSans-56"/>
      </g>
     </g>
    </g>
    <g id="xtick_20">
     <g id="line2d_20">
      <g>
       <use style="stroke:#000000;stroke-width:0.8;" x="473.204819" xlink:href="#m4e983e4e50" y="480.6"/>
      </g>
     </g>
     <g id="text_20">
      <!-- 114 -->
      <g transform="translate(475.964194 506.6875)rotate(-90)scale(0.1 -0.1)">
       <use xlink:href="#DejaVuSans-49"/>
       <use x="63.623047" xlink:href="#DejaVuSans-49"/>
       <use x="127.246094" xlink:href="#DejaVuSans-52"/>
      </g>
     </g>
    </g>
    <g id="xtick_21">
     <g id="line2d_21">
      <g>
       <use style="stroke:#000000;stroke-width:0.8;" x="493.373494" xlink:href="#m4e983e4e50" y="480.6"/>
      </g>
     </g>
     <g id="text_21">
      <!-- 120 -->
      <g transform="translate(496.132869 506.6875)rotate(-90)scale(0.1 -0.1)">
       <use xlink:href="#DejaVuSans-49"/>
       <use x="63.623047" xlink:href="#DejaVuSans-50"/>
       <use x="127.246094" xlink:href="#DejaVuSans-48"/>
      </g>
     </g>
    </g>
    <g id="xtick_22">
     <g id="line2d_22">
      <g>
       <use style="stroke:#000000;stroke-width:0.8;" x="513.542169" xlink:href="#m4e983e4e50" y="480.6"/>
      </g>
     </g>
     <g id="text_22">
      <!-- 126 -->
      <g transform="translate(516.301544 506.6875)rotate(-90)scale(0.1 -0.1)">
       <use xlink:href="#DejaVuSans-49"/>
       <use x="63.623047" xlink:href="#DejaVuSans-50"/>
       <use x="127.246094" xlink:href="#DejaVuSans-54"/>
      </g>
     </g>
    </g>
    <g id="xtick_23">
     <g id="line2d_23">
      <g>
       <use style="stroke:#000000;stroke-width:0.8;" x="533.710843" xlink:href="#m4e983e4e50" y="480.6"/>
      </g>
     </g>
     <g id="text_23">
      <!-- 132 -->
      <g transform="translate(536.470218 506.6875)rotate(-90)scale(0.1 -0.1)">
       <use xlink:href="#DejaVuSans-49"/>
       <use x="63.623047" xlink:href="#DejaVuSans-51"/>
       <use x="127.246094" xlink:href="#DejaVuSans-50"/>
      </g>
     </g>
    </g>
    <g id="xtick_24">
     <g id="line2d_24">
      <g>
       <use style="stroke:#000000;stroke-width:0.8;" x="553.879518" xlink:href="#m4e983e4e50" y="480.6"/>
      </g>
     </g>
     <g id="text_24">
      <!-- 138 -->
      <g transform="translate(556.638893 506.6875)rotate(-90)scale(0.1 -0.1)">
       <use xlink:href="#DejaVuSans-49"/>
       <use x="63.623047" xlink:href="#DejaVuSans-51"/>
       <use x="127.246094" xlink:href="#DejaVuSans-56"/>
      </g>
     </g>
    </g>
    <g id="xtick_25">
     <g id="line2d_25">
      <g>
       <use style="stroke:#000000;stroke-width:0.8;" x="574.048193" xlink:href="#m4e983e4e50" y="480.6"/>
      </g>
     </g>
     <g id="text_25">
      <!-- 144 -->
      <g transform="translate(576.807568 506.6875)rotate(-90)scale(0.1 -0.1)">
       <use xlink:href="#DejaVuSans-49"/>
       <use x="63.623047" xlink:href="#DejaVuSans-52"/>
       <use x="127.246094" xlink:href="#DejaVuSans-52"/>
      </g>
     </g>
    </g>
    <g id="xtick_26">
     <g id="line2d_26">
      <g>
       <use style="stroke:#000000;stroke-width:0.8;" x="594.216867" xlink:href="#m4e983e4e50" y="480.6"/>
      </g>
     </g>
     <g id="text_26">
      <!-- 150 -->
      <g transform="translate(596.976242 506.6875)rotate(-90)scale(0.1 -0.1)">
       <use xlink:href="#DejaVuSans-49"/>
       <use x="63.623047" xlink:href="#DejaVuSans-53"/>
       <use x="127.246094" xlink:href="#DejaVuSans-48"/>
      </g>
     </g>
    </g>
    <g id="xtick_27">
     <g id="line2d_27">
      <g>
       <use style="stroke:#000000;stroke-width:0.8;" x="614.385542" xlink:href="#m4e983e4e50" y="480.6"/>
      </g>
     </g>
     <g id="text_27">
      <!-- 156 -->
      <g transform="translate(617.144917 506.6875)rotate(-90)scale(0.1 -0.1)">
       <use xlink:href="#DejaVuSans-49"/>
       <use x="63.623047" xlink:href="#DejaVuSans-53"/>
       <use x="127.246094" xlink:href="#DejaVuSans-54"/>
      </g>
     </g>
    </g>
    <g id="xtick_28">
     <g id="line2d_28">
      <g>
       <use style="stroke:#000000;stroke-width:0.8;" x="634.554217" xlink:href="#m4e983e4e50" y="480.6"/>
      </g>
     </g>
     <g id="text_28">
      <!-- 162 -->
      <g transform="translate(637.313592 506.6875)rotate(-90)scale(0.1 -0.1)">
       <use xlink:href="#DejaVuSans-49"/>
       <use x="63.623047" xlink:href="#DejaVuSans-54"/>
       <use x="127.246094" xlink:href="#DejaVuSans-50"/>
      </g>
     </g>
    </g>
    <g id="text_29">
     <!-- Offset in MB -->
     <g transform="translate(338.421875 518.285938)scale(0.1 -0.1)">
      <defs>
       <path d="M 39.40625 66.21875 
Q 28.65625 66.21875 22.328125 58.203125 
Q 16.015625 50.203125 16.015625 36.375 
Q 16.015625 22.609375 22.328125 14.59375 
Q 28.65625 6.59375 39.40625 6.59375 
Q 50.140625 6.59375 56.421875 14.59375 
Q 62.703125 22.609375 62.703125 36.375 
Q 62.703125 50.203125 56.421875 58.203125 
Q 50.140625 66.21875 39.40625 66.21875 
z
M 39.40625 74.21875 
Q 54.734375 74.21875 63.90625 63.9375 
Q 73.09375 53.65625 73.09375 36.375 
Q 73.09375 19.140625 63.90625 8.859375 
Q 54.734375 -1.421875 39.40625 -1.421875 
Q 24.03125 -1.421875 14.8125 8.828125 
Q 5.609375 19.09375 5.609375 36.375 
Q 5.609375 53.65625 14.8125 63.9375 
Q 24.03125 74.21875 39.40625 74.21875 
z
" id="DejaVuSans-79"/>
       <path d="M 37.109375 75.984375 
L 37.109375 68.5 
L 28.515625 68.5 
Q 23.6875 68.5 21.796875 66.546875 
Q 19.921875 64.59375 19.921875 59.515625 
L 19.921875 54.6875 
L 34.71875 54.6875 
L 34.71875 47.703125 
L 19.921875 47.703125 
L 19.921875 0 
L 10.890625 0 
L 10.890625 47.703125 
L 2.296875 47.703125 
L 2.296875 54.6875 
L 10.890625 54.6875 
L 10.890625 58.5 
Q 10.890625 67.625 15.140625 71.796875 
Q 19.390625 75.984375 28.609375 75.984375 
z
" id="DejaVuSans-102"/>
       <path d="M 44.28125 53.078125 
L 44.28125 44.578125 
Q 40.484375 46.53125 36.375 47.5 
Q 32.28125 48.484375 27.875 48.484375 
Q 21.1875 48.484375 17.84375 46.4375 
Q 14.5 44.390625 14.5 40.28125 
Q 14.5 37.15625 16.890625 35.375 
Q 19.28125 33.59375 26.515625 31.984375 
L 29.59375 31.296875 
Q 39.15625 29.25 43.1875 25.515625 
Q 47.21875 21.78125 47.21875 15.09375 
Q 47.21875 7.46875 41.1875 3.015625 
Q 35.15625 -1.421875 24.609375 -1.421875 
Q 20.21875 -1.421875 15.453125 -0.5625 
Q 10.6875 0.296875 5.421875 2 
L 5.421875 11.28125 
Q 10.40625 8.6875 15.234375 7.390625 
Q 20.0625 6.109375 24.8125 6.109375 
Q 31.15625 6.109375 34.5625 8.28125 
Q 37.984375 10.453125 37.984375 14.40625 
Q 37.984375 18.0625 35.515625 20.015625 
Q 33.0625 21.96875 24.703125 23.78125 
L 21.578125 24.515625 
Q 13.234375 26.265625 9.515625 29.90625 
Q 5.8125 33.546875 5.8125 39.890625 
Q 5.8125 47.609375 11.28125 51.796875 
Q 16.75 56 26.8125 56 
Q 31.78125 56 36.171875 55.265625 
Q 40.578125 54.546875 44.28125 53.078125 
z
" id="DejaVuSans-115"/>
       <path d="M 56.203125 29.59375 
L 56.203125 25.203125 
L 14.890625 25.203125 
Q 15.484375 15.921875 20.484375 11.0625 
Q 25.484375 6.203125 34.421875 6.203125 
Q 39.59375 6.203125 44.453125 7.46875 
Q 49.3125 8.734375 54.109375 11.28125 
L 54.109375 2.78125 
Q 49.265625 0.734375 44.1875 -0.34375 
Q 39.109375 -1.421875 33.890625 -1.421875 
Q 20.796875 -1.421875 13.15625 6.1875 
Q 5.515625 13.8125 5.515625 26.8125 
Q 5.515625 40.234375 12.765625 48.109375 
Q 20.015625 56 32.328125 56 
Q 43.359375 56 49.78125 48.890625 
Q 56.203125 41.796875 56.203125 29.59375 
z
M 47.21875 32.234375 
Q 47.125 39.59375 43.09375 43.984375 
Q 39.0625 48.390625 32.421875 48.390625 
Q 24.90625 48.390625 20.390625 44.140625 
Q 15.875 39.890625 15.1875 32.171875 
z
" id="DejaVuSans-101"/>
       <path d="M 18.3125 70.21875 
L 18.3125 54.6875 
L 36.8125 54.6875 
L 36.8125 47.703125 
L 18.3125 47.703125 
L 18.3125 18.015625 
Q 18.3125 11.328125 20.140625 9.421875 
Q 21.96875 7.515625 27.59375 7.515625 
L 36.8125 7.515625 
L 36.8125 0 
L 27.59375 0 
Q 17.1875 0 13.234375 3.875 
Q 9.28125 7.765625 9.28125 18.015625 
L 9.28125 47.703125 
L 2.6875 47.703125 
L 2.6875 54.6875 
L 9.28125 54.6875 
L 9.28125 70.21875 
z
" id="DejaVuSans-116"/>
       <path id="DejaVuSans-32"/>
       <path d="M 9.421875 54.6875 
L 18.40625 54.6875 
L 18.40625 0 
L 9.421875 0 
z
M 9.421875 75.984375 
L 18.40625 75.984375 
L 18.40625 64.59375 
L 9.421875 64.59375 
z
" id="DejaVuSans-105"/>
       <path d="M 54.890625 33.015625 
L 54.890625 0 
L 45.90625 0 
L 45.90625 32.71875 
Q 45.90625 40.484375 42.875 44.328125 
Q 39.84375 48.1875 33.796875 48.1875 
Q 26.515625 48.1875 22.3125 43.546875 
Q 18.109375 38.921875 18.109375 30.90625 
L 18.109375 0 
L 9.078125 0 
L 9.078125 54.6875 
L 18.109375 54.6875 
L 18.109375 46.1875 
Q 21.34375 51.125 25.703125 53.5625 
Q 30.078125 56 35.796875 56 
Q 45.21875 56 50.046875 50.171875 
Q 54.890625 44.34375 54.890625 33.015625 
z
" id="DejaVuSans-110"/>
       <path d="M 9.8125 72.90625 
L 24.515625 72.90625 
L 43.109375 23.296875 
L 61.8125 72.90625 
L 76.515625 72.90625 
L 76.515625 0 
L 66.890625 0 
L 66.890625 64.015625 
L 48.09375 14.015625 
L 38.1875 14.015625 
L 19.390625 64.015625 
L 19.390625 0 
L 9.8125 0 
z
" id="DejaVuSans-77"/>
       <path d="M 19.671875 34.8125 
L 19.671875 8.109375 
L 35.5 8.109375 
Q 43.453125 8.109375 47.28125 11.40625 
Q 51.125 14.703125 51.125 21.484375 
Q 51.125 28.328125 47.28125 31.5625 
Q 43.453125 34.8125 35.5 34.8125 
z
M 19.671875 64.796875 
L 19.671875 42.828125 
L 34.28125 42.828125 
Q 41.5 42.828125 45.03125 45.53125 
Q 48.578125 48.25 48.578125 53.8125 
Q 48.578125 59.328125 45.03125 62.0625 
Q 41.5 64.796875 34.28125 64.796875 
z
M 9.8125 72.90625 
L 35.015625 72.90625 
Q 46.296875 72.90625 52.390625 68.21875 
Q 58.5 63.53125 58.5 54.890625 
Q 58.5 48.1875 55.375 44.234375 
Q 52.25 40.28125 46.1875 39.3125 
Q 53.46875 37.75 57.5 32.78125 
Q 61.53125 27.828125 61.53125 20.40625 
Q 61.53125 10.640625 54.890625 5.3125 
Q 48.25 0 35.984375 0 
L 9.8125 0 
z
" id="DejaVuSans-66"/>
      </defs>
      <use xlink:href="#DejaVuSans-79"/>
      <use x="78.710938" xlink:href="#DejaVuSans-102"/>
      <use x="113.916016" xlink:href="#DejaVuSans-102"/>
      <use x="149.121094" xlink:href="#DejaVuSans-115"/>
      <use x="201.220703" xlink:href="#DejaVuSans-101"/>
      <use x="262.744141" xlink:href="#DejaVuSans-116"/>
      <use x="301.953125" xlink:href="#DejaVuSans-32"/>
      <use x="333.740234" xlink:href="#DejaVuSans-105"/>
      <use x="361.523438" xlink:href="#DejaVuSans-110"/>
      <use x="424.902344" xlink:href="#DejaVuSans-32"/>
      <use x="456.689453" xlink:href="#DejaVuSans-77"/>
      <use x="542.96875" xlink:href="#DejaVuSans-66"/>
     </g>
    </g>
   </g>
   <g id="matplotlib.axis_2">
    <g id="ytick_1">
     <g id="line2d_29">
      <defs>
       <path d="M 0 0 
L -3.5 0 
" id="m19d716777e" style="stroke:#000000;stroke-width:0.8;"/>
      </defs>
      <g>
       <use style="stroke:#000000;stroke-width:0.8;" x="90" xlink:href="#m19d716777e" y="415.92"/>
      </g>
     </g>
     <g id="text_30">
      <!-- Object -->
      <g transform="translate(50.429688 419.719219)scale(0.1 -0.1)">
       <defs>
        <path d="M 48.6875 27.296875 
Q 48.6875 37.203125 44.609375 42.84375 
Q 40.53125 48.484375 33.40625 48.484375 
Q 26.265625 48.484375 22.1875 42.84375 
Q 18.109375 37.203125 18.109375 27.296875 
Q 18.109375 17.390625 22.1875 11.75 
Q 26.265625 6.109375 33.40625 6.109375 
Q 40.53125 6.109375 44.609375 11.75 
Q 48.6875 17.390625 48.6875 27.296875 
z
M 18.109375 46.390625 
Q 20.953125 51.265625 25.265625 53.625 
Q 29.59375 56 35.59375 56 
Q 45.5625 56 51.78125 48.09375 
Q 58.015625 40.1875 58.015625 27.296875 
Q 58.015625 14.40625 51.78125 6.484375 
Q 45.5625 -1.421875 35.59375 -1.421875 
Q 29.59375 -1.421875 25.265625 0.953125 
Q 20.953125 3.328125 18.109375 8.203125 
L 18.109375 0 
L 9.078125 0 
L 9.078125 75.984375 
L 18.109375 75.984375 
z
" id="DejaVuSans-98"/>
        <path d="M 9.421875 54.6875 
L 18.40625 54.6875 
L 18.40625 -0.984375 
Q 18.40625 -11.421875 14.421875 -16.109375 
Q 10.453125 -20.796875 1.609375 -20.796875 
L -1.8125 -20.796875 
L -1.8125 -13.1875 
L 0.59375 -13.1875 
Q 5.71875 -13.1875 7.5625 -10.8125 
Q 9.421875 -8.453125 9.421875 -0.984375 
z
M 9.421875 75.984375 
L 18.40625 75.984375 
L 18.40625 64.59375 
L 9.421875 64.59375 
z
" id="DejaVuSans-106"/>
        <path d="M 48.78125 52.59375 
L 48.78125 44.1875 
Q 44.96875 46.296875 41.140625 47.34375 
Q 37.3125 48.390625 33.40625 48.390625 
Q 24.65625 48.390625 19.8125 42.84375 
Q 14.984375 37.3125 14.984375 27.296875 
Q 14.984375 17.28125 19.8125 11.734375 
Q 24.65625 6.203125 33.40625 6.203125 
Q 37.3125 6.203125 41.140625 7.25 
Q 44.96875 8.296875 48.78125 10.40625 
L 48.78125 2.09375 
Q 45.015625 0.34375 40.984375 -0.53125 
Q 36.96875 -1.421875 32.421875 -1.421875 
Q 20.0625 -1.421875 12.78125 6.34375 
Q 5.515625 14.109375 5.515625 27.296875 
Q 5.515625 40.671875 12.859375 48.328125 
Q 20.21875 56 33.015625 56 
Q 37.15625 56 41.109375 55.140625 
Q 45.0625 54.296875 48.78125 52.59375 
z
" id="DejaVuSans-99"/>
       </defs>
       <use xlink:href="#DejaVuSans-79"/>
       <use x="78.710938" xlink:href="#DejaVuSans-98"/>
       <use x="142.1875" xlink:href="#DejaVuSans-106"/>
       <use x="169.970703" xlink:href="#DejaVuSans-101"/>
       <use x="231.494141" xlink:href="#DejaVuSans-99"/>
       <use x="286.474609" xlink:href="#DejaVuSans-116"/>
      </g>
     </g>
    </g>
    <g id="ytick_2">
     <g id="line2d_30">
      <g>
       <use style="stroke:#000000;stroke-width:0.8;" x="90" xlink:href="#m19d716777e" y="268.08"/>
      </g>
     </g>
     <g id="text_31">
      <!-- Pages -->
      <g transform="translate(53.58125 271.879219)scale(0.1 -0.1)">
       <defs>
        <path d="M 19.671875 64.796875 
L 19.671875 37.40625 
L 32.078125 37.40625 
Q 38.96875 37.40625 42.71875 40.96875 
Q 46.484375 44.53125 46.484375 51.125 
Q 46.484375 57.671875 42.71875 61.234375 
Q 38.96875 64.796875 32.078125 64.796875 
z
M 9.8125 72.90625 
L 32.078125 72.90625 
Q 44.34375 72.90625 50.609375 67.359375 
Q 56.890625 61.8125 56.890625 51.125 
Q 56.890625 40.328125 50.609375 34.8125 
Q 44.34375 29.296875 32.078125 29.296875 
L 19.671875 29.296875 
L 19.671875 0 
L 9.8125 0 
z
" id="DejaVuSans-80"/>
        <path d="M 34.28125 27.484375 
Q 23.390625 27.484375 19.1875 25 
Q 14.984375 22.515625 14.984375 16.5 
Q 14.984375 11.71875 18.140625 8.90625 
Q 21.296875 6.109375 26.703125 6.109375 
Q 34.1875 6.109375 38.703125 11.40625 
Q 43.21875 16.703125 43.21875 25.484375 
L 43.21875 27.484375 
z
M 52.203125 31.203125 
L 52.203125 0 
L 43.21875 0 
L 43.21875 8.296875 
Q 40.140625 3.328125 35.546875 0.953125 
Q 30.953125 -1.421875 24.3125 -1.421875 
Q 15.921875 -1.421875 10.953125 3.296875 
Q 6 8.015625 6 15.921875 
Q 6 25.140625 12.171875 29.828125 
Q 18.359375 34.515625 30.609375 34.515625 
L 43.21875 34.515625 
L 43.21875 35.40625 
Q 43.21875 41.609375 39.140625 45 
Q 35.0625 48.390625 27.6875 48.390625 
Q 23 48.390625 18.546875 47.265625 
Q 14.109375 46.140625 10.015625 43.890625 
L 10.015625 52.203125 
Q 14.9375 54.109375 19.578125 55.046875 
Q 24.21875 56 28.609375 56 
Q 40.484375 56 46.34375 49.84375 
Q 52.203125 43.703125 52.203125 31.203125 
z
" id="DejaVuSans-97"/>
        <path d="M 45.40625 27.984375 
Q 45.40625 37.75 41.375 43.109375 
Q 37.359375 48.484375 30.078125 48.484375 
Q 22.859375 48.484375 18.828125 43.109375 
Q 14.796875 37.75 14.796875 27.984375 
Q 14.796875 18.265625 18.828125 12.890625 
Q 22.859375 7.515625 30.078125 7.515625 
Q 37.359375 7.515625 41.375 12.890625 
Q 45.40625 18.265625 45.40625 27.984375 
z
M 54.390625 6.78125 
Q 54.390625 -7.171875 48.1875 -13.984375 
Q 42 -20.796875 29.203125 -20.796875 
Q 24.46875 -20.796875 20.265625 -20.09375 
Q 16.0625 -19.390625 12.109375 -17.921875 
L 12.109375 -9.1875 
Q 16.0625 -11.328125 19.921875 -12.34375 
Q 23.78125 -13.375 27.78125 -13.375 
Q 36.625 -13.375 41.015625 -8.765625 
Q 45.40625 -4.15625 45.40625 5.171875 
L 45.40625 9.625 
Q 42.625 4.78125 38.28125 2.390625 
Q 33.9375 0 27.875 0 
Q 17.828125 0 11.671875 7.65625 
Q 5.515625 15.328125 5.515625 27.984375 
Q 5.515625 40.671875 11.671875 48.328125 
Q 17.828125 56 27.875 56 
Q 33.9375 56 38.28125 53.609375 
Q 42.625 51.21875 45.40625 46.390625 
L 45.40625 54.6875 
L 54.390625 54.6875 
z
" id="DejaVuSans-103"/>
       </defs>
       <use xlink:href="#DejaVuSans-80"/>
       <use x="55.802734" xlink:href="#DejaVuSans-97"/>
       <use x="117.082031" xlink:href="#DejaVuSans-103"/>
       <use x="180.558594" xlink:href="#DejaVuSans-101"/>
       <use x="242.082031" xlink:href="#DejaVuSans-115"/>
      </g>
     </g>
    </g>
   </g>
   <g id="patch_3">
    <path d="M 90 480.6 
L 90 64.8 
" style="fill:none;stroke:#000000;stroke-linecap:square;stroke-linejoin:miter;stroke-width:0.8;"/>
   </g>
   <g id="patch_4">
    <path d="M 648 480.6 
L 648 64.8 
" style="fill:none;stroke:#000000;stroke-linecap:square;stroke-linejoin:miter;stroke-width:0.8;"/>
   </g>
   <g id="patch_5">
    <path d="M 90 480.6 
L 648 480.6 
" style="fill:none;stroke:#000000;stroke-linecap:square;stroke-linejoin:miter;stroke-width:0.8;"/>
   </g>
   <g id="patch_6">
    <path d="M 90 64.8 
L 648 64.8 
" style="fill:none;stroke:#000000;stroke-linecap:square;stroke-linejoin:miter;stroke-width:0.8;"/>
   </g>
   <g id="text_32">
    <!-- Before GC10 by Scavenger -->
    <g transform="translate(313.2 64.8)scale(0.1 -0.1)">
     <defs>
      <path d="M 30.609375 48.390625 
Q 23.390625 48.390625 19.1875 42.75 
Q 14.984375 37.109375 14.984375 27.296875 
Q 14.984375 17.484375 19.15625 11.84375 
Q 23.34375 6.203125 30.609375 6.203125 
Q 37.796875 6.203125 41.984375 11.859375 
Q 46.1875 17.53125 46.1875 27.296875 
Q 46.1875 37.015625 41.984375 42.703125 
Q 37.796875 48.390625 30.609375 48.390625 
z
M 30.609375 56 
Q 42.328125 56 49.015625 48.375 
Q 55.71875 40.765625 55.71875 27.296875 
Q 55.71875 13.875 49.015625 6.21875 
Q 42.328125 -1.421875 30.609375 -1.421875 
Q 18.84375 -1.421875 12.171875 6.21875 
Q 5.515625 13.875 5.515625 27.296875 
Q 5.515625 40.765625 12.171875 48.375 
Q 18.84375 56 30.609375 56 
z
" id="DejaVuSans-111"/>
      <path d="M 41.109375 46.296875 
Q 39.59375 47.171875 37.8125 47.578125 
Q 36.03125 48 33.890625 48 
Q 26.265625 48 22.1875 43.046875 
Q 18.109375 38.09375 18.109375 28.8125 
L 18.109375 0 
L 9.078125 0 
L 9.078125 54.6875 
L 18.109375 54.6875 
L 18.109375 46.1875 
Q 20.953125 51.171875 25.484375 53.578125 
Q 30.03125 56 36.53125 56 
Q 37.453125 56 38.578125 55.875 
Q 39.703125 55.765625 41.0625 55.515625 
z
" id="DejaVuSans-114"/>
      <path d="M 59.515625 10.40625 
L 59.515625 29.984375 
L 43.40625 29.984375 
L 43.40625 38.09375 
L 69.28125 38.09375 
L 69.28125 6.78125 
Q 63.578125 2.734375 56.6875 0.65625 
Q 49.8125 -1.421875 42 -1.421875 
Q 24.90625 -1.421875 15.25 8.5625 
Q 5.609375 18.5625 5.609375 36.375 
Q 5.609375 54.25 15.25 64.234375 
Q 24.90625 74.21875 42 74.21875 
Q 49.125 74.21875 55.546875 72.453125 
Q 61.96875 70.703125 67.390625 67.28125 
L 67.390625 56.78125 
Q 61.921875 61.421875 55.765625 63.765625 
Q 49.609375 66.109375 42.828125 66.109375 
Q 29.4375 66.109375 22.71875 58.640625 
Q 16.015625 51.171875 16.015625 36.375 
Q 16.015625 21.625 22.71875 14.15625 
Q 29.4375 6.6875 42.828125 6.6875 
Q 48.046875 6.6875 52.140625 7.59375 
Q 56.25 8.5 59.515625 10.40625 
z
" id="DejaVuSans-71"/>
      <path d="M 64.40625 67.28125 
L 64.40625 56.890625 
Q 59.421875 61.53125 53.78125 63.8125 
Q 48.140625 66.109375 41.796875 66.109375 
Q 29.296875 66.109375 22.65625 58.46875 
Q 16.015625 50.828125 16.015625 36.375 
Q 16.015625 21.96875 22.65625 14.328125 
Q 29.296875 6.6875 41.796875 6.6875 
Q 48.140625 6.6875 53.78125 8.984375 
Q 59.421875 11.28125 64.40625 15.921875 
L 64.40625 5.609375 
Q 59.234375 2.09375 53.4375 0.328125 
Q 47.65625 -1.421875 41.21875 -1.421875 
Q 24.65625 -1.421875 15.125 8.703125 
Q 5.609375 18.84375 5.609375 36.375 
Q 5.609375 53.953125 15.125 64.078125 
Q 24.65625 74.21875 41.21875 74.21875 
Q 47.75 74.21875 53.53125 72.484375 
Q 59.328125 70.75 64.40625 67.28125 
z
" id="DejaVuSans-67"/>
      <path d="M 32.171875 -5.078125 
Q 28.375 -14.84375 24.75 -17.8125 
Q 21.140625 -20.796875 15.09375 -20.796875 
L 7.90625 -20.796875 
L 7.90625 -13.28125 
L 13.1875 -13.28125 
Q 16.890625 -13.28125 18.9375 -11.515625 
Q 21 -9.765625 23.484375 -3.21875 
L 25.09375 0.875 
L 2.984375 54.6875 
L 12.5 54.6875 
L 29.59375 11.921875 
L 46.6875 54.6875 
L 56.203125 54.6875 
z
" id="DejaVuSans-121"/>
      <path d="M 53.515625 70.515625 
L 53.515625 60.890625 
Q 47.90625 63.578125 42.921875 64.890625 
Q 37.9375 66.21875 33.296875 66.21875 
Q 25.25 66.21875 20.875 63.09375 
Q 16.5 59.96875 16.5 54.203125 
Q 16.5 49.359375 19.40625 46.890625 
Q 22.3125 44.4375 30.421875 42.921875 
L 36.375 41.703125 
Q 47.40625 39.59375 52.65625 34.296875 
Q 57.90625 29 57.90625 20.125 
Q 57.90625 9.515625 50.796875 4.046875 
Q 43.703125 -1.421875 29.984375 -1.421875 
Q 24.8125 -1.421875 18.96875 -0.25 
Q 13.140625 0.921875 6.890625 3.21875 
L 6.890625 13.375 
Q 12.890625 10.015625 18.65625 8.296875 
Q 24.421875 6.59375 29.984375 6.59375 
Q 38.421875 6.59375 43.015625 9.90625 
Q 47.609375 13.234375 47.609375 19.390625 
Q 47.609375 24.75 44.3125 27.78125 
Q 41.015625 30.8125 33.5 32.328125 
L 27.484375 33.5 
Q 16.453125 35.6875 11.515625 40.375 
Q 6.59375 45.0625 6.59375 53.421875 
Q 6.59375 63.09375 13.40625 68.65625 
Q 20.21875 74.21875 32.171875 74.21875 
Q 37.3125 74.21875 42.625 73.28125 
Q 47.953125 72.359375 53.515625 70.515625 
z
" id="DejaVuSans-83"/>
      <path d="M 2.984375 54.6875 
L 12.5 54.6875 
L 29.59375 8.796875 
L 46.6875 54.6875 
L 56.203125 54.6875 
L 35.6875 0 
L 23.484375 0 
z
" id="DejaVuSans-118"/>
     </defs>
     <use xlink:href="#DejaVuSans-66"/>
     <use x="68.603516" xlink:href="#DejaVuSans-101"/>
     <use x="130.126953" xlink:href="#DejaVuSans-102"/>
     <use x="165.332031" xlink:href="#DejaVuSans-111"/>
     <use x="226.513672" xlink:href="#DejaVuSans-114"/>
     <use x="265.376953" xlink:href="#DejaVuSans-101"/>
     <use x="326.900391" xlink:href="#DejaVuSans-32"/>
     <use x="358.6875" xlink:href="#DejaVuSans-71"/>
     <use x="436.177734" xlink:href="#DejaVuSans-67"/>
     <use x="506.001953" xlink:href="#DejaVuSans-49"/>
     <use x="569.625" xlink:href="#DejaVuSans-48"/>
     <use x="633.248047" xlink:href="#DejaVuSans-32"/>
     <use x="665.035156" xlink:href="#DejaVuSans-98"/>
     <use x="728.511719" xlink:href="#DejaVuSans-121"/>
     <use x="787.691406" xlink:href="#DejaVuSans-32"/>
     <use x="819.478516" xlink:href="#DejaVuSans-83"/>
     <use x="882.955078" xlink:href="#DejaVuSans-99"/>
     <use x="937.935547" xlink:href="#DejaVuSans-97"/>
     <use x="999.214844" xlink:href="#DejaVuSans-118"/>
     <use x="1058.394531" xlink:href="#DejaVuSans-101"/>
     <use x="1119.917969" xlink:href="#DejaVuSans-110"/>
     <use x="1183.296875" xlink:href="#DejaVuSans-103"/>
     <use x="1246.773438" xlink:href="#DejaVuSans-101"/>
     <use x="1308.296875" xlink:href="#DejaVuSans-114"/>
    </g>
   </g>
   <g id="legend_1">
    <g id="patch_7">
     <path d="M 534.621875 204.903125 
L 641 204.903125 
Q 643 204.903125 643 202.903125 
L 643 71.8 
Q 643 69.8 641 69.8 
L 534.621875 69.8 
Q 532.621875 69.8 532.621875 71.8 
L 532.621875 202.903125 
Q 532.621875 204.903125 534.621875 204.903125 
z
" style="fill:#ffffff;opacity:0.8;stroke:#cccccc;stroke-linejoin:miter;"/>
    </g>
    <g id="patch_8">
     <path d="M 536.621875 81.398438 
L 556.621875 81.398438 
L 556.621875 74.398438 
L 536.621875 74.398438 
z
" style="fill:#0000ff;stroke:#0000ff;stroke-linejoin:miter;"/>
    </g>
    <g id="text_33">
     <!-- New space -->
     <g transform="translate(564.621875 81.398438)scale(0.1 -0.1)">
      <defs>
       <path d="M 9.8125 72.90625 
L 23.09375 72.90625 
L 55.421875 11.921875 
L 55.421875 72.90625 
L 64.984375 72.90625 
L 64.984375 0 
L 51.703125 0 
L 19.390625 60.984375 
L 19.390625 0 
L 9.8125 0 
z
" id="DejaVuSans-78"/>
       <path d="M 4.203125 54.6875 
L 13.1875 54.6875 
L 24.421875 12.015625 
L 35.59375 54.6875 
L 46.1875 54.6875 
L 57.421875 12.015625 
L 68.609375 54.6875 
L 77.59375 54.6875 
L 63.28125 0 
L 52.6875 0 
L 40.921875 44.828125 
L 29.109375 0 
L 18.5 0 
z
" id="DejaVuSans-119"/>
       <path d="M 18.109375 8.203125 
L 18.109375 -20.796875 
L 9.078125 -20.796875 
L 9.078125 54.6875 
L 18.109375 54.6875 
L 18.109375 46.390625 
Q 20.953125 51.265625 25.265625 53.625 
Q 29.59375 56 35.59375 56 
Q 45.5625 56 51.78125 48.09375 
Q 58.015625 40.1875 58.015625 27.296875 
Q 58.015625 14.40625 51.78125 6.484375 
Q 45.5625 -1.421875 35.59375 -1.421875 
Q 29.59375 -1.421875 25.265625 0.953125 
Q 20.953125 3.328125 18.109375 8.203125 
z
M 48.6875 27.296875 
Q 48.6875 37.203125 44.609375 42.84375 
Q 40.53125 48.484375 33.40625 48.484375 
Q 26.265625 48.484375 22.1875 42.84375 
Q 18.109375 37.203125 18.109375 27.296875 
Q 18.109375 17.390625 22.1875 11.75 
Q 26.265625 6.109375 33.40625 6.109375 
Q 40.53125 6.109375 44.609375 11.75 
Q 48.6875 17.390625 48.6875 27.296875 
z
" id="DejaVuSans-112"/>
      </defs>
      <use xlink:href="#DejaVuSans-78"/>
      <use x="74.804688" xlink:href="#DejaVuSans-101"/>
      <use x="136.328125" xlink:href="#DejaVuSans-119"/>
      <use x="218.115234" xlink:href="#DejaVuSans-32"/>
      <use x="249.902344" xlink:href="#DejaVuSans-115"/>
      <use x="302.001953" xlink:href="#DejaVuSans-112"/>
      <use x="365.478516" xlink:href="#DejaVuSans-97"/>
      <use x="426.757812" xlink:href="#DejaVuSans-99"/>
      <use x="481.738281" xlink:href="#DejaVuSans-101"/>
     </g>
    </g>
    <g id="patch_9">
     <path d="M 536.621875 96.076563 
L 556.621875 96.076563 
L 556.621875 89.076563 
L 536.621875 89.076563 
z
" style="fill:#ff0000;stroke:#ff0000;stroke-linejoin:miter;"/>
    </g>
    <g id="text_34">
     <!-- Old space -->
     <g transform="translate(564.621875 96.076563)scale(0.1 -0.1)">
      <defs>
       <path d="M 9.421875 75.984375 
L 18.40625 75.984375 
L 18.40625 0 
L 9.421875 0 
z
" id="DejaVuSans-108"/>
       <path d="M 45.40625 46.390625 
L 45.40625 75.984375 
L 54.390625 75.984375 
L 54.390625 0 
L 45.40625 0 
L 45.40625 8.203125 
Q 42.578125 3.328125 38.25 0.953125 
Q 33.9375 -1.421875 27.875 -1.421875 
Q 17.96875 -1.421875 11.734375 6.484375 
Q 5.515625 14.40625 5.515625 27.296875 
Q 5.515625 40.1875 11.734375 48.09375 
Q 17.96875 56 27.875 56 
Q 33.9375 56 38.25 53.625 
Q 42.578125 51.265625 45.40625 46.390625 
z
M 14.796875 27.296875 
Q 14.796875 17.390625 18.875 11.75 
Q 22.953125 6.109375 30.078125 6.109375 
Q 37.203125 6.109375 41.296875 11.75 
Q 45.40625 17.390625 45.40625 27.296875 
Q 45.40625 37.203125 41.296875 42.84375 
Q 37.203125 48.484375 30.078125 48.484375 
Q 22.953125 48.484375 18.875 42.84375 
Q 14.796875 37.203125 14.796875 27.296875 
z
" id="DejaVuSans-100"/>
      </defs>
      <use xlink:href="#DejaVuSans-79"/>
      <use x="78.710938" xlink:href="#DejaVuSans-108"/>
      <use x="106.494141" xlink:href="#DejaVuSans-100"/>
      <use x="169.970703" xlink:href="#DejaVuSans-32"/>
      <use x="201.757812" xlink:href="#DejaVuSans-115"/>
      <use x="253.857422" xlink:href="#DejaVuSans-112"/>
      <use x="317.333984" xlink:href="#DejaVuSans-97"/>
      <use x="378.613281" xlink:href="#DejaVuSans-99"/>
      <use x="433.59375" xlink:href="#DejaVuSans-101"/>
     </g>
    </g>
    <g id="patch_10">
     <path d="M 536.621875 110.754687 
L 556.621875 110.754687 
L 556.621875 103.754687 
L 536.621875 103.754687 
z
" style="fill:#800080;stroke:#800080;stroke-linejoin:miter;"/>
    </g>
    <g id="text_35">
     <!-- Code Space -->
     <g transform="translate(564.621875 110.754687)scale(0.1 -0.1)">
      <use xlink:href="#DejaVuSans-67"/>
      <use x="69.824219" xlink:href="#DejaVuSans-111"/>
      <use x="131.005859" xlink:href="#DejaVuSans-100"/>
      <use x="194.482422" xlink:href="#DejaVuSans-101"/>
      <use x="256.005859" xlink:href="#DejaVuSans-32"/>
      <use x="287.792969" xlink:href="#DejaVuSans-83"/>
      <use x="351.269531" xlink:href="#DejaVuSans-112"/>
      <use x="414.746094" xlink:href="#DejaVuSans-97"/>
      <use x="476.025391" xlink:href="#DejaVuSans-99"/>
      <use x="531.005859" xlink:href="#DejaVuSans-101"/>
     </g>
    </g>
    <g id="patch_11">
     <path d="M 536.621875 125.432813 
L 556.621875 125.432813 
L 556.621875 118.432813 
L 536.621875 118.432813 
z
" style="fill:#008000;stroke:#008000;stroke-linejoin:miter;"/>
    </g>
    <g id="text_36">
     <!-- Map space -->
     <g transform="translate(564.621875 125.432813)scale(0.1 -0.1)">
      <use xlink:href="#DejaVuSans-77"/>
      <use x="86.279297" xlink:href="#DejaVuSans-97"/>
      <use x="147.558594" xlink:href="#DejaVuSans-112"/>
      <use x="211.035156" xlink:href="#DejaVuSans-32"/>
      <use x="242.822266" xlink:href="#DejaVuSans-115"/>
      <use x="294.921875" xlink:href="#DejaVuSans-112"/>
      <use x="358.398438" xlink:href="#DejaVuSans-97"/>
      <use x="419.677734" xlink:href="#DejaVuSans-99"/>
      <use x="474.658203" xlink:href="#DejaVuSans-101"/>
     </g>
    </g>
    <g id="patch_12">
     <path d="M 536.621875 140.110937 
L 556.621875 140.110937 
L 556.621875 133.110937 
L 536.621875 133.110937 
z
" style="fill:#808080;stroke:#808080;stroke-linejoin:miter;"/>
    </g>
    <g id="text_37">
     <!-- LO space -->
     <g transform="translate(564.621875 140.110937)scale(0.1 -0.1)">
      <defs>
       <path d="M 9.8125 72.90625 
L 19.671875 72.90625 
L 19.671875 8.296875 
L 55.171875 8.296875 
L 55.171875 0 
L 9.8125 0 
z
" id="DejaVuSans-76"/>
      </defs>
      <use xlink:href="#DejaVuSans-76"/>
      <use x="52.087891" xlink:href="#DejaVuSans-79"/>
      <use x="130.798828" xlink:href="#DejaVuSans-32"/>
      <use x="162.585938" xlink:href="#DejaVuSans-115"/>
      <use x="214.685547" xlink:href="#DejaVuSans-112"/>
      <use x="278.162109" xlink:href="#DejaVuSans-97"/>
      <use x="339.441406" xlink:href="#DejaVuSans-99"/>
      <use x="394.421875" xlink:href="#DejaVuSans-101"/>
     </g>
    </g>
    <g id="patch_13">
     <path d="M 536.621875 154.789062 
L 556.621875 154.789062 
L 556.621875 147.789062 
L 536.621875 147.789062 
z
" style="fill:#ffc0cb;stroke:#ffc0cb;stroke-linejoin:miter;"/>
    </g>
    <g id="text_38">
     <!-- Code LO space -->
     <g transform="translate(564.621875 154.789062)scale(0.1 -0.1)">
      <use xlink:href="#DejaVuSans-67"/>
      <use x="69.824219" xlink:href="#DejaVuSans-111"/>
      <use x="131.005859" xlink:href="#DejaVuSans-100"/>
      <use x="194.482422" xlink:href="#DejaVuSans-101"/>
      <use x="256.005859" xlink:href="#DejaVuSans-32"/>
      <use x="287.792969" xlink:href="#DejaVuSans-76"/>
      <use x="339.880859" xlink:href="#DejaVuSans-79"/>
      <use x="418.591797" xlink:href="#DejaVuSans-32"/>
      <use x="450.378906" xlink:href="#DejaVuSans-115"/>
      <use x="502.478516" xlink:href="#DejaVuSans-112"/>
      <use x="565.955078" xlink:href="#DejaVuSans-97"/>
      <use x="627.234375" xlink:href="#DejaVuSans-99"/>
      <use x="682.214844" xlink:href="#DejaVuSans-101"/>
     </g>
    </g>
    <g id="patch_14">
     <path d="M 536.621875 169.467188 
L 556.621875 169.467188 
L 556.621875 162.467188 
L 536.621875 162.467188 
z
" style="fill:#00ffff;stroke:#00ffff;stroke-linejoin:miter;"/>
    </g>
    <g id="text_39">
     <!-- New LO space -->
     <g transform="translate(564.621875 169.467188)scale(0.1 -0.1)">
      <use xlink:href="#DejaVuSans-78"/>
      <use x="74.804688" xlink:href="#DejaVuSans-101"/>
      <use x="136.328125" xlink:href="#DejaVuSans-119"/>
      <use x="218.115234" xlink:href="#DejaVuSans-32"/>
      <use x="249.902344" xlink:href="#DejaVuSans-76"/>
      <use x="301.990234" xlink:href="#DejaVuSans-79"/>
      <use x="380.701172" xlink:href="#DejaVuSans-32"/>
      <use x="412.488281" xlink:href="#DejaVuSans-115"/>
      <use x="464.587891" xlink:href="#DejaVuSans-112"/>
      <use x="528.064453" xlink:href="#DejaVuSans-97"/>
      <use x="589.34375" xlink:href="#DejaVuSans-99"/>
      <use x="644.324219" xlink:href="#DejaVuSans-101"/>
     </g>
    </g>
    <g id="patch_15">
     <path d="M 536.621875 184.145312 
L 556.621875 184.145312 
L 556.621875 177.145312 
L 536.621875 177.145312 
z
" style="fill:#808000;stroke:#808000;stroke-linejoin:miter;"/>
    </g>
    <g id="text_40">
     <!-- RO space -->
     <g transform="translate(564.621875 184.145312)scale(0.1 -0.1)">
      <defs>
       <path d="M 44.390625 34.1875 
Q 47.5625 33.109375 50.5625 29.59375 
Q 53.5625 26.078125 56.59375 19.921875 
L 66.609375 0 
L 56 0 
L 46.6875 18.703125 
Q 43.0625 26.03125 39.671875 28.421875 
Q 36.28125 30.8125 30.421875 30.8125 
L 19.671875 30.8125 
L 19.671875 0 
L 9.8125 0 
L 9.8125 72.90625 
L 32.078125 72.90625 
Q 44.578125 72.90625 50.734375 67.671875 
Q 56.890625 62.453125 56.890625 51.90625 
Q 56.890625 45.015625 53.6875 40.46875 
Q 50.484375 35.9375 44.390625 34.1875 
z
M 19.671875 64.796875 
L 19.671875 38.921875 
L 32.078125 38.921875 
Q 39.203125 38.921875 42.84375 42.21875 
Q 46.484375 45.515625 46.484375 51.90625 
Q 46.484375 58.296875 42.84375 61.546875 
Q 39.203125 64.796875 32.078125 64.796875 
z
" id="DejaVuSans-82"/>
      </defs>
      <use xlink:href="#DejaVuSans-82"/>
      <use x="69.482422" xlink:href="#DejaVuSans-79"/>
      <use x="148.193359" xlink:href="#DejaVuSans-32"/>
      <use x="179.980469" xlink:href="#DejaVuSans-115"/>
      <use x="232.080078" xlink:href="#DejaVuSans-112"/>
      <use x="295.556641" xlink:href="#DejaVuSans-97"/>
      <use x="356.835938" xlink:href="#DejaVuSans-99"/>
      <use x="411.816406" xlink:href="#DejaVuSans-101"/>
     </g>
    </g>
    <g id="patch_16">
     <path d="M 536.621875 198.823437 
L 556.621875 198.823437 
L 556.621875 191.823437 
L 536.621875 191.823437 
z
" style="fill:#ffa500;stroke:#ffa500;stroke-linejoin:miter;"/>
    </g>
    <g id="text_41">
     <!-- Live Object -->
     <g transform="translate(564.621875 198.823437)scale(0.1 -0.1)">
      <use xlink:href="#DejaVuSans-76"/>
      <use x="55.712891" xlink:href="#DejaVuSans-105"/>
      <use x="83.496094" xlink:href="#DejaVuSans-118"/>
      <use x="142.675781" xlink:href="#DejaVuSans-101"/>
      <use x="204.199219" xlink:href="#DejaVuSans-32"/>
      <use x="235.986328" xlink:href="#DejaVuSans-79"/>
      <use x="314.697266" xlink:href="#DejaVuSans-98"/>
      <use x="378.173828" xlink:href="#DejaVuSans-106"/>
      <use x="405.957031" xlink:href="#DejaVuSans-101"/>
      <use x="467.480469" xlink:href="#DejaVuSans-99"/>
      <use x="522.460938" xlink:href="#DejaVuSans-116"/>
     </g>
    </g>
   </g>
  </g>
 </g>
 <defs>
  <clipPath id="p9f968047da">
   <rect height="415.8" width="558" x="90" y="64.8"/>
  </clipPath>
 </defs>
</svg>
