<?xml version="1.0" encoding="utf-8" standalone="no"?>
<!DOCTYPE svg PUBLIC "-//W3C//DTD SVG 1.1//EN"
  "http://www.w3.org/Graphics/SVG/1.1/DTD/svg11.dtd">
<!-- Created with matplotlib (https://matplotlib.org/) -->
<svg height="540pt" version="1.1" viewBox="0 0 720 540" width="720pt" xmlns="http://www.w3.org/2000/svg" xmlns:xlink="http://www.w3.org/1999/xlink">
 <metadata>
  <rdf:RDF xmlns:cc="http://creativecommons.org/ns#" xmlns:dc="http://purl.org/dc/elements/1.1/" xmlns:rdf="http://www.w3.org/1999/02/22-rdf-syntax-ns#">
   <cc:Work>
    <dc:type rdf:resource="http://purl.org/dc/dcmitype/StillImage"/>
    <dc:date>2021-06-08T22:42:08.558625</dc:date>
    <dc:format>image/svg+xml</dc:format>
    <dc:creator>
     <cc:Agent>
      <dc:title>Matplotlib v3.3.4, https://matplotlib.org/</dc:title>
     </cc:Agent>
    </dc:creator>
   </cc:Work>
  </rdf:RDF>
 </metadata>
 <defs>
  <style type="text/css">*{stroke-linecap:butt;stroke-linejoin:round;}</style>
 </defs>
 <g id="figure_1">
  <g id="patch_1">
   <path d="M 0 540 
L 720 540 
L 720 0 
L 0 0 
z
" style="fill:#ffffff;"/>
  </g>
  <g id="axes_1">
   <g id="patch_2">
    <path d="M 90 480.6 
L 648 480.6 
L 648 64.8 
L 90 64.8 
z
" style="fill:#ffffff;"/>
   </g>
   <g id="BrokenBarHCollection_1">
    <path clip-path="url(#p6ad51a376b)" d="M 521.973254 332.76 
L 521.973254 203.4 
L 522.802377 203.4 
L 522.802377 332.76 
L 521.973254 332.76 
z
" style="fill:#1f77b4;"/>
    <path clip-path="url(#p6ad51a376b)" d="M 523.631501 332.76 
L 523.631501 203.4 
L 524.460624 203.4 
L 524.460624 332.76 
L 523.631501 332.76 
z
" style="fill:#1f77b4;"/>
    <path clip-path="url(#p6ad51a376b)" d="M 524.460624 332.76 
L 524.460624 203.4 
L 525.289747 203.4 
L 525.289747 332.76 
L 524.460624 332.76 
z
" style="fill:#1f77b4;"/>
    <path clip-path="url(#p6ad51a376b)" d="M 522.802377 332.76 
L 522.802377 203.4 
L 523.631501 203.4 
L 523.631501 332.76 
L 522.802377 332.76 
z
" style="fill:#1f77b4;"/>
   </g>
   <g id="BrokenBarHCollection_2">
    <path clip-path="url(#p6ad51a376b)" d="M 514.511144 332.76 
L 514.511144 203.4 
L 515.340267 203.4 
L 515.340267 332.76 
L 514.511144 332.76 
z
" style="fill:#d62728;"/>
    <path clip-path="url(#p6ad51a376b)" d="M 516.169391 332.76 
L 516.169391 203.4 
L 516.415537 203.4 
L 516.415537 332.76 
L 516.169391 332.76 
z
" style="fill:#d62728;"/>
    <path clip-path="url(#p6ad51a376b)" d="M 519.485884 332.76 
L 519.485884 203.4 
L 520.315007 203.4 
L 520.315007 332.76 
L 519.485884 332.76 
z
" style="fill:#d62728;"/>
    <path clip-path="url(#p6ad51a376b)" d="M 518.656761 332.76 
L 518.656761 203.4 
L 519.485884 203.4 
L 519.485884 332.76 
L 518.656761 332.76 
z
" style="fill:#d62728;"/>
    <path clip-path="url(#p6ad51a376b)" d="M 516.998514 332.76 
L 516.998514 203.4 
L 517.827637 203.4 
L 517.827637 332.76 
L 516.998514 332.76 
z
" style="fill:#d62728;"/>
    <path clip-path="url(#p6ad51a376b)" d="M 520.315007 332.76 
L 520.315007 203.4 
L 521.144131 203.4 
L 521.144131 332.76 
L 520.315007 332.76 
z
" style="fill:#d62728;"/>
    <path clip-path="url(#p6ad51a376b)" d="M 525.289747 332.76 
L 525.289747 203.4 
L 526.118871 203.4 
L 526.118871 332.76 
L 525.289747 332.76 
z
" style="fill:#d62728;"/>
   </g>
   <g id="BrokenBarHCollection_3">
    <path clip-path="url(#p6ad51a376b)" d="M 90 332.76 
L 90 203.4 
L 90.272056 203.4 
L 90.272056 332.76 
L 90 332.76 
z
" style="fill:#9467bd;"/>
    <path clip-path="url(#p6ad51a376b)" d="M 90.829123 332.76 
L 90.829123 203.4 
L 91.658247 203.4 
L 91.658247 332.76 
L 90.829123 332.76 
z
" style="fill:#9467bd;"/>
   </g>
   <g id="BrokenBarHCollection_4">
    <path clip-path="url(#p6ad51a376b)" d="M 515.340267 332.76 
L 515.340267 203.4 
L 515.379133 203.4 
L 515.379133 332.76 
L 515.340267 332.76 
z
" style="fill:#2ca02c;"/>
    <path clip-path="url(#p6ad51a376b)" d="M 517.827637 332.76 
L 517.827637 203.4 
L 518.656761 203.4 
L 518.656761 332.76 
L 517.827637 332.76 
z
" style="fill:#2ca02c;"/>
   </g>
   <g id="BrokenBarHCollection_5">
    <path clip-path="url(#p6ad51a376b)" d="M 521.144131 332.76 
L 521.144131 203.4 
L 521.597558 203.4 
L 521.597558 332.76 
L 521.144131 332.76 
z
" style="fill:#7f7f7f;"/>
   </g>
   <g id="BrokenBarHCollection_6"/>
   <g id="BrokenBarHCollection_7"/>
   <g id="BrokenBarHCollection_8">
    <path clip-path="url(#p6ad51a376b)" d="M 510.365527 332.76 
L 510.365527 203.4 
L 510.793044 203.4 
L 510.793044 332.76 
L 510.365527 332.76 
z
" style="fill:#bcbd22;"/>
   </g>
   <g id="BrokenBarHCollection_9">
    <path clip-path="url(#p6ad51a376b)" d="M 522.00005 480.6 
L 522.00005 351.24 
L 522.117556 351.24 
L 522.117556 480.6 
L 522.00005 480.6 
z
" style="fill:#ff7f0e;"/>
    <path clip-path="url(#p6ad51a376b)" d="M 522.125489 480.6 
L 522.125489 351.24 
L 522.210013 351.24 
L 522.210013 480.6 
L 522.125489 480.6 
z
" style="fill:#ff7f0e;"/>
    <path clip-path="url(#p6ad51a376b)" d="M 522.217958 480.6 
L 522.217958 351.24 
L 522.302469 351.24 
L 522.302469 480.6 
L 522.217958 480.6 
z
" style="fill:#ff7f0e;"/>
    <path clip-path="url(#p6ad51a376b)" d="M 522.310414 480.6 
L 522.310414 351.24 
L 522.394926 351.24 
L 522.394926 480.6 
L 522.310414 480.6 
z
" style="fill:#ff7f0e;"/>
    <path clip-path="url(#p6ad51a376b)" d="M 522.402871 480.6 
L 522.402871 351.24 
L 522.487382 351.24 
L 522.487382 480.6 
L 522.402871 480.6 
z
" style="fill:#ff7f0e;"/>
    <path clip-path="url(#p6ad51a376b)" d="M 522.495328 480.6 
L 522.495328 351.24 
L 522.579826 351.24 
L 522.579826 480.6 
L 522.495328 480.6 
z
" style="fill:#ff7f0e;"/>
    <path clip-path="url(#p6ad51a376b)" d="M 522.587784 480.6 
L 522.587784 351.24 
L 522.67227 351.24 
L 522.67227 480.6 
L 522.587784 480.6 
z
" style="fill:#ff7f0e;"/>
    <path clip-path="url(#p6ad51a376b)" d="M 522.680228 480.6 
L 522.680228 351.24 
L 522.764714 351.24 
L 522.764714 480.6 
L 522.680228 480.6 
z
" style="fill:#ff7f0e;"/>
    <path clip-path="url(#p6ad51a376b)" d="M 522.772672 480.6 
L 522.772672 351.24 
L 522.802314 351.24 
L 522.802314 480.6 
L 522.772672 480.6 
z
" style="fill:#ff7f0e;"/>
    <path clip-path="url(#p6ad51a376b)" d="M 523.658296 480.6 
L 523.658296 351.24 
L 523.71314 351.24 
L 523.71314 480.6 
L 523.658296 480.6 
z
" style="fill:#ff7f0e;"/>
    <path clip-path="url(#p6ad51a376b)" d="M 523.721098 480.6 
L 523.721098 351.24 
L 523.805572 351.24 
L 523.805572 480.6 
L 523.721098 480.6 
z
" style="fill:#ff7f0e;"/>
    <path clip-path="url(#p6ad51a376b)" d="M 523.813542 480.6 
L 523.813542 351.24 
L 523.898003 351.24 
L 523.898003 480.6 
L 523.813542 480.6 
z
" style="fill:#ff7f0e;"/>
    <path clip-path="url(#p6ad51a376b)" d="M 523.905973 480.6 
L 523.905973 351.24 
L 523.990434 351.24 
L 523.990434 480.6 
L 523.905973 480.6 
z
" style="fill:#ff7f0e;"/>
    <path clip-path="url(#p6ad51a376b)" d="M 523.998405 480.6 
L 523.998405 351.24 
L 524.082865 351.24 
L 524.082865 480.6 
L 523.998405 480.6 
z
" style="fill:#ff7f0e;"/>
    <path clip-path="url(#p6ad51a376b)" d="M 524.090836 480.6 
L 524.090836 351.24 
L 524.175284 351.24 
L 524.175284 480.6 
L 524.090836 480.6 
z
" style="fill:#ff7f0e;"/>
    <path clip-path="url(#p6ad51a376b)" d="M 524.183267 480.6 
L 524.183267 351.24 
L 524.267703 351.24 
L 524.267703 480.6 
L 524.183267 480.6 
z
" style="fill:#ff7f0e;"/>
    <path clip-path="url(#p6ad51a376b)" d="M 524.275686 480.6 
L 524.275686 351.24 
L 524.360121 351.24 
L 524.360121 480.6 
L 524.275686 480.6 
z
" style="fill:#ff7f0e;"/>
    <path clip-path="url(#p6ad51a376b)" d="M 524.368104 480.6 
L 524.368104 351.24 
L 524.45254 351.24 
L 524.45254 480.6 
L 524.368104 480.6 
z
" style="fill:#ff7f0e;"/>
    <path clip-path="url(#p6ad51a376b)" d="M 524.460523 480.6 
L 524.460523 351.24 
L 524.460586 351.24 
L 524.460586 480.6 
L 524.460523 480.6 
z
" style="fill:#ff7f0e;"/>
    <path clip-path="url(#p6ad51a376b)" d="M 524.48742 480.6 
L 524.48742 351.24 
L 524.571779 351.24 
L 524.571779 480.6 
L 524.48742 480.6 
z
" style="fill:#ff7f0e;"/>
    <path clip-path="url(#p6ad51a376b)" d="M 524.579775 480.6 
L 524.579775 351.24 
L 524.664185 351.24 
L 524.664185 480.6 
L 524.579775 480.6 
z
" style="fill:#ff7f0e;"/>
    <path clip-path="url(#p6ad51a376b)" d="M 524.672181 480.6 
L 524.672181 351.24 
L 524.756591 351.24 
L 524.756591 480.6 
L 524.672181 480.6 
z
" style="fill:#ff7f0e;"/>
    <path clip-path="url(#p6ad51a376b)" d="M 524.764587 480.6 
L 524.764587 351.24 
L 524.848997 351.24 
L 524.848997 480.6 
L 524.764587 480.6 
z
" style="fill:#ff7f0e;"/>
    <path clip-path="url(#p6ad51a376b)" d="M 524.856993 480.6 
L 524.856993 351.24 
L 524.941391 351.24 
L 524.941391 480.6 
L 524.856993 480.6 
z
" style="fill:#ff7f0e;"/>
    <path clip-path="url(#p6ad51a376b)" d="M 524.949399 480.6 
L 524.949399 351.24 
L 525.033784 351.24 
L 525.033784 480.6 
L 524.949399 480.6 
z
" style="fill:#ff7f0e;"/>
    <path clip-path="url(#p6ad51a376b)" d="M 525.041792 480.6 
L 525.041792 351.24 
L 525.126177 351.24 
L 525.126177 480.6 
L 525.041792 480.6 
z
" style="fill:#ff7f0e;"/>
    <path clip-path="url(#p6ad51a376b)" d="M 525.134186 480.6 
L 525.134186 351.24 
L 525.218571 351.24 
L 525.218571 480.6 
L 525.134186 480.6 
z
" style="fill:#ff7f0e;"/>
    <path clip-path="url(#p6ad51a376b)" d="M 525.226579 480.6 
L 525.226579 351.24 
L 525.289671 351.24 
L 525.289671 480.6 
L 525.226579 480.6 
z
" style="fill:#ff7f0e;"/>
    <path clip-path="url(#p6ad51a376b)" d="M 522.829173 480.6 
L 522.829173 351.24 
L 522.850453 351.24 
L 522.850453 480.6 
L 522.829173 480.6 
z
" style="fill:#ff7f0e;"/>
    <path clip-path="url(#p6ad51a376b)" d="M 522.858474 480.6 
L 522.858474 351.24 
L 522.942833 351.24 
L 522.942833 480.6 
L 522.858474 480.6 
z
" style="fill:#ff7f0e;"/>
    <path clip-path="url(#p6ad51a376b)" d="M 522.950854 480.6 
L 522.950854 351.24 
L 523.035214 351.24 
L 523.035214 480.6 
L 522.950854 480.6 
z
" style="fill:#ff7f0e;"/>
    <path clip-path="url(#p6ad51a376b)" d="M 523.043235 480.6 
L 523.043235 351.24 
L 523.127595 351.24 
L 523.127595 480.6 
L 523.043235 480.6 
z
" style="fill:#ff7f0e;"/>
    <path clip-path="url(#p6ad51a376b)" d="M 523.135616 480.6 
L 523.135616 351.24 
L 523.219963 351.24 
L 523.219963 480.6 
L 523.135616 480.6 
z
" style="fill:#ff7f0e;"/>
    <path clip-path="url(#p6ad51a376b)" d="M 523.227996 480.6 
L 523.227996 351.24 
L 523.312331 351.24 
L 523.312331 480.6 
L 523.227996 480.6 
z
" style="fill:#ff7f0e;"/>
    <path clip-path="url(#p6ad51a376b)" d="M 523.320364 480.6 
L 523.320364 351.24 
L 523.404699 351.24 
L 523.404699 480.6 
L 523.320364 480.6 
z
" style="fill:#ff7f0e;"/>
    <path clip-path="url(#p6ad51a376b)" d="M 523.412732 480.6 
L 523.412732 351.24 
L 523.497067 351.24 
L 523.497067 480.6 
L 523.412732 480.6 
z
" style="fill:#ff7f0e;"/>
    <path clip-path="url(#p6ad51a376b)" d="M 523.5051 480.6 
L 523.5051 351.24 
L 523.589422 351.24 
L 523.589422 480.6 
L 523.5051 480.6 
z
" style="fill:#ff7f0e;"/>
    <path clip-path="url(#p6ad51a376b)" d="M 523.597468 480.6 
L 523.597468 351.24 
L 523.63145 351.24 
L 523.63145 480.6 
L 523.597468 480.6 
z
" style="fill:#ff7f0e;"/>
   </g>
   <g id="BrokenBarHCollection_10">
    <path clip-path="url(#p6ad51a376b)" d="M 514.53794 480.6 
L 514.53794 351.24 
L 515.34023 351.24 
L 515.34023 480.6 
L 514.53794 480.6 
z
" style="fill:#ff7f0e;"/>
    <path clip-path="url(#p6ad51a376b)" d="M 516.196186 480.6 
L 516.196186 351.24 
L 516.408528 351.24 
L 516.408528 480.6 
L 516.196186 480.6 
z
" style="fill:#ff7f0e;"/>
    <path clip-path="url(#p6ad51a376b)" d="M 519.51268 480.6 
L 519.51268 351.24 
L 519.966815 351.24 
L 519.966815 480.6 
L 519.51268 480.6 
z
" style="fill:#ff7f0e;"/>
    <path clip-path="url(#p6ad51a376b)" d="M 519.966828 480.6 
L 519.966828 351.24 
L 519.967359 351.24 
L 519.967359 480.6 
L 519.966828 480.6 
z
" style="fill:#ff7f0e;"/>
    <path clip-path="url(#p6ad51a376b)" d="M 519.967739 480.6 
L 519.967739 351.24 
L 519.969244 351.24 
L 519.969244 480.6 
L 519.967739 480.6 
z
" style="fill:#ff7f0e;"/>
    <path clip-path="url(#p6ad51a376b)" d="M 519.969257 480.6 
L 519.969257 351.24 
L 519.969371 351.24 
L 519.969371 480.6 
L 519.969257 480.6 
z
" style="fill:#ff7f0e;"/>
    <path clip-path="url(#p6ad51a376b)" d="M 519.969383 480.6 
L 519.969383 351.24 
L 519.969434 351.24 
L 519.969434 480.6 
L 519.969383 480.6 
z
" style="fill:#ff7f0e;"/>
    <path clip-path="url(#p6ad51a376b)" d="M 519.969447 480.6 
L 519.969447 351.24 
L 519.973482 351.24 
L 519.973482 480.6 
L 519.969447 480.6 
z
" style="fill:#ff7f0e;"/>
    <path clip-path="url(#p6ad51a376b)" d="M 519.973862 480.6 
L 519.973862 351.24 
L 519.975772 351.24 
L 519.975772 480.6 
L 519.973862 480.6 
z
" style="fill:#ff7f0e;"/>
    <path clip-path="url(#p6ad51a376b)" d="M 519.975785 480.6 
L 519.975785 351.24 
L 519.976038 351.24 
L 519.976038 480.6 
L 519.975785 480.6 
z
" style="fill:#ff7f0e;"/>
    <path clip-path="url(#p6ad51a376b)" d="M 519.976051 480.6 
L 519.976051 351.24 
L 519.979416 351.24 
L 519.979416 480.6 
L 519.976051 480.6 
z
" style="fill:#ff7f0e;"/>
    <path clip-path="url(#p6ad51a376b)" d="M 519.979795 480.6 
L 519.979795 351.24 
L 519.981959 351.24 
L 519.981959 480.6 
L 519.979795 480.6 
z
" style="fill:#ff7f0e;"/>
    <path clip-path="url(#p6ad51a376b)" d="M 519.981972 480.6 
L 519.981972 351.24 
L 519.982136 351.24 
L 519.982136 480.6 
L 519.981972 480.6 
z
" style="fill:#ff7f0e;"/>
    <path clip-path="url(#p6ad51a376b)" d="M 519.982149 480.6 
L 519.982149 351.24 
L 519.982617 351.24 
L 519.982617 480.6 
L 519.982149 480.6 
z
" style="fill:#ff7f0e;"/>
    <path clip-path="url(#p6ad51a376b)" d="M 519.982629 480.6 
L 519.982629 351.24 
L 519.986007 351.24 
L 519.986007 480.6 
L 519.982629 480.6 
z
" style="fill:#ff7f0e;"/>
    <path clip-path="url(#p6ad51a376b)" d="M 519.98602 480.6 
L 519.98602 351.24 
L 519.986539 351.24 
L 519.986539 480.6 
L 519.98602 480.6 
z
" style="fill:#ff7f0e;"/>
    <path clip-path="url(#p6ad51a376b)" d="M 519.986931 480.6 
L 519.986931 351.24 
L 519.989474 351.24 
L 519.989474 480.6 
L 519.986931 480.6 
z
" style="fill:#ff7f0e;"/>
    <path clip-path="url(#p6ad51a376b)" d="M 519.989486 480.6 
L 519.989486 351.24 
L 519.992662 351.24 
L 519.992662 480.6 
L 519.989486 480.6 
z
" style="fill:#ff7f0e;"/>
    <path clip-path="url(#p6ad51a376b)" d="M 519.993041 480.6 
L 519.993041 351.24 
L 519.99857 351.24 
L 519.99857 480.6 
L 519.993041 480.6 
z
" style="fill:#ff7f0e;"/>
    <path clip-path="url(#p6ad51a376b)" d="M 519.998583 480.6 
L 519.998583 351.24 
L 520.003403 351.24 
L 520.003403 480.6 
L 519.998583 480.6 
z
" style="fill:#ff7f0e;"/>
    <path clip-path="url(#p6ad51a376b)" d="M 520.003795 480.6 
L 520.003795 351.24 
L 520.010652 351.24 
L 520.010652 480.6 
L 520.003795 480.6 
z
" style="fill:#ff7f0e;"/>
    <path clip-path="url(#p6ad51a376b)" d="M 520.010665 480.6 
L 520.010665 351.24 
L 520.011513 351.24 
L 520.011513 480.6 
L 520.010665 480.6 
z
" style="fill:#ff7f0e;"/>
    <path clip-path="url(#p6ad51a376b)" d="M 520.011525 480.6 
L 520.011525 351.24 
L 520.020331 351.24 
L 520.020331 480.6 
L 520.011525 480.6 
z
" style="fill:#ff7f0e;"/>
    <path clip-path="url(#p6ad51a376b)" d="M 520.020343 480.6 
L 520.020343 351.24 
L 520.020495 351.24 
L 520.020495 480.6 
L 520.020343 480.6 
z
" style="fill:#ff7f0e;"/>
    <path clip-path="url(#p6ad51a376b)" d="M 520.020508 480.6 
L 520.020508 351.24 
L 520.021077 351.24 
L 520.021077 480.6 
L 520.020508 480.6 
z
" style="fill:#ff7f0e;"/>
    <path clip-path="url(#p6ad51a376b)" d="M 520.02109 480.6 
L 520.02109 351.24 
L 520.021216 351.24 
L 520.021216 480.6 
L 520.02109 480.6 
z
" style="fill:#ff7f0e;"/>
    <path clip-path="url(#p6ad51a376b)" d="M 520.021229 480.6 
L 520.021229 351.24 
L 520.058652 351.24 
L 520.058652 480.6 
L 520.021229 480.6 
z
" style="fill:#ff7f0e;"/>
    <path clip-path="url(#p6ad51a376b)" d="M 520.058664 480.6 
L 520.058664 351.24 
L 520.079653 351.24 
L 520.079653 480.6 
L 520.058664 480.6 
z
" style="fill:#ff7f0e;"/>
    <path clip-path="url(#p6ad51a376b)" d="M 520.079666 480.6 
L 520.079666 351.24 
L 520.151564 351.24 
L 520.151564 480.6 
L 520.079666 480.6 
z
" style="fill:#ff7f0e;"/>
    <path clip-path="url(#p6ad51a376b)" d="M 520.151576 480.6 
L 520.151576 351.24 
L 520.195667 351.24 
L 520.195667 480.6 
L 520.151576 480.6 
z
" style="fill:#ff7f0e;"/>
    <path clip-path="url(#p6ad51a376b)" d="M 518.683556 480.6 
L 518.683556 351.24 
L 518.892722 351.24 
L 518.892722 480.6 
L 518.683556 480.6 
z
" style="fill:#ff7f0e;"/>
    <path clip-path="url(#p6ad51a376b)" d="M 518.892735 480.6 
L 518.892735 351.24 
L 518.892937 351.24 
L 518.892937 480.6 
L 518.892735 480.6 
z
" style="fill:#ff7f0e;"/>
    <path clip-path="url(#p6ad51a376b)" d="M 518.89295 480.6 
L 518.89295 351.24 
L 518.954942 351.24 
L 518.954942 480.6 
L 518.89295 480.6 
z
" style="fill:#ff7f0e;"/>
    <path clip-path="url(#p6ad51a376b)" d="M 518.954955 480.6 
L 518.954955 351.24 
L 518.955018 351.24 
L 518.955018 480.6 
L 518.954955 480.6 
z
" style="fill:#ff7f0e;"/>
    <path clip-path="url(#p6ad51a376b)" d="M 518.955031 480.6 
L 518.955031 351.24 
L 518.980333 351.24 
L 518.980333 480.6 
L 518.955031 480.6 
z
" style="fill:#ff7f0e;"/>
    <path clip-path="url(#p6ad51a376b)" d="M 518.980346 480.6 
L 518.980346 351.24 
L 518.98046 351.24 
L 518.98046 480.6 
L 518.980346 480.6 
z
" style="fill:#ff7f0e;"/>
    <path clip-path="url(#p6ad51a376b)" d="M 518.980473 480.6 
L 518.980473 351.24 
L 518.980536 351.24 
L 518.980536 480.6 
L 518.980473 480.6 
z
" style="fill:#ff7f0e;"/>
    <path clip-path="url(#p6ad51a376b)" d="M 518.980549 480.6 
L 518.980549 351.24 
L 519.012848 351.24 
L 519.012848 480.6 
L 518.980549 480.6 
z
" style="fill:#ff7f0e;"/>
    <path clip-path="url(#p6ad51a376b)" d="M 519.01286 480.6 
L 519.01286 351.24 
L 519.013012 351.24 
L 519.013012 480.6 
L 519.01286 480.6 
z
" style="fill:#ff7f0e;"/>
    <path clip-path="url(#p6ad51a376b)" d="M 519.013025 480.6 
L 519.013025 351.24 
L 519.485871 351.24 
L 519.485871 480.6 
L 519.013025 480.6 
z
" style="fill:#ff7f0e;"/>
    <path clip-path="url(#p6ad51a376b)" d="M 517.02531 480.6 
L 517.02531 351.24 
L 517.711384 351.24 
L 517.711384 480.6 
L 517.02531 480.6 
z
" style="fill:#ff7f0e;"/>
    <path clip-path="url(#p6ad51a376b)" d="M 517.711637 480.6 
L 517.711637 351.24 
L 517.712484 351.24 
L 517.712484 480.6 
L 517.711637 480.6 
z
" style="fill:#ff7f0e;"/>
    <path clip-path="url(#p6ad51a376b)" d="M 517.712497 480.6 
L 517.712497 351.24 
L 517.724528 351.24 
L 517.724528 480.6 
L 517.712497 480.6 
z
" style="fill:#ff7f0e;"/>
    <path clip-path="url(#p6ad51a376b)" d="M 517.724566 480.6 
L 517.724566 351.24 
L 517.73112 351.24 
L 517.73112 480.6 
L 517.724566 480.6 
z
" style="fill:#ff7f0e;"/>
    <path clip-path="url(#p6ad51a376b)" d="M 517.731411 480.6 
L 517.731411 351.24 
L 517.746681 351.24 
L 517.746681 480.6 
L 517.731411 480.6 
z
" style="fill:#ff7f0e;"/>
    <path clip-path="url(#p6ad51a376b)" d="M 517.746694 480.6 
L 517.746694 351.24 
L 517.746757 351.24 
L 517.746757 480.6 
L 517.746694 480.6 
z
" style="fill:#ff7f0e;"/>
    <path clip-path="url(#p6ad51a376b)" d="M 517.74677 480.6 
L 517.74677 351.24 
L 517.74682 351.24 
L 517.74682 480.6 
L 517.74677 480.6 
z
" style="fill:#ff7f0e;"/>
    <path clip-path="url(#p6ad51a376b)" d="M 517.746833 480.6 
L 517.746833 351.24 
L 517.746883 351.24 
L 517.746883 480.6 
L 517.746833 480.6 
z
" style="fill:#ff7f0e;"/>
    <path clip-path="url(#p6ad51a376b)" d="M 517.746896 480.6 
L 517.746896 351.24 
L 517.747212 351.24 
L 517.747212 480.6 
L 517.746896 480.6 
z
" style="fill:#ff7f0e;"/>
    <path clip-path="url(#p6ad51a376b)" d="M 517.747225 480.6 
L 517.747225 351.24 
L 517.747276 351.24 
L 517.747276 480.6 
L 517.747225 480.6 
z
" style="fill:#ff7f0e;"/>
    <path clip-path="url(#p6ad51a376b)" d="M 517.747314 480.6 
L 517.747314 351.24 
L 517.747579 351.24 
L 517.747579 480.6 
L 517.747314 480.6 
z
" style="fill:#ff7f0e;"/>
    <path clip-path="url(#p6ad51a376b)" d="M 517.747605 480.6 
L 517.747605 351.24 
L 517.747782 351.24 
L 517.747782 480.6 
L 517.747605 480.6 
z
" style="fill:#ff7f0e;"/>
    <path clip-path="url(#p6ad51a376b)" d="M 517.747807 480.6 
L 517.747807 351.24 
L 517.748389 351.24 
L 517.748389 480.6 
L 517.747807 480.6 
z
" style="fill:#ff7f0e;"/>
    <path clip-path="url(#p6ad51a376b)" d="M 517.74868 480.6 
L 517.74868 351.24 
L 517.749237 351.24 
L 517.749237 480.6 
L 517.74868 480.6 
z
" style="fill:#ff7f0e;"/>
    <path clip-path="url(#p6ad51a376b)" d="M 517.749275 480.6 
L 517.749275 351.24 
L 517.749388 351.24 
L 517.749388 480.6 
L 517.749275 480.6 
z
" style="fill:#ff7f0e;"/>
    <path clip-path="url(#p6ad51a376b)" d="M 517.749452 480.6 
L 517.749452 351.24 
L 517.749996 351.24 
L 517.749996 480.6 
L 517.749452 480.6 
z
" style="fill:#ff7f0e;"/>
    <path clip-path="url(#p6ad51a376b)" d="M 517.750021 480.6 
L 517.750021 351.24 
L 517.750502 351.24 
L 517.750502 480.6 
L 517.750021 480.6 
z
" style="fill:#ff7f0e;"/>
    <path clip-path="url(#p6ad51a376b)" d="M 517.750565 480.6 
L 517.750565 351.24 
L 517.750717 351.24 
L 517.750717 480.6 
L 517.750565 480.6 
z
" style="fill:#ff7f0e;"/>
    <path clip-path="url(#p6ad51a376b)" d="M 517.750729 480.6 
L 517.750729 351.24 
L 517.750919 351.24 
L 517.750919 480.6 
L 517.750729 480.6 
z
" style="fill:#ff7f0e;"/>
    <path clip-path="url(#p6ad51a376b)" d="M 517.750957 480.6 
L 517.750957 351.24 
L 517.771731 351.24 
L 517.771731 480.6 
L 517.750957 480.6 
z
" style="fill:#ff7f0e;"/>
    <path clip-path="url(#p6ad51a376b)" d="M 517.771984 480.6 
L 517.771984 351.24 
L 517.792277 351.24 
L 517.792277 480.6 
L 517.771984 480.6 
z
" style="fill:#ff7f0e;"/>
    <path clip-path="url(#p6ad51a376b)" d="M 517.792289 480.6 
L 517.792289 351.24 
L 517.792745 351.24 
L 517.792745 480.6 
L 517.792289 480.6 
z
" style="fill:#ff7f0e;"/>
    <path clip-path="url(#p6ad51a376b)" d="M 517.792795 480.6 
L 517.792795 351.24 
L 517.793339 351.24 
L 517.793339 480.6 
L 517.792795 480.6 
z
" style="fill:#ff7f0e;"/>
    <path clip-path="url(#p6ad51a376b)" d="M 517.793365 480.6 
L 517.793365 351.24 
L 517.793959 351.24 
L 517.793959 480.6 
L 517.793365 480.6 
z
" style="fill:#ff7f0e;"/>
    <path clip-path="url(#p6ad51a376b)" d="M 517.794023 480.6 
L 517.794023 351.24 
L 517.795111 351.24 
L 517.795111 480.6 
L 517.794023 480.6 
z
" style="fill:#ff7f0e;"/>
    <path clip-path="url(#p6ad51a376b)" d="M 517.795123 480.6 
L 517.795123 351.24 
L 517.796224 351.24 
L 517.796224 480.6 
L 517.795123 480.6 
z
" style="fill:#ff7f0e;"/>
    <path clip-path="url(#p6ad51a376b)" d="M 517.796249 480.6 
L 517.796249 351.24 
L 517.796793 351.24 
L 517.796793 480.6 
L 517.796249 480.6 
z
" style="fill:#ff7f0e;"/>
    <path clip-path="url(#p6ad51a376b)" d="M 517.796806 480.6 
L 517.796806 351.24 
L 517.797337 351.24 
L 517.797337 480.6 
L 517.796806 480.6 
z
" style="fill:#ff7f0e;"/>
    <path clip-path="url(#p6ad51a376b)" d="M 517.79735 480.6 
L 517.79735 351.24 
L 517.797881 351.24 
L 517.797881 480.6 
L 517.79735 480.6 
z
" style="fill:#ff7f0e;"/>
    <path clip-path="url(#p6ad51a376b)" d="M 517.797919 480.6 
L 517.797919 351.24 
L 517.800551 351.24 
L 517.800551 480.6 
L 517.797919 480.6 
z
" style="fill:#ff7f0e;"/>
    <path clip-path="url(#p6ad51a376b)" d="M 517.800563 480.6 
L 517.800563 351.24 
L 517.801702 351.24 
L 517.801702 480.6 
L 517.800563 480.6 
z
" style="fill:#ff7f0e;"/>
    <path clip-path="url(#p6ad51a376b)" d="M 517.801715 480.6 
L 517.801715 351.24 
L 517.822058 351.24 
L 517.822058 480.6 
L 517.801715 480.6 
z
" style="fill:#ff7f0e;"/>
    <path clip-path="url(#p6ad51a376b)" d="M 517.822071 480.6 
L 517.822071 351.24 
L 517.827625 351.24 
L 517.827625 480.6 
L 517.822071 480.6 
z
" style="fill:#ff7f0e;"/>
    <path clip-path="url(#p6ad51a376b)" d="M 520.341803 480.6 
L 520.341803 351.24 
L 520.34217 351.24 
L 520.34217 480.6 
L 520.341803 480.6 
z
" style="fill:#ff7f0e;"/>
    <path clip-path="url(#p6ad51a376b)" d="M 520.342183 480.6 
L 520.342183 351.24 
L 520.344055 351.24 
L 520.344055 480.6 
L 520.342183 480.6 
z
" style="fill:#ff7f0e;"/>
    <path clip-path="url(#p6ad51a376b)" d="M 520.445444 480.6 
L 520.445444 351.24 
L 520.689553 351.24 
L 520.689553 480.6 
L 520.445444 480.6 
z
" style="fill:#ff7f0e;"/>
    <path clip-path="url(#p6ad51a376b)" d="M 525.316543 480.6 
L 525.316543 351.24 
L 525.61122 351.24 
L 525.61122 480.6 
L 525.316543 480.6 
z
" style="fill:#ff7f0e;"/>
   </g>
   <g id="BrokenBarHCollection_11">
    <path clip-path="url(#p6ad51a376b)" d="M 90.05182 480.6 
L 90.05182 351.24 
L 90.258797 351.24 
L 90.258797 480.6 
L 90.05182 480.6 
z
" style="fill:#ff7f0e;"/>
    <path clip-path="url(#p6ad51a376b)" d="M 90.880944 480.6 
L 90.880944 351.24 
L 90.957257 351.24 
L 90.957257 480.6 
L 90.880944 480.6 
z
" style="fill:#ff7f0e;"/>
   </g>
   <g id="BrokenBarHCollection_12">
    <path clip-path="url(#p6ad51a376b)" d="M 515.367063 480.6 
L 515.367063 351.24 
L 515.367316 351.24 
L 515.367316 480.6 
L 515.367063 480.6 
z
" style="fill:#ff7f0e;"/>
    <path clip-path="url(#p6ad51a376b)" d="M 517.854433 480.6 
L 517.854433 351.24 
L 518.115558 351.24 
L 518.115558 480.6 
L 517.854433 480.6 
z
" style="fill:#ff7f0e;"/>
   </g>
   <g id="BrokenBarHCollection_13">
    <path clip-path="url(#p6ad51a376b)" d="M 521.170926 480.6 
L 521.170926 351.24 
L 521.585513 351.24 
L 521.585513 480.6 
L 521.170926 480.6 
z
" style="fill:#ff7f0e;"/>
   </g>
   <g id="BrokenBarHCollection_14"/>
   <g id="BrokenBarHCollection_15"/>
   <g id="BrokenBarHCollection_16">
    <path clip-path="url(#p6ad51a376b)" d="M 510.392323 480.6 
L 510.392323 351.24 
L 510.791981 351.24 
L 510.791981 480.6 
L 510.392323 480.6 
z
" style="fill:#ff7f0e;"/>
   </g>
   <g id="matplotlib.axis_1">
    <g id="xtick_1">
     <g id="line2d_1">
      <defs>
       <path d="M 0 0 
L 0 3.5 
" id="m30078da7a2" style="stroke:#000000;stroke-width:0.8;"/>
      </defs>
      <g>
       <use style="stroke:#000000;stroke-width:0.8;" x="90" xlink:href="#m30078da7a2" y="480.6"/>
      </g>
     </g>
     <g id="text_1">
      <!-- 0 -->
      <g transform="translate(92.759375 493.9625)rotate(-90)scale(0.1 -0.1)">
       <defs>
        <path d="M 31.78125 66.40625 
Q 24.171875 66.40625 20.328125 58.90625 
Q 16.5 51.421875 16.5 36.375 
Q 16.5 21.390625 20.328125 13.890625 
Q 24.171875 6.390625 31.78125 6.390625 
Q 39.453125 6.390625 43.28125 13.890625 
Q 47.125 21.390625 47.125 36.375 
Q 47.125 51.421875 43.28125 58.90625 
Q 39.453125 66.40625 31.78125 66.40625 
z
M 31.78125 74.21875 
Q 44.046875 74.21875 50.515625 64.515625 
Q 56.984375 54.828125 56.984375 36.375 
Q 56.984375 17.96875 50.515625 8.265625 
Q 44.046875 -1.421875 31.78125 -1.421875 
Q 19.53125 -1.421875 13.0625 8.265625 
Q 6.59375 17.96875 6.59375 36.375 
Q 6.59375 54.828125 13.0625 64.515625 
Q 19.53125 74.21875 31.78125 74.21875 
z
" id="DejaVuSans-48"/>
       </defs>
       <use xlink:href="#DejaVuSans-48"/>
      </g>
     </g>
    </g>
    <g id="xtick_2">
     <g id="line2d_2">
      <g>
       <use style="stroke:#000000;stroke-width:0.8;" x="109.89896" xlink:href="#m30078da7a2" y="480.6"/>
      </g>
     </g>
     <g id="text_2">
      <!-- 6 -->
      <g transform="translate(112.658335 493.9625)rotate(-90)scale(0.1 -0.1)">
       <defs>
        <path d="M 33.015625 40.375 
Q 26.375 40.375 22.484375 35.828125 
Q 18.609375 31.296875 18.609375 23.390625 
Q 18.609375 15.53125 22.484375 10.953125 
Q 26.375 6.390625 33.015625 6.390625 
Q 39.65625 6.390625 43.53125 10.953125 
Q 47.40625 15.53125 47.40625 23.390625 
Q 47.40625 31.296875 43.53125 35.828125 
Q 39.65625 40.375 33.015625 40.375 
z
M 52.59375 71.296875 
L 52.59375 62.3125 
Q 48.875 64.0625 45.09375 64.984375 
Q 41.3125 65.921875 37.59375 65.921875 
Q 27.828125 65.921875 22.671875 59.328125 
Q 17.53125 52.734375 16.796875 39.40625 
Q 19.671875 43.65625 24.015625 45.921875 
Q 28.375 48.1875 33.59375 48.1875 
Q 44.578125 48.1875 50.953125 41.515625 
Q 57.328125 34.859375 57.328125 23.390625 
Q 57.328125 12.15625 50.6875 5.359375 
Q 44.046875 -1.421875 33.015625 -1.421875 
Q 20.359375 -1.421875 13.671875 8.265625 
Q 6.984375 17.96875 6.984375 36.375 
Q 6.984375 53.65625 15.1875 63.9375 
Q 23.390625 74.21875 37.203125 74.21875 
Q 40.921875 74.21875 44.703125 73.484375 
Q 48.484375 72.75 52.59375 71.296875 
z
" id="DejaVuSans-54"/>
       </defs>
       <use xlink:href="#DejaVuSans-54"/>
      </g>
     </g>
    </g>
    <g id="xtick_3">
     <g id="line2d_3">
      <g>
       <use style="stroke:#000000;stroke-width:0.8;" x="129.79792" xlink:href="#m30078da7a2" y="480.6"/>
      </g>
     </g>
     <g id="text_3">
      <!-- 12 -->
      <g transform="translate(132.557295 500.325)rotate(-90)scale(0.1 -0.1)">
       <defs>
        <path d="M 12.40625 8.296875 
L 28.515625 8.296875 
L 28.515625 63.921875 
L 10.984375 60.40625 
L 10.984375 69.390625 
L 28.421875 72.90625 
L 38.28125 72.90625 
L 38.28125 8.296875 
L 54.390625 8.296875 
L 54.390625 0 
L 12.40625 0 
z
" id="DejaVuSans-49"/>
        <path d="M 19.1875 8.296875 
L 53.609375 8.296875 
L 53.609375 0 
L 7.328125 0 
L 7.328125 8.296875 
Q 12.9375 14.109375 22.625 23.890625 
Q 32.328125 33.6875 34.8125 36.53125 
Q 39.546875 41.84375 41.421875 45.53125 
Q 43.3125 49.21875 43.3125 52.78125 
Q 43.3125 58.59375 39.234375 62.25 
Q 35.15625 65.921875 28.609375 65.921875 
Q 23.96875 65.921875 18.8125 64.3125 
Q 13.671875 62.703125 7.8125 59.421875 
L 7.8125 69.390625 
Q 13.765625 71.78125 18.9375 73 
Q 24.125 74.21875 28.421875 74.21875 
Q 39.75 74.21875 46.484375 68.546875 
Q 53.21875 62.890625 53.21875 53.421875 
Q 53.21875 48.921875 51.53125 44.890625 
Q 49.859375 40.875 45.40625 35.40625 
Q 44.1875 33.984375 37.640625 27.21875 
Q 31.109375 20.453125 19.1875 8.296875 
z
" id="DejaVuSans-50"/>
       </defs>
       <use xlink:href="#DejaVuSans-49"/>
       <use x="63.623047" xlink:href="#DejaVuSans-50"/>
      </g>
     </g>
    </g>
    <g id="xtick_4">
     <g id="line2d_4">
      <g>
       <use style="stroke:#000000;stroke-width:0.8;" x="149.69688" xlink:href="#m30078da7a2" y="480.6"/>
      </g>
     </g>
     <g id="text_4">
      <!-- 18 -->
      <g transform="translate(152.456255 500.325)rotate(-90)scale(0.1 -0.1)">
       <defs>
        <path d="M 31.78125 34.625 
Q 24.75 34.625 20.71875 30.859375 
Q 16.703125 27.09375 16.703125 20.515625 
Q 16.703125 13.921875 20.71875 10.15625 
Q 24.75 6.390625 31.78125 6.390625 
Q 38.8125 6.390625 42.859375 10.171875 
Q 46.921875 13.96875 46.921875 20.515625 
Q 46.921875 27.09375 42.890625 30.859375 
Q 38.875 34.625 31.78125 34.625 
z
M 21.921875 38.8125 
Q 15.578125 40.375 12.03125 44.71875 
Q 8.5 49.078125 8.5 55.328125 
Q 8.5 64.0625 14.71875 69.140625 
Q 20.953125 74.21875 31.78125 74.21875 
Q 42.671875 74.21875 48.875 69.140625 
Q 55.078125 64.0625 55.078125 55.328125 
Q 55.078125 49.078125 51.53125 44.71875 
Q 48 40.375 41.703125 38.8125 
Q 48.828125 37.15625 52.796875 32.3125 
Q 56.78125 27.484375 56.78125 20.515625 
Q 56.78125 9.90625 50.3125 4.234375 
Q 43.84375 -1.421875 31.78125 -1.421875 
Q 19.734375 -1.421875 13.25 4.234375 
Q 6.78125 9.90625 6.78125 20.515625 
Q 6.78125 27.484375 10.78125 32.3125 
Q 14.796875 37.15625 21.921875 38.8125 
z
M 18.3125 54.390625 
Q 18.3125 48.734375 21.84375 45.5625 
Q 25.390625 42.390625 31.78125 42.390625 
Q 38.140625 42.390625 41.71875 45.5625 
Q 45.3125 48.734375 45.3125 54.390625 
Q 45.3125 60.0625 41.71875 63.234375 
Q 38.140625 66.40625 31.78125 66.40625 
Q 25.390625 66.40625 21.84375 63.234375 
Q 18.3125 60.0625 18.3125 54.390625 
z
" id="DejaVuSans-56"/>
       </defs>
       <use xlink:href="#DejaVuSans-49"/>
       <use x="63.623047" xlink:href="#DejaVuSans-56"/>
      </g>
     </g>
    </g>
    <g id="xtick_5">
     <g id="line2d_5">
      <g>
       <use style="stroke:#000000;stroke-width:0.8;" x="169.59584" xlink:href="#m30078da7a2" y="480.6"/>
      </g>
     </g>
     <g id="text_5">
      <!-- 24 -->
      <g transform="translate(172.355215 500.325)rotate(-90)scale(0.1 -0.1)">
       <defs>
        <path d="M 37.796875 64.3125 
L 12.890625 25.390625 
L 37.796875 25.390625 
z
M 35.203125 72.90625 
L 47.609375 72.90625 
L 47.609375 25.390625 
L 58.015625 25.390625 
L 58.015625 17.1875 
L 47.609375 17.1875 
L 47.609375 0 
L 37.796875 0 
L 37.796875 17.1875 
L 4.890625 17.1875 
L 4.890625 26.703125 
z
" id="DejaVuSans-52"/>
       </defs>
       <use xlink:href="#DejaVuSans-50"/>
       <use x="63.623047" xlink:href="#DejaVuSans-52"/>
      </g>
     </g>
    </g>
    <g id="xtick_6">
     <g id="line2d_6">
      <g>
       <use style="stroke:#000000;stroke-width:0.8;" x="189.494799" xlink:href="#m30078da7a2" y="480.6"/>
      </g>
     </g>
     <g id="text_6">
      <!-- 30 -->
      <g transform="translate(192.254174 500.325)rotate(-90)scale(0.1 -0.1)">
       <defs>
        <path d="M 40.578125 39.3125 
Q 47.65625 37.796875 51.625 33 
Q 55.609375 28.21875 55.609375 21.1875 
Q 55.609375 10.40625 48.1875 4.484375 
Q 40.765625 -1.421875 27.09375 -1.421875 
Q 22.515625 -1.421875 17.65625 -0.515625 
Q 12.796875 0.390625 7.625 2.203125 
L 7.625 11.71875 
Q 11.71875 9.328125 16.59375 8.109375 
Q 21.484375 6.890625 26.8125 6.890625 
Q 36.078125 6.890625 40.9375 10.546875 
Q 45.796875 14.203125 45.796875 21.1875 
Q 45.796875 27.640625 41.28125 31.265625 
Q 36.765625 34.90625 28.71875 34.90625 
L 20.21875 34.90625 
L 20.21875 43.015625 
L 29.109375 43.015625 
Q 36.375 43.015625 40.234375 45.921875 
Q 44.09375 48.828125 44.09375 54.296875 
Q 44.09375 59.90625 40.109375 62.90625 
Q 36.140625 65.921875 28.71875 65.921875 
Q 24.65625 65.921875 20.015625 65.03125 
Q 15.375 64.15625 9.8125 62.3125 
L 9.8125 71.09375 
Q 15.4375 72.65625 20.34375 73.4375 
Q 25.25 74.21875 29.59375 74.21875 
Q 40.828125 74.21875 47.359375 69.109375 
Q 53.90625 64.015625 53.90625 55.328125 
Q 53.90625 49.265625 50.4375 45.09375 
Q 46.96875 40.921875 40.578125 39.3125 
z
" id="DejaVuSans-51"/>
       </defs>
       <use xlink:href="#DejaVuSans-51"/>
       <use x="63.623047" xlink:href="#DejaVuSans-48"/>
      </g>
     </g>
    </g>
    <g id="xtick_7">
     <g id="line2d_7">
      <g>
       <use style="stroke:#000000;stroke-width:0.8;" x="209.393759" xlink:href="#m30078da7a2" y="480.6"/>
      </g>
     </g>
     <g id="text_7">
      <!-- 36 -->
      <g transform="translate(212.153134 500.325)rotate(-90)scale(0.1 -0.1)">
       <use xlink:href="#DejaVuSans-51"/>
       <use x="63.623047" xlink:href="#DejaVuSans-54"/>
      </g>
     </g>
    </g>
    <g id="xtick_8">
     <g id="line2d_8">
      <g>
       <use style="stroke:#000000;stroke-width:0.8;" x="229.292719" xlink:href="#m30078da7a2" y="480.6"/>
      </g>
     </g>
     <g id="text_8">
      <!-- 42 -->
      <g transform="translate(232.052094 500.325)rotate(-90)scale(0.1 -0.1)">
       <use xlink:href="#DejaVuSans-52"/>
       <use x="63.623047" xlink:href="#DejaVuSans-50"/>
      </g>
     </g>
    </g>
    <g id="xtick_9">
     <g id="line2d_9">
      <g>
       <use style="stroke:#000000;stroke-width:0.8;" x="249.191679" xlink:href="#m30078da7a2" y="480.6"/>
      </g>
     </g>
     <g id="text_9">
      <!-- 48 -->
      <g transform="translate(251.951054 500.325)rotate(-90)scale(0.1 -0.1)">
       <use xlink:href="#DejaVuSans-52"/>
       <use x="63.623047" xlink:href="#DejaVuSans-56"/>
      </g>
     </g>
    </g>
    <g id="xtick_10">
     <g id="line2d_10">
      <g>
       <use style="stroke:#000000;stroke-width:0.8;" x="269.090639" xlink:href="#m30078da7a2" y="480.6"/>
      </g>
     </g>
     <g id="text_10">
      <!-- 54 -->
      <g transform="translate(271.850014 500.325)rotate(-90)scale(0.1 -0.1)">
       <defs>
        <path d="M 10.796875 72.90625 
L 49.515625 72.90625 
L 49.515625 64.59375 
L 19.828125 64.59375 
L 19.828125 46.734375 
Q 21.96875 47.46875 24.109375 47.828125 
Q 26.265625 48.1875 28.421875 48.1875 
Q 40.625 48.1875 47.75 41.5 
Q 54.890625 34.8125 54.890625 23.390625 
Q 54.890625 11.625 47.5625 5.09375 
Q 40.234375 -1.421875 26.90625 -1.421875 
Q 22.3125 -1.421875 17.546875 -0.640625 
Q 12.796875 0.140625 7.71875 1.703125 
L 7.71875 11.625 
Q 12.109375 9.234375 16.796875 8.0625 
Q 21.484375 6.890625 26.703125 6.890625 
Q 35.15625 6.890625 40.078125 11.328125 
Q 45.015625 15.765625 45.015625 23.390625 
Q 45.015625 31 40.078125 35.4375 
Q 35.15625 39.890625 26.703125 39.890625 
Q 22.75 39.890625 18.8125 39.015625 
Q 14.890625 38.140625 10.796875 36.28125 
z
" id="DejaVuSans-53"/>
       </defs>
       <use xlink:href="#DejaVuSans-53"/>
       <use x="63.623047" xlink:href="#DejaVuSans-52"/>
      </g>
     </g>
    </g>
    <g id="xtick_11">
     <g id="line2d_11">
      <g>
       <use style="stroke:#000000;stroke-width:0.8;" x="288.989599" xlink:href="#m30078da7a2" y="480.6"/>
      </g>
     </g>
     <g id="text_11">
      <!-- 60 -->
      <g transform="translate(291.748974 500.325)rotate(-90)scale(0.1 -0.1)">
       <use xlink:href="#DejaVuSans-54"/>
       <use x="63.623047" xlink:href="#DejaVuSans-48"/>
      </g>
     </g>
    </g>
    <g id="xtick_12">
     <g id="line2d_12">
      <g>
       <use style="stroke:#000000;stroke-width:0.8;" x="308.888559" xlink:href="#m30078da7a2" y="480.6"/>
      </g>
     </g>
     <g id="text_12">
      <!-- 66 -->
      <g transform="translate(311.647934 500.325)rotate(-90)scale(0.1 -0.1)">
       <use xlink:href="#DejaVuSans-54"/>
       <use x="63.623047" xlink:href="#DejaVuSans-54"/>
      </g>
     </g>
    </g>
    <g id="xtick_13">
     <g id="line2d_13">
      <g>
       <use style="stroke:#000000;stroke-width:0.8;" x="328.787519" xlink:href="#m30078da7a2" y="480.6"/>
      </g>
     </g>
     <g id="text_13">
      <!-- 72 -->
      <g transform="translate(331.546894 500.325)rotate(-90)scale(0.1 -0.1)">
       <defs>
        <path d="M 8.203125 72.90625 
L 55.078125 72.90625 
L 55.078125 68.703125 
L 28.609375 0 
L 18.3125 0 
L 43.21875 64.59375 
L 8.203125 64.59375 
z
" id="DejaVuSans-55"/>
       </defs>
       <use xlink:href="#DejaVuSans-55"/>
       <use x="63.623047" xlink:href="#DejaVuSans-50"/>
      </g>
     </g>
    </g>
    <g id="xtick_14">
     <g id="line2d_14">
      <g>
       <use style="stroke:#000000;stroke-width:0.8;" x="348.686478" xlink:href="#m30078da7a2" y="480.6"/>
      </g>
     </g>
     <g id="text_14">
      <!-- 78 -->
      <g transform="translate(351.445853 500.325)rotate(-90)scale(0.1 -0.1)">
       <use xlink:href="#DejaVuSans-55"/>
       <use x="63.623047" xlink:href="#DejaVuSans-56"/>
      </g>
     </g>
    </g>
    <g id="xtick_15">
     <g id="line2d_15">
      <g>
       <use style="stroke:#000000;stroke-width:0.8;" x="368.585438" xlink:href="#m30078da7a2" y="480.6"/>
      </g>
     </g>
     <g id="text_15">
      <!-- 84 -->
      <g transform="translate(371.344813 500.325)rotate(-90)scale(0.1 -0.1)">
       <use xlink:href="#DejaVuSans-56"/>
       <use x="63.623047" xlink:href="#DejaVuSans-52"/>
      </g>
     </g>
    </g>
    <g id="xtick_16">
     <g id="line2d_16">
      <g>
       <use style="stroke:#000000;stroke-width:0.8;" x="388.484398" xlink:href="#m30078da7a2" y="480.6"/>
      </g>
     </g>
     <g id="text_16">
      <!-- 90 -->
      <g transform="translate(391.243773 500.325)rotate(-90)scale(0.1 -0.1)">
       <defs>
        <path d="M 10.984375 1.515625 
L 10.984375 10.5 
Q 14.703125 8.734375 18.5 7.8125 
Q 22.3125 6.890625 25.984375 6.890625 
Q 35.75 6.890625 40.890625 13.453125 
Q 46.046875 20.015625 46.78125 33.40625 
Q 43.953125 29.203125 39.59375 26.953125 
Q 35.25 24.703125 29.984375 24.703125 
Q 19.046875 24.703125 12.671875 31.3125 
Q 6.296875 37.9375 6.296875 49.421875 
Q 6.296875 60.640625 12.9375 67.421875 
Q 19.578125 74.21875 30.609375 74.21875 
Q 43.265625 74.21875 49.921875 64.515625 
Q 56.59375 54.828125 56.59375 36.375 
Q 56.59375 19.140625 48.40625 8.859375 
Q 40.234375 -1.421875 26.421875 -1.421875 
Q 22.703125 -1.421875 18.890625 -0.6875 
Q 15.09375 0.046875 10.984375 1.515625 
z
M 30.609375 32.421875 
Q 37.25 32.421875 41.125 36.953125 
Q 45.015625 41.5 45.015625 49.421875 
Q 45.015625 57.28125 41.125 61.84375 
Q 37.25 66.40625 30.609375 66.40625 
Q 23.96875 66.40625 20.09375 61.84375 
Q 16.21875 57.28125 16.21875 49.421875 
Q 16.21875 41.5 20.09375 36.953125 
Q 23.96875 32.421875 30.609375 32.421875 
z
" id="DejaVuSans-57"/>
       </defs>
       <use xlink:href="#DejaVuSans-57"/>
       <use x="63.623047" xlink:href="#DejaVuSans-48"/>
      </g>
     </g>
    </g>
    <g id="xtick_17">
     <g id="line2d_17">
      <g>
       <use style="stroke:#000000;stroke-width:0.8;" x="408.383358" xlink:href="#m30078da7a2" y="480.6"/>
      </g>
     </g>
     <g id="text_17">
      <!-- 96 -->
      <g transform="translate(411.142733 500.325)rotate(-90)scale(0.1 -0.1)">
       <use xlink:href="#DejaVuSans-57"/>
       <use x="63.623047" xlink:href="#DejaVuSans-54"/>
      </g>
     </g>
    </g>
    <g id="xtick_18">
     <g id="line2d_18">
      <g>
       <use style="stroke:#000000;stroke-width:0.8;" x="428.282318" xlink:href="#m30078da7a2" y="480.6"/>
      </g>
     </g>
     <g id="text_18">
      <!-- 102 -->
      <g transform="translate(431.041693 506.6875)rotate(-90)scale(0.1 -0.1)">
       <use xlink:href="#DejaVuSans-49"/>
       <use x="63.623047" xlink:href="#DejaVuSans-48"/>
       <use x="127.246094" xlink:href="#DejaVuSans-50"/>
      </g>
     </g>
    </g>
    <g id="xtick_19">
     <g id="line2d_19">
      <g>
       <use style="stroke:#000000;stroke-width:0.8;" x="448.181278" xlink:href="#m30078da7a2" y="480.6"/>
      </g>
     </g>
     <g id="text_19">
      <!-- 108 -->
      <g transform="translate(450.940653 506.6875)rotate(-90)scale(0.1 -0.1)">
       <use xlink:href="#DejaVuSans-49"/>
       <use x="63.623047" xlink:href="#DejaVuSans-48"/>
       <use x="127.246094" xlink:href="#DejaVuSans-56"/>
      </g>
     </g>
    </g>
    <g id="xtick_20">
     <g id="line2d_20">
      <g>
       <use style="stroke:#000000;stroke-width:0.8;" x="468.080238" xlink:href="#m30078da7a2" y="480.6"/>
      </g>
     </g>
     <g id="text_20">
      <!-- 114 -->
      <g transform="translate(470.839613 506.6875)rotate(-90)scale(0.1 -0.1)">
       <use xlink:href="#DejaVuSans-49"/>
       <use x="63.623047" xlink:href="#DejaVuSans-49"/>
       <use x="127.246094" xlink:href="#DejaVuSans-52"/>
      </g>
     </g>
    </g>
    <g id="xtick_21">
     <g id="line2d_21">
      <g>
       <use style="stroke:#000000;stroke-width:0.8;" x="487.979198" xlink:href="#m30078da7a2" y="480.6"/>
      </g>
     </g>
     <g id="text_21">
      <!-- 120 -->
      <g transform="translate(490.738573 506.6875)rotate(-90)scale(0.1 -0.1)">
       <use xlink:href="#DejaVuSans-49"/>
       <use x="63.623047" xlink:href="#DejaVuSans-50"/>
       <use x="127.246094" xlink:href="#DejaVuSans-48"/>
      </g>
     </g>
    </g>
    <g id="xtick_22">
     <g id="line2d_22">
      <g>
       <use style="stroke:#000000;stroke-width:0.8;" x="507.878158" xlink:href="#m30078da7a2" y="480.6"/>
      </g>
     </g>
     <g id="text_22">
      <!-- 126 -->
      <g transform="translate(510.637533 506.6875)rotate(-90)scale(0.1 -0.1)">
       <use xlink:href="#DejaVuSans-49"/>
       <use x="63.623047" xlink:href="#DejaVuSans-50"/>
       <use x="127.246094" xlink:href="#DejaVuSans-54"/>
      </g>
     </g>
    </g>
    <g id="xtick_23">
     <g id="line2d_23">
      <g>
       <use style="stroke:#000000;stroke-width:0.8;" x="527.777117" xlink:href="#m30078da7a2" y="480.6"/>
      </g>
     </g>
     <g id="text_23">
      <!-- 132 -->
      <g transform="translate(530.536492 506.6875)rotate(-90)scale(0.1 -0.1)">
       <use xlink:href="#DejaVuSans-49"/>
       <use x="63.623047" xlink:href="#DejaVuSans-51"/>
       <use x="127.246094" xlink:href="#DejaVuSans-50"/>
      </g>
     </g>
    </g>
    <g id="xtick_24">
     <g id="line2d_24">
      <g>
       <use style="stroke:#000000;stroke-width:0.8;" x="547.676077" xlink:href="#m30078da7a2" y="480.6"/>
      </g>
     </g>
     <g id="text_24">
      <!-- 138 -->
      <g transform="translate(550.435452 506.6875)rotate(-90)scale(0.1 -0.1)">
       <use xlink:href="#DejaVuSans-49"/>
       <use x="63.623047" xlink:href="#DejaVuSans-51"/>
       <use x="127.246094" xlink:href="#DejaVuSans-56"/>
      </g>
     </g>
    </g>
    <g id="xtick_25">
     <g id="line2d_25">
      <g>
       <use style="stroke:#000000;stroke-width:0.8;" x="567.575037" xlink:href="#m30078da7a2" y="480.6"/>
      </g>
     </g>
     <g id="text_25">
      <!-- 144 -->
      <g transform="translate(570.334412 506.6875)rotate(-90)scale(0.1 -0.1)">
       <use xlink:href="#DejaVuSans-49"/>
       <use x="63.623047" xlink:href="#DejaVuSans-52"/>
       <use x="127.246094" xlink:href="#DejaVuSans-52"/>
      </g>
     </g>
    </g>
    <g id="xtick_26">
     <g id="line2d_26">
      <g>
       <use style="stroke:#000000;stroke-width:0.8;" x="587.473997" xlink:href="#m30078da7a2" y="480.6"/>
      </g>
     </g>
     <g id="text_26">
      <!-- 150 -->
      <g transform="translate(590.233372 506.6875)rotate(-90)scale(0.1 -0.1)">
       <use xlink:href="#DejaVuSans-49"/>
       <use x="63.623047" xlink:href="#DejaVuSans-53"/>
       <use x="127.246094" xlink:href="#DejaVuSans-48"/>
      </g>
     </g>
    </g>
    <g id="xtick_27">
     <g id="line2d_27">
      <g>
       <use style="stroke:#000000;stroke-width:0.8;" x="607.372957" xlink:href="#m30078da7a2" y="480.6"/>
      </g>
     </g>
     <g id="text_27">
      <!-- 156 -->
      <g transform="translate(610.132332 506.6875)rotate(-90)scale(0.1 -0.1)">
       <use xlink:href="#DejaVuSans-49"/>
       <use x="63.623047" xlink:href="#DejaVuSans-53"/>
       <use x="127.246094" xlink:href="#DejaVuSans-54"/>
      </g>
     </g>
    </g>
    <g id="xtick_28">
     <g id="line2d_28">
      <g>
       <use style="stroke:#000000;stroke-width:0.8;" x="627.271917" xlink:href="#m30078da7a2" y="480.6"/>
      </g>
     </g>
     <g id="text_28">
      <!-- 162 -->
      <g transform="translate(630.031292 506.6875)rotate(-90)scale(0.1 -0.1)">
       <use xlink:href="#DejaVuSans-49"/>
       <use x="63.623047" xlink:href="#DejaVuSans-54"/>
       <use x="127.246094" xlink:href="#DejaVuSans-50"/>
      </g>
     </g>
    </g>
    <g id="xtick_29">
     <g id="line2d_29">
      <g>
       <use style="stroke:#000000;stroke-width:0.8;" x="647.170877" xlink:href="#m30078da7a2" y="480.6"/>
      </g>
     </g>
     <g id="text_29">
      <!-- 168 -->
      <g transform="translate(649.930252 506.6875)rotate(-90)scale(0.1 -0.1)">
       <use xlink:href="#DejaVuSans-49"/>
       <use x="63.623047" xlink:href="#DejaVuSans-54"/>
       <use x="127.246094" xlink:href="#DejaVuSans-56"/>
      </g>
     </g>
    </g>
    <g id="text_30">
     <!-- Offset in MB -->
     <g transform="translate(338.421875 518.285938)scale(0.1 -0.1)">
      <defs>
       <path d="M 39.40625 66.21875 
Q 28.65625 66.21875 22.328125 58.203125 
Q 16.015625 50.203125 16.015625 36.375 
Q 16.015625 22.609375 22.328125 14.59375 
Q 28.65625 6.59375 39.40625 6.59375 
Q 50.140625 6.59375 56.421875 14.59375 
Q 62.703125 22.609375 62.703125 36.375 
Q 62.703125 50.203125 56.421875 58.203125 
Q 50.140625 66.21875 39.40625 66.21875 
z
M 39.40625 74.21875 
Q 54.734375 74.21875 63.90625 63.9375 
Q 73.09375 53.65625 73.09375 36.375 
Q 73.09375 19.140625 63.90625 8.859375 
Q 54.734375 -1.421875 39.40625 -1.421875 
Q 24.03125 -1.421875 14.8125 8.828125 
Q 5.609375 19.09375 5.609375 36.375 
Q 5.609375 53.65625 14.8125 63.9375 
Q 24.03125 74.21875 39.40625 74.21875 
z
" id="DejaVuSans-79"/>
       <path d="M 37.109375 75.984375 
L 37.109375 68.5 
L 28.515625 68.5 
Q 23.6875 68.5 21.796875 66.546875 
Q 19.921875 64.59375 19.921875 59.515625 
L 19.921875 54.6875 
L 34.71875 54.6875 
L 34.71875 47.703125 
L 19.921875 47.703125 
L 19.921875 0 
L 10.890625 0 
L 10.890625 47.703125 
L 2.296875 47.703125 
L 2.296875 54.6875 
L 10.890625 54.6875 
L 10.890625 58.5 
Q 10.890625 67.625 15.140625 71.796875 
Q 19.390625 75.984375 28.609375 75.984375 
z
" id="DejaVuSans-102"/>
       <path d="M 44.28125 53.078125 
L 44.28125 44.578125 
Q 40.484375 46.53125 36.375 47.5 
Q 32.28125 48.484375 27.875 48.484375 
Q 21.1875 48.484375 17.84375 46.4375 
Q 14.5 44.390625 14.5 40.28125 
Q 14.5 37.15625 16.890625 35.375 
Q 19.28125 33.59375 26.515625 31.984375 
L 29.59375 31.296875 
Q 39.15625 29.25 43.1875 25.515625 
Q 47.21875 21.78125 47.21875 15.09375 
Q 47.21875 7.46875 41.1875 3.015625 
Q 35.15625 -1.421875 24.609375 -1.421875 
Q 20.21875 -1.421875 15.453125 -0.5625 
Q 10.6875 0.296875 5.421875 2 
L 5.421875 11.28125 
Q 10.40625 8.6875 15.234375 7.390625 
Q 20.0625 6.109375 24.8125 6.109375 
Q 31.15625 6.109375 34.5625 8.28125 
Q 37.984375 10.453125 37.984375 14.40625 
Q 37.984375 18.0625 35.515625 20.015625 
Q 33.0625 21.96875 24.703125 23.78125 
L 21.578125 24.515625 
Q 13.234375 26.265625 9.515625 29.90625 
Q 5.8125 33.546875 5.8125 39.890625 
Q 5.8125 47.609375 11.28125 51.796875 
Q 16.75 56 26.8125 56 
Q 31.78125 56 36.171875 55.265625 
Q 40.578125 54.546875 44.28125 53.078125 
z
" id="DejaVuSans-115"/>
       <path d="M 56.203125 29.59375 
L 56.203125 25.203125 
L 14.890625 25.203125 
Q 15.484375 15.921875 20.484375 11.0625 
Q 25.484375 6.203125 34.421875 6.203125 
Q 39.59375 6.203125 44.453125 7.46875 
Q 49.3125 8.734375 54.109375 11.28125 
L 54.109375 2.78125 
Q 49.265625 0.734375 44.1875 -0.34375 
Q 39.109375 -1.421875 33.890625 -1.421875 
Q 20.796875 -1.421875 13.15625 6.1875 
Q 5.515625 13.8125 5.515625 26.8125 
Q 5.515625 40.234375 12.765625 48.109375 
Q 20.015625 56 32.328125 56 
Q 43.359375 56 49.78125 48.890625 
Q 56.203125 41.796875 56.203125 29.59375 
z
M 47.21875 32.234375 
Q 47.125 39.59375 43.09375 43.984375 
Q 39.0625 48.390625 32.421875 48.390625 
Q 24.90625 48.390625 20.390625 44.140625 
Q 15.875 39.890625 15.1875 32.171875 
z
" id="DejaVuSans-101"/>
       <path d="M 18.3125 70.21875 
L 18.3125 54.6875 
L 36.8125 54.6875 
L 36.8125 47.703125 
L 18.3125 47.703125 
L 18.3125 18.015625 
Q 18.3125 11.328125 20.140625 9.421875 
Q 21.96875 7.515625 27.59375 7.515625 
L 36.8125 7.515625 
L 36.8125 0 
L 27.59375 0 
Q 17.1875 0 13.234375 3.875 
Q 9.28125 7.765625 9.28125 18.015625 
L 9.28125 47.703125 
L 2.6875 47.703125 
L 2.6875 54.6875 
L 9.28125 54.6875 
L 9.28125 70.21875 
z
" id="DejaVuSans-116"/>
       <path id="DejaVuSans-32"/>
       <path d="M 9.421875 54.6875 
L 18.40625 54.6875 
L 18.40625 0 
L 9.421875 0 
z
M 9.421875 75.984375 
L 18.40625 75.984375 
L 18.40625 64.59375 
L 9.421875 64.59375 
z
" id="DejaVuSans-105"/>
       <path d="M 54.890625 33.015625 
L 54.890625 0 
L 45.90625 0 
L 45.90625 32.71875 
Q 45.90625 40.484375 42.875 44.328125 
Q 39.84375 48.1875 33.796875 48.1875 
Q 26.515625 48.1875 22.3125 43.546875 
Q 18.109375 38.921875 18.109375 30.90625 
L 18.109375 0 
L 9.078125 0 
L 9.078125 54.6875 
L 18.109375 54.6875 
L 18.109375 46.1875 
Q 21.34375 51.125 25.703125 53.5625 
Q 30.078125 56 35.796875 56 
Q 45.21875 56 50.046875 50.171875 
Q 54.890625 44.34375 54.890625 33.015625 
z
" id="DejaVuSans-110"/>
       <path d="M 9.8125 72.90625 
L 24.515625 72.90625 
L 43.109375 23.296875 
L 61.8125 72.90625 
L 76.515625 72.90625 
L 76.515625 0 
L 66.890625 0 
L 66.890625 64.015625 
L 48.09375 14.015625 
L 38.1875 14.015625 
L 19.390625 64.015625 
L 19.390625 0 
L 9.8125 0 
z
" id="DejaVuSans-77"/>
       <path d="M 19.671875 34.8125 
L 19.671875 8.109375 
L 35.5 8.109375 
Q 43.453125 8.109375 47.28125 11.40625 
Q 51.125 14.703125 51.125 21.484375 
Q 51.125 28.328125 47.28125 31.5625 
Q 43.453125 34.8125 35.5 34.8125 
z
M 19.671875 64.796875 
L 19.671875 42.828125 
L 34.28125 42.828125 
Q 41.5 42.828125 45.03125 45.53125 
Q 48.578125 48.25 48.578125 53.8125 
Q 48.578125 59.328125 45.03125 62.0625 
Q 41.5 64.796875 34.28125 64.796875 
z
M 9.8125 72.90625 
L 35.015625 72.90625 
Q 46.296875 72.90625 52.390625 68.21875 
Q 58.5 63.53125 58.5 54.890625 
Q 58.5 48.1875 55.375 44.234375 
Q 52.25 40.28125 46.1875 39.3125 
Q 53.46875 37.75 57.5 32.78125 
Q 61.53125 27.828125 61.53125 20.40625 
Q 61.53125 10.640625 54.890625 5.3125 
Q 48.25 0 35.984375 0 
L 9.8125 0 
z
" id="DejaVuSans-66"/>
      </defs>
      <use xlink:href="#DejaVuSans-79"/>
      <use x="78.710938" xlink:href="#DejaVuSans-102"/>
      <use x="113.916016" xlink:href="#DejaVuSans-102"/>
      <use x="149.121094" xlink:href="#DejaVuSans-115"/>
      <use x="201.220703" xlink:href="#DejaVuSans-101"/>
      <use x="262.744141" xlink:href="#DejaVuSans-116"/>
      <use x="301.953125" xlink:href="#DejaVuSans-32"/>
      <use x="333.740234" xlink:href="#DejaVuSans-105"/>
      <use x="361.523438" xlink:href="#DejaVuSans-110"/>
      <use x="424.902344" xlink:href="#DejaVuSans-32"/>
      <use x="456.689453" xlink:href="#DejaVuSans-77"/>
      <use x="542.96875" xlink:href="#DejaVuSans-66"/>
     </g>
    </g>
   </g>
   <g id="matplotlib.axis_2">
    <g id="ytick_1">
     <g id="line2d_30">
      <defs>
       <path d="M 0 0 
L -3.5 0 
" id="ma0ce79d3d2" style="stroke:#000000;stroke-width:0.8;"/>
      </defs>
      <g>
       <use style="stroke:#000000;stroke-width:0.8;" x="90" xlink:href="#ma0ce79d3d2" y="415.92"/>
      </g>
     </g>
     <g id="text_31">
      <!-- Object -->
      <g transform="translate(50.429688 419.719219)scale(0.1 -0.1)">
       <defs>
        <path d="M 48.6875 27.296875 
Q 48.6875 37.203125 44.609375 42.84375 
Q 40.53125 48.484375 33.40625 48.484375 
Q 26.265625 48.484375 22.1875 42.84375 
Q 18.109375 37.203125 18.109375 27.296875 
Q 18.109375 17.390625 22.1875 11.75 
Q 26.265625 6.109375 33.40625 6.109375 
Q 40.53125 6.109375 44.609375 11.75 
Q 48.6875 17.390625 48.6875 27.296875 
z
M 18.109375 46.390625 
Q 20.953125 51.265625 25.265625 53.625 
Q 29.59375 56 35.59375 56 
Q 45.5625 56 51.78125 48.09375 
Q 58.015625 40.1875 58.015625 27.296875 
Q 58.015625 14.40625 51.78125 6.484375 
Q 45.5625 -1.421875 35.59375 -1.421875 
Q 29.59375 -1.421875 25.265625 0.953125 
Q 20.953125 3.328125 18.109375 8.203125 
L 18.109375 0 
L 9.078125 0 
L 9.078125 75.984375 
L 18.109375 75.984375 
z
" id="DejaVuSans-98"/>
        <path d="M 9.421875 54.6875 
L 18.40625 54.6875 
L 18.40625 -0.984375 
Q 18.40625 -11.421875 14.421875 -16.109375 
Q 10.453125 -20.796875 1.609375 -20.796875 
L -1.8125 -20.796875 
L -1.8125 -13.1875 
L 0.59375 -13.1875 
Q 5.71875 -13.1875 7.5625 -10.8125 
Q 9.421875 -8.453125 9.421875 -0.984375 
z
M 9.421875 75.984375 
L 18.40625 75.984375 
L 18.40625 64.59375 
L 9.421875 64.59375 
z
" id="DejaVuSans-106"/>
        <path d="M 48.78125 52.59375 
L 48.78125 44.1875 
Q 44.96875 46.296875 41.140625 47.34375 
Q 37.3125 48.390625 33.40625 48.390625 
Q 24.65625 48.390625 19.8125 42.84375 
Q 14.984375 37.3125 14.984375 27.296875 
Q 14.984375 17.28125 19.8125 11.734375 
Q 24.65625 6.203125 33.40625 6.203125 
Q 37.3125 6.203125 41.140625 7.25 
Q 44.96875 8.296875 48.78125 10.40625 
L 48.78125 2.09375 
Q 45.015625 0.34375 40.984375 -0.53125 
Q 36.96875 -1.421875 32.421875 -1.421875 
Q 20.0625 -1.421875 12.78125 6.34375 
Q 5.515625 14.109375 5.515625 27.296875 
Q 5.515625 40.671875 12.859375 48.328125 
Q 20.21875 56 33.015625 56 
Q 37.15625 56 41.109375 55.140625 
Q 45.0625 54.296875 48.78125 52.59375 
z
" id="DejaVuSans-99"/>
       </defs>
       <use xlink:href="#DejaVuSans-79"/>
       <use x="78.710938" xlink:href="#DejaVuSans-98"/>
       <use x="142.1875" xlink:href="#DejaVuSans-106"/>
       <use x="169.970703" xlink:href="#DejaVuSans-101"/>
       <use x="231.494141" xlink:href="#DejaVuSans-99"/>
       <use x="286.474609" xlink:href="#DejaVuSans-116"/>
      </g>
     </g>
    </g>
    <g id="ytick_2">
     <g id="line2d_31">
      <g>
       <use style="stroke:#000000;stroke-width:0.8;" x="90" xlink:href="#ma0ce79d3d2" y="268.08"/>
      </g>
     </g>
     <g id="text_32">
      <!-- Pages -->
      <g transform="translate(53.58125 271.879219)scale(0.1 -0.1)">
       <defs>
        <path d="M 19.671875 64.796875 
L 19.671875 37.40625 
L 32.078125 37.40625 
Q 38.96875 37.40625 42.71875 40.96875 
Q 46.484375 44.53125 46.484375 51.125 
Q 46.484375 57.671875 42.71875 61.234375 
Q 38.96875 64.796875 32.078125 64.796875 
z
M 9.8125 72.90625 
L 32.078125 72.90625 
Q 44.34375 72.90625 50.609375 67.359375 
Q 56.890625 61.8125 56.890625 51.125 
Q 56.890625 40.328125 50.609375 34.8125 
Q 44.34375 29.296875 32.078125 29.296875 
L 19.671875 29.296875 
L 19.671875 0 
L 9.8125 0 
z
" id="DejaVuSans-80"/>
        <path d="M 34.28125 27.484375 
Q 23.390625 27.484375 19.1875 25 
Q 14.984375 22.515625 14.984375 16.5 
Q 14.984375 11.71875 18.140625 8.90625 
Q 21.296875 6.109375 26.703125 6.109375 
Q 34.1875 6.109375 38.703125 11.40625 
Q 43.21875 16.703125 43.21875 25.484375 
L 43.21875 27.484375 
z
M 52.203125 31.203125 
L 52.203125 0 
L 43.21875 0 
L 43.21875 8.296875 
Q 40.140625 3.328125 35.546875 0.953125 
Q 30.953125 -1.421875 24.3125 -1.421875 
Q 15.921875 -1.421875 10.953125 3.296875 
Q 6 8.015625 6 15.921875 
Q 6 25.140625 12.171875 29.828125 
Q 18.359375 34.515625 30.609375 34.515625 
L 43.21875 34.515625 
L 43.21875 35.40625 
Q 43.21875 41.609375 39.140625 45 
Q 35.0625 48.390625 27.6875 48.390625 
Q 23 48.390625 18.546875 47.265625 
Q 14.109375 46.140625 10.015625 43.890625 
L 10.015625 52.203125 
Q 14.9375 54.109375 19.578125 55.046875 
Q 24.21875 56 28.609375 56 
Q 40.484375 56 46.34375 49.84375 
Q 52.203125 43.703125 52.203125 31.203125 
z
" id="DejaVuSans-97"/>
        <path d="M 45.40625 27.984375 
Q 45.40625 37.75 41.375 43.109375 
Q 37.359375 48.484375 30.078125 48.484375 
Q 22.859375 48.484375 18.828125 43.109375 
Q 14.796875 37.75 14.796875 27.984375 
Q 14.796875 18.265625 18.828125 12.890625 
Q 22.859375 7.515625 30.078125 7.515625 
Q 37.359375 7.515625 41.375 12.890625 
Q 45.40625 18.265625 45.40625 27.984375 
z
M 54.390625 6.78125 
Q 54.390625 -7.171875 48.1875 -13.984375 
Q 42 -20.796875 29.203125 -20.796875 
Q 24.46875 -20.796875 20.265625 -20.09375 
Q 16.0625 -19.390625 12.109375 -17.921875 
L 12.109375 -9.1875 
Q 16.0625 -11.328125 19.921875 -12.34375 
Q 23.78125 -13.375 27.78125 -13.375 
Q 36.625 -13.375 41.015625 -8.765625 
Q 45.40625 -4.15625 45.40625 5.171875 
L 45.40625 9.625 
Q 42.625 4.78125 38.28125 2.390625 
Q 33.9375 0 27.875 0 
Q 17.828125 0 11.671875 7.65625 
Q 5.515625 15.328125 5.515625 27.984375 
Q 5.515625 40.671875 11.671875 48.328125 
Q 17.828125 56 27.875 56 
Q 33.9375 56 38.28125 53.609375 
Q 42.625 51.21875 45.40625 46.390625 
L 45.40625 54.6875 
L 54.390625 54.6875 
z
" id="DejaVuSans-103"/>
       </defs>
       <use xlink:href="#DejaVuSans-80"/>
       <use x="55.802734" xlink:href="#DejaVuSans-97"/>
       <use x="117.082031" xlink:href="#DejaVuSans-103"/>
       <use x="180.558594" xlink:href="#DejaVuSans-101"/>
       <use x="242.082031" xlink:href="#DejaVuSans-115"/>
      </g>
     </g>
    </g>
   </g>
   <g id="patch_3">
    <path d="M 90 480.6 
L 90 64.8 
" style="fill:none;stroke:#000000;stroke-linecap:square;stroke-linejoin:miter;stroke-width:0.8;"/>
   </g>
   <g id="patch_4">
    <path d="M 648 480.6 
L 648 64.8 
" style="fill:none;stroke:#000000;stroke-linecap:square;stroke-linejoin:miter;stroke-width:0.8;"/>
   </g>
   <g id="patch_5">
    <path d="M 90 480.6 
L 648 480.6 
" style="fill:none;stroke:#000000;stroke-linecap:square;stroke-linejoin:miter;stroke-width:0.8;"/>
   </g>
   <g id="patch_6">
    <path d="M 90 64.8 
L 648 64.8 
" style="fill:none;stroke:#000000;stroke-linecap:square;stroke-linejoin:miter;stroke-width:0.8;"/>
   </g>
   <g id="text_33">
    <!-- Before GC10 by Scavenger -->
    <g transform="translate(313.2 64.8)scale(0.1 -0.1)">
     <defs>
      <path d="M 30.609375 48.390625 
Q 23.390625 48.390625 19.1875 42.75 
Q 14.984375 37.109375 14.984375 27.296875 
Q 14.984375 17.484375 19.15625 11.84375 
Q 23.34375 6.203125 30.609375 6.203125 
Q 37.796875 6.203125 41.984375 11.859375 
Q 46.1875 17.53125 46.1875 27.296875 
Q 46.1875 37.015625 41.984375 42.703125 
Q 37.796875 48.390625 30.609375 48.390625 
z
M 30.609375 56 
Q 42.328125 56 49.015625 48.375 
Q 55.71875 40.765625 55.71875 27.296875 
Q 55.71875 13.875 49.015625 6.21875 
Q 42.328125 -1.421875 30.609375 -1.421875 
Q 18.84375 -1.421875 12.171875 6.21875 
Q 5.515625 13.875 5.515625 27.296875 
Q 5.515625 40.765625 12.171875 48.375 
Q 18.84375 56 30.609375 56 
z
" id="DejaVuSans-111"/>
      <path d="M 41.109375 46.296875 
Q 39.59375 47.171875 37.8125 47.578125 
Q 36.03125 48 33.890625 48 
Q 26.265625 48 22.1875 43.046875 
Q 18.109375 38.09375 18.109375 28.8125 
L 18.109375 0 
L 9.078125 0 
L 9.078125 54.6875 
L 18.109375 54.6875 
L 18.109375 46.1875 
Q 20.953125 51.171875 25.484375 53.578125 
Q 30.03125 56 36.53125 56 
Q 37.453125 56 38.578125 55.875 
Q 39.703125 55.765625 41.0625 55.515625 
z
" id="DejaVuSans-114"/>
      <path d="M 59.515625 10.40625 
L 59.515625 29.984375 
L 43.40625 29.984375 
L 43.40625 38.09375 
L 69.28125 38.09375 
L 69.28125 6.78125 
Q 63.578125 2.734375 56.6875 0.65625 
Q 49.8125 -1.421875 42 -1.421875 
Q 24.90625 -1.421875 15.25 8.5625 
Q 5.609375 18.5625 5.609375 36.375 
Q 5.609375 54.25 15.25 64.234375 
Q 24.90625 74.21875 42 74.21875 
Q 49.125 74.21875 55.546875 72.453125 
Q 61.96875 70.703125 67.390625 67.28125 
L 67.390625 56.78125 
Q 61.921875 61.421875 55.765625 63.765625 
Q 49.609375 66.109375 42.828125 66.109375 
Q 29.4375 66.109375 22.71875 58.640625 
Q 16.015625 51.171875 16.015625 36.375 
Q 16.015625 21.625 22.71875 14.15625 
Q 29.4375 6.6875 42.828125 6.6875 
Q 48.046875 6.6875 52.140625 7.59375 
Q 56.25 8.5 59.515625 10.40625 
z
" id="DejaVuSans-71"/>
      <path d="M 64.40625 67.28125 
L 64.40625 56.890625 
Q 59.421875 61.53125 53.78125 63.8125 
Q 48.140625 66.109375 41.796875 66.109375 
Q 29.296875 66.109375 22.65625 58.46875 
Q 16.015625 50.828125 16.015625 36.375 
Q 16.015625 21.96875 22.65625 14.328125 
Q 29.296875 6.6875 41.796875 6.6875 
Q 48.140625 6.6875 53.78125 8.984375 
Q 59.421875 11.28125 64.40625 15.921875 
L 64.40625 5.609375 
Q 59.234375 2.09375 53.4375 0.328125 
Q 47.65625 -1.421875 41.21875 -1.421875 
Q 24.65625 -1.421875 15.125 8.703125 
Q 5.609375 18.84375 5.609375 36.375 
Q 5.609375 53.953125 15.125 64.078125 
Q 24.65625 74.21875 41.21875 74.21875 
Q 47.75 74.21875 53.53125 72.484375 
Q 59.328125 70.75 64.40625 67.28125 
z
" id="DejaVuSans-67"/>
      <path d="M 32.171875 -5.078125 
Q 28.375 -14.84375 24.75 -17.8125 
Q 21.140625 -20.796875 15.09375 -20.796875 
L 7.90625 -20.796875 
L 7.90625 -13.28125 
L 13.1875 -13.28125 
Q 16.890625 -13.28125 18.9375 -11.515625 
Q 21 -9.765625 23.484375 -3.21875 
L 25.09375 0.875 
L 2.984375 54.6875 
L 12.5 54.6875 
L 29.59375 11.921875 
L 46.6875 54.6875 
L 56.203125 54.6875 
z
" id="DejaVuSans-121"/>
      <path d="M 53.515625 70.515625 
L 53.515625 60.890625 
Q 47.90625 63.578125 42.921875 64.890625 
Q 37.9375 66.21875 33.296875 66.21875 
Q 25.25 66.21875 20.875 63.09375 
Q 16.5 59.96875 16.5 54.203125 
Q 16.5 49.359375 19.40625 46.890625 
Q 22.3125 44.4375 30.421875 42.921875 
L 36.375 41.703125 
Q 47.40625 39.59375 52.65625 34.296875 
Q 57.90625 29 57.90625 20.125 
Q 57.90625 9.515625 50.796875 4.046875 
Q 43.703125 -1.421875 29.984375 -1.421875 
Q 24.8125 -1.421875 18.96875 -0.25 
Q 13.140625 0.921875 6.890625 3.21875 
L 6.890625 13.375 
Q 12.890625 10.015625 18.65625 8.296875 
Q 24.421875 6.59375 29.984375 6.59375 
Q 38.421875 6.59375 43.015625 9.90625 
Q 47.609375 13.234375 47.609375 19.390625 
Q 47.609375 24.75 44.3125 27.78125 
Q 41.015625 30.8125 33.5 32.328125 
L 27.484375 33.5 
Q 16.453125 35.6875 11.515625 40.375 
Q 6.59375 45.0625 6.59375 53.421875 
Q 6.59375 63.09375 13.40625 68.65625 
Q 20.21875 74.21875 32.171875 74.21875 
Q 37.3125 74.21875 42.625 73.28125 
Q 47.953125 72.359375 53.515625 70.515625 
z
" id="DejaVuSans-83"/>
      <path d="M 2.984375 54.6875 
L 12.5 54.6875 
L 29.59375 8.796875 
L 46.6875 54.6875 
L 56.203125 54.6875 
L 35.6875 0 
L 23.484375 0 
z
" id="DejaVuSans-118"/>
     </defs>
     <use xlink:href="#DejaVuSans-66"/>
     <use x="68.603516" xlink:href="#DejaVuSans-101"/>
     <use x="130.126953" xlink:href="#DejaVuSans-102"/>
     <use x="165.332031" xlink:href="#DejaVuSans-111"/>
     <use x="226.513672" xlink:href="#DejaVuSans-114"/>
     <use x="265.376953" xlink:href="#DejaVuSans-101"/>
     <use x="326.900391" xlink:href="#DejaVuSans-32"/>
     <use x="358.6875" xlink:href="#DejaVuSans-71"/>
     <use x="436.177734" xlink:href="#DejaVuSans-67"/>
     <use x="506.001953" xlink:href="#DejaVuSans-49"/>
     <use x="569.625" xlink:href="#DejaVuSans-48"/>
     <use x="633.248047" xlink:href="#DejaVuSans-32"/>
     <use x="665.035156" xlink:href="#DejaVuSans-98"/>
     <use x="728.511719" xlink:href="#DejaVuSans-121"/>
     <use x="787.691406" xlink:href="#DejaVuSans-32"/>
     <use x="819.478516" xlink:href="#DejaVuSans-83"/>
     <use x="882.955078" xlink:href="#DejaVuSans-99"/>
     <use x="937.935547" xlink:href="#DejaVuSans-97"/>
     <use x="999.214844" xlink:href="#DejaVuSans-118"/>
     <use x="1058.394531" xlink:href="#DejaVuSans-101"/>
     <use x="1119.917969" xlink:href="#DejaVuSans-110"/>
     <use x="1183.296875" xlink:href="#DejaVuSans-103"/>
     <use x="1246.773438" xlink:href="#DejaVuSans-101"/>
     <use x="1308.296875" xlink:href="#DejaVuSans-114"/>
    </g>
   </g>
   <g id="legend_1">
    <g id="patch_7">
     <path d="M 534.621875 204.903125 
L 641 204.903125 
Q 643 204.903125 643 202.903125 
L 643 71.8 
Q 643 69.8 641 69.8 
L 534.621875 69.8 
Q 532.621875 69.8 532.621875 71.8 
L 532.621875 202.903125 
Q 532.621875 204.903125 534.621875 204.903125 
z
" style="fill:#ffffff;opacity:0.8;stroke:#cccccc;stroke-linejoin:miter;"/>
    </g>
    <g id="patch_8">
     <path d="M 536.621875 81.398438 
L 556.621875 81.398438 
L 556.621875 74.398438 
L 536.621875 74.398438 
z
" style="fill:#0000ff;stroke:#0000ff;stroke-linejoin:miter;"/>
    </g>
    <g id="text_34">
     <!-- New space -->
     <g transform="translate(564.621875 81.398438)scale(0.1 -0.1)">
      <defs>
       <path d="M 9.8125 72.90625 
L 23.09375 72.90625 
L 55.421875 11.921875 
L 55.421875 72.90625 
L 64.984375 72.90625 
L 64.984375 0 
L 51.703125 0 
L 19.390625 60.984375 
L 19.390625 0 
L 9.8125 0 
z
" id="DejaVuSans-78"/>
       <path d="M 4.203125 54.6875 
L 13.1875 54.6875 
L 24.421875 12.015625 
L 35.59375 54.6875 
L 46.1875 54.6875 
L 57.421875 12.015625 
L 68.609375 54.6875 
L 77.59375 54.6875 
L 63.28125 0 
L 52.6875 0 
L 40.921875 44.828125 
L 29.109375 0 
L 18.5 0 
z
" id="DejaVuSans-119"/>
       <path d="M 18.109375 8.203125 
L 18.109375 -20.796875 
L 9.078125 -20.796875 
L 9.078125 54.6875 
L 18.109375 54.6875 
L 18.109375 46.390625 
Q 20.953125 51.265625 25.265625 53.625 
Q 29.59375 56 35.59375 56 
Q 45.5625 56 51.78125 48.09375 
Q 58.015625 40.1875 58.015625 27.296875 
Q 58.015625 14.40625 51.78125 6.484375 
Q 45.5625 -1.421875 35.59375 -1.421875 
Q 29.59375 -1.421875 25.265625 0.953125 
Q 20.953125 3.328125 18.109375 8.203125 
z
M 48.6875 27.296875 
Q 48.6875 37.203125 44.609375 42.84375 
Q 40.53125 48.484375 33.40625 48.484375 
Q 26.265625 48.484375 22.1875 42.84375 
Q 18.109375 37.203125 18.109375 27.296875 
Q 18.109375 17.390625 22.1875 11.75 
Q 26.265625 6.109375 33.40625 6.109375 
Q 40.53125 6.109375 44.609375 11.75 
Q 48.6875 17.390625 48.6875 27.296875 
z
" id="DejaVuSans-112"/>
      </defs>
      <use xlink:href="#DejaVuSans-78"/>
      <use x="74.804688" xlink:href="#DejaVuSans-101"/>
      <use x="136.328125" xlink:href="#DejaVuSans-119"/>
      <use x="218.115234" xlink:href="#DejaVuSans-32"/>
      <use x="249.902344" xlink:href="#DejaVuSans-115"/>
      <use x="302.001953" xlink:href="#DejaVuSans-112"/>
      <use x="365.478516" xlink:href="#DejaVuSans-97"/>
      <use x="426.757812" xlink:href="#DejaVuSans-99"/>
      <use x="481.738281" xlink:href="#DejaVuSans-101"/>
     </g>
    </g>
    <g id="patch_9">
     <path d="M 536.621875 96.076563 
L 556.621875 96.076563 
L 556.621875 89.076563 
L 536.621875 89.076563 
z
" style="fill:#ff0000;stroke:#ff0000;stroke-linejoin:miter;"/>
    </g>
    <g id="text_35">
     <!-- Old space -->
     <g transform="translate(564.621875 96.076563)scale(0.1 -0.1)">
      <defs>
       <path d="M 9.421875 75.984375 
L 18.40625 75.984375 
L 18.40625 0 
L 9.421875 0 
z
" id="DejaVuSans-108"/>
       <path d="M 45.40625 46.390625 
L 45.40625 75.984375 
L 54.390625 75.984375 
L 54.390625 0 
L 45.40625 0 
L 45.40625 8.203125 
Q 42.578125 3.328125 38.25 0.953125 
Q 33.9375 -1.421875 27.875 -1.421875 
Q 17.96875 -1.421875 11.734375 6.484375 
Q 5.515625 14.40625 5.515625 27.296875 
Q 5.515625 40.1875 11.734375 48.09375 
Q 17.96875 56 27.875 56 
Q 33.9375 56 38.25 53.625 
Q 42.578125 51.265625 45.40625 46.390625 
z
M 14.796875 27.296875 
Q 14.796875 17.390625 18.875 11.75 
Q 22.953125 6.109375 30.078125 6.109375 
Q 37.203125 6.109375 41.296875 11.75 
Q 45.40625 17.390625 45.40625 27.296875 
Q 45.40625 37.203125 41.296875 42.84375 
Q 37.203125 48.484375 30.078125 48.484375 
Q 22.953125 48.484375 18.875 42.84375 
Q 14.796875 37.203125 14.796875 27.296875 
z
" id="DejaVuSans-100"/>
      </defs>
      <use xlink:href="#DejaVuSans-79"/>
      <use x="78.710938" xlink:href="#DejaVuSans-108"/>
      <use x="106.494141" xlink:href="#DejaVuSans-100"/>
      <use x="169.970703" xlink:href="#DejaVuSans-32"/>
      <use x="201.757812" xlink:href="#DejaVuSans-115"/>
      <use x="253.857422" xlink:href="#DejaVuSans-112"/>
      <use x="317.333984" xlink:href="#DejaVuSans-97"/>
      <use x="378.613281" xlink:href="#DejaVuSans-99"/>
      <use x="433.59375" xlink:href="#DejaVuSans-101"/>
     </g>
    </g>
    <g id="patch_10">
     <path d="M 536.621875 110.754687 
L 556.621875 110.754687 
L 556.621875 103.754687 
L 536.621875 103.754687 
z
" style="fill:#800080;stroke:#800080;stroke-linejoin:miter;"/>
    </g>
    <g id="text_36">
     <!-- Code Space -->
     <g transform="translate(564.621875 110.754687)scale(0.1 -0.1)">
      <use xlink:href="#DejaVuSans-67"/>
      <use x="69.824219" xlink:href="#DejaVuSans-111"/>
      <use x="131.005859" xlink:href="#DejaVuSans-100"/>
      <use x="194.482422" xlink:href="#DejaVuSans-101"/>
      <use x="256.005859" xlink:href="#DejaVuSans-32"/>
      <use x="287.792969" xlink:href="#DejaVuSans-83"/>
      <use x="351.269531" xlink:href="#DejaVuSans-112"/>
      <use x="414.746094" xlink:href="#DejaVuSans-97"/>
      <use x="476.025391" xlink:href="#DejaVuSans-99"/>
      <use x="531.005859" xlink:href="#DejaVuSans-101"/>
     </g>
    </g>
    <g id="patch_11">
     <path d="M 536.621875 125.432813 
L 556.621875 125.432813 
L 556.621875 118.432813 
L 536.621875 118.432813 
z
" style="fill:#008000;stroke:#008000;stroke-linejoin:miter;"/>
    </g>
    <g id="text_37">
     <!-- Map space -->
     <g transform="translate(564.621875 125.432813)scale(0.1 -0.1)">
      <use xlink:href="#DejaVuSans-77"/>
      <use x="86.279297" xlink:href="#DejaVuSans-97"/>
      <use x="147.558594" xlink:href="#DejaVuSans-112"/>
      <use x="211.035156" xlink:href="#DejaVuSans-32"/>
      <use x="242.822266" xlink:href="#DejaVuSans-115"/>
      <use x="294.921875" xlink:href="#DejaVuSans-112"/>
      <use x="358.398438" xlink:href="#DejaVuSans-97"/>
      <use x="419.677734" xlink:href="#DejaVuSans-99"/>
      <use x="474.658203" xlink:href="#DejaVuSans-101"/>
     </g>
    </g>
    <g id="patch_12">
     <path d="M 536.621875 140.110937 
L 556.621875 140.110937 
L 556.621875 133.110937 
L 536.621875 133.110937 
z
" style="fill:#808080;stroke:#808080;stroke-linejoin:miter;"/>
    </g>
    <g id="text_38">
     <!-- LO space -->
     <g transform="translate(564.621875 140.110937)scale(0.1 -0.1)">
      <defs>
       <path d="M 9.8125 72.90625 
L 19.671875 72.90625 
L 19.671875 8.296875 
L 55.171875 8.296875 
L 55.171875 0 
L 9.8125 0 
z
" id="DejaVuSans-76"/>
      </defs>
      <use xlink:href="#DejaVuSans-76"/>
      <use x="52.087891" xlink:href="#DejaVuSans-79"/>
      <use x="130.798828" xlink:href="#DejaVuSans-32"/>
      <use x="162.585938" xlink:href="#DejaVuSans-115"/>
      <use x="214.685547" xlink:href="#DejaVuSans-112"/>
      <use x="278.162109" xlink:href="#DejaVuSans-97"/>
      <use x="339.441406" xlink:href="#DejaVuSans-99"/>
      <use x="394.421875" xlink:href="#DejaVuSans-101"/>
     </g>
    </g>
    <g id="patch_13">
     <path d="M 536.621875 154.789062 
L 556.621875 154.789062 
L 556.621875 147.789062 
L 536.621875 147.789062 
z
" style="fill:#ffc0cb;stroke:#ffc0cb;stroke-linejoin:miter;"/>
    </g>
    <g id="text_39">
     <!-- Code LO space -->
     <g transform="translate(564.621875 154.789062)scale(0.1 -0.1)">
      <use xlink:href="#DejaVuSans-67"/>
      <use x="69.824219" xlink:href="#DejaVuSans-111"/>
      <use x="131.005859" xlink:href="#DejaVuSans-100"/>
      <use x="194.482422" xlink:href="#DejaVuSans-101"/>
      <use x="256.005859" xlink:href="#DejaVuSans-32"/>
      <use x="287.792969" xlink:href="#DejaVuSans-76"/>
      <use x="339.880859" xlink:href="#DejaVuSans-79"/>
      <use x="418.591797" xlink:href="#DejaVuSans-32"/>
      <use x="450.378906" xlink:href="#DejaVuSans-115"/>
      <use x="502.478516" xlink:href="#DejaVuSans-112"/>
      <use x="565.955078" xlink:href="#DejaVuSans-97"/>
      <use x="627.234375" xlink:href="#DejaVuSans-99"/>
      <use x="682.214844" xlink:href="#DejaVuSans-101"/>
     </g>
    </g>
    <g id="patch_14">
     <path d="M 536.621875 169.467188 
L 556.621875 169.467188 
L 556.621875 162.467188 
L 536.621875 162.467188 
z
" style="fill:#00ffff;stroke:#00ffff;stroke-linejoin:miter;"/>
    </g>
    <g id="text_40">
     <!-- New LO space -->
     <g transform="translate(564.621875 169.467188)scale(0.1 -0.1)">
      <use xlink:href="#DejaVuSans-78"/>
      <use x="74.804688" xlink:href="#DejaVuSans-101"/>
      <use x="136.328125" xlink:href="#DejaVuSans-119"/>
      <use x="218.115234" xlink:href="#DejaVuSans-32"/>
      <use x="249.902344" xlink:href="#DejaVuSans-76"/>
      <use x="301.990234" xlink:href="#DejaVuSans-79"/>
      <use x="380.701172" xlink:href="#DejaVuSans-32"/>
      <use x="412.488281" xlink:href="#DejaVuSans-115"/>
      <use x="464.587891" xlink:href="#DejaVuSans-112"/>
      <use x="528.064453" xlink:href="#DejaVuSans-97"/>
      <use x="589.34375" xlink:href="#DejaVuSans-99"/>
      <use x="644.324219" xlink:href="#DejaVuSans-101"/>
     </g>
    </g>
    <g id="patch_15">
     <path d="M 536.621875 184.145312 
L 556.621875 184.145312 
L 556.621875 177.145312 
L 536.621875 177.145312 
z
" style="fill:#808000;stroke:#808000;stroke-linejoin:miter;"/>
    </g>
    <g id="text_41">
     <!-- RO space -->
     <g transform="translate(564.621875 184.145312)scale(0.1 -0.1)">
      <defs>
       <path d="M 44.390625 34.1875 
Q 47.5625 33.109375 50.5625 29.59375 
Q 53.5625 26.078125 56.59375 19.921875 
L 66.609375 0 
L 56 0 
L 46.6875 18.703125 
Q 43.0625 26.03125 39.671875 28.421875 
Q 36.28125 30.8125 30.421875 30.8125 
L 19.671875 30.8125 
L 19.671875 0 
L 9.8125 0 
L 9.8125 72.90625 
L 32.078125 72.90625 
Q 44.578125 72.90625 50.734375 67.671875 
Q 56.890625 62.453125 56.890625 51.90625 
Q 56.890625 45.015625 53.6875 40.46875 
Q 50.484375 35.9375 44.390625 34.1875 
z
M 19.671875 64.796875 
L 19.671875 38.921875 
L 32.078125 38.921875 
Q 39.203125 38.921875 42.84375 42.21875 
Q 46.484375 45.515625 46.484375 51.90625 
Q 46.484375 58.296875 42.84375 61.546875 
Q 39.203125 64.796875 32.078125 64.796875 
z
" id="DejaVuSans-82"/>
      </defs>
      <use xlink:href="#DejaVuSans-82"/>
      <use x="69.482422" xlink:href="#DejaVuSans-79"/>
      <use x="148.193359" xlink:href="#DejaVuSans-32"/>
      <use x="179.980469" xlink:href="#DejaVuSans-115"/>
      <use x="232.080078" xlink:href="#DejaVuSans-112"/>
      <use x="295.556641" xlink:href="#DejaVuSans-97"/>
      <use x="356.835938" xlink:href="#DejaVuSans-99"/>
      <use x="411.816406" xlink:href="#DejaVuSans-101"/>
     </g>
    </g>
    <g id="patch_16">
     <path d="M 536.621875 198.823437 
L 556.621875 198.823437 
L 556.621875 191.823437 
L 536.621875 191.823437 
z
" style="fill:#ffa500;stroke:#ffa500;stroke-linejoin:miter;"/>
    </g>
    <g id="text_42">
     <!-- Live Object -->
     <g transform="translate(564.621875 198.823437)scale(0.1 -0.1)">
      <use xlink:href="#DejaVuSans-76"/>
      <use x="55.712891" xlink:href="#DejaVuSans-105"/>
      <use x="83.496094" xlink:href="#DejaVuSans-118"/>
      <use x="142.675781" xlink:href="#DejaVuSans-101"/>
      <use x="204.199219" xlink:href="#DejaVuSans-32"/>
      <use x="235.986328" xlink:href="#DejaVuSans-79"/>
      <use x="314.697266" xlink:href="#DejaVuSans-98"/>
      <use x="378.173828" xlink:href="#DejaVuSans-106"/>
      <use x="405.957031" xlink:href="#DejaVuSans-101"/>
      <use x="467.480469" xlink:href="#DejaVuSans-99"/>
      <use x="522.460938" xlink:href="#DejaVuSans-116"/>
     </g>
    </g>
   </g>
  </g>
 </g>
 <defs>
  <clipPath id="p6ad51a376b">
   <rect height="415.8" width="558" x="90" y="64.8"/>
  </clipPath>
 </defs>
</svg>
